<?xml version="1.0" encoding="utf-8"?>
<!-- Generator: Adobe Illustrator 16.0.0, SVG Export Plug-In . SVG Version: 6.00 Build 0)  -->
<!DOCTYPE svg PUBLIC "-//W3C//DTD SVG 1.1//EN" "http://www.w3.org/Graphics/SVG/1.1/DTD/svg11.dtd">
<svg version="1.1" id="Layer_1" xmlns="http://www.w3.org/2000/svg" xmlns:xlink="http://www.w3.org/1999/xlink" x="0px" y="0px"
	 width="303.33px" height="303.33px" viewBox="22.63 91.554 303.33 303.33" enable-background="new 22.63 91.554 303.33 303.33"
	 xml:space="preserve">
<desc>Created with Fabric.js 1.6.0-rc.1</desc>
<g>
	<g>
		<path fill="#5D5557" d="M265.538,316.715c-0.276,0-0.5-0.224-0.5-0.5v-63.371h-81.12v63.371c0,0.276-0.224,0.5-0.5,0.5h-18.247
			c-0.276,0-0.5-0.224-0.5-0.5v-63.371H83.55v63.371c0,0.276-0.224,0.5-0.5,0.5H64.802c-0.276,0-0.5-0.224-0.5-0.5v-82.119
			c0-0.276,0.224-0.5,0.5-0.5h99.869v-63.373c0-0.276,0.224-0.5,0.5-0.5h18.247c0.276,0,0.5,0.224,0.5,0.5v63.373h99.869
			c0.276,0,0.5,0.224,0.5,0.5v82.119c0,0.276-0.224,0.5-0.5,0.5H265.538z"/>
		<path d="M183.418,170.223v63.873h100.369v82.119h-18.249v-63.871h-82.12v63.871h-18.247v-63.871H83.05v63.871H64.802v-82.119
			h100.369v-63.873H183.418 M183.418,169.223h-18.247c-0.552,0-1,0.448-1,1v62.873H64.802c-0.552,0-1,0.447-1,1v82.119
			c0,0.553,0.448,1,1,1H83.05c0.552,0,1-0.447,1-1v-62.871h80.121v62.871c0,0.553,0.448,1,1,1h18.247c0.553,0,1-0.447,1-1v-62.871
			h80.12v62.871c0,0.553,0.447,1,1,1h18.249c0.553,0,1-0.447,1-1v-82.119c0-0.553-0.447-1-1-1h-99.369v-62.873
			C184.418,169.671,183.971,169.223,183.418,169.223L183.418,169.223z"/>
	</g>
	<g>
		<path fill="#069A49" d="M146.922,172.223c-6.134,0-11.125-4.99-11.125-11.125v-54.746c0-6.134,4.991-11.125,11.125-11.125h54.745
			c6.135,0,11.125,4.99,11.125,11.125v54.746c0,6.134-4.99,11.125-11.125,11.125H146.922z"/>
		<path d="M201.667,97.229c5.047,0,9.125,4.088,9.125,9.125v54.746c0,5.045-4.08,9.125-9.125,9.125h-54.745
			c-5.046,0-9.125-4.08-9.125-9.125v-54.746c0-5.037,4.079-9.125,9.125-9.125H201.667 M201.667,93.229h-54.745
			c-7.237,0-13.125,5.888-13.125,13.125v54.746c0,7.237,5.888,13.125,13.125,13.125h54.745c7.237,0,13.125-5.888,13.125-13.125
			v-54.746C214.792,99.116,208.904,93.229,201.667,93.229L201.667,93.229z"/>
	</g>
	<g>
		<path fill="#2E4FA2" d="M46.553,391.209c-6.134,0-11.124-4.99-11.124-11.123V325.34c0-6.135,4.99-11.125,11.124-11.125h54.746
			c2.975,0,5.77,1.157,7.87,3.259c2.099,2.101,3.255,4.895,3.254,7.866v54.746c0,6.133-4.99,11.123-11.124,11.123H46.553z"/>
		<path d="M101.299,316.215c5.047,0,9.125,4.086,9.124,9.125v54.746c0,5.045-4.078,9.123-9.124,9.123H46.553
			c-5.046,0-9.124-4.078-9.124-9.123V325.34c0-5.039,4.078-9.125,9.124-9.125H101.299 M101.299,312.215H46.553
			c-7.237,0-13.124,5.888-13.124,13.125v54.746c0,7.236,5.887,13.123,13.124,13.123h54.746c7.237,0,13.124-5.887,13.124-13.123
			V325.34c0-3.506-1.363-6.801-3.84-9.279C108.105,313.581,104.808,312.215,101.299,312.215L101.299,312.215z"/>
	</g>
	<g>
		<path fill="#2E4FA2" d="M247.289,391.209c-6.135,0-11.125-4.99-11.125-11.123V325.34c0-6.135,4.99-11.125,11.125-11.125h54.748
			c6.134,0,11.124,4.99,11.124,11.125v54.746c0,6.133-4.991,11.123-11.126,11.123H247.289z"/>
		<path d="M302.037,316.215c5.047,0,9.124,4.086,9.124,9.125v54.746c0,5.045-4.08,9.123-9.126,9.123h-54.746
			c-5.045,0-9.125-4.078-9.125-9.123V325.34c0-5.039,4.08-9.125,9.125-9.125H302.037 M302.037,312.215h-54.748
			c-7.237,0-13.125,5.888-13.125,13.125v54.746c0,7.236,5.888,13.123,13.125,13.123h54.746c7.237,0,13.126-5.887,13.126-13.123
			V325.34C315.161,318.103,309.273,312.215,302.037,312.215L302.037,312.215z"/>
	</g>
	<g>
		<path fill="#BF2026" d="M146.922,391.209c-6.134,0-11.125-4.99-11.125-11.123V325.34c0-6.135,4.991-11.125,11.125-11.125h54.745
			c6.135,0,11.125,4.99,11.125,11.125v54.746c0,6.133-4.99,11.123-11.125,11.123H146.922z"/>
		<path d="M201.667,316.215c5.047,0,9.125,4.086,9.125,9.125v54.746c0,5.045-4.08,9.123-9.125,9.123h-54.745
			c-5.046,0-9.125-4.078-9.125-9.123V325.34c0-5.039,4.079-9.125,9.125-9.125H201.667 M201.667,312.215h-54.745
			c-7.237,0-13.125,5.888-13.125,13.125v54.746c0,7.236,5.888,13.123,13.125,13.123h54.745c7.237,0,13.125-5.887,13.125-13.123
			V325.34C214.792,318.103,208.904,312.215,201.667,312.215L201.667,312.215z"/>
	</g>
</g>
</svg>
