<svg xmlns="http://www.w3.org/2000/svg" viewBox="0 0 128 128"><defs><style>.cls-1{fill:#707ae4;}.cls-2{opacity:0.75;}.cls-3{fill:#fff;}.cls-4{opacity:0.9;}.cls-5{opacity:0.1;}.cls-6{opacity:0.5;}.cls-7{fill:none;}.cls-8{fill:#331e38;}</style></defs><title>_user</title><g id="user"><g id="shock_color"><path class="cls-1" d="M30.64,52.78C31.35,55.89,34.59,56,35,56h1.5v6.16c.07.54.16,1.18.21,1.44A17.7,17.7,0,0,0,43,70.92l.28.17A12.77,12.77,0,0,0,48.94,73H62c6.3,0,7.4-7.71,7.5-8.58V53.33c-.51,1-1.93,1.17-3,1.17A1.5,1.5,0,0,1,65,53.06a8.46,8.46,0,0,0-2,.36A1.5,1.5,0,1,1,62,50.58c.37-.12,3.66-1.16,6.15.08a2.86,2.86,0,0,1,1.33,1.15V48.13a11,11,0,0,0-7.71-1.66,1.5,1.5,0,0,1-.58-2.94,14.33,14.33,0,0,1,8.29,1.12V35H41a2.09,2.09,0,0,0-.43,0l-.11,0-.23.08-.12.07-.14.1-.11.12-.07.08a1.28,1.28,0,0,0-.11.19v0a2,2,0,0,0-.16.77V50a1.5,1.5,0,0,1-3,0V48.64A4.75,4.75,0,0,0,34.6,48c-.2,0-.4,0-.6,0a3.7,3.7,0,0,0-2.92,1.41A16.6,16.6,0,0,0,30.64,52.78ZM48,53.42A1.5,1.5,0,1,1,47,50.58c.37-.12,3.66-1.16,6.15.08,1.49.75,1.62,1.66,1.47,2.3-.33,1.38-2,1.54-3.14,1.54A1.5,1.5,0,0,1,50,53.06,8.46,8.46,0,0,0,48,53.42ZM63.6,60.8a1.5,1.5,0,0,1,1.8,2.4,13.26,13.26,0,0,1-8,3,12.16,12.16,0,0,1-7.93-3.1,1.5,1.5,0,0,1,2.12-2.13C51.77,61.14,56.78,65.91,63.6,60.8Zm-19-15a13.83,13.83,0,0,1,10.19-2.27,1.5,1.5,0,0,1-.58,2.94A10.94,10.94,0,0,0,46.4,48.2a1.5,1.5,0,1,1-1.8-2.4Z"/><path class="cls-1" d="M49,76a14.11,14.11,0,0,1-5-1.16V78a6.83,6.83,0,0,1-3.6,5.87c0,.06,0,.13,0,.19.07.26.17.52.26.77s.16.47.26.7.22.45.34.67.24.48.37.7.25.36.37.54.33.49.51.72.23.25.34.38.45.51.7.75l.23.2a11.66,11.66,0,0,0,3.57,2.22c1.93-3.61,5.24-4.21,8.39-4.21h5.16l.08-.11.15-.24c.19-.3.38-.6.54-.92.08-.16.15-.32.22-.48s.23-.51.33-.78.13-.38.19-.58.15-.51.21-.77c0-.1,0-.21.06-.31C60,80.41,60,79.43,60,79V76Z"/><path class="cls-1" d="M65.2,85.65c-.05.16-.11.31-.17.47s-.19.47-.3.71-.18.41-.28.61l0,.07h4.25a31,31,0,0,0-3.31-2.3C65.32,85.35,65.26,85.5,65.2,85.65Z"/><path class="cls-1" d="M53.31,94.62c.09-.37.19-.73.3-1.07h0c.11-.34.23-.65.35-.95l.09-.21c.13-.29.26-.57.41-.83h0c.14-.26.3-.49.46-.72l.11-.16.11-.16c-3.4.11-5.41,1.24-6.17,6l-2.79,23h4L53,96.1c.07-.42.15-.82.23-1.2Z"/><path class="cls-1" d="M46.32,94.51A14.6,14.6,0,0,1,43.38,93l0,0a14.76,14.76,0,0,1-1.28-1L42,91.87a14.7,14.7,0,0,1-2.14-2.33l-.15-.21a14.57,14.57,0,0,1-.81-1.27l-.1-.18q-.33-.61-.61-1.26l-.1-.22A14.22,14.22,0,0,1,37.58,85l0-.14c-4,1.21-10.83,3.91-12.3,4.5C24.72,89.64,21,92.15,21,95v13c0,.27.63.5,1.5.5h7.94a3.51,3.51,0,0,1,1.06.18V105.5a1.5,1.5,0,0,1,3,0v14H43l3-23.4c.09-.57.2-1.09.33-1.58Z"/><path class="cls-1" d="M29.44,111.5H23v8h7v-7.44A.56.56,0,0,0,29.44,111.5Z"/><path class="cls-1" d="M101.22,90.5H62.78c-3.79,0-6,1-6.8,6l-2.79,23h50L107,96.17A5.79,5.79,0,0,0,101.22,90.5ZM89.76,112.63a1.5,1.5,0,1,1-2.06,2.18l-1-.93a11.08,11.08,0,0,1-6.12,1.95,9.42,9.42,0,0,1-4.41-1.08c-.27-.14-.51-.31-.76-.47l-.5.5a1.5,1.5,0,1,1-2.12-2.12l.38-.38a9.53,9.53,0,0,1-.35-11.49l-.89-.84A1.5,1.5,0,1,1,74,97.76l.93.88a9.49,9.49,0,0,1,5.7-1.9,11,11,0,0,1,6.12,2l.92-.92a1.5,1.5,0,0,1,2.12,2.12l-.81.81a9.68,9.68,0,0,1,.75,1,8.32,8.32,0,0,1,.45,8.29A8.84,8.84,0,0,1,89,111.88Z"/><path class="cls-1" d="M84.59,100.87a7.86,7.86,0,0,0-4-1.14,6.5,6.5,0,0,0-3.47,1l3.89,3.67Z"/><path class="cls-1" d="M86.84,102.87l-3.6,3.6,3.55,3.35a5.81,5.81,0,0,0,.7-1.08,5.35,5.35,0,0,0-.29-5.4C87.08,103.18,87,103,86.84,102.87Z"/><path class="cls-1" d="M77.61,112.1a7,7,0,0,0,6.85-.35l-3.34-3.15Z"/><path class="cls-1" d="M75,102.87a6.49,6.49,0,0,0,.29,7.26l3.59-3.59Z"/><path class="cls-1" d="M57,12.8v-.25a2.05,2.05,0,0,1,2.05-2.05h-3.5a.55.55,0,0,0-.55.55V12.5h.95A2,2,0,0,1,57,12.8Z"/><path class="cls-1" d="M37.5,10.05a2,2,0,0,1,.72-1.55H36.55a.55.55,0,0,0-.55.55V16h1.5Z"/><path class="cls-1" d="M30.15,25h.65a2,2,0,0,1-.3-1.05V18.05a2,2,0,0,1,.72-1.55H29.55a.55.55,0,0,0-.55.55v5.89a.54.54,0,0,0,.08.28Z"/><path class="cls-1" d="M21.55,46.5h.95V41.05a2,2,0,0,1,.72-1.55H21.55a.55.55,0,0,0-.55.55v5.89A.55.55,0,0,0,21.55,46.5Z"/><path class="cls-1" d="M27.45,39h0a2,2,0,0,1-1.95-2V27.05a2,2,0,0,1,.72-1.55H24.55a.55.55,0,0,0-.55.55v9.89c0,2.55.55,3.05.55,3.05Z"/><path class="cls-1" d="M62.55,21.5h.95V20H62v.95A.55.55,0,0,0,62.55,21.5Z"/><path class="cls-1" d="M26,50.95a.55.55,0,0,0,.55.55h.95V49.05s0,0,0-.05H26Z"/><path class="cls-1" d="M76.55,47.5h.95V42.05c0-.92.61-1.29,1.44-1.55l.4-.72a1.23,1.23,0,0,0,.15-.6V31.05s0,0,0-.05h-1a2,2,0,0,1-.55-.08v9.56l-1.47,0a.55.55,0,0,0-.54.55v5.89A.55.55,0,0,0,76.55,47.5Z"/></g><g class="cls-2"><path class="cls-3" d="M59.5,86c-2-2-3-3-3-5,0-1.56,2.43-1.9,3.5-2V76H49a14.11,14.11,0,0,1-5-1.16V78a6.83,6.83,0,0,1-3.6,5.87c0,.06,0,.13,0,.19.07.26.17.52.26.77s.16.47.26.7.22.45.34.67.24.48.37.7.25.36.37.54.33.49.51.72.23.25.34.38.45.51.7.75l.23.2a11.66,11.66,0,0,0,3.57,2.22c1.93-3.61,5.24-4.21,8.39-4.21h5.16l0,0Z"/><path class="cls-3" d="M47.5,58s-4,0-4-4V35H41a2.09,2.09,0,0,0-.43,0l-.11,0-.23.08-.12.07-.14.1-.11.12-.07.08a1.28,1.28,0,0,0-.11.19v0a2,2,0,0,0-.16.77V50a1.5,1.5,0,0,1-3,0V48.64A4.75,4.75,0,0,0,34.6,48h0c-.2,0-.4,0-.59,0h-.23l-.22,0-.16,0-.23,0-.14,0-.24.07-.16.06-.25.1-.17.08-.25.14-.16.1-.25.21-.13.11a2.82,2.82,0,0,0-.33.4h0a5.78,5.78,0,0,0-.16.7v0c0,.1,0,.22-.05.33l0,.16c0,.34-.09.69-.13,1h0c0,.31-.05.58-.06.8v.05c0,.11,0,.2,0,.27a4.53,4.53,0,0,0,.15.53v0a4,4,0,0,0,.19.43v.05a3.69,3.69,0,0,0,.25.41h0a3.61,3.61,0,0,0,.49.55l.07.07a3.91,3.91,0,0,0,.52.39l.1.06a4.51,4.51,0,0,0,.54.27l.08,0a5.26,5.26,0,0,0,.54.19h0l.3.07h0l.25,0h.06l.21,0h2v6.16l.06.47h0l.06.45,0,.3,0,.13,0,.1c.26.53.53,1,.81,1.49l.11.17.18.28c.19.3.38.59.57.87l.1.13.26.36c.17.23.35.45.53.67l.29.35.11.13.46.5c.32.34.65.65,1,.94l.05,0c.33.29.66.56,1,.8l.08.06.06,0c.24.17.48.34.72.49h0l.28.17A13.93,13.93,0,0,0,47,72.68h0l.67.15.15,0,.41.07.22,0,.19,0,.24,0H62a7,7,0,0,0,1-.08l.2,0a6.28,6.28,0,0,0,.87-.21l.14-.05a6,6,0,0,0,.72-.31l.12-.06a6.11,6.11,0,0,0,.69-.44l.14-.11a6.79,6.79,0,0,0,.62-.53h0a7.56,7.56,0,0,0,.54-.6l.13-.17c.14-.19.28-.37.41-.57l.05-.08c.14-.22.27-.44.39-.67l.09-.17c.1-.19.19-.38.27-.57l.06-.13c.1-.22.19-.45.27-.67l.05-.15c.06-.18.12-.36.18-.53l0-.14c.06-.2.12-.4.16-.59l0-.11c0-.15.07-.3.1-.44l0-.12c0-.16.06-.3.08-.43v0l0-.31v-.07l0-.2V58Zm17.9,5.2a13.26,13.26,0,0,1-8,3,12.16,12.16,0,0,1-7.93-3.1,1.5,1.5,0,0,1,2.12-2.13c.21.21,5.23,5,12-.13a1.5,1.5,0,0,1,1.8,2.4Z"/><rect class="cls-3" x="23" y="111.5" width="3" height="8"/></g><g class="cls-4"><path class="cls-3" d="M61.21,43.53a14.33,14.33,0,0,1,8.29,1.12V35h-26V54c0,4,4,4,4,4h22V53.33c-.51,1-1.93,1.17-3,1.17A1.5,1.5,0,0,1,65,53.06a8.46,8.46,0,0,0-2,.36A1.5,1.5,0,1,1,62,50.58c.37-.12,3.66-1.16,6.15.08a2.86,2.86,0,0,1,1.33,1.15V48.13a11,11,0,0,0-7.71-1.66,1.5,1.5,0,0,1-.58-2.94ZM54.64,53c-.33,1.38-2,1.54-3.14,1.54A1.5,1.5,0,0,1,50,53.06a8.46,8.46,0,0,0-2,.36A1.5,1.5,0,1,1,47,50.58c.37-.12,3.66-1.16,6.15.08C54.66,51.4,54.79,52.32,54.64,53ZM56,45.29a1.5,1.5,0,0,1-1.76,1.18A10.94,10.94,0,0,0,46.4,48.2a1.5,1.5,0,1,1-1.8-2.4,13.83,13.83,0,0,1,10.19-2.27A1.5,1.5,0,0,1,56,45.29Z"/><path class="cls-3" d="M29.44,111.5H26v8h4v-7.44A.56.56,0,0,0,29.44,111.5Z"/><path class="cls-3" d="M62.26,82.81l-.17-.2-.25-.28-.13-.16-.23-.28-.1-.13-.21-.27-.07-.1-.19-.27-.05-.08-.17-.25,0-.07-.14-.22,0-.07-.11-.2,0-.06L60.23,80l0-.06-.06-.15,0-.06,0-.12,0-.06,0-.1V79.1S60,79,60,79c-1.07.08-3.5.42-3.5,2,0,2,1,3,3,5L61,87.47l0-.06.14-.23,0,0q.27-.42.5-.86L61.8,86l.13-.27c.11-.23.21-.47.3-.71l.05-.14c.06-.17.11-.34.17-.5s.15-.51.21-.77c0-.1,0-.21.06-.31l-.24-.26Z"/><path class="cls-3" d="M65.36,85.2c-.09.28-.19.56-.29.83.6.44,1.22.94,1.83,1.46h1.78c-.6-.48-1.2-.92-1.77-1.3S65.82,85.48,65.36,85.2Z"/></g><g class="cls-5"><ellipse cx="47" cy="62" rx="1.5" ry="2"/><ellipse cx="59" cy="69" rx="3.5" ry="2"/><ellipse cx="67.5" cy="62.5" rx="1.5" ry="2"/></g><g class="cls-2"><path class="cls-3" d="M38.87,88.06h0l-.1-.18c-.15-.28-.28-.57-.41-.86s-.19-.37-.27-.57l0-.05A14.22,14.22,0,0,1,37.58,85l0-.14c-3.08.94-7.9,2.77-10.53,3.8l-.24.09-.25.1-1.29.51a11.14,11.14,0,0,0-3.88,4.12A3.92,3.92,0,0,0,21,95v13c0,.27.63.5,1.5.5H25v-10c0-3.55,3.94-6.31,4.83-6.89a1.91,1.91,0,0,1,.35-.18c.88-.35,5-2,8.73-3.3Z"/><path class="cls-3" d="M35.94,109.5H34.5v10H38v-7.94A2.06,2.06,0,0,0,35.94,109.5Z"/></g><g class="cls-6"><path class="cls-7" d="M89.73,101.75a9.68,9.68,0,0,0-.75-1l.81-.81a1.5,1.5,0,0,0-2.12-2.12l-.92.92a11,11,0,0,0-6.12-2,9.49,9.49,0,0,0-5.7,1.9L74,97.76a1.5,1.5,0,1,0-2.06,2.18l.89.84a9.53,9.53,0,0,0,.35,11.49l-.38.38a1.5,1.5,0,1,0,2.12,2.12l.5-.5c.25.16.5.33.76.47a9.42,9.42,0,0,0,4.41,1.08,11.08,11.08,0,0,0,6.12-1.95l1,.93a1.5,1.5,0,0,0,2.06-2.18l-.79-.75A8.84,8.84,0,0,0,90.18,110,8.32,8.32,0,0,0,89.73,101.75Zm-9.1-2a7.86,7.86,0,0,1,4,1.14l-3.54,3.54-3.89-3.67A6.5,6.5,0,0,1,80.63,99.73Zm-5.29,10.39a6.49,6.49,0,0,1-.29-7.26l3.88,3.66Zm2.27,2,3.51-3.51,3.34,3.15A7,7,0,0,1,77.61,112.1Zm9.88-3.36a5.81,5.81,0,0,1-.7,1.08l-3.55-3.35,3.6-3.6c.12.16.25.31.35.48A5.35,5.35,0,0,1,87.48,108.74Z"/><path class="cls-3" d="M65.07,86c.1-.27.21-.55.29-.83.45.27,1,.61,1.55,1-.56-.39-1.09-.72-1.55-1,0,.15-.11.3-.16.45s-.11.31-.17.47-.19.47-.3.71-.18.41-.28.61l0,.07H66.9C66.29,87,65.68,86.48,65.07,86Z"/><path class="cls-3" d="M43.38,93l0,0a14.76,14.76,0,0,1-1.28-1L42,91.87a14.7,14.7,0,0,1-2.14-2.33l-.15-.21a14.61,14.61,0,0,1-.81-1.27l0,.07c-3.75,1.33-7.85,2.95-8.73,3.3a1.91,1.91,0,0,0-.35.18c-.88.58-4.83,3.34-4.83,6.89v10h5.44a3.51,3.51,0,0,1,1.06.18V105.5a1.5,1.5,0,0,1,3,0v4h1.44A2.06,2.06,0,0,1,38,111.56v7.94h5l3-23.4c.09-.57.2-1.09.33-1.58h0A14.6,14.6,0,0,1,43.38,93Z"/><path class="cls-3" d="M101.22,90.5H62.78c-3.79,0-6,1-6.8,6l-2.79,23h50L107,96.17A5.79,5.79,0,0,0,101.22,90.5ZM89.76,112.63a1.5,1.5,0,1,1-2.06,2.18l-1-.93a11.08,11.08,0,0,1-6.12,1.95,9.42,9.42,0,0,1-4.41-1.08c-.27-.14-.51-.31-.76-.47l-.5.5a1.5,1.5,0,1,1-2.12-2.12l.38-.38a9.53,9.53,0,0,1-.35-11.49l-.89-.84A1.5,1.5,0,1,1,74,97.76l.93.88a9.49,9.49,0,0,1,5.7-1.9,11,11,0,0,1,6.12,2l.92-.92a1.5,1.5,0,0,1,2.12,2.12l-.81.81a9.68,9.68,0,0,1,.75,1,8.32,8.32,0,0,1,.45,8.29A8.84,8.84,0,0,1,89,111.88Z"/><path class="cls-3" d="M84.59,100.87a7.86,7.86,0,0,0-4-1.14,6.5,6.5,0,0,0-3.47,1l3.89,3.67Z"/><path class="cls-3" d="M86.84,102.87l-3.6,3.6,3.55,3.35a5.81,5.81,0,0,0,.7-1.08,5.35,5.35,0,0,0-.29-5.4C87.08,103.18,87,103,86.84,102.87Z"/><path class="cls-3" d="M77.61,112.1a7,7,0,0,0,6.85-.35l-3.34-3.15Z"/><path class="cls-3" d="M75,102.87a6.49,6.49,0,0,0,.29,7.26l3.59-3.59Z"/><path class="cls-3" d="M68.68,87.5c-.6-.48-1.2-.92-1.77-1.3.56.39,1.17.82,1.77,1.3Z"/></g><path class="cls-8" d="M101.22,87.5H73.07c-.17-.19-.32-.37-.5-.56a32,32,0,0,0-7.16-5.16A16,16,0,0,1,63,78.85V75.94c6.64-.64,9.12-7.55,9.49-11.29V50.5h3A3.56,3.56,0,0,0,79,46.95V42.5h1.45A3.56,3.56,0,0,0,84,38.95V30.05a3.56,3.56,0,0,0-3.55-3.55H78V22.05a3.56,3.56,0,0,0-3.55-3.55H70v-.45a3.56,3.56,0,0,0-3.55-3.55H66V11.05A3.56,3.56,0,0,0,62.45,7.5H56.55a3.56,3.56,0,0,0-3.2,2H51V9.05A3.56,3.56,0,0,0,47.45,5.5H37.55A3.56,3.56,0,0,0,34,9.05V13.5H30.55A3.56,3.56,0,0,0,27,17.05V22.5H25.55A3.56,3.56,0,0,0,22,26.05v9.89a3.54,3.54,0,0,0,0,.59,3.56,3.56,0,0,0-3,3.52v5.89a3.56,3.56,0,0,0,3.55,3.55H24v1.45a3.56,3.56,0,0,0,3.55,3.55H28a7.11,7.11,0,0,0,5.48,4.35v3.58A7.46,7.46,0,0,0,34,64.8a20.9,20.9,0,0,0,7,8.42V78a3.78,3.78,0,0,1-2.73,3.5h0l-.68.19-.3.08-.29.08h0c-4.1,1.21-11.33,4.06-12.86,4.67a3.43,3.43,0,0,0-.62.32C22.21,87.69,18,90.77,18,95v13a3.52,3.52,0,0,0,2,3V122.5h85.78l4.2-26,0-.24A8.79,8.79,0,0,0,101.22,87.5ZM76,41.05a.55.55,0,0,1,.54-.55l1.47,0V30.92a2,2,0,0,0,.55.08h1s0,0,0,.05v8.13a1.23,1.23,0,0,1-.15.6l-.4.72c-.83.26-1.44.63-1.44,1.55V47.5h-.95a.55.55,0,0,1-.55-.55Zm-53.5,0V46.5h-.95a.55.55,0,0,1-.55-.55V40.05a.55.55,0,0,1,.55-.55h1.67A2,2,0,0,0,22.5,41.05ZM24.55,39S24,38.5,24,35.95V26.05a.55.55,0,0,1,.55-.55h1.67a2,2,0,0,0-.72,1.55v9.89a2,2,0,0,0,1.95,2H24.55ZM27.5,49.05V51.5h-.95a.55.55,0,0,1-.55-.55V49h1.51S27.5,49,27.5,49.05Zm37,38.38c.1-.2.19-.4.28-.61s.21-.47.3-.71.11-.31.17-.47.11-.29.16-.45a31,31,0,0,1,3.31,2.3H64.42ZM62,20h1.5v1.49h-.95a.55.55,0,0,1-.55-.55Zm-7-8.95a.55.55,0,0,1,.55-.55h3.5A2.05,2.05,0,0,0,57,12.55v.25a2,2,0,0,0-1.05-.3H55Zm-19-2a.55.55,0,0,1,.55-.55h1.67a2,2,0,0,0-.72,1.55V16H36ZM29.08,23.23a.54.54,0,0,1-.08-.28V17.05a.55.55,0,0,1,.55-.55h1.67a2,2,0,0,0-.72,1.55v5.89A2,2,0,0,0,30.8,25h-.65ZM36.71,63.6c-.05-.26-.14-.9-.21-1.44V56H35c-.41,0-3.65-.11-4.36-3.22a16.6,16.6,0,0,1,.43-3.37A3.7,3.7,0,0,1,34,48c.19,0,.39,0,.6,0a4.75,4.75,0,0,1,1.9.61V50a1.5,1.5,0,0,0,3,0V36.52a2,2,0,0,1,.16-.77v0a1.28,1.28,0,0,1,.11-.19l.07-.08.11-.12.14-.1.12-.07.23-.08.11,0A2.09,2.09,0,0,1,41,35H69.5v9.65a14.33,14.33,0,0,0-8.29-1.12,1.5,1.5,0,0,0,.58,2.94,11,11,0,0,1,7.71,1.66v3.68a2.86,2.86,0,0,0-1.33-1.15c-2.48-1.24-5.78-.2-6.15-.08A1.5,1.5,0,1,0,63,53.42a8.46,8.46,0,0,1,2-.36,1.5,1.5,0,0,0,1.5,1.44c1.07,0,2.49-.14,3-1.17V64.42C69.4,65.29,68.3,73,62,73H48.94a12.77,12.77,0,0,1-5.67-1.9L43,70.92A17.7,17.7,0,0,1,36.71,63.6ZM44,78V74.84A14.11,14.11,0,0,0,49,76H60v3c0,.43,0,1.41,2.73,4.32,0,.1,0,.21-.06.31-.06.26-.13.52-.21.77s-.12.39-.19.58-.21.52-.33.78-.14.32-.22.48c-.16.32-.35.62-.54.92l-.15.24-.08.11H55.78c-3.16,0-6.46.6-8.39,4.21a11.66,11.66,0,0,1-3.57-2.22l-.23-.2c-.25-.23-.47-.49-.7-.75s-.23-.25-.34-.38-.35-.48-.51-.72-.26-.35-.37-.54-.25-.47-.37-.7-.24-.44-.34-.67-.18-.47-.26-.7-.19-.51-.26-.77c0-.06,0-.13,0-.19A6.83,6.83,0,0,0,44,78ZM30,119.5H23v-8h6.44a.56.56,0,0,1,.56.56Zm13,0H34.5v-14a1.5,1.5,0,0,0-3,0v3.18a3.51,3.51,0,0,0-1.06-.18H22.5c-.87,0-1.46-.23-1.5-.5V95c0-2.85,3.72-5.36,4.23-5.67,1.47-.59,8.32-3.28,12.3-4.5l0,.14a14.22,14.22,0,0,0,.49,1.42l.1.22q.27.65.61,1.26l.1.18a14.57,14.57,0,0,0,.81,1.27l.15.21A14.7,14.7,0,0,0,42,91.87l.08.07a14.76,14.76,0,0,0,1.28,1l0,0a14.6,14.6,0,0,0,2.94,1.55h0c-.12.5-.24,1-.33,1.58Zm7.17,0h-4l2.79-23c.76-4.77,2.76-5.89,6.17-6l-.11.16-.11.16c-.16.23-.31.46-.46.72h0c-.14.26-.28.54-.41.83L54,92.6c-.13.3-.25.61-.35.95h0c-.11.33-.2.69-.3,1.07l-.07.28c-.09.38-.17.78-.23,1.2Zm53.05,0h-50l2.79-23c.81-5.06,3-6,6.8-6h38.44A5.79,5.79,0,0,1,107,96.17Z"/><path class="cls-8" d="M51.5,54.5c1.19,0,2.82-.16,3.14-1.54.15-.64,0-1.55-1.47-2.3-2.49-1.24-5.78-.2-6.15-.08A1.5,1.5,0,1,0,48,53.42a8.46,8.46,0,0,1,2-.36A1.5,1.5,0,0,0,51.5,54.5Z"/><path class="cls-8" d="M49.44,60.94a1.5,1.5,0,0,0,0,2.12,12.16,12.16,0,0,0,7.93,3.1,13.26,13.26,0,0,0,8-3,1.5,1.5,0,0,0-1.8-2.4c-6.82,5.11-11.83.34-12,.13A1.5,1.5,0,0,0,49.44,60.94Z"/><path class="cls-8" d="M45.5,48.5a1.5,1.5,0,0,0,.9-.3,10.94,10.94,0,0,1,7.81-1.73,1.5,1.5,0,0,0,.58-2.94A13.83,13.83,0,0,0,44.6,45.8a1.5,1.5,0,0,0,.9,2.7Z"/><path class="cls-8" d="M89.73,101.75a9.68,9.68,0,0,0-.75-1l.81-.81a1.5,1.5,0,0,0-2.12-2.12l-.92.92a11,11,0,0,0-6.12-2,9.49,9.49,0,0,0-5.7,1.9L74,97.76a1.5,1.5,0,1,0-2.06,2.18l.89.84a9.53,9.53,0,0,0,.35,11.49l-.38.38a1.5,1.5,0,1,0,2.12,2.12l.5-.5c.25.16.5.33.76.47a9.42,9.42,0,0,0,4.41,1.08,11.08,11.08,0,0,0,6.12-1.95l1,.93a1.5,1.5,0,0,0,2.06-2.18l-.79-.75A8.84,8.84,0,0,0,90.18,110,8.32,8.32,0,0,0,89.73,101.75Zm-9.1-2a7.86,7.86,0,0,1,4,1.14l-3.54,3.54-3.89-3.67A6.5,6.5,0,0,1,80.63,99.73Zm-5.29,10.39a6.49,6.49,0,0,1-.29-7.26l3.88,3.66Zm2.27,2,3.51-3.51,3.34,3.15A7,7,0,0,1,77.61,112.1Zm9.88-3.36a5.81,5.81,0,0,1-.7,1.08l-3.55-3.35,3.6-3.6c.12.16.25.31.35.48A5.35,5.35,0,0,1,87.48,108.74Z"/></g></svg>