<?xml version="1.0" encoding="utf-8"?>
<!-- Generator: Adobe Illustrator 21.0.0, SVG Export Plug-In . SVG Version: 6.00 Build 0)  -->
<svg version="1.1" id="Layer_1" xmlns="http://www.w3.org/2000/svg" xmlns:xlink="http://www.w3.org/1999/xlink" x="0px" y="0px"
	 viewBox="0 0 512 512" style="enable-background:new 0 0 512 512;" xml:space="preserve">
<style type="text/css">
	.st0{opacity:0.25;fill:#95A2AC;}
	.st1{fill:#FFD54F;}
	.st2{fill:#95A2AC;}
	.st3{fill:#B3BDC3;}
	.st4{fill:#1DE9B6;}
	.st5{opacity:0.75;fill:none;stroke:#FFFFFF;stroke-width:10;stroke-linecap:round;stroke-miterlimit:10;}
	.st6{opacity:0.5;fill:none;stroke:#000000;stroke-width:10;stroke-miterlimit:10;}
	.st7{opacity:0.25;fill:none;stroke:#000000;stroke-width:10;stroke-linecap:round;stroke-miterlimit:10;}
	.st8{opacity:0.25;fill:none;stroke:#6F6F6F;stroke-width:15;stroke-linecap:round;stroke-miterlimit:10;}
	.st9{fill:none;stroke:#000000;stroke-width:10;stroke-linecap:round;stroke-linejoin:round;stroke-miterlimit:10;}
	.st10{fill:none;stroke:#000000;stroke-width:10;stroke-linecap:round;stroke-miterlimit:10;}
	.st11{fill:none;stroke:#000000;stroke-width:10;stroke-miterlimit:10;}
</style>
<g id="background">
	<circle class="st0" cx="262.5" cy="264.6" r="193.4"/>
	<g>
		<path class="st1" d="M449.7,345.4c-0.9,0-1.9-0.3-2.7-0.8c-2.3-1.5-3-4.6-1.4-6.9l12.3-18.7c1.5-2.3,4.6-3,6.9-1.4s3,4.6,1.4,6.9
			l-12.3,18.7C452.9,344.6,451.3,345.4,449.7,345.4z"/>
		<path class="st1" d="M465.2,342.1c-0.9,0-1.9-0.3-2.7-0.8L443.7,329c-2.3-1.5-3-4.6-1.4-6.9c1.5-2.3,4.6-3,6.9-1.4L468,333
			c2.3,1.5,3,4.6,1.4,6.9C468.4,341.3,466.8,342.1,465.2,342.1z"/>
	</g>
	<g>
		<path class="st2" d="M207.9,74.8c-0.7,0-1.5-0.2-2.2-0.5l-20.1-10c-2.5-1.2-3.5-4.2-2.3-6.7c1.2-2.5,4.2-3.5,6.7-2.3l20.1,10
			c2.5,1.2,3.5,4.2,2.3,6.7C211.5,73.8,209.7,74.8,207.9,74.8z"/>
		<path class="st2" d="M192.8,79.9c-0.7,0-1.5-0.2-2.2-0.5c-2.5-1.2-3.5-4.2-2.3-6.7l10-20.1c1.2-2.5,4.2-3.5,6.7-2.3
			s3.5,4.2,2.3,6.7l-10,20.1C196.4,78.9,194.7,79.9,192.8,79.9z"/>
	</g>
	<g>
		<path class="st1" d="M259,97.6c-0.5,0-0.9-0.1-1.4-0.2c-2.7-0.8-4.2-3.5-3.4-6.2l6.2-21.6c0.8-2.7,3.5-4.2,6.2-3.4
			c2.7,0.8,4.2,3.5,3.4,6.2L263.8,94C263.2,96.2,261.2,97.6,259,97.6z"/>
		<path class="st1" d="M272.8,89.9c-0.5,0-0.9-0.1-1.4-0.2l-21.6-6.2c-2.7-0.8-4.2-3.5-3.4-6.2c0.8-2.7,3.5-4.2,6.2-3.4l21.6,6.2
			c2.7,0.8,4.2,3.5,3.4,6.2C277,88.5,275,89.9,272.8,89.9z"/>
	</g>
	<g>
		<path class="st2" d="M60,318c-2.3,0-4.4-1.6-4.9-4l-4.4-22c-0.5-2.7,1.2-5.3,3.9-5.9c2.7-0.5,5.3,1.2,5.9,3.9l4.4,22
			c0.5,2.7-1.2,5.3-3.9,5.9C60.6,317.9,60.3,318,60,318z"/>
		<path class="st2" d="M46.8,309.2c-2.3,0-4.4-1.6-4.9-4c-0.5-2.7,1.2-5.3,3.9-5.9l22-4.4c2.7-0.5,5.3,1.2,5.9,3.9
			c0.5,2.7-1.2,5.3-3.9,5.9l-22,4.4C47.4,309.1,47.1,309.2,46.8,309.2z"/>
	</g>
	<g>
		<path class="st1" d="M349.9,167.5c-0.5,0-1-0.1-1.5-0.2c-2.6-0.8-4.1-3.6-3.3-6.3l6.6-21.4c0.8-2.6,3.6-4.1,6.3-3.3
			c2.6,0.8,4.1,3.6,3.3,6.3l-6.6,21.4C354,166.1,352,167.5,349.9,167.5z"/>
		<path class="st1" d="M363.9,160.1c-0.5,0-1-0.1-1.5-0.2l-21.4-6.6c-2.6-0.8-4.1-3.6-3.3-6.3c0.8-2.6,3.6-4.1,6.3-3.3l21.4,6.6
			c2.6,0.8,4.1,3.6,3.3,6.3C368,158.7,366,160.1,363.9,160.1z"/>
	</g>
	<path class="st2" d="M447.2,165.2c-7.4,0-13.4-6-13.4-13.4c0-7.4,6-13.4,13.4-13.4c7.4,0,13.4,6,13.4,13.4
		C460.6,159.2,454.6,165.2,447.2,165.2z M447.2,148.4c-1.9,0-3.4,1.5-3.4,3.4s1.5,3.4,3.4,3.4s3.4-1.5,3.4-3.4
		S449.1,148.4,447.2,148.4z"/>
	<path class="st1" d="M61.3,183.6c-7.4,0-13.4-6-13.4-13.4c0-7.4,6-13.4,13.4-13.4c7.4,0,13.4,6,13.4,13.4
		C74.7,177.6,68.7,183.6,61.3,183.6z M61.3,166.8c-1.9,0-3.4,1.5-3.4,3.4s1.5,3.4,3.4,3.4s3.4-1.5,3.4-3.4S63.2,166.8,61.3,166.8z"
		/>
	<g>
		<path class="st2" d="M366.2,91.7c-1,0-2.1-0.3-3-1c-2.2-1.6-2.7-4.8-1-7l13.4-18c1.6-2.2,4.8-2.7,7-1c2.2,1.6,2.7,4.8,1,7
			l-13.4,18C369.3,91,367.7,91.7,366.2,91.7z"/>
		<path class="st2" d="M381.9,89.3c-1,0-2.1-0.3-3-1l-18-13.4c-2.2-1.6-2.7-4.8-1-7c1.6-2.2,4.8-2.7,7-1l18,13.4
			c2.2,1.6,2.7,4.8,1,7C384.9,88.6,383.4,89.3,381.9,89.3z"/>
	</g>
	<path class="st2" d="M146.9,156.3c-7.4,0-13.4-6-13.4-13.4c0-7.4,6-13.4,13.4-13.4c7.4,0,13.4,6,13.4,13.4
		C160.3,150.3,154.3,156.3,146.9,156.3z M146.9,139.5c-1.9,0-3.4,1.5-3.4,3.4s1.5,3.4,3.4,3.4s3.4-1.5,3.4-3.4
		S148.7,139.5,146.9,139.5z"/>
</g>
<path id="shock_x5F_color" class="st3" d="M404.8,317.6H120.2c-13.1,0-23.8-10.6-23.8-23.8v-75.3c0-13.1,10.6-23.8,23.8-23.8h284.7
	c13.1,0,23.8,10.6,23.8,23.8v75.3C428.6,307,418,317.6,404.8,317.6z"/>
<path id="color" class="st4" d="M264.9,250.2H260c-3.6,0-6.5-2.9-6.5-6.5v-4.9c0-3.6,2.9-6.5,6.5-6.5h4.9c3.6,0,6.5,2.9,6.5,6.5v4.9
	C271.5,247.2,268.6,250.2,264.9,250.2z"/>
<g id="shadows-lights">
	<line class="st5" x1="403.5" y1="215.5" x2="230" y2="215.5"/>
	<path class="st6" d="M271.5,244.6v1.7c0,4.5-3.7,8.2-8.2,8.2h-1.7c-4.5,0-8.2-3.7-8.2-8.2v-1.7"/>
	<line class="st7" x1="97.1" y1="289.9" x2="427.7" y2="289.9"/>
	<line class="st8" x1="392.7" y1="403.3" x2="130.8" y2="403.3"/>
</g>
<g id="lines">
	<line class="st9" x1="455.2" y1="391.6" x2="439.3" y2="391.6"/>
	<line class="st9" x1="419.1" y1="391.1" x2="104.1" y2="391.1"/>
	<line class="st9" x1="85.7" y1="391.6" x2="69.8" y2="391.6"/>
	<g>
		<path class="st10" d="M304.6,148.2c-24.3-23.3-62.9-22.5-86.2,1.9"/>
		<path class="st10" d="M294.6,158.7c-18.4-17.6-47.6-17-65.2,1.4"/>
		<path class="st10" d="M284.7,169c-12.7-12.1-32.8-11.7-44.9,1"/>
	</g>
	<line class="st9" x1="251" y1="271.2" x2="273.8" y2="271.2"/>
	<path class="st9" d="M404.8,317.6H120.2c-13.1,0-23.8-10.6-23.8-23.8v-75.3c0-13.1,10.6-23.8,23.8-23.8h284.7
		c13.1,0,23.8,10.6,23.8,23.8v75.3C428.6,307,418,317.6,404.8,317.6z"/>
	<line class="st10" x1="97.2" y1="298" x2="427.8" y2="298"/>
	<path class="st9" d="M262.6,335.7c0,0-13.1,12.4,0,25.7c12.6,12.9,0,25.7,0,25.7"/>
	<path class="st9" d="M327.6,335.7c0,0-13.1,12.4,0,25.7c12.6,12.9,0,25.7,0,25.7"/>
	<path class="st9" d="M392.6,335.7c0,0-13.1,12.4,0,25.7c12.6,12.9,0,25.7,0,25.7"/>
	<path class="st9" d="M197.6,335.7c0,0-13.1,12.4,0,25.7c12.6,12.9,0,25.7,0,25.7"/>
	<path class="st9" d="M132.6,335.7c0,0-13.1,12.4,0,25.7c12.6,12.9,0,25.7,0,25.7"/>
	<path class="st11" d="M264.9,250.2H260c-3.6,0-6.5-2.9-6.5-6.5v-4.9c0-3.6,2.9-6.5,6.5-6.5h4.9c3.6,0,6.5,2.9,6.5,6.5v4.9
		C271.5,247.2,268.6,250.2,264.9,250.2z"/>
</g>
</svg>
