<?xml version="1.0" encoding="utf-8"?>
<!-- Generator: Adobe Illustrator 21.0.0, SVG Export Plug-In . SVG Version: 6.00 Build 0)  -->
<svg version="1.1" id="Layer_1" xmlns="http://www.w3.org/2000/svg" xmlns:xlink="http://www.w3.org/1999/xlink" x="0px" y="0px"
	 viewBox="0 0 512 512" style="enable-background:new 0 0 512 512;" xml:space="preserve">
<style type="text/css">
	.st0{opacity:0.25;fill:#95A2AC;}
	.st1{fill:#FFD54F;}
	.st2{fill:#95A2AC;}
	.st3{fill:#BA68C8;}
	.st4{fill:#1DE9B6;}
	.st5{fill:none;stroke:#000000;stroke-width:10;stroke-linecap:round;stroke-linejoin:round;stroke-miterlimit:10;}
	.st6{opacity:0.25;fill:none;stroke:#6F6F6F;stroke-width:15;stroke-linecap:round;stroke-miterlimit:10;}
	.st7{opacity:0.25;fill:none;stroke:#000000;stroke-width:10;stroke-linecap:round;stroke-linejoin:round;stroke-miterlimit:10;}
	.st8{opacity:0.75;fill:none;stroke:#FFFFFF;stroke-width:10;stroke-linecap:round;stroke-linejoin:round;stroke-miterlimit:10;}
</style>
<g id="background">
	<circle class="st0" cx="259.4" cy="261.7" r="193.4"/>
	<g>
		<path class="st1" d="M165.1,129.8c-2.8,0-5-2.2-5-5v-22.4c0-2.8,2.2-5,5-5s5,2.2,5,5v22.4C170.1,127.6,167.8,129.8,165.1,129.8z"
			/>
		<path class="st1" d="M176.3,118.6h-22.4c-2.8,0-5-2.2-5-5s2.2-5,5-5h22.4c2.8,0,5,2.2,5,5S179,118.6,176.3,118.6z"/>
	</g>
	<g>
		<path class="st2" d="M103.9,170.5c-2.3,0-4.4-1.6-4.9-4l-4.4-22c-0.5-2.7,1.2-5.3,3.9-5.9c2.7-0.5,5.3,1.2,5.9,3.9l4.4,22
			c0.5,2.7-1.2,5.3-3.9,5.9C104.6,170.5,104.2,170.5,103.9,170.5z"/>
		<path class="st2" d="M90.7,161.7c-2.3,0-4.4-1.6-4.9-4c-0.5-2.7,1.2-5.3,3.9-5.9l22-4.4c2.7-0.5,5.3,1.2,5.9,3.9s-1.2,5.3-3.9,5.9
			l-22,4.4C91.4,161.7,91,161.7,90.7,161.7z"/>
	</g>
	<g>
		<path class="st1" d="M415.7,281.9c-1.1,0-2.1-0.3-3.1-1c-2.2-1.7-2.6-4.8-0.9-7l13.7-17.7c1.7-2.2,4.8-2.6,7-0.9
			c2.2,1.7,2.6,4.8,0.9,7L419.7,280C418.7,281.3,417.2,281.9,415.7,281.9z"/>
		<path class="st1" d="M431.4,280c-1.1,0-2.1-0.3-3.1-1l-17.7-13.7c-2.2-1.7-2.6-4.8-0.9-7c1.7-2.2,4.8-2.6,7-0.9l17.7,13.7
			c2.2,1.7,2.6,4.8,0.9,7C434.4,279.3,432.9,280,431.4,280z"/>
	</g>
	<g>
		<path class="st2" d="M312.8,99.6c-2.3,0-4.4-1.6-4.9-4l-4.4-22c-0.5-2.7,1.2-5.3,3.9-5.9c2.7-0.5,5.3,1.2,5.9,3.9l4.4,22
			c0.5,2.7-1.2,5.3-3.9,5.9C313.5,99.5,313.1,99.6,312.8,99.6z"/>
		<path class="st2" d="M299.6,90.8c-2.3,0-4.4-1.6-4.9-4c-0.5-2.7,1.2-5.3,3.9-5.9l22-4.4c2.7-0.5,5.3,1.2,5.9,3.9s-1.2,5.3-3.9,5.9
			l-22,4.4C300.3,90.8,299.9,90.8,299.6,90.8z"/>
	</g>
	<path class="st2" d="M82.3,235.3c-7.4,0-13.4-6-13.4-13.4c0-7.4,6-13.4,13.4-13.4c7.4,0,13.4,6,13.4,13.4
		C95.7,229.3,89.7,235.3,82.3,235.3z M82.3,218.5c-1.9,0-3.4,1.5-3.4,3.4c0,1.9,1.5,3.4,3.4,3.4c1.9,0,3.4-1.5,3.4-3.4
		C85.7,220,84.2,218.5,82.3,218.5z"/>
	<path class="st1" d="M281.5,135c-7.4,0-13.4-6-13.4-13.4c0-7.4,6-13.4,13.4-13.4s13.4,6,13.4,13.4C294.9,129,288.9,135,281.5,135z
		 M281.5,118.2c-1.9,0-3.4,1.5-3.4,3.4c0,1.9,1.5,3.4,3.4,3.4s3.4-1.5,3.4-3.4C284.9,119.7,283.4,118.2,281.5,118.2z"/>
	<path class="st2" d="M216.2,83.8c-7.4,0-13.4-6-13.4-13.4s6-13.4,13.4-13.4s13.4,6,13.4,13.4S223.6,83.8,216.2,83.8z M216.2,67
		c-1.9,0-3.4,1.5-3.4,3.4s1.5,3.4,3.4,3.4s3.4-1.5,3.4-3.4S218.1,67,216.2,67z"/>
	<g>
		<path class="st1" d="M386.3,127.5c-1.1,0-2.1-0.3-3.1-1c-2.2-1.7-2.6-4.8-0.9-7l13.7-17.7c1.7-2.2,4.8-2.6,7-0.9
			c2.2,1.7,2.6,4.8,0.9,7l-13.7,17.7C389.3,126.8,387.8,127.5,386.3,127.5z"/>
		<path class="st1" d="M402.1,125.5c-1.1,0-2.1-0.3-3.1-1l-17.7-13.7c-2.2-1.7-2.6-4.8-0.9-7c1.7-2.2,4.8-2.6,7-0.9l17.7,13.7
			c2.2,1.7,2.6,4.8,0.9,7C405,124.8,403.6,125.5,402.1,125.5z"/>
	</g>
	<path class="st1" d="M93.5,303.2c-7.4,0-13.4-6-13.4-13.4c0-7.4,6-13.4,13.4-13.4s13.4,6,13.4,13.4
		C106.8,297.2,100.8,303.2,93.5,303.2z M93.5,286.4c-1.9,0-3.4,1.5-3.4,3.4c0,1.9,1.5,3.4,3.4,3.4s3.4-1.5,3.4-3.4
		C96.8,287.9,95.3,286.4,93.5,286.4z"/>
	<path class="st2" d="M433.5,207.3c-7.4,0-13.4-6-13.4-13.4c0-7.4,6-13.4,13.4-13.4s13.4,6,13.4,13.4
		C446.8,201.3,440.8,207.3,433.5,207.3z M433.5,190.5c-1.9,0-3.4,1.5-3.4,3.4c0,1.9,1.5,3.4,3.4,3.4s3.4-1.5,3.4-3.4
		C436.8,192,435.3,190.5,433.5,190.5z"/>
</g>
<path id="color" class="st3" d="M259,280.8H151.8c26.8,99,107.1,114.9,107.1,114.9V280.8z"/>
<path id="shock_x5F_color" class="st4" d="M375.6,172.7c0,0-67.8,24.9-116.6-17v125.1h107.1C366.1,280.8,380.3,259.1,375.6,172.7z"
	/>
<g id="lines">
	<line class="st5" x1="473.7" y1="401.4" x2="455.5" y2="401.4"/>
	<line class="st5" x1="439.4" y1="400.9" x2="78.7" y2="400.9"/>
	<line class="st5" x1="61.6" y1="401.4" x2="43.4" y2="401.4"/>
	<path class="st5" d="M259,155.7v240c0,0-128.5-20.8-116.6-223C142.4,172.7,210.2,197.7,259,155.7z"/>
	<path class="st5" d="M259,155.7v240c0,0,128.5-20.8,116.6-223C375.6,172.7,307.7,197.7,259,155.7z"/>
	<line class="st5" x1="151.8" y1="280.8" x2="366.1" y2="280.8"/>
</g>
<g id="shadows-lights">
	<line class="st6" x1="409.2" y1="413.1" x2="109.3" y2="413.1"/>
	<path class="st7" d="M142.5,210.3c9,158.2,116.8,175.7,116.8,175.7s108.2-17.5,116.8-176.6"/>
	<path class="st8" d="M354,197.6c0,0,1.8,28.3-5.4,61.7"/>
</g>
</svg>
