<?xml version="1.0" encoding="utf-8"?>
<!-- Generator: Adobe Illustrator 21.0.0, SVG Export Plug-In . SVG Version: 6.00 Build 0)  -->
<svg version="1.1" id="Layer_1" xmlns="http://www.w3.org/2000/svg" xmlns:xlink="http://www.w3.org/1999/xlink" x="0px" y="0px"
	 viewBox="0 0 512 512" style="enable-background:new 0 0 512 512;" xml:space="preserve">
<style type="text/css">
	.st0{opacity:0.25;fill:#95A2AC;}
	.st1{fill:#FFD54F;}
	.st2{fill:#95A2AC;}
	.st3{fill:#FFCCBC;}
	.st4{fill:#1DE9B6;}
	.st5{fill:#BA68C8;}
	.st6{opacity:0.25;fill:none;stroke:#6F6F6F;stroke-width:15;stroke-linecap:round;stroke-miterlimit:10;}
	.st7{opacity:0.25;fill:none;stroke:#000000;stroke-width:10;stroke-linecap:round;stroke-linejoin:round;stroke-miterlimit:10;}
	.st8{opacity:0.75;fill:none;stroke:#FFFFFF;stroke-width:10;stroke-linecap:round;stroke-linejoin:round;stroke-miterlimit:10;}
	.st9{fill:none;stroke:#000000;stroke-width:10;stroke-linecap:round;stroke-linejoin:round;stroke-miterlimit:10;}
</style>
<g id="background">
	<circle class="st0" cx="261" cy="264.3" r="193.4"/>
	<g>
		<path class="st1" d="M248.3,76.1c-2.8,0-5-2.2-5-5V48.7c0-2.8,2.2-5,5-5s5,2.2,5,5v22.4C253.3,73.8,251,76.1,248.3,76.1z"/>
		<path class="st1" d="M259.5,64.9h-22.4c-2.8,0-5-2.2-5-5s2.2-5,5-5h22.4c2.8,0,5,2.2,5,5S262.3,64.9,259.5,64.9z"/>
	</g>
	<g>
		<path class="st2" d="M113.1,162.4c-2.3,0-4.4-1.6-4.9-4l-4.4-22c-0.5-2.7,1.2-5.3,3.9-5.9c2.7-0.5,5.3,1.2,5.9,3.9l4.4,22
			c0.5,2.7-1.2,5.3-3.9,5.9C113.7,162.4,113.4,162.4,113.1,162.4z"/>
		<path class="st2" d="M99.9,153.6c-2.3,0-4.4-1.6-4.9-4c-0.5-2.7,1.2-5.3,3.9-5.9l22-4.4c2.7-0.5,5.3,1.2,5.9,3.9
			c0.5,2.7-1.2,5.3-3.9,5.9l-22,4.4C100.5,153.6,100.2,153.6,99.9,153.6z"/>
	</g>
	<g>
		<path class="st1" d="M123.8,371.2c-1.1,0-2.1-0.3-3.1-1c-2.2-1.7-2.6-4.8-0.9-7l13.7-17.7c1.7-2.2,4.8-2.6,7-0.9
			c2.2,1.7,2.6,4.8,0.9,7l-13.7,17.7C126.8,370.5,125.3,371.2,123.8,371.2z"/>
		<path class="st1" d="M139.6,369.2c-1.1,0-2.2-0.3-3.1-1l-17.7-13.7c-2.2-1.7-2.6-4.8-0.9-7c1.7-2.2,4.8-2.6,7-0.9l17.7,13.7
			c2.2,1.7,2.6,4.8,0.9,7C142.5,368.5,141,369.2,139.6,369.2z"/>
	</g>
	<g>
		<path class="st2" d="M418.1,172.1c-2.3,0-4.4-1.6-4.9-4l-4.4-22c-0.5-2.7,1.2-5.3,3.9-5.9c2.7-0.5,5.3,1.2,5.9,3.9l4.4,22
			c0.5,2.7-1.2,5.3-3.9,5.9C418.7,172.1,418.4,172.1,418.1,172.1z"/>
		<path class="st2" d="M404.9,163.3c-2.3,0-4.4-1.6-4.9-4c-0.5-2.7,1.2-5.3,3.9-5.9l22-4.4c2.7-0.5,5.3,1.2,5.9,3.9
			c0.5,2.7-1.2,5.3-3.9,5.9l-22,4.4C405.5,163.3,405.2,163.3,404.9,163.3z"/>
	</g>
	<path class="st2" d="M91.5,305.4c-7.4,0-13.4-6-13.4-13.4c0-7.4,6-13.4,13.4-13.4c7.4,0,13.4,6,13.4,13.4
		C104.9,299.4,98.9,305.4,91.5,305.4z M91.5,288.6c-1.9,0-3.4,1.5-3.4,3.4c0,1.9,1.5,3.4,3.4,3.4s3.4-1.5,3.4-3.4
		C94.9,290.1,93.4,288.6,91.5,288.6z"/>
	<path class="st1" d="M355.3,116.8c-7.4,0-13.4-6-13.4-13.4s6-13.4,13.4-13.4c7.4,0,13.4,6,13.4,13.4S362.7,116.8,355.3,116.8z
		 M355.3,100.1c-1.9,0-3.4,1.5-3.4,3.4s1.5,3.4,3.4,3.4s3.4-1.5,3.4-3.4S357.2,100.1,355.3,100.1z"/>
	<path class="st2" d="M195,93.3c-7.4,0-13.4-6-13.4-13.4c0-7.4,6-13.4,13.4-13.4c7.4,0,13.4,6,13.4,13.4
		C208.3,87.2,202.3,93.3,195,93.3z M195,76.5c-1.9,0-3.4,1.5-3.4,3.4c0,1.9,1.5,3.4,3.4,3.4s3.4-1.5,3.4-3.4
		C198.3,78,196.8,76.5,195,76.5z"/>
	<g>
		<path class="st1" d="M58.2,235c-1.1,0-2.1-0.3-3.1-1c-2.2-1.7-2.6-4.8-0.9-7L68,209.2c1.7-2.2,4.8-2.6,7-0.9
			c2.2,1.7,2.6,4.8,0.9,7l-13.7,17.7C61.1,234.3,59.7,235,58.2,235z"/>
		<path class="st1" d="M73.9,233c-1.1,0-2.2-0.3-3.1-1l-17.7-13.7c-2.2-1.7-2.6-4.8-0.9-7c1.7-2.2,4.8-2.6,7-0.9L77,224.1
			c2.2,1.7,2.6,4.8,0.9,7C76.9,232.4,75.4,233,73.9,233z"/>
	</g>
	<path class="st1" d="M424.3,256.6c-7.4,0-13.4-6-13.4-13.4c0-7.4,6-13.4,13.4-13.4c7.4,0,13.4,6,13.4,13.4
		C437.6,250.6,431.6,256.6,424.3,256.6z M424.3,239.8c-1.9,0-3.4,1.5-3.4,3.4c0,1.9,1.5,3.4,3.4,3.4s3.4-1.5,3.4-3.4
		C427.6,241.4,426.1,239.8,424.3,239.8z"/>
	<path class="st2" d="M410.8,361.4c-7.4,0-13.4-6-13.4-13.4s6-13.4,13.4-13.4c7.4,0,13.4,6,13.4,13.4S418.2,361.4,410.8,361.4z
		 M410.8,344.6c-1.9,0-3.4,1.5-3.4,3.4s1.5,3.4,3.4,3.4s3.4-1.5,3.4-3.4S412.7,344.6,410.8,344.6z"/>
</g>
<path id="shock_x5F_color" class="st3" d="M365,214.7c-0.7-1.8-1-3.7-1.1-5.5c-2.9-55.1-40.8-93-93.9-96.8
	c-92.9-6.6-140.3,49.9-131.7,126.6c4.6,41.2,23.5,66.1,37,78.9c8.7,8.4,14,19.7,14,31.8V385c0,6.6,5.4,12,12,12h91.9
	c6.6,0,12-5.4,12-12v-25.1h-0.1c0.1,0,20.9-0.3,20.9-0.3c25.2,0.8,37.2-4,37.1-32c0,0,0.8-11.7,0.8-28.9l16.6-3
	c9.6-1.5,11.7-11.8,9-17.8L365,214.7z"/>
<g id="color">
	<path class="st4" d="M260,238.7h-50.6c-3.8,0-6.9-3.1-6.9-6.9v-50.6c0-3.8,3.1-6.9,6.9-6.9H260c3.8,0,6.9,3.1,6.9,6.9v50.6
		C266.8,235.6,263.8,238.7,260,238.7z"/>
	<circle class="st5" cx="248.3" cy="145" r="8.9"/>
	<circle class="st5" cx="173.8" cy="206.5" r="8.9"/>
	<circle class="st5" cx="257.2" cy="266.4" r="8.9"/>
	<circle class="st5" cx="221.2" cy="266" r="8.9"/>
</g>
<g id="shadows-lights">
	<line class="st6" x1="410.8" y1="415.8" x2="110.9" y2="415.8"/>
	<path class="st7" d="M138.2,227.9c4.6,41.2,23.5,66.1,37,78.9c8.7,8.4,14,19.7,14,31.8v35.3c0,6.6,6.4,14.3,13.1,14.3h91.9
		c6.6,0,11-7.7,11-14.3l-0.6-22.5h-0.1c0.1,0,20.9-0.3,20.9-0.3c25.2,0.8,38.4-0.3,38.3-28.3"/>
	<path class="st7" d="M266.8,222.9c0,3.8-3.1,6.9-6.9,6.9h-50.6c-3.8,0-6.9-3.1-6.9-6.9"/>
	<path class="st8" d="M295.8,140.9c0,0,32.7,7.5,41.7,50"/>
	<line class="st8" x1="251" y1="187.2" x2="251" y2="206.5"/>
</g>
<g id="lines">
	<line class="st9" x1="475.3" y1="404.1" x2="457.1" y2="404.1"/>
	<line class="st9" x1="441" y1="403.6" x2="80.3" y2="403.6"/>
	<line class="st9" x1="63.2" y1="404.1" x2="44.9" y2="404.1"/>
	<line class="st9" x1="248.3" y1="153.9" x2="248.3" y2="172.4"/>
	<line class="st9" x1="182.7" y1="206.5" x2="201.2" y2="206.5"/>
	<line class="st9" x1="257.2" y1="257.5" x2="257.2" y2="239"/>
	<line class="st9" x1="221.2" y1="257.2" x2="221.2" y2="238.7"/>
	<line class="st9" x1="292.5" y1="221.2" x2="337.5" y2="221.2"/>
	<path class="st9" d="M365,214.7c-0.7-1.8-1-3.7-1.1-5.5c-2.9-55.1-40.8-93-93.9-96.8c-92.9-6.6-140.3,49.9-131.7,126.6
		c4.6,41.2,23.5,66.1,37,78.9c8.7,8.4,14,19.7,14,31.8V385c0,6.6,5.4,12,12,12h91.9c6.6,0,12-5.4,12-12v-25.1h-0.1
		c0.1,0,20.9-0.3,20.9-0.3c25.2,0.8,37.2-4,37.1-32c0,0,0.8-11.7,0.8-28.9l16.6-3c9.6-1.5,11.7-11.8,9-17.8L365,214.7z"/>
	<path class="st9" d="M260,238.7h-50.6c-3.8,0-6.9-3.1-6.9-6.9v-50.6c0-3.8,3.1-6.9,6.9-6.9H260c3.8,0,6.9,3.1,6.9,6.9v50.6
		C266.8,235.6,263.8,238.7,260,238.7z"/>
	<circle class="st9" cx="248.3" cy="145" r="8.9"/>
	<circle class="st9" cx="173.8" cy="206.5" r="8.9"/>
	<circle class="st9" cx="257.2" cy="266.4" r="8.9"/>
	<circle class="st9" cx="221.2" cy="266" r="8.9"/>
</g>
</svg>
