<?xml version="1.0" encoding="utf-8"?>
<!-- Generator: Adobe Illustrator 21.0.0, SVG Export Plug-In . SVG Version: 6.00 Build 0)  -->
<svg version="1.1" id="Layer_1" xmlns="http://www.w3.org/2000/svg" xmlns:xlink="http://www.w3.org/1999/xlink" x="0px" y="0px"
	 viewBox="0 0 512 512" style="enable-background:new 0 0 512 512;" xml:space="preserve">
<style type="text/css">
	.st0{opacity:0.25;fill:#95A2AC;}
	.st1{fill:#FFD54F;}
	.st2{fill:#95A2AC;}
	.st3{fill:#B3BDC3;}
	.st4{fill:#1DE9B6;}
	.st5{opacity:0.25;fill:none;stroke:#6F6F6F;stroke-width:15;stroke-linecap:round;stroke-miterlimit:10;}
	.st6{opacity:0.75;fill:none;stroke:#FFFFFF;stroke-width:10;stroke-linecap:round;stroke-miterlimit:10;}
	.st7{opacity:0.25;fill:none;stroke:#000000;stroke-width:10;stroke-linecap:round;stroke-miterlimit:10;}
	.st8{fill:none;stroke:#000000;stroke-width:10;stroke-linecap:round;stroke-linejoin:round;stroke-miterlimit:10;}
	.st9{fill:none;stroke:#000000;stroke-width:10;stroke-linecap:round;stroke-miterlimit:10;}
</style>
<g id="background">
	<circle class="st0" cx="255.3" cy="266" r="193.4"/>
	<g>
		<path class="st1" d="M350.7,355.1c-0.9,0-1.9-0.3-2.7-0.8c-2.3-1.5-3-4.6-1.4-6.9l12.3-18.7c1.5-2.3,4.6-3,6.9-1.4
			c2.3,1.5,3,4.6,1.4,6.9l-12.3,18.7C353.9,354.3,352.3,355.1,350.7,355.1z"/>
		<path class="st1" d="M366.2,351.9c-0.9,0-1.9-0.3-2.7-0.8l-18.7-12.3c-2.3-1.5-3-4.6-1.4-6.9c1.5-2.3,4.6-3,6.9-1.4l18.7,12.3
			c2.3,1.5,3,4.6,1.4,6.9C369.4,351.1,367.8,351.9,366.2,351.9z"/>
	</g>
	<g>
		<path class="st2" d="M119.6,140.6c-2.3,0-4.4-1.6-4.9-4l-4.4-22c-0.5-2.7,1.2-5.3,3.9-5.9s5.3,1.2,5.9,3.9l4.4,22
			c0.5,2.7-1.2,5.3-3.9,5.9C120.2,140.6,119.9,140.6,119.6,140.6z"/>
		<path class="st2" d="M106.4,131.8c-2.3,0-4.4-1.6-4.9-4c-0.5-2.7,1.2-5.3,3.9-5.9l22-4.4c2.7-0.5,5.3,1.2,5.9,3.9
			s-1.2,5.3-3.9,5.9l-22,4.4C107,131.8,106.7,131.8,106.4,131.8z"/>
	</g>
	<g>
		<path class="st1" d="M269.1,111.2c-0.5,0-0.9-0.1-1.4-0.2c-2.7-0.8-4.2-3.5-3.4-6.2l6.2-21.6c0.8-2.7,3.5-4.2,6.2-3.4
			c2.7,0.8,4.2,3.5,3.4,6.2l-6.2,21.6C273.3,109.8,271.3,111.2,269.1,111.2z"/>
		<path class="st1" d="M283,103.5c-0.5,0-0.9-0.1-1.4-0.2l-21.6-6.2c-2.7-0.8-4.2-3.5-3.4-6.2c0.8-2.7,3.5-4.2,6.2-3.4l21.6,6.2
			c2.7,0.8,4.2,3.5,3.4,6.2C287.2,102.1,285.2,103.5,283,103.5z"/>
	</g>
	<g>
		<path class="st2" d="M175.5,368.9c-2.3,0-4.4-1.6-4.9-4l-4.4-22c-0.5-2.7,1.2-5.3,3.9-5.9c2.7-0.5,5.3,1.2,5.9,3.9l4.4,22
			c0.5,2.7-1.2,5.3-3.9,5.9C176.2,368.9,175.9,368.9,175.5,368.9z"/>
		<path class="st2" d="M162.3,360.1c-2.3,0-4.4-1.6-4.9-4c-0.5-2.7,1.2-5.3,3.9-5.9l22-4.4c2.7-0.5,5.3,1.2,5.9,3.9
			c0.5,2.7-1.2,5.3-3.9,5.9l-22,4.4C163,360.1,162.7,360.1,162.3,360.1z"/>
	</g>
	<g>
		<path class="st2" d="M411.6,261.6c-0.5,0-1-0.1-1.5-0.2c-2.6-0.8-4.1-3.6-3.3-6.3l6.6-21.4c0.8-2.6,3.6-4.1,6.3-3.3
			c2.6,0.8,4.1,3.6,3.3,6.3l-6.6,21.4C415.7,260.2,413.7,261.6,411.6,261.6z"/>
		<path class="st2" d="M425.6,254.2c-0.5,0-1-0.1-1.5-0.2l-21.4-6.6c-2.6-0.8-4.1-3.6-3.3-6.3c0.8-2.6,3.6-4.1,6.3-3.3l21.4,6.6
			c2.6,0.8,4.1,3.6,3.3,6.3C429.7,252.8,427.7,254.2,425.6,254.2z"/>
	</g>
	<path class="st2" d="M350.7,170.9c-7.4,0-13.4-6-13.4-13.4c0-7.4,6-13.4,13.4-13.4s13.4,6,13.4,13.4
		C364.1,164.9,358.1,170.9,350.7,170.9z M350.7,154.1c-1.9,0-3.4,1.5-3.4,3.4s1.5,3.4,3.4,3.4s3.4-1.5,3.4-3.4
		S352.5,154.1,350.7,154.1z"/>
	<path class="st1" d="M75.6,309.2c-7.4,0-13.4-6-13.4-13.4c0-7.4,6-13.4,13.4-13.4c7.4,0,13.4,6,13.4,13.4
		C89,303.2,83,309.2,75.6,309.2z M75.6,292.4c-1.9,0-3.4,1.5-3.4,3.4s1.5,3.4,3.4,3.4s3.4-1.5,3.4-3.4S77.5,292.4,75.6,292.4z"/>
	<g>
		<path class="st1" d="M106.1,246.6c-1,0-2.1-0.3-3-1c-2.2-1.6-2.7-4.8-1-7l13.4-18c1.6-2.2,4.8-2.7,7-1c2.2,1.6,2.7,4.8,1,7
			l-13.4,18C109.1,245.9,107.6,246.6,106.1,246.6z"/>
		<path class="st1" d="M121.8,244.3c-1,0-2.1-0.3-3-1l-18-13.4c-2.2-1.6-2.7-4.8-1-7c1.6-2.2,4.8-2.7,7-1l18,13.4
			c2.2,1.6,2.7,4.8,1,7C124.8,243.6,123.3,244.3,121.8,244.3z"/>
	</g>
	<path class="st2" d="M346,84.7c-7.4,0-13.4-6-13.4-13.4c0-7.4,6-13.4,13.4-13.4c7.4,0,13.4,6,13.4,13.4
		C359.3,78.7,353.3,84.7,346,84.7z M346,68c-1.9,0-3.4,1.5-3.4,3.4s1.5,3.4,3.4,3.4s3.4-1.5,3.4-3.4S347.8,68,346,68z"/>
	<g>
		<path class="st1" d="M409.1,171.2c-0.5,0-0.9-0.1-1.4-0.2c-2.7-0.8-4.2-3.5-3.4-6.2l6.2-21.6c0.8-2.7,3.5-4.2,6.2-3.4
			c2.7,0.8,4.2,3.5,3.4,6.2l-6.2,21.6C413.3,169.8,411.3,171.2,409.1,171.2z"/>
		<path class="st1" d="M423,163.5c-0.5,0-0.9-0.1-1.4-0.2l-21.6-6.2c-2.7-0.8-4.2-3.5-3.4-6.2c0.8-2.7,3.5-4.2,6.2-3.4l21.6,6.2
			c2.7,0.8,4.2,3.5,3.4,6.2C427.2,162.1,425.2,163.5,423,163.5z"/>
	</g>
</g>
<path id="shock_x5F_color" class="st3" d="M328.5,204.9c0-38.1-30.9-69-69-69s-69,30.9-69,69c0,27.2,38.8,87.3,38.8,99.9
	s0,15.7,0,15.7h60.4c0,0,0-1.5,0-15.7C289.6,290.6,328.5,232.1,328.5,204.9z"/>
<circle id="color" class="st4" cx="259.8" cy="261.1" r="10.2"/>
<g id="shadows-lights">
	<line class="st5" x1="376.6" y1="404.7" x2="128.2" y2="404.7"/>
	<path class="st6" d="M281.3,278.3c8.1-18.5,27.6-51.5,27.6-68.8c0-30.4-24.7-55.1-55.1-55.1"/>
	<line class="st7" x1="229.6" y1="310.7" x2="290" y2="310.7"/>
</g>
<g id="lines">
	<line class="st8" x1="454.9" y1="393" x2="439.8" y2="393"/>
	<line class="st8" x1="401.6" y1="392.5" x2="102.8" y2="392.5"/>
	<line class="st8" x1="66.4" y1="393" x2="51.3" y2="393"/>
	<line class="st9" x1="229.3" y1="334.4" x2="289.6" y2="334.4"/>
	<line class="st9" x1="229.3" y1="349.1" x2="289.6" y2="349.1"/>
	<line class="st9" x1="229.3" y1="379.1" x2="289.6" y2="379.1"/>
	<line class="st9" x1="229.3" y1="364.4" x2="289.6" y2="364.4"/>
	<path class="st9" d="M270,386.6c0,2.4-2,4.4-4.4,4.4h-11.8c-2.4,0-4.4-2-4.4-4.4"/>
	<line class="st8" x1="259.4" y1="317.9" x2="259.4" y2="271.3"/>
	<circle class="st8" cx="259.8" cy="261.1" r="10.2"/>
	<path class="st8" d="M328.5,204.9c0-38.1-30.9-69-69-69s-69,30.9-69,69c0,27.2,38.8,87.3,38.8,99.9s0,15.7,0,15.7h60.4
		c0,0,0-1.5,0-15.7C289.6,290.6,328.5,232.1,328.5,204.9z"/>
	<path class="st9" d="M211.2,95.4c-40.9,0.2-73.9,33.4-73.7,74.3"/>
	<path class="st9" d="M211.3,113.5c-30.9,0.1-55.8,25.3-55.7,56.2"/>
	<path class="st9" d="M211.4,130.8c-21.3,0.1-38.5,17.4-38.4,38.7"/>
</g>
</svg>
