<?xml version="1.0" encoding="utf-8"?>
<!-- Generator: Adobe Illustrator 21.0.0, SVG Export Plug-In . SVG Version: 6.00 Build 0)  -->
<svg version="1.1" id="Layer_1" xmlns="http://www.w3.org/2000/svg" xmlns:xlink="http://www.w3.org/1999/xlink" x="0px" y="0px"
	 viewBox="0 0 512 512" style="enable-background:new 0 0 512 512;" xml:space="preserve">
<style type="text/css">
	.st0{opacity:0.25;fill:#95A2AC;}
	.st1{fill:#FFD54F;}
	.st2{fill:#95A2AC;}
	.st3{fill:#B3BDC3;}
	.st4{fill:none;stroke:#000000;stroke-width:10;stroke-linecap:round;stroke-linejoin:round;stroke-miterlimit:10;}
	.st5{opacity:0.25;fill:none;stroke:#6F6F6F;stroke-width:15;stroke-linecap:round;stroke-miterlimit:10;}
	.st6{opacity:0.5;fill:none;stroke:#000000;stroke-width:10;stroke-miterlimit:10;}
	.st7{opacity:0.75;fill:none;stroke:#FFFFFF;stroke-width:10;stroke-linecap:round;stroke-linejoin:round;stroke-miterlimit:10;}
</style>
<g id="background">
	<circle class="st0" cx="259.4" cy="259.7" r="193.4"/>
	<g>
		<path class="st1" d="M217.2,153.7c-2.8,0-5-2.2-5-5v-22.4c0-2.8,2.2-5,5-5s5,2.2,5,5v22.4C222.2,151.5,220,153.7,217.2,153.7z"/>
		<path class="st1" d="M228.4,142.5H206c-2.8,0-5-2.2-5-5s2.2-5,5-5h22.4c2.8,0,5,2.2,5,5S231.2,142.5,228.4,142.5z"/>
	</g>
	<g>
		<path class="st2" d="M221.5,60c-2.3,0-4.4-1.6-4.9-4l-4.4-22c-0.5-2.7,1.2-5.3,3.9-5.9c2.7-0.5,5.3,1.2,5.9,3.9l4.4,22
			c0.5,2.7-1.2,5.3-3.9,5.9C222.2,60,221.9,60,221.5,60z"/>
		<path class="st2" d="M208.3,51.2c-2.3,0-4.4-1.6-4.9-4c-0.5-2.7,1.2-5.3,3.9-5.9l22-4.4c2.7-0.5,5.3,1.2,5.9,3.9
			c0.5,2.7-1.2,5.3-3.9,5.9l-22,4.4C209,51.2,208.7,51.2,208.3,51.2z"/>
	</g>
	<g>
		<path class="st1" d="M92.3,113.4c-1.1,0-2.2-0.3-3.1-1c-2.2-1.7-2.6-4.8-0.9-7l13.7-17.7c1.7-2.2,4.8-2.6,7-0.9
			c2.2,1.7,2.6,4.8,0.9,7l-13.7,17.7C95.3,112.7,93.8,113.4,92.3,113.4z"/>
		<path class="st1" d="M108,111.4c-1.1,0-2.2-0.3-3.1-1L87.2,96.6c-2.2-1.7-2.6-4.8-0.9-7c1.7-2.2,4.8-2.6,7-0.9l17.7,13.7
			c2.2,1.7,2.6,4.8,0.9,7C111,110.7,109.5,111.4,108,111.4z"/>
	</g>
	<g>
		<path class="st2" d="M127.6,299.1c-2.3,0-4.4-1.6-4.9-4l-4.4-22c-0.5-2.7,1.2-5.3,3.9-5.9c2.7-0.5,5.3,1.2,5.9,3.9l4.4,22
			c0.5,2.7-1.2,5.3-3.9,5.9C128.3,299,128,299.1,127.6,299.1z"/>
		<path class="st2" d="M114.4,290.3c-2.3,0-4.4-1.6-4.9-4c-0.5-2.7,1.2-5.3,3.9-5.9l22-4.4c2.7-0.5,5.3,1.2,5.9,3.9
			s-1.2,5.3-3.9,5.9l-22,4.4C115.1,290.3,114.8,290.3,114.4,290.3z"/>
	</g>
	<g>
		<path class="st2" d="M449.5,164.2c-0.5,0-1-0.1-1.5-0.2c-2.6-0.8-4.1-3.6-3.3-6.3l6.6-21.4c0.8-2.6,3.6-4.1,6.3-3.3
			c2.6,0.8,4.1,3.6,3.3,6.3l-6.6,21.4C453.6,162.8,451.6,164.2,449.5,164.2z"/>
		<path class="st2" d="M463.5,156.8c-0.5,0-1-0.1-1.5-0.2l-21.4-6.6c-2.6-0.8-4.1-3.6-3.3-6.3c0.8-2.6,3.6-4.1,6.3-3.3L465,147
			c2.6,0.8,4.1,3.6,3.3,6.3C467.6,155.4,465.6,156.8,463.5,156.8z"/>
	</g>
	<path class="st2" d="M381.7,142.8c-7.4,0-13.4-6-13.4-13.4c0-7.4,6-13.4,13.4-13.4c7.4,0,13.4,6,13.4,13.4
		C395.1,136.8,389.1,142.8,381.7,142.8z M381.7,126c-1.9,0-3.4,1.5-3.4,3.4c0,1.9,1.5,3.4,3.4,3.4s3.4-1.5,3.4-3.4
		C385.1,127.5,383.5,126,381.7,126z"/>
	<path class="st1" d="M52.5,224.4c-7.4,0-13.4-6-13.4-13.4c0-7.4,6-13.4,13.4-13.4c7.4,0,13.4,6,13.4,13.4
		C65.9,218.4,59.9,224.4,52.5,224.4z M52.5,207.7c-1.9,0-3.4,1.5-3.4,3.4s1.5,3.4,3.4,3.4s3.4-1.5,3.4-3.4S54.4,207.7,52.5,207.7z"
		/>
	<path class="st2" d="M332.4,57.4c-7.4,0-13.4-6-13.4-13.4c0-7.4,6-13.4,13.4-13.4c7.4,0,13.4,6,13.4,13.4
		C345.8,51.4,339.8,57.4,332.4,57.4z M332.4,40.6c-1.9,0-3.4,1.5-3.4,3.4s1.5,3.4,3.4,3.4s3.4-1.5,3.4-3.4S334.3,40.6,332.4,40.6z"
		/>
	<g>
		<path class="st1" d="M367.9,234.5c-1.1,0-2.2-0.3-3.1-1c-2.2-1.7-2.6-4.8-0.9-7l13.7-17.7c1.7-2.2,4.8-2.6,7-0.9
			c2.2,1.7,2.6,4.8,0.9,7l-13.7,17.7C370.9,233.9,369.4,234.5,367.9,234.5z"/>
		<path class="st1" d="M383.7,232.6c-1.1,0-2.2-0.3-3.1-1l-17.7-13.7c-2.2-1.7-2.6-4.8-0.9-7s4.8-2.6,7-0.9l17.7,13.7
			c2.2,1.7,2.6,4.8,0.9,7C386.6,231.9,385.2,232.6,383.7,232.6z"/>
	</g>
</g>
<g id="shock_x5F_color">
	<circle class="st3" cx="258.6" cy="249.7" r="48.7"/>
	<circle class="st3" cx="389.2" cy="298.4" r="23.6"/>
	<circle class="st3" cx="160.7" cy="358.3" r="23.6"/>
	<circle class="st3" cx="141.2" cy="198.5" r="23.6"/>
	
		<ellipse transform="matrix(9.667037e-02 -0.9953 0.9953 9.667037e-02 -80.933 641.0748)" class="st3" cx="312.7" cy="365.1" rx="23.6" ry="23.6"/>
	<circle class="st3" cx="311.8" cy="152" r="23.6"/>
</g>
<g id="lines">
	<line class="st4" x1="473.8" y1="399.5" x2="455.5" y2="399.5"/>
	<line class="st4" x1="439.4" y1="398.9" x2="78.7" y2="398.9"/>
	<line class="st4" x1="61.6" y1="399.5" x2="43.4" y2="399.5"/>
	<line class="st4" x1="298.4" y1="174.6" x2="280.8" y2="206.6"/>
	<line class="st4" x1="226.1" y1="287.8" x2="179.8" y2="339.6"/>
	<line class="st4" x1="280.6" y1="296" x2="304.1" y2="343.2"/>
	<line class="st4" x1="304.1" y1="269.5" x2="365.5" y2="288.6"/>
	<line class="st4" x1="160.6" y1="211.9" x2="211.6" y2="229.9"/>
	<circle class="st4" cx="258.6" cy="249.7" r="48.7"/>
	<circle class="st4" cx="389.2" cy="298.4" r="23.6"/>
	<circle class="st4" cx="160.7" cy="358.3" r="23.6"/>
	<circle class="st4" cx="141.2" cy="198.5" r="23.6"/>
	
		<ellipse transform="matrix(9.667037e-02 -0.9953 0.9953 9.667037e-02 -80.933 641.0748)" class="st4" cx="312.7" cy="365.1" rx="23.6" ry="23.6"/>
	<circle class="st4" cx="311.8" cy="152" r="23.6"/>
</g>
<g id="shadows-lights">
	<line class="st5" x1="409.2" y1="411.1" x2="109.3" y2="411.1"/>
	<path class="st6" d="M307.3,242.2c0,25.7-21.8,46.6-48.7,46.6s-48.7-20.9-48.7-46.6"/>
	<path class="st6" d="M412.8,296.4c0,8.9-10.6,16-23.6,16c-13.1,0-23.6-7.2-23.6-16"/>
	<path class="st6" d="M184.3,352.8c0,10.8-10.6,19.5-23.6,19.5c-13.1,0-23.6-8.7-23.6-19.5"/>
	<path class="st6" d="M164.8,193.5c0,10.5-10.6,19.1-23.6,19.1c-13.1,0-23.6-8.6-23.6-19.1"/>
	<path class="st6" d="M336.6,363.5c-1,9.9-12.3,16.9-25.3,15.6c-13-1.3-22.8-10.3-21.8-20.2"/>
	<path class="st6" d="M335.4,148.4c0,9.8-10.6,17.7-23.6,17.7s-23.6-7.9-23.6-17.7"/>
	<path class="st7" d="M258.6,215.3c19,0,34.4,15.4,34.4,34.4"/>
	<path class="st7" d="M389.2,288.6c5.4,0,9.8,4.4,9.8,9.8"/>
	<path class="st7" d="M160.7,348.5c5.4,0,9.9,4.4,9.9,9.9"/>
	<path class="st7" d="M141.2,188.3c5.6,0,10.2,4.6,10.2,10.2"/>
	<path class="st7" d="M313.6,355.7c5.2,0.5,9,5.2,8.5,10.4"/>
	<path class="st7" d="M311.8,140.8c6.2,0,11.2,5,11.2,11.2"/>
</g>
</svg>
