<?xml version="1.0" encoding="utf-8"?>
<!-- Generator: Adobe Illustrator 21.0.0, SVG Export Plug-In . SVG Version: 6.00 Build 0)  -->
<svg version="1.1" id="Layer_1" xmlns="http://www.w3.org/2000/svg" xmlns:xlink="http://www.w3.org/1999/xlink" x="0px" y="0px"
	 viewBox="0 0 512 512" style="enable-background:new 0 0 512 512;" xml:space="preserve">
<style type="text/css">
	.st0{opacity:0.25;fill:#95A2AC;}
	.st1{fill:#FFD54F;}
	.st2{fill:#95A2AC;}
	.st3{fill:#B3BDC3;}
	.st4{fill:#1DE9B6;}
	.st5{fill:none;stroke:#000000;stroke-width:10;stroke-linecap:round;stroke-linejoin:round;stroke-miterlimit:10;}
	.st6{fill:none;stroke:#000000;stroke-width:10;stroke-miterlimit:10;}
	.st7{fill:none;stroke:#000000;stroke-width:10;stroke-linecap:round;stroke-miterlimit:10;}
	.st8{opacity:0.25;fill:none;stroke:#6F6F6F;stroke-width:15;stroke-linecap:round;stroke-miterlimit:10;}
	.st9{opacity:0.25;fill:none;stroke:#000000;stroke-width:10;stroke-linecap:round;stroke-miterlimit:10;}
	.st10{opacity:0.75;fill:#FFFFFF;stroke:#FFFFFF;stroke-width:10;stroke-linecap:round;stroke-miterlimit:10;}
	.st11{opacity:0.25;fill:#040006;}
</style>
<g id="background">
	<circle class="st0" cx="266.3" cy="270.9" r="193.4"/>
	<path class="st1" d="M439.9,211.7c-7.4,0-13.4-6-13.4-13.4c0-7.4,6-13.4,13.4-13.4s13.4,6,13.4,13.4
		C453.3,205.7,447.3,211.7,439.9,211.7z M439.9,194.9c-1.9,0-3.4,1.5-3.4,3.4s1.5,3.4,3.4,3.4s3.4-1.5,3.4-3.4
		S441.7,194.9,439.9,194.9z"/>
	<g>
		<path class="st1" d="M357.9,95.6c-2.8,0-5-2.2-5-5V68.2c0-2.8,2.2-5,5-5s5,2.2,5,5v22.4C362.9,93.4,360.7,95.6,357.9,95.6z"/>
		<path class="st1" d="M369.1,84.4h-22.4c-2.8,0-5-2.2-5-5s2.2-5,5-5h22.4c2.8,0,5,2.2,5,5S371.9,84.4,369.1,84.4z"/>
	</g>
	<g>
		<path class="st2" d="M408.2,148.1c-2.3,0-4.4-1.6-4.9-4l-4.4-22c-0.5-2.7,1.2-5.3,3.9-5.9c2.7-0.5,5.3,1.2,5.9,3.9l4.4,22
			c0.5,2.7-1.2,5.3-3.9,5.9C408.8,148.1,408.5,148.1,408.2,148.1z"/>
		<path class="st2" d="M395,139.4c-2.3,0-4.4-1.6-4.9-4c-0.5-2.7,1.2-5.3,3.9-5.9l22-4.4c2.7-0.5,5.3,1.2,5.9,3.9
			c0.5,2.7-1.2,5.3-3.9,5.9l-22,4.4C395.6,139.3,395.3,139.4,395,139.4z"/>
	</g>
	<g>
		<path class="st1" d="M448.2,285.1c-0.5,0-0.9-0.1-1.4-0.2c-2.7-0.8-4.2-3.5-3.4-6.2l6.2-21.6c0.8-2.7,3.5-4.2,6.2-3.4
			c2.7,0.8,4.2,3.5,3.4,6.2l-6.2,21.6C452.4,283.7,450.4,285.1,448.2,285.1z"/>
		<path class="st1" d="M462,277.4c-0.5,0-0.9-0.1-1.4-0.2l-21.5-6.2c-2.7-0.8-4.2-3.5-3.4-6.2c0.8-2.7,3.5-4.2,6.2-3.4l21.5,6.2
			c2.7,0.8,4.2,3.5,3.4,6.2C466.2,276,464.2,277.4,462,277.4z"/>
	</g>
	<g>
		<path class="st2" d="M113.3,379c-2.3,0-4.4-1.6-4.9-4l-4.4-22c-0.5-2.7,1.2-5.3,3.9-5.9c2.7-0.5,5.3,1.2,5.9,3.9l4.4,22
			c0.5,2.7-1.2,5.3-3.9,5.9C114,379,113.7,379,113.3,379z"/>
		<path class="st2" d="M100.1,370.3c-2.3,0-4.4-1.6-4.9-4c-0.5-2.7,1.2-5.3,3.9-5.9l22-4.4c2.7-0.5,5.3,1.2,5.9,3.9
			c0.5,2.7-1.2,5.3-3.9,5.9l-22,4.4C100.8,370.2,100.5,370.3,100.1,370.3z"/>
	</g>
	<g>
		<path class="st2" d="M270.5,94c-0.5,0-1-0.1-1.5-0.2c-2.6-0.8-4.1-3.6-3.3-6.3l6.6-21.4c0.8-2.6,3.6-4.1,6.3-3.3
			c2.6,0.8,4.1,3.6,3.3,6.3l-6.6,21.4C274.6,92.7,272.6,94,270.5,94z"/>
		<path class="st2" d="M284.5,86.6c-0.5,0-1-0.1-1.5-0.2l-21.4-6.6c-2.6-0.8-4.1-3.6-3.3-6.3c0.8-2.6,3.6-4.1,6.3-3.3l21.4,6.6
			c2.6,0.8,4.1,3.6,3.3,6.3C288.6,85.3,286.6,86.6,284.5,86.6z"/>
	</g>
	<path class="st2" d="M419.8,376.4c-7.4,0-13.4-6-13.4-13.4c0-7.4,6-13.4,13.4-13.4s13.4,6,13.4,13.4
		C433.2,370.4,427.2,376.4,419.8,376.4z M419.8,359.7c-1.9,0-3.4,1.5-3.4,3.4s1.5,3.4,3.4,3.4s3.4-1.5,3.4-3.4
		S421.6,359.7,419.8,359.7z"/>
	<path class="st2" d="M188.6,90.4c-7.4,0-13.4-6-13.4-13.4c0-7.4,6-13.4,13.4-13.4c7.4,0,13.4,6,13.4,13.4
		C201.9,84.4,195.9,90.4,188.6,90.4z M188.6,73.6c-1.9,0-3.4,1.5-3.4,3.4s1.5,3.4,3.4,3.4c1.9,0,3.4-1.5,3.4-3.4
		S190.4,73.6,188.6,73.6z"/>
	<path class="st1" d="M88.8,225.4c-7.4,0-13.4-6-13.4-13.4c0-7.4,6-13.4,13.4-13.4c7.4,0,13.4,6,13.4,13.4
		C102.1,219.3,96.1,225.4,88.8,225.4z M88.8,208.6c-1.9,0-3.4,1.5-3.4,3.4s1.5,3.4,3.4,3.4c1.9,0,3.4-1.5,3.4-3.4
		S90.6,208.6,88.8,208.6z"/>
	<g>
		<path class="st1" d="M108,139.6c-0.5,0-0.9-0.1-1.4-0.2c-2.7-0.8-4.2-3.5-3.4-6.2l6.2-21.6c0.8-2.7,3.5-4.2,6.2-3.4
			c2.7,0.8,4.2,3.5,3.4,6.2l-6.2,21.6C112.2,138.1,110.2,139.6,108,139.6z"/>
		<path class="st1" d="M121.9,131.9c-0.5,0-0.9-0.1-1.4-0.2L99,125.5c-2.7-0.8-4.2-3.5-3.4-6.2c0.8-2.7,3.5-4.2,6.2-3.4l21.5,6.2
			c2.7,0.8,4.2,3.5,3.4,6.2C126.1,130.5,124.1,131.9,121.9,131.9z"/>
	</g>
</g>
<path id="shock_x5F_color" class="st3" d="M359.1,387.2H171.6c-12,0-21.7-9.7-21.7-21.7V178c0-12,9.7-21.7,21.7-21.7h187.5
	c12,0,21.7,9.7,21.7,21.7v187.5C380.7,377.5,371,387.2,359.1,387.2z"/>
<path id="color" class="st4" d="M304.2,208.6h-76.6c-11.6,0-21,9.4-21,21v76.6c0,11.6,9.4,21,21,21h76.6c11.6,0,21-9.4,21-21v-76.6
	C325.2,218,315.8,208.6,304.2,208.6z"/>
<g id="lines">
	<line class="st5" x1="467.2" y1="416.7" x2="450" y2="416.7"/>
	<line class="st5" x1="82.5" y1="416.7" x2="65.4" y2="416.7"/>
	<line class="st5" x1="427.2" y1="416.2" x2="103.5" y2="416.2"/>
	<path class="st6" d="M359.1,387.2H171.6c-12,0-21.7-9.7-21.7-21.7V178c0-12,9.7-21.7,21.7-21.7h187.5c12,0,21.7,9.7,21.7,21.7
		v187.5C380.7,377.5,371,387.2,359.1,387.2z"/>
	<line class="st7" x1="380.7" y1="260.7" x2="408.2" y2="260.7"/>
	<path class="st7" d="M320,192.7H211.7c-11.6,0-21,9.4-21,21V322c0,11.6,9.4,21,21,21H320c11.6,0,21-9.4,21-21V213.7
		C341,202.1,331.6,192.7,320,192.7z"/>
	<path class="st7" d="M304.2,208.6h-76.6c-11.6,0-21,9.4-21,21v76.6c0,11.6,9.4,21,21,21h76.6c11.6,0,21-9.4,21-21v-76.6
		C325.2,218,315.8,208.6,304.2,208.6z"/>
	<line class="st7" x1="380.7" y1="238.6" x2="408.2" y2="238.6"/>
	<line class="st7" x1="380.7" y1="305" x2="408.2" y2="305"/>
	<line class="st7" x1="380.7" y1="282.9" x2="408.2" y2="282.9"/>
	<line class="st7" x1="122.5" y1="260.7" x2="149.9" y2="260.7"/>
	<line class="st7" x1="122.5" y1="238.6" x2="149.9" y2="238.6"/>
	<line class="st7" x1="122.5" y1="305" x2="149.9" y2="305"/>
	<line class="st7" x1="122.5" y1="282.9" x2="149.9" y2="282.9"/>
	<line class="st7" x1="254.2" y1="155.4" x2="254.2" y2="127.9"/>
	<line class="st7" x1="232.1" y1="155.4" x2="232.1" y2="127.9"/>
	<line class="st7" x1="298.5" y1="155.4" x2="298.5" y2="127.9"/>
	<line class="st7" x1="276.4" y1="155.4" x2="276.4" y2="127.9"/>
	<line class="st7" x1="254.2" y1="414.7" x2="254.2" y2="387.2"/>
	<line class="st7" x1="232.1" y1="414.7" x2="232.1" y2="387.2"/>
	<line class="st7" x1="298.5" y1="414.7" x2="298.5" y2="387.2"/>
	<line class="st7" x1="276.4" y1="414.7" x2="276.4" y2="387.2"/>
</g>
<g id="shadows-lights">
	<line class="st8" x1="380.8" y1="428.3" x2="149.9" y2="428.3"/>
	<path class="st9" d="M380.7,358.3c0,10.6-8.6,19.2-19.2,19.2H169.1c-10.6,0-19.2-8.6-19.2-19.2"/>
	<line class="st10" x1="362.5" y1="172.3" x2="170.1" y2="172.3"/>
	<path class="st11" d="M320,192.7H211.7c-11.6,0-21,9.4-21,21V322c0,11.6,9.4,21,21,21H320c11.6,0,21-9.4,21-21V213.7
		C341,202.1,331.6,192.7,320,192.7z M325.2,310.6c0,9.2-7.4,16.6-16.6,16.6h-85.5c-9.2,0-16.6-7.4-16.6-16.6v-85.5
		c0-9.2,7.4-16.6,16.6-16.6h85.5c9.2,0,16.6,7.4,16.6,16.6V310.6z"/>
	<line class="st10" x1="304.1" y1="229.8" x2="260.8" y2="229.8"/>
</g>
</svg>
