<?xml version="1.0" encoding="utf-8"?>
<!-- Generator: Adobe Illustrator 21.0.0, SVG Export Plug-In . SVG Version: 6.00 Build 0)  -->
<svg version="1.1" id="Layer_1" xmlns="http://www.w3.org/2000/svg" xmlns:xlink="http://www.w3.org/1999/xlink" x="0px" y="0px"
	 viewBox="0 0 512 512" style="enable-background:new 0 0 512 512;" xml:space="preserve">
<style type="text/css">
	.st0{opacity:0.25;fill:#95A2AC;}
	.st1{fill:#FFD54F;}
	.st2{fill:#95A2AC;}
	.st3{fill:#B3BDC3;}
	.st4{fill:#1DE9B6;}
	.st5{fill:#BA68C8;}
	.st6{fill:none;stroke:#000000;stroke-width:10;stroke-linecap:round;stroke-linejoin:round;stroke-miterlimit:10;}
	.st7{fill:none;stroke:#000000;stroke-width:10;stroke-miterlimit:10;}
	.st8{fill:#FFFFFF;stroke:#000000;stroke-width:10;stroke-linecap:round;stroke-miterlimit:10;}
	.st9{fill:none;stroke:#000000;stroke-width:10;stroke-linecap:round;stroke-miterlimit:10;}
	.st10{opacity:0.25;}
	.st11{opacity:0.25;fill:none;stroke:#6F6F6F;stroke-width:15;stroke-linecap:round;stroke-miterlimit:10;}
	.st12{opacity:0.25;fill:none;stroke:#000000;stroke-width:10;stroke-miterlimit:10;}
	.st13{opacity:0.75;fill:none;stroke:#FFFFFF;stroke-width:10;stroke-linecap:round;stroke-miterlimit:10;}
</style>
<g id="background">
	<circle class="st0" cx="259.1" cy="273" r="193.4"/>
	<g>
		<path class="st1" d="M226.2,142.1c-2.8,0-5-2.2-5-5v-22.4c0-2.8,2.2-5,5-5s5,2.2,5,5v22.4C231.2,139.8,228.9,142.1,226.2,142.1z"
			/>
		<path class="st1" d="M237.4,130.9H215c-2.8,0-5-2.2-5-5c0-2.8,2.2-5,5-5h22.4c2.8,0,5,2.2,5,5
			C242.4,128.6,240.1,130.9,237.4,130.9z"/>
	</g>
	<g>
		<path class="st2" d="M221.2,73.2c-2.3,0-4.4-1.6-4.9-4l-4.4-22c-0.5-2.7,1.2-5.3,3.9-5.9c2.7-0.5,5.3,1.2,5.9,3.9l4.4,22
			c0.5,2.7-1.2,5.3-3.9,5.9C221.8,73.2,221.5,73.2,221.2,73.2z"/>
		<path class="st2" d="M208,64.5c-2.3,0-4.4-1.6-4.9-4c-0.5-2.7,1.2-5.3,3.9-5.9l22-4.4c2.7-0.5,5.3,1.2,5.9,3.9s-1.2,5.3-3.9,5.9
			l-22,4.4C208.6,64.4,208.3,64.5,208,64.5z"/>
	</g>
	<g>
		<path class="st1" d="M91.9,126.6c-1.1,0-2.1-0.3-3.1-1c-2.2-1.7-2.6-4.8-0.9-7l13.7-17.7c1.7-2.2,4.8-2.6,7-0.9
			c2.2,1.7,2.6,4.8,0.9,7l-13.7,17.7C94.9,126,93.4,126.6,91.9,126.6z"/>
		<path class="st1" d="M107.6,124.7c-1.1,0-2.2-0.3-3.1-1l-17.7-13.7c-2.2-1.7-2.6-4.8-0.9-7c1.7-2.2,4.8-2.6,7-0.9l17.7,13.7
			c2.2,1.7,2.6,4.8,0.9,7C110.6,124,109.1,124.7,107.6,124.7z"/>
	</g>
	<g>
		<path class="st2" d="M87.3,332.3c-2.3,0-4.4-1.6-4.9-4l-4.4-22c-0.5-2.7,1.2-5.3,3.9-5.9c2.7-0.5,5.3,1.2,5.9,3.9l4.4,22
			c0.5,2.7-1.2,5.3-3.9,5.9C87.9,332.3,87.6,332.3,87.3,332.3z"/>
		<path class="st2" d="M74.1,323.6c-2.3,0-4.4-1.6-4.9-4c-0.5-2.7,1.2-5.3,3.9-5.9l22-4.4c2.7-0.6,5.3,1.2,5.9,3.9
			c0.5,2.7-1.2,5.3-3.9,5.9l-22,4.4C74.7,323.5,74.4,323.6,74.1,323.6z"/>
	</g>
	<g>
		<path class="st2" d="M342.1,140.4c-0.5,0-1-0.1-1.5-0.2c-2.6-0.8-4.1-3.6-3.3-6.3l6.6-21.4c0.8-2.6,3.6-4.1,6.3-3.3
			c2.6,0.8,4.1,3.6,3.3,6.3l-6.6,21.4C346.2,139,344.2,140.4,342.1,140.4z"/>
		<path class="st2" d="M356.1,133c-0.5,0-1-0.1-1.5-0.2l-21.4-6.6c-2.6-0.8-4.1-3.6-3.3-6.3c0.8-2.6,3.6-4.1,6.3-3.3l21.4,6.6
			c2.6,0.8,4.1,3.6,3.3,6.3C360.2,131.6,358.2,133,356.1,133z"/>
	</g>
	<path class="st2" d="M65.7,229.7c-7.4,0-13.4-6-13.4-13.4s6-13.4,13.4-13.4c7.4,0,13.4,6,13.4,13.4S73.1,229.7,65.7,229.7z
		 M65.7,212.9c-1.9,0-3.4,1.5-3.4,3.4s1.5,3.4,3.4,3.4c1.9,0,3.4-1.5,3.4-3.4S67.6,212.9,65.7,212.9z"/>
	<path class="st1" d="M464.3,224.3c-7.4,0-13.4-6-13.4-13.4c0-7.4,6-13.4,13.4-13.4c7.4,0,13.4,6,13.4,13.4
		C477.7,218.3,471.7,224.3,464.3,224.3z M464.3,207.5c-1.9,0-3.4,1.5-3.4,3.4s1.5,3.4,3.4,3.4s3.4-1.5,3.4-3.4
		S466.1,207.5,464.3,207.5z"/>
	<path class="st2" d="M332,70.6c-7.4,0-13.4-6-13.4-13.4s6-13.4,13.4-13.4c7.4,0,13.4,6,13.4,13.4S339.4,70.6,332,70.6z M332,53.9
		c-1.9,0-3.4,1.5-3.4,3.4s1.5,3.4,3.4,3.4s3.4-1.5,3.4-3.4S333.9,53.9,332,53.9z"/>
	<g>
		<path class="st1" d="M432.2,326.5c-1.1,0-2.2-0.3-3.1-1c-2.2-1.7-2.6-4.8-0.9-7l13.7-17.7c1.7-2.2,4.8-2.6,7-0.9
			c2.2,1.7,2.6,4.8,0.9,7l-13.7,17.7C435.2,325.8,433.7,326.5,432.2,326.5z"/>
		<path class="st1" d="M447.9,324.5c-1.1,0-2.1-0.3-3.1-1l-17.7-13.7c-2.2-1.7-2.6-4.8-0.9-7s4.8-2.6,7-0.9l17.7,13.7
			c2.2,1.7,2.6,4.8,0.9,7C450.9,323.9,449.4,324.5,447.9,324.5z"/>
	</g>
</g>
<g id="shock_x5F_color">
	<g>
		<path class="st3" d="M145.6,219.1c0.3,0.1,9.5,0.2,20.5,0.2h185.2c11,0,20.2-0.1,20.5-0.2s0.5-4.2,0.5-8.3s-0.1-7.7-0.2-8
			s-9.8-0.5-20.8-0.5H166.1c-11,0-20.2,0.1-20.5,0.2s-0.5,4.2-0.5,8.3S145.3,219,145.6,219.1z"/>
	</g>
	<g>
		<path class="st3" d="M385.2,345.9c-0.9-2.4-8-10.7-15.7-18.6l-52.1-52.6c-7.7-7.8-11.6-22.9-8.7-33.5l0.4-1.5
			c3-10.6-3.6-19.3-14.6-19.3h-74.1c-11,0-17.6,8.7-14.6,19.3l0.4,1.5c3,10.6,6.4,21,7.6,23.1s4.7,4.3,2.7,3s-11.8-0.5-19.5,7.4
			l-52.1,52.6c-7.7,7.8-14.8,16.2-15.7,18.6s1.7,7.7,1.7,7.7s2,0.7,4.3,1.7s14-8,21.8-15.8l55-54.9c7.8-7.8,23.2-14.1,34.2-14.1h22
			c11,0,26.4,6.4,34.2,14.1l55,54.9c7.8,7.8,16.1,14.9,18.5,15.8s7.7-1.7,7.7-1.7S386.2,348.3,385.2,345.9z"/>
	</g>
</g>
<g id="color">
	<path class="st4" d="M391.9,243.8L391.9,243.8c-10.8,0-19.5-8.7-19.5-19.5v-43h39v43C411.4,235,402.6,243.8,391.9,243.8z"/>
	<path class="st4" d="M125.6,243.8L125.6,243.8c10.8,0,19.5-8.7,19.5-19.5v-43h-39v43C106,235,114.8,243.8,125.6,243.8z"/>
	<circle class="st5" cx="258.7" cy="325.4" r="17.1"/>
</g>
<g id="lines">
	<line class="st6" x1="473.4" y1="412.7" x2="455.2" y2="412.7"/>
	<line class="st6" x1="439.1" y1="412.2" x2="78.4" y2="412.2"/>
	<line class="st6" x1="61.2" y1="412.7" x2="43" y2="412.7"/>
	<circle class="st7" cx="258.7" cy="325.4" r="32.5"/>
	<line class="st8" x1="327.6" y1="165.7" x2="456.1" y2="165.7"/>
	<line class="st8" x1="61.3" y1="165.7" x2="189.8" y2="165.7"/>
	<rect x="252" y="270.4" class="st9" width="13.5" height="22.5"/>
	<path class="st7" d="M138.4,165.7h-25.8c0-7.1,5.8-12.9,12.9-12.9S138.4,158.6,138.4,165.7z"/>
	<path class="st7" d="M404.7,165.7H379c0-7.1,5.8-12.9,12.9-12.9C399,152.8,404.7,158.6,404.7,165.7z"/>
	<path class="st7" d="M290.3,270.4h-65.3c-6.1,0-11.5-4.1-13.1-10l-11.2-40h114.1l-11.2,40C301.8,266.4,296.4,270.4,290.3,270.4z"/>
	<g>
		<path class="st9" d="M372.3,203.4v14.9c0,0.6-0.5,1-1,1H146.1c-0.6,0-1-0.5-1-1v-14.9c0-0.6,0.5-1,1-1h225.2
			C371.9,202.4,372.3,202.9,372.3,203.4z"/>
	</g>
	<g>
		<path class="st9" d="M383.6,353.6L383.6,353.6c-3.3,3.3-8.7,3.3-12,0l-83.3-83.1c8.5,0,12.6-3.7,15.1-10l80.2,81.1
			C386.9,344.9,386.9,350.2,383.6,353.6z"/>
	</g>
	<g>
		<path class="st9" d="M131,353.6L131,353.6c3.3,3.3,8.7,3.3,12,0l83.3-83.1c-8.5,0-12.6-3.7-15.1-10L131,341.6
			C127.7,344.9,127.7,350.2,131,353.6z"/>
	</g>
	<path class="st9" d="M391.9,243.8L391.9,243.8c-10.8,0-19.5-8.7-19.5-19.5v-43h39v43C411.4,235,402.6,243.8,391.9,243.8z"/>
	<path class="st9" d="M125.6,243.8L125.6,243.8c10.8,0,19.5-8.7,19.5-19.5v-43h-39v43C106,235,114.8,243.8,125.6,243.8z"/>
	<circle class="st7" cx="258.7" cy="325.4" r="17.1"/>
</g>
<g id="shadows-lights">
	<path class="st10" d="M290.3,270.4h-65.3c-6.1,0-11.5-4.1-13.1-10l-11.2-40h114.1l-11.2,40C301.8,266.4,296.4,270.4,290.3,270.4z"
		/>
	<circle class="st10" cx="258.7" cy="325.4" r="32.5"/>
	<g>
		<line class="st11" x1="408.9" y1="424.4" x2="108.9" y2="424.4"/>
		<path class="st12" d="M305.6,252.7c-1.7,5.9-9.5,10-15.6,10h-65.3c-6.1,0-13.4-4.1-15-10"/>
		<line class="st13" x1="294.8" y1="235.3" x2="244" y2="235.3"/>
		<path class="st13" d="M257,318.4c6.3,0,8.5,2.2,8.5,9.1"/>
	</g>
</g>
</svg>
