<?xml version="1.0" encoding="utf-8"?>
<!-- Generator: Adobe Illustrator 21.0.0, SVG Export Plug-In . SVG Version: 6.00 Build 0)  -->
<svg version="1.1" id="Layer_1" xmlns="http://www.w3.org/2000/svg" xmlns:xlink="http://www.w3.org/1999/xlink" x="0px" y="0px"
	 viewBox="0 0 512 512" style="enable-background:new 0 0 512 512;" xml:space="preserve">
<style type="text/css">
	.st0{opacity:0.25;fill:#95A2AC;}
	.st1{fill:#FFD54F;}
	.st2{fill:#95A2AC;}
	.st3{fill:#B3BDC3;}
	.st4{fill:#1DE9B6;}
	.st5{fill:#BA68C8;}
	.st6{opacity:0.25;fill:none;stroke:#6F6F6F;stroke-width:15;stroke-linecap:round;stroke-miterlimit:10;}
	.st7{opacity:0.75;fill:#BA68C8;stroke:#FFFFFF;stroke-width:10;stroke-linecap:round;stroke-linejoin:round;stroke-miterlimit:10;}
	.st8{opacity:0.25;fill:none;stroke:#000000;stroke-width:10;stroke-linecap:round;stroke-linejoin:round;stroke-miterlimit:10;}
	.st9{opacity:0.5;}
	.st10{fill:none;stroke:#000000;stroke-width:10;stroke-linecap:round;stroke-linejoin:round;stroke-miterlimit:10;}
</style>
<g id="background">
	<circle class="st0" cx="256.9" cy="262.6" r="193.4"/>
	<g>
		<path class="st1" d="M413.2,345.1c-2.8,0-5-2.2-5-5v-22.4c0-2.8,2.2-5,5-5s5,2.2,5,5v22.4C418.2,342.8,415.9,345.1,413.2,345.1z"
			/>
		<path class="st1" d="M424.4,333.9H402c-2.8,0-5-2.2-5-5s2.2-5,5-5h22.4c2.8,0,5,2.2,5,5S427.1,333.9,424.4,333.9z"/>
	</g>
	<g>
		<path class="st2" d="M101.4,171.4c-2.3,0-4.4-1.6-4.9-4l-4.4-22c-0.5-2.7,1.2-5.3,3.9-5.9c2.7-0.5,5.3,1.2,5.9,3.9l4.4,22
			c0.5,2.7-1.2,5.3-3.9,5.9C102,171.4,101.7,171.4,101.4,171.4z"/>
		<path class="st2" d="M88.2,162.6c-2.3,0-4.4-1.6-4.9-4c-0.5-2.7,1.2-5.3,3.9-5.9l22-4.4c2.7-0.5,5.3,1.2,5.9,3.9
			c0.5,2.7-1.2,5.3-3.9,5.9l-22,4.4C88.8,162.6,88.5,162.6,88.2,162.6z"/>
	</g>
	<g>
		<path class="st1" d="M413.2,262.9c-1.1,0-2.2-0.3-3.1-1c-2.2-1.7-2.6-4.8-0.9-7l13.7-17.7c1.7-2.2,4.8-2.6,7-0.9
			c2.2,1.7,2.6,4.8,0.9,7l-13.7,17.7C416.1,262.2,414.7,262.9,413.2,262.9z"/>
		<path class="st1" d="M428.9,260.9c-1.1,0-2.2-0.3-3.1-1l-17.7-13.7c-2.2-1.7-2.6-4.8-0.9-7c1.7-2.2,4.8-2.6,7-0.9l17.7,13.7
			c2.2,1.7,2.6,4.8,0.9,7C431.9,260.2,430.4,260.9,428.9,260.9z"/>
	</g>
	<g>
		<path class="st2" d="M310.3,100.5c-2.3,0-4.4-1.6-4.9-4l-4.4-22c-0.5-2.7,1.2-5.3,3.9-5.9c2.7-0.5,5.3,1.2,5.9,3.9l4.4,22
			c0.5,2.7-1.2,5.3-3.9,5.9C310.9,100.4,310.6,100.5,310.3,100.5z"/>
		<path class="st2" d="M297.1,91.7c-2.3,0-4.4-1.6-4.9-4c-0.5-2.7,1.2-5.3,3.9-5.9l22-4.4c2.7-0.5,5.3,1.2,5.9,3.9
			c0.5,2.7-1.2,5.3-3.9,5.9l-22,4.4C297.7,91.7,297.4,91.7,297.1,91.7z"/>
	</g>
	<path class="st2" d="M79.8,236.2c-7.4,0-13.4-6-13.4-13.4c0-7.4,6-13.4,13.4-13.4c7.4,0,13.4,6,13.4,13.4
		C93.2,230.2,87.2,236.2,79.8,236.2z M79.8,219.4c-1.9,0-3.4,1.5-3.4,3.4c0,1.9,1.5,3.4,3.4,3.4s3.4-1.5,3.4-3.4
		C83.2,220.9,81.7,219.4,79.8,219.4z"/>
	<path class="st1" d="M299,155.9c-7.4,0-13.4-6-13.4-13.4c0-7.4,6-13.4,13.4-13.4c7.4,0,13.4,6,13.4,13.4
		C312.4,149.9,306.4,155.9,299,155.9z M299,139.1c-1.9,0-3.4,1.5-3.4,3.4c0,1.9,1.5,3.4,3.4,3.4s3.4-1.5,3.4-3.4
		C302.4,140.6,300.9,139.1,299,139.1z"/>
	<path class="st2" d="M213.7,84.7c-7.4,0-13.4-6-13.4-13.4c0-7.4,6-13.4,13.4-13.4c7.4,0,13.4,6,13.4,13.4
		C227.1,78.7,221.1,84.7,213.7,84.7z M213.7,67.9c-1.9,0-3.4,1.5-3.4,3.4c0,1.9,1.5,3.4,3.4,3.4s3.4-1.5,3.4-3.4
		C217.1,69.4,215.6,67.9,213.7,67.9z"/>
	<g>
		<path class="st1" d="M383.8,128.4c-1.1,0-2.2-0.3-3.1-1c-2.2-1.7-2.6-4.8-0.9-7l13.7-17.7c1.7-2.2,4.8-2.6,7-0.9
			c2.2,1.7,2.6,4.8,0.9,7l-13.7,17.7C386.8,127.7,385.3,128.4,383.8,128.4z"/>
		<path class="st1" d="M399.5,126.4c-1.1,0-2.2-0.3-3.1-1l-17.7-13.7c-2.2-1.7-2.6-4.8-0.9-7s4.8-2.6,7-0.9l17.7,13.7
			c2.2,1.7,2.6,4.8,0.9,7C402.5,125.7,401,126.4,399.5,126.4z"/>
	</g>
	<path class="st1" d="M90.9,324.1c-7.4,0-13.4-6-13.4-13.4c0-7.4,6-13.4,13.4-13.4c7.4,0,13.4,6,13.4,13.4
		C104.3,318.1,98.3,324.1,90.9,324.1z M90.9,307.3c-1.9,0-3.4,1.5-3.4,3.4c0,1.9,1.5,3.4,3.4,3.4s3.4-1.5,3.4-3.4
		C94.3,308.8,92.8,307.3,90.9,307.3z"/>
	<path class="st2" d="M390.9,188.2c-7.4,0-13.4-6-13.4-13.4c0-7.4,6-13.4,13.4-13.4s13.4,6,13.4,13.4
		C404.3,182.2,398.3,188.2,390.9,188.2z M390.9,171.4c-1.9,0-3.4,1.5-3.4,3.4c0,1.9,1.5,3.4,3.4,3.4s3.4-1.5,3.4-3.4
		C394.3,172.9,392.8,171.4,390.9,171.4z"/>
</g>
<path id="shock_x5F_color" class="st3" d="M365.2,257.9l-16.1-49.4c-5.1-15.5-18.8-25.9-34.3-25.9H199.5c-15.1,0-28.7,10-34,25.1
	l-16.9,48.2c-8.5,4.4-17,18.5-17,27l-0.5,54.5c0,8.6,6.5,15.5,14.6,15.5c0,0,43.2,6.7,108.5,6.7c69.7,0,112.1-6.7,112.1-6.7
	c8.1,0,14.6-7,14.6-15.5l0.5-54.5C381.4,274.3,373,261.3,365.2,257.9z"/>
<g id="color">
	<path class="st4" d="M194.2,203.7h126.5c7.1,0,13.3,4.8,15.5,12l10.2,33.6c1.3,4.2-1.9,8.5-6.3,8.5H175.2c-4.4,0-7.6-4.2-6.3-8.4
		l9.8-33.5C180.7,208.7,187,203.7,194.2,203.7z"/>
	<polygon class="st5" points="181.3,335.4 143.8,330.4 143.8,307.1 181.3,316.7 	"/>
	<polygon class="st5" points="329.9,335.4 367.5,330.4 367.5,307.1 329.9,316.2 	"/>
	<path class="st4" d="M202.6,111.8l19.4-0.1l0.2,38.7l-19.4,0.1c-10.7,0.1-19.4-8.6-19.5-19.3v0
		C183.3,120.6,191.9,111.9,202.6,111.8z"/>
</g>
<g id="shadows-lights">
	<line class="st6" x1="406.7" y1="414" x2="106.7" y2="414"/>
	<line class="st7" x1="356.2" y1="275.4" x2="271.7" y2="275.4"/>
	<line class="st7" x1="328.1" y1="240.4" x2="283.6" y2="240.4"/>
	<path class="st8" d="M130.9,328.9c0,8.6,6.5,15.5,14.6,15.5c0,0,43.2,6.7,108.5,6.7c69.7,0,112.1-6.7,112.1-6.7
		c8.1,0,14.6-7,14.6-15.5"/>
	<line class="st8" x1="181.3" y1="212.6" x2="329.9" y2="212.6"/>
	<path class="st9" d="M342,393.5h12.5c6.8,0,12.3-5.5,12.3-12.3l0.5-28.4l-37.6,4v24.4C329.7,388,335.2,393.5,342,393.5z"/>
	<path class="st9" d="M171,393.5h-12.5c-6.8,0-12.3-5.5-12.3-12.3l-0.5-28.4l37.6,4v24.4C183.3,388,177.8,393.5,171,393.5z"/>
</g>
<g id="lines">
	<line class="st10" x1="471.2" y1="402.3" x2="453" y2="402.3"/>
	<line class="st10" x1="436.9" y1="401.8" x2="76.2" y2="401.8"/>
	<line class="st10" x1="59" y1="402.3" x2="40.8" y2="402.3"/>
	<path class="st10" d="M198.9,321.2c0,0,30.8,6.3,55.3,6.3c24.7,0,59.7-6.3,59.7-6.3"/>
	<path class="st10" d="M183.4,131.3h-21.4c-11.3,0-20.5,9.2-20.5,20.5v20.5l0.6,9.5c0,10,8.1,18.1,18.1,18.1h9.1"/>
	<path class="st10" d="M365.2,257.9l-16.1-49.4c-5.1-15.5-18.8-25.9-34.3-25.9H199.5c-15.1,0-28.7,10-34,25.1l-16.9,48.2
		c-8.5,4.4-17,18.5-17,27l-0.5,54.5c0,8.6,6.5,15.5,14.6,15.5c0,0,43.2,6.7,108.5,6.7c69.7,0,112.1-6.7,112.1-6.7
		c8.1,0,14.6-7,14.6-15.5l0.5-54.5C381.4,274.3,373,261.3,365.2,257.9z"/>
	<path class="st10" d="M355.2,393.5h-12.5c-6.8,0-12.3-5.5-12.3-12.3l-0.5-24.5l37-3.9l0.5,28.4C367.5,388,362,393.5,355.2,393.5z"
		/>
	<path class="st10" d="M199,336.9c0,0,30.8,6.3,55.3,6.3c24.7,0,59.7-6.3,59.7-6.3"/>
	<path class="st10" d="M194.2,203.7h126.5c7.1,0,13.3,4.8,15.5,12l10.2,33.6c1.3,4.2-1.9,8.5-6.3,8.5H175.2c-4.4,0-7.6-4.2-6.3-8.4
		l9.8-33.5C180.7,208.7,187,203.7,194.2,203.7z"/>
	<polygon class="st10" points="181.3,335.4 143.8,330.4 143.8,307.1 181.3,316.7 	"/>
	<polygon class="st10" points="329.9,335.4 367.5,330.4 367.5,307.1 329.9,316.2 	"/>
	<g>
		<path class="st10" d="M202.6,111.8l19.4-0.1l0.2,38.7l-19.4,0.1c-10.7,0.1-19.4-8.6-19.5-19.3v0
			C183.3,120.6,191.9,111.9,202.6,111.8z"/>
		<line class="st10" x1="222.2" y1="144.6" x2="244" y2="144.5"/>
		<line class="st10" x1="222" y1="117.1" x2="243.9" y2="117"/>
	</g>
	<path class="st10" d="M171,393.5h-12.5c-6.8,0-12.3-5.5-12.3-12.3l-0.5-28.4l37.6,4v24.4C183.3,388,177.8,393.5,171,393.5z"/>
</g>
</svg>
