<?xml version="1.0" encoding="utf-8"?>
<!-- Generator: Adobe Illustrator 21.0.0, SVG Export Plug-In . SVG Version: 6.00 Build 0)  -->
<svg version="1.1" id="Layer_1" xmlns="http://www.w3.org/2000/svg" xmlns:xlink="http://www.w3.org/1999/xlink" x="0px" y="0px"
	 viewBox="0 0 512 512" style="enable-background:new 0 0 512 512;" xml:space="preserve">
<style type="text/css">
	.st0{opacity:0.25;fill:#95A2AC;}
	.st1{fill:#FFD54F;}
	.st2{fill:#95A2AC;}
	.st3{fill:#B3BDC3;}
	.st4{fill:#BA68C8;}
	.st5{fill:none;stroke:#000000;stroke-width:10;stroke-linecap:round;stroke-linejoin:round;stroke-miterlimit:10;}
	.st6{fill:none;stroke:#000000;stroke-width:10;stroke-linecap:round;stroke-miterlimit:10;}
	.st7{opacity:0.25;fill:none;stroke:#6F6F6F;stroke-width:15;stroke-linecap:round;stroke-miterlimit:10;}
	.st8{opacity:0.25;fill:none;stroke:#000000;stroke-width:10;stroke-linecap:round;stroke-miterlimit:10;}
	.st9{opacity:0.75;fill:none;stroke:#FFFFFF;stroke-width:10;stroke-linecap:round;stroke-miterlimit:10;}
</style>
<g id="background">
	<circle class="st0" cx="263.4" cy="250.6" r="193.4"/>
	<g>
		<path class="st1" d="M290.1,110.7c-2.8,0-5-2.2-5-5V83.3c0-2.8,2.2-5,5-5s5,2.2,5,5v22.4C295.1,108.5,292.8,110.7,290.1,110.7z"/>
		<path class="st1" d="M301.3,99.5h-22.4c-2.8,0-5-2.2-5-5s2.2-5,5-5h22.4c2.8,0,5,2.2,5,5S304,99.5,301.3,99.5z"/>
	</g>
	<g>
		<path class="st2" d="M168,114.3c-2.3,0-4.4-1.6-4.9-4l-4.4-22c-0.5-2.7,1.2-5.3,3.9-5.9c2.7-0.5,5.3,1.2,5.9,3.9l4.4,22
			c0.5,2.7-1.2,5.3-3.9,5.9C168.7,114.3,168.4,114.3,168,114.3z"/>
		<path class="st2" d="M154.8,105.5c-2.3,0-4.4-1.6-4.9-4c-0.5-2.7,1.2-5.3,3.9-5.9l22-4.4c2.7-0.5,5.3,1.2,5.9,3.9
			c0.5,2.7-1.2,5.3-3.9,5.9l-22,4.4C155.5,105.5,155.2,105.5,154.8,105.5z"/>
	</g>
	<g>
		<path class="st1" d="M380.2,353c-1.1,0-2.1-0.3-3.1-1c-2.2-1.7-2.6-4.8-0.9-7l13.7-17.7c1.7-2.2,4.8-2.6,7-0.9
			c2.2,1.7,2.6,4.8,0.9,7l-13.7,17.7C383.2,352.4,381.7,353,380.2,353z"/>
		<path class="st1" d="M395.9,351.1c-1.1,0-2.1-0.3-3.1-1l-17.7-13.7c-2.2-1.7-2.6-4.8-0.9-7c1.7-2.2,4.8-2.6,7-0.9l17.7,13.7
			c2.2,1.7,2.6,4.8,0.9,7C398.9,350.4,397.4,351.1,395.9,351.1z"/>
	</g>
	<g>
		<path class="st2" d="M119.1,325.2c-2.3,0-4.4-1.6-4.9-4l-4.4-22c-0.5-2.7,1.2-5.3,3.9-5.9c2.7-0.5,5.3,1.2,5.9,3.9l4.4,22
			c0.5,2.7-1.2,5.3-3.9,5.9C119.7,325.1,119.4,325.2,119.1,325.2z"/>
		<path class="st2" d="M105.9,316.4c-2.3,0-4.4-1.6-4.9-4c-0.5-2.7,1.2-5.3,3.9-5.9l22-4.4c2.7-0.5,5.3,1.2,5.9,3.9
			s-1.2,5.3-3.9,5.9l-22,4.4C106.5,316.3,106.2,316.4,105.9,316.4z"/>
	</g>
	<path class="st2" d="M78.4,233.9c-7.4,0-13.4-6-13.4-13.4c0-7.4,6-13.4,13.4-13.4c7.4,0,13.4,6,13.4,13.4
		C91.8,227.9,85.8,233.9,78.4,233.9z M78.4,217.1c-1.9,0-3.4,1.5-3.4,3.4s1.5,3.4,3.4,3.4c1.9,0,3.4-1.5,3.4-3.4
		S80.3,217.1,78.4,217.1z"/>
	<path class="st1" d="M220.4,135.9c-7.4,0-13.4-6-13.4-13.4c0-7.4,6-13.4,13.4-13.4s13.4,6,13.4,13.4
		C233.8,129.9,227.8,135.9,220.4,135.9z M220.4,119.1c-1.9,0-3.4,1.5-3.4,3.4s1.5,3.4,3.4,3.4s3.4-1.5,3.4-3.4
		S222.3,119.1,220.4,119.1z"/>
	<path class="st2" d="M430.2,301.7c-7.4,0-13.4-6-13.4-13.4s6-13.4,13.4-13.4c7.4,0,13.4,6,13.4,13.4S437.6,301.7,430.2,301.7z
		 M430.2,284.9c-1.9,0-3.4,1.5-3.4,3.4s1.5,3.4,3.4,3.4c1.9,0,3.4-1.5,3.4-3.4S432.1,284.9,430.2,284.9z"/>
	<g>
		<path class="st1" d="M406.3,234.4c-1.1,0-2.1-0.3-3.1-1c-2.2-1.7-2.6-4.8-0.9-7l13.7-17.7c1.7-2.2,4.8-2.6,7-0.9
			c2.2,1.7,2.6,4.8,0.9,7l-13.7,17.7C409.3,233.7,407.8,234.4,406.3,234.4z"/>
		<path class="st1" d="M422,232.4c-1.1,0-2.1-0.3-3.1-1l-17.7-13.7c-2.2-1.7-2.6-4.8-0.9-7c1.7-2.2,4.8-2.6,7-0.9l17.7,13.7
			c2.2,1.7,2.6,4.8,0.9,7C425,231.7,423.5,232.4,422,232.4z"/>
	</g>
	<path class="st1" d="M146.5,201.8c-7.4,0-13.4-6-13.4-13.4c0-7.4,6-13.4,13.4-13.4s13.4,6,13.4,13.4
		C159.9,195.8,153.8,201.8,146.5,201.8z M146.5,185c-1.9,0-3.4,1.5-3.4,3.4s1.5,3.4,3.4,3.4s3.4-1.5,3.4-3.4S148.3,185,146.5,185z"
		/>
	<path class="st2" d="M365.7,127.5c-7.4,0-13.4-6-13.4-13.4c0-7.4,6-13.4,13.4-13.4s13.4,6,13.4,13.4
		C379.1,121.5,373.1,127.5,365.7,127.5z M365.7,110.7c-1.9,0-3.4,1.5-3.4,3.4s1.5,3.4,3.4,3.4s3.4-1.5,3.4-3.4
		S367.5,110.7,365.7,110.7z"/>
</g>
<path id="shock_x5F_color" class="st3" d="M347.9,253.6c0-54.5-50.3-97.3-107-84.6c-29.5,6.6-53.9,29.4-62.7,58.3
	c-9.5,31.2-1.3,60,16,81.1h-0.5l57.2,72.3c5.2,6.5,15.1,6.5,20.3,0l57.2-72.3h-0.5C340.2,293.4,347.9,274.5,347.9,253.6z"/>
<circle id="color" class="st4" cx="261.1" cy="251.5" r="57.7"/>
<g id="lines">
	<line class="st5" x1="477.7" y1="390.4" x2="459.5" y2="390.4"/>
	<line class="st5" x1="443.4" y1="389.9" x2="82.7" y2="389.9"/>
	<line class="st5" x1="65.6" y1="390.4" x2="47.3" y2="390.4"/>
	<g>
		<path class="st6" d="M318.8,136.6c33.7-0.5,61.4,26.5,61.8,60.1"/>
		<path class="st6" d="M319,151.1c25.5-0.4,46.4,20,46.7,45.5"/>
		<path class="st6" d="M319.1,165.4c17.6-0.2,32,13.8,32.2,31.3"/>
	</g>
	<path class="st5" d="M347.9,253.6c0-54.5-50.3-97.3-107-84.6c-29.5,6.6-53.9,29.4-62.7,58.3c-9.5,31.2-1.3,60,16,81.1h-0.5
		l57.2,72.3c5.2,6.5,15.1,6.5,20.3,0l57.2-72.3h-0.5C340.2,293.4,347.9,274.5,347.9,253.6z"/>
	<circle class="st5" cx="261.1" cy="251.5" r="57.7"/>
</g>
<g id="shadows-lights">
	<line class="st7" x1="413.2" y1="402.1" x2="113.3" y2="402.1"/>
	<path class="st8" d="M176.9,274.2l83.3,102.4c0.5,0.6,1.4,0.6,1.9,0l83.3-102.4"/>
	<path class="st8" d="M203.6,246.2c0,31.9,25.6,53.9,57.4,53.9s57.2-24.1,57.2-55.9"/>
	<path class="st9" d="M305.3,251.5c0-24.4-19.8-44.3-44.3-44.3"/>
</g>
</svg>
