<?xml version="1.0" encoding="utf-8"?>
<!-- Generator: Adobe Illustrator 21.0.0, SVG Export Plug-In . SVG Version: 6.00 Build 0)  -->
<svg version="1.1" id="Layer_1" xmlns="http://www.w3.org/2000/svg" xmlns:xlink="http://www.w3.org/1999/xlink" x="0px" y="0px"
	 viewBox="0 0 512 512" style="enable-background:new 0 0 512 512;" xml:space="preserve">
<style type="text/css">
	.st0{opacity:0.25;fill:#95A2AC;}
	.st1{fill:#FFD54F;}
	.st2{fill:#95A2AC;}
	.st3{fill:#B3BDC3;}
	.st4{fill:#BA68C8;}
	.st5{opacity:0.25;fill:none;stroke:#6F6F6F;stroke-width:15;stroke-linecap:round;stroke-miterlimit:10;}
	.st6{opacity:0.75;fill:none;stroke:#FFFFFF;stroke-width:10;stroke-linecap:round;stroke-miterlimit:10;}
	.st7{opacity:0.25;fill:none;stroke:#000000;stroke-width:10;stroke-linecap:round;stroke-miterlimit:10;}
	.st8{fill:none;stroke:#000000;stroke-width:10;stroke-linecap:round;stroke-linejoin:round;stroke-miterlimit:10;}
	.st9{fill:none;stroke:#000000;stroke-width:10;stroke-linecap:round;stroke-miterlimit:10;}
	.st10{fill:none;stroke:#000000;stroke-width:10;stroke-miterlimit:10;}
</style>
<g id="background">
	<circle class="st0" cx="262.3" cy="273.9" r="193.4"/>
	<g>
		<path class="st1" d="M134.8,196.2c-0.9,0-1.9-0.3-2.7-0.8c-2.3-1.5-3-4.6-1.4-6.9l12.3-18.7c1.5-2.3,4.6-3,6.9-1.4
			c2.3,1.5,3,4.6,1.4,6.9L139,193.9C138,195.4,136.4,196.2,134.8,196.2z"/>
		<path class="st1" d="M150.3,192.9c-0.9,0-1.9-0.3-2.7-0.8l-18.7-12.3c-2.3-1.5-3-4.6-1.4-6.9c1.5-2.3,4.6-3,6.9-1.4l18.7,12.3
			c2.3,1.5,3,4.6,1.4,6.9C153.5,192.1,151.9,192.9,150.3,192.9z"/>
	</g>
	<g>
		<path class="st2" d="M116,135.1c-2.3,0-4.4-1.6-4.9-4l-4.4-22c-0.5-2.7,1.2-5.3,3.9-5.9c2.7-0.5,5.3,1.2,5.9,3.9l4.4,22
			c0.5,2.7-1.2,5.3-3.9,5.9C116.7,135.1,116.3,135.1,116,135.1z"/>
		<path class="st2" d="M102.8,126.3c-2.3,0-4.4-1.6-4.9-4c-0.5-2.7,1.2-5.3,3.9-5.9l22-4.4c2.7-0.5,5.3,1.2,5.9,3.9
			c0.5,2.7-1.2,5.3-3.9,5.9l-22,4.4C103.5,126.3,103.1,126.3,102.8,126.3z"/>
	</g>
	<g>
		<path class="st1" d="M228.5,76.3c-0.5,0-0.9-0.1-1.4-0.2c-2.7-0.8-4.2-3.5-3.4-6.2l6.2-21.6c0.8-2.7,3.5-4.2,6.2-3.4
			c2.7,0.8,4.2,3.5,3.4,6.2l-6.2,21.6C232.7,74.9,230.7,76.3,228.5,76.3z"/>
		<path class="st1" d="M242.4,68.6c-0.5,0-0.9-0.1-1.4-0.2l-21.6-6.2c-2.7-0.8-4.2-3.5-3.4-6.2c0.8-2.7,3.5-4.2,6.2-3.4l21.6,6.2
			c2.7,0.8,4.2,3.5,3.4,6.2C246.6,67.2,244.6,68.6,242.4,68.6z"/>
	</g>
	<g>
		<path class="st2" d="M87,337.3c-2.3,0-4.4-1.6-4.9-4l-4.4-22c-0.5-2.7,1.2-5.3,3.9-5.9c2.7-0.5,5.3,1.2,5.9,3.9l4.4,22
			c0.5,2.7-1.2,5.3-3.9,5.9C87.7,337.2,87.3,337.3,87,337.3z"/>
		<path class="st2" d="M73.8,328.5c-2.3,0-4.4-1.6-4.9-4c-0.5-2.7,1.2-5.3,3.9-5.9l22-4.4c2.7-0.5,5.3,1.2,5.9,3.9s-1.2,5.3-3.9,5.9
			l-22,4.4C74.5,328.4,74.1,328.5,73.8,328.5z"/>
	</g>
	<g>
		<path class="st2" d="M446.1,186.8c-0.5,0-1-0.1-1.5-0.2c-2.6-0.8-4.1-3.6-3.3-6.3l6.6-21.4c0.8-2.6,3.6-4.1,6.3-3.3
			c2.6,0.8,4.1,3.6,3.3,6.3l-6.6,21.4C450.2,185.4,448.2,186.8,446.1,186.8z"/>
		<path class="st2" d="M460.1,179.4c-0.5,0-1-0.1-1.5-0.2l-21.4-6.6c-2.6-0.8-4.1-3.6-3.3-6.3c0.8-2.6,3.6-4.1,6.3-3.3l21.4,6.6
			c2.6,0.8,4.1,3.6,3.3,6.3C464.2,178,462.2,179.4,460.1,179.4z"/>
	</g>
	<path class="st2" d="M433.1,294.6c-7.4,0-13.4-6-13.4-13.4c0-7.4,6-13.4,13.4-13.4c7.4,0,13.4,6,13.4,13.4
		C446.5,288.6,440.5,294.6,433.1,294.6z M433.1,277.8c-1.9,0-3.4,1.5-3.4,3.4s1.5,3.4,3.4,3.4s3.4-1.5,3.4-3.4
		S435,277.8,433.1,277.8z"/>
	<path class="st1" d="M60.3,232.2c-7.4,0-13.4-6-13.4-13.4c0-7.4,6-13.4,13.4-13.4c7.4,0,13.4,6,13.4,13.4
		C73.7,226.2,67.7,232.2,60.3,232.2z M60.3,215.5c-1.9,0-3.4,1.5-3.4,3.4s1.5,3.4,3.4,3.4s3.4-1.5,3.4-3.4S62.1,215.5,60.3,215.5z"
		/>
	<g>
		<path class="st1" d="M341.8,91.9c-1,0-2.1-0.3-3-1c-2.2-1.6-2.7-4.8-1-7l13.4-18c1.6-2.2,4.8-2.7,7-1c2.2,1.6,2.7,4.8,1,7
			l-13.4,18C344.9,91.2,343.4,91.9,341.8,91.9z"/>
		<path class="st1" d="M357.5,89.6c-1,0-2.1-0.3-3-1l-18-13.4c-2.2-1.6-2.7-4.8-1-7c1.6-2.2,4.8-2.7,7-1l18,13.4
			c2.2,1.6,2.7,4.8,1,7C360.6,88.9,359,89.6,357.5,89.6z"/>
	</g>
	<path class="st2" d="M368.5,171c-7.4,0-13.4-6-13.4-13.4s6-13.4,13.4-13.4c7.4,0,13.4,6,13.4,13.4S375.9,171,368.5,171z
		 M368.5,154.2c-1.9,0-3.4,1.5-3.4,3.4s1.5,3.4,3.4,3.4s3.4-1.5,3.4-3.4S370.4,154.2,368.5,154.2z"/>
	<g>
		<path class="st2" d="M208.6,126.9c-1.9,0-3.8-1.1-4.6-3l-8.9-20.6c-1.1-2.5,0.1-5.5,2.6-6.6c2.5-1.1,5.5,0.1,6.6,2.6l8.9,20.6
			c1.1,2.5-0.1,5.5-2.6,6.6C209.9,126.7,209.2,126.9,208.6,126.9z"/>
		<path class="st2" d="M193.8,121.1c-1.9,0-3.8-1.1-4.6-3c-1.1-2.5,0.1-5.5,2.6-6.6l20.6-8.9c2.5-1.1,5.5,0.1,6.6,2.6
			s-0.1,5.5-2.6,6.6l-20.6,8.9C195.2,120.9,194.5,121.1,193.8,121.1z"/>
	</g>
</g>
<path id="shock_x5F_color" class="st3" d="M369.1,273.2v-22.8c0-59.4-48.1-107.5-107.5-107.5c-59.4,0-107.5,48.1-107.5,107.5v22.8
	c-19.8,3.3-35,20.5-35,41.3v34c0,23.1,18.7,41.9,41.9,41.9h19.6c4.7,0,8.5-3.8,8.5-8.5V281.2c0-4.7-3.8-8.5-8.5-8.5h-6.2
	c0,0,0,0,0,0h2.9v-20.6c0-46.5,37.7-84.2,84.2-84.2c46.5,0,84.2,37.7,84.2,84.2v20.6h2.9c0,0,0,0,0,0h-6.2c-4.7,0-8.5,3.8-8.5,8.5
	v100.7c0,4.7,3.8,8.5,8.5,8.5h19.6c23.1,0,41.9-18.7,41.9-41.9v-34C404,293.7,388.9,276.5,369.1,273.2z"/>
<g id="color">
	<path class="st4" d="M375.5,276.6v109.8c16.7-8.1,28.5-28,28.5-51.3V328C404,304.6,392.2,284.7,375.5,276.6z"/>
	<path class="st4" d="M147.7,276.6c-16.7,8.1-28.5,28-28.5,51.3v7.1c0,23.4,11.8,43.2,28.5,51.3V276.6z"/>
</g>
<g id="shadows-lights">
	<line class="st5" x1="361.8" y1="410.6" x2="161.6" y2="410.6"/>
	<path class="st6" d="M348.7,288.8c4.2,0,8.2,0.5,12.2,1.3"/>
	<path class="st6" d="M174.3,288.8c-4.2,0-8.2,0.5-12.2,1.3"/>
	<path class="st7" d="M351,263.8c4.2,0,8.2,0.5,12.2,1.3"/>
	<path class="st7" d="M171.9,263.8c-4.2,0-8.2,0.5-12.2,1.3"/>
	<path class="st7" d="M404,329.6v6.3c0,27.2-24.8,49.3-55.3,49.3h-3.4c-6.2,0-11.2-4.5-11.2-10"/>
	<path class="st7" d="M119.1,329.6v6.3c0,27.2,24.8,49.3,55.3,49.3h3.4c6.2,0,11.2-4.5,11.2-10"/>
</g>
<g id="lines">
	<line class="st8" x1="424.9" y1="398.9" x2="412.7" y2="398.9"/>
	<line class="st8" x1="382" y1="398.4" x2="141.2" y2="398.4"/>
	<line class="st8" x1="111.8" y1="398.9" x2="99.7" y2="398.9"/>
	<path class="st9" d="M206.7,246.1c32.8-30.1,83.8-27.9,113.8,4.9"/>
	<path class="st9" d="M219.6,260.2c24.8-22.7,63.3-21.1,86.1,3.7"/>
	<path class="st9" d="M232.4,274.1c17.1-15.7,43.7-14.5,59.3,2.5"/>
	<line class="st9" x1="375.5" y1="282.2" x2="375.5" y2="381.8"/>
	<path class="st10" d="M342.6,272.7h19.6c23.1,0,41.9,18.7,41.9,41.9v34c0,23.1-18.7,41.9-41.9,41.9h-19.6c-4.7,0-8.5-3.8-8.5-8.5
		V281.2C334.1,276.5,337.9,272.7,342.6,272.7z"/>
	<line class="st9" x1="147.7" y1="280.7" x2="147.7" y2="381.8"/>
	<path class="st10" d="M180.6,272.7H161c-23.1,0-41.9,18.7-41.9,41.9v34c0,23.1,18.7,41.9,41.9,41.9h19.6c4.7,0,8.5-3.8,8.5-8.5
		V281.2C189.1,276.5,185.3,272.7,180.6,272.7z"/>
	<path class="st10" d="M345.8,272.7h2.9c7.2,0,14,1.5,20.3,4v-26.2c0-59.4-48.1-107.5-107.5-107.5s-107.5,48.1-107.5,107.5v26.2
		c6.3-2.5,13.1-4,20.3-4h2.9v-20.6c0-46.5,37.7-84.2,84.2-84.2c46.5,0,84.2,37.7,84.2,84.2V272.7z"/>
</g>
</svg>
