<?xml version="1.0" encoding="utf-8"?>
<!-- Generator: Adobe Illustrator 21.0.0, SVG Export Plug-In . SVG Version: 6.00 Build 0)  -->
<svg version="1.1" id="Layer_1" xmlns="http://www.w3.org/2000/svg" xmlns:xlink="http://www.w3.org/1999/xlink" x="0px" y="0px"
	 viewBox="0 0 512 512" style="enable-background:new 0 0 512 512;" xml:space="preserve">
<style type="text/css">
	.st0{opacity:0.25;fill:#95A2AC;}
	.st1{fill:#FFD54F;}
	.st2{fill:#95A2AC;}
	.st3{fill:#B3BDC3;}
	.st4{fill:#1DE9B6;}
	.st5{fill:none;stroke:#000000;stroke-width:10;stroke-linecap:round;stroke-linejoin:round;stroke-miterlimit:10;}
	.st6{fill:none;stroke:#000000;stroke-width:10;stroke-linecap:round;stroke-miterlimit:10;}
	.st7{opacity:0.25;fill:none;stroke:#6F6F6F;stroke-width:15;stroke-linecap:round;stroke-miterlimit:10;}
	.st8{opacity:0.25;fill:none;stroke:#000000;stroke-width:10;stroke-linecap:round;stroke-miterlimit:10;}
	.st9{opacity:0.75;fill:none;stroke:#FFFFFF;stroke-width:10;stroke-linecap:round;stroke-miterlimit:10;}
	.st10{opacity:0.25;}
</style>
<g id="background">
	<circle class="st0" cx="261.3" cy="261.5" r="193.4"/>
	<g>
		<path class="st1" d="M163.8,167.8c-0.9,0-1.9-0.3-2.7-0.8c-2.3-1.5-3-4.6-1.4-6.9l12.3-18.7c1.5-2.3,4.6-3,6.9-1.4
			c2.3,1.5,3,4.6,1.4,6.9L168,165.5C167,167,165.4,167.8,163.8,167.8z"/>
		<path class="st1" d="M179.3,164.6c-0.9,0-1.9-0.3-2.7-0.8l-18.7-12.3c-2.3-1.5-3-4.6-1.4-6.9c1.5-2.3,4.6-3,6.9-1.4l18.7,12.3
			c2.3,1.5,3,4.6,1.4,6.9C182.5,163.8,181,164.6,179.3,164.6z"/>
	</g>
	<g>
		<path class="st2" d="M123.8,104.8c-2.3,0-4.4-1.6-4.9-4l-4.4-22c-0.5-2.7,1.2-5.3,3.9-5.9c2.7-0.5,5.3,1.2,5.9,3.9l4.4,22
			c0.5,2.7-1.2,5.3-3.9,5.9C124.4,104.8,124.1,104.8,123.8,104.8z"/>
		<path class="st2" d="M110.6,96.1c-2.3,0-4.4-1.6-4.9-4c-0.5-2.7,1.2-5.3,3.9-5.9l22-4.4c2.7-0.5,5.3,1.2,5.9,3.9
			c0.5,2.7-1.2,5.3-3.9,5.9l-22,4.4C111.2,96,110.9,96.1,110.6,96.1z"/>
	</g>
	<g>
		<path class="st1" d="M234.5,74.7c-0.5,0-0.9-0.1-1.4-0.2c-2.7-0.8-4.2-3.5-3.4-6.2l6.2-21.5c0.8-2.7,3.5-4.2,6.2-3.4
			c2.7,0.8,4.2,3.5,3.4,6.2L239.3,71C238.7,73.2,236.7,74.7,234.5,74.7z"/>
		<path class="st1" d="M248.4,67c-0.5,0-0.9-0.1-1.4-0.2l-21.6-6.2c-2.7-0.8-4.2-3.5-3.4-6.2c0.8-2.7,3.5-4.2,6.2-3.4l21.6,6.2
			c2.7,0.8,4.2,3.5,3.4,6.2C252.5,65.5,250.5,67,248.4,67z"/>
	</g>
	<g>
		<path class="st2" d="M60.9,280c-2.3,0-4.4-1.6-4.9-4l-4.4-22c-0.5-2.7,1.2-5.3,3.9-5.9c2.7-0.5,5.3,1.2,5.9,3.9l4.4,22
			c0.5,2.7-1.2,5.3-3.9,5.9C61.6,280,61.3,280,60.9,280z"/>
		<path class="st2" d="M47.7,271.2c-2.3,0-4.4-1.6-4.9-4c-0.5-2.7,1.2-5.3,3.9-5.9l22-4.4c2.7-0.5,5.3,1.2,5.9,3.9s-1.2,5.3-3.9,5.9
			l-22,4.4C48.4,271.2,48.1,271.2,47.7,271.2z"/>
	</g>
	<g>
		<path class="st2" d="M436.3,182.8c-0.5,0-1-0.1-1.5-0.2c-2.6-0.8-4.1-3.6-3.3-6.3l6.6-21.4c0.8-2.6,3.6-4.1,6.3-3.3
			c2.6,0.8,4.1,3.6,3.3,6.3l-6.6,21.4C440.4,181.5,438.4,182.8,436.3,182.8z"/>
		<path class="st2" d="M450.3,175.4c-0.5,0-1-0.1-1.5-0.2l-21.4-6.6c-2.6-0.8-4.1-3.6-3.3-6.3c0.8-2.6,3.6-4.1,6.3-3.3l21.4,6.6
			c2.6,0.8,4.1,3.6,3.3,6.3C454.4,174,452.4,175.4,450.3,175.4z"/>
	</g>
	<path class="st2" d="M420.5,288.4c-7.4,0-13.4-6-13.4-13.4c0-7.4,6-13.4,13.4-13.4c7.4,0,13.4,6,13.4,13.4
		C433.9,282.4,427.9,288.4,420.5,288.4z M420.5,271.6c-1.9,0-3.4,1.5-3.4,3.4s1.5,3.4,3.4,3.4s3.4-1.5,3.4-3.4
		S422.3,271.6,420.5,271.6z"/>
	<path class="st1" d="M59.3,180.5c-7.4,0-13.4-6-13.4-13.4c0-7.4,6-13.4,13.4-13.4c7.4,0,13.4,6,13.4,13.4
		C72.6,174.5,66.6,180.5,59.3,180.5z M59.3,163.7c-1.9,0-3.4,1.5-3.4,3.4s1.5,3.4,3.4,3.4s3.4-1.5,3.4-3.4S61.1,163.7,59.3,163.7z"
		/>
	<g>
		<path class="st1" d="M383.6,79.6c-1,0-2.1-0.3-3-1c-2.2-1.6-2.7-4.8-1-7l13.4-18c1.6-2.2,4.8-2.7,7-1c2.2,1.6,2.7,4.8,1,7
			l-13.4,18C386.7,78.9,385.2,79.6,383.6,79.6z"/>
		<path class="st1" d="M399.3,77.2c-1,0-2.1-0.3-3-1l-18-13.4c-2.2-1.6-2.7-4.8-1-7c1.6-2.2,4.8-2.7,7-1l18,13.4
			c2.2,1.6,2.7,4.8,1,7C402.3,76.5,400.8,77.2,399.3,77.2z"/>
	</g>
	<path class="st2" d="M365.8,124.4c-7.4,0-13.4-6-13.4-13.4s6-13.4,13.4-13.4s13.4,6,13.4,13.4S373.1,124.4,365.8,124.4z
		 M365.8,107.6c-1.9,0-3.4,1.5-3.4,3.4s1.5,3.4,3.4,3.4s3.4-1.5,3.4-3.4S367.6,107.6,365.8,107.6z"/>
</g>
<g id="shock_x5F_color">
	<path class="st3" d="M261.3,178.5l-70.1,70.1c-4.2,4.2-6.6,10-6.6,15.9v114.4h153.3V264.5c0-6-2.4-11.7-6.6-15.9L261.3,178.5z"/>
	<path class="st3" d="M375.9,256.1L269.2,149.4c-4.4-4.4-11.4-4.4-15.8,0L146.6,256.1c-4.4,4.4-4.4,11.4,0,15.8
		c4.4,4.4,11.4,4.4,15.8,0l98.9-98.9l98.9,98.9c2.2,2.2,5,3.3,7.9,3.3c2.9,0,5.7-1.1,7.9-3.3C380.3,267.5,380.3,260.5,375.9,256.1z"
		/>
</g>
<rect id="color" x="230.1" y="287.7" class="st4" width="62.4" height="91.2"/>
<g id="lines">
	<line class="st5" x1="423.9" y1="386.6" x2="411.7" y2="386.6"/>
	<line class="st5" x1="381" y1="386" x2="140.2" y2="386"/>
	<line class="st5" x1="110.8" y1="386.6" x2="98.6" y2="386.6"/>
	<path class="st5" d="M184.6,378.9V264.5c0-6,2.4-11.7,6.6-15.9l70.1-70.1l70.1,70.1c4.2,4.2,6.6,10,6.6,15.9v114.4H184.6z"/>
	<path class="st6" d="M213.2,118.5c25.6-27.5,68.7-29,96.2-3.3"/>
	<path class="st6" d="M224.9,129.5c19.4-20.8,51.9-21.9,72.7-2.5"/>
	<path class="st6" d="M236.6,140.4c13.4-14.3,35.8-15.1,50.2-1.7"/>
	<path class="st6" d="M368,280.5c-2.9,0-5.7-1.1-7.9-3.3l-98.9-98.9l-98.9,98.9c-4.4,4.4-11.4,4.4-15.8,0c-4.4-4.4-4.4-11.4,0-15.8
		l106.7-106.7c4.4-4.4,11.4-4.4,15.8,0l106.7,106.7c4.4,4.4,4.4,11.4,0,15.8C373.7,279.4,370.9,280.5,368,280.5z"/>
	<line class="st6" x1="228.5" y1="327.2" x2="184.6" y2="327.2"/>
	<line class="st6" x1="337.9" y1="327.2" x2="294" y2="327.2"/>
	<path class="st6" d="M285.3,287.7h-48.1c-3.9,0-7.1,3.2-7.1,7.1v84.1h62.4v-84.1C292.4,290.9,289.3,287.7,285.3,287.7z"/>
</g>
<g id="shadows-lights">
	<line class="st7" x1="360.8" y1="398.2" x2="160.6" y2="398.2"/>
	<line class="st8" x1="337.9" y1="371.8" x2="184.6" y2="371.8"/>
	<line class="st9" x1="262.7" y1="206.4" x2="315.3" y2="259.5"/>
	<path class="st10" d="M368,280.5c-2.9,0-5.7-1.1-7.9-3.3l-98.9-98.9l-98.9,98.9c-4.4,4.4-11.4,4.4-15.8,0c-4.4-4.4-4.4-11.4,0-15.8
		l106.7-106.7c4.4-4.4,11.4-4.4,15.8,0l106.7,106.7c4.4,4.4,4.4,11.4,0,15.8C373.7,279.4,370.9,280.5,368,280.5z"/>
</g>
</svg>
