<?xml version="1.0" encoding="utf-8"?>
<!-- Generator: Adobe Illustrator 21.0.0, SVG Export Plug-In . SVG Version: 6.00 Build 0)  -->
<svg version="1.1" id="Layer_1" xmlns="http://www.w3.org/2000/svg" xmlns:xlink="http://www.w3.org/1999/xlink" x="0px" y="0px"
	 viewBox="0 0 512 512" style="enable-background:new 0 0 512 512;" xml:space="preserve">
<style type="text/css">
	.st0{opacity:0.25;fill:#95A2AC;}
	.st1{fill:#FFD54F;}
	.st2{fill:#95A2AC;}
	.st3{fill:#1DE9B6;}
	.st4{fill:#BA68C8;}
	.st5{opacity:0.25;fill:none;stroke:#6F6F6F;stroke-width:15;stroke-linecap:round;stroke-miterlimit:10;}
	.st6{opacity:0.25;fill:none;stroke:#000000;stroke-width:10;stroke-linecap:round;stroke-miterlimit:10;}
	.st7{opacity:0.75;fill:none;stroke:#FFFFFF;stroke-width:10;stroke-linecap:round;stroke-miterlimit:10;}
	.st8{fill:none;stroke:#000000;stroke-width:10;stroke-linecap:round;stroke-linejoin:round;stroke-miterlimit:10;}
	.st9{fill:none;stroke:#000000;stroke-width:10;stroke-linecap:round;stroke-miterlimit:10;}
	.st10{fill:none;stroke:#000000;stroke-width:10;stroke-linejoin:round;stroke-miterlimit:10;}
</style>
<g id="background">
	<circle class="st0" cx="259.7" cy="266.3" r="193.4"/>
	<g>
		<path class="st1" d="M145.4,94.5c-2.8,0-5-2.2-5-5V67c0-2.8,2.2-5,5-5s5,2.2,5,5v22.4C150.4,92.2,148.2,94.5,145.4,94.5z"/>
		<path class="st1" d="M156.6,83.2h-22.4c-2.8,0-5-2.2-5-5s2.2-5,5-5h22.4c2.8,0,5,2.2,5,5S159.4,83.2,156.6,83.2z"/>
	</g>
	<g>
		<path class="st2" d="M104.2,295.1c-2.3,0-4.4-1.6-4.9-4l-4.4-22c-0.5-2.7,1.2-5.3,3.9-5.9c2.7-0.6,5.3,1.2,5.9,3.9l4.4,22
			c0.5,2.7-1.2,5.3-3.9,5.9C104.9,295.1,104.5,295.1,104.2,295.1z"/>
		<path class="st2" d="M91,286.4c-2.3,0-4.4-1.6-4.9-4c-0.5-2.7,1.2-5.3,3.9-5.9l22-4.4c2.7-0.5,5.3,1.2,5.9,3.9s-1.2,5.3-3.9,5.9
			l-22,4.4C91.7,286.3,91.3,286.4,91,286.4z"/>
	</g>
	<g>
		<path class="st2" d="M313.1,104.2c-2.3,0-4.4-1.6-4.9-4l-4.4-22c-0.5-2.7,1.2-5.3,3.9-5.9c2.7-0.5,5.3,1.2,5.9,3.9l4.4,22
			c0.5,2.7-1.2,5.3-3.9,5.9C313.8,104.2,313.4,104.2,313.1,104.2z"/>
		<path class="st2" d="M299.9,95.4c-2.3,0-4.4-1.6-4.9-4c-0.5-2.7,1.2-5.3,3.9-5.9l22-4.4c2.7-0.5,5.3,1.2,5.9,3.9s-1.2,5.3-3.9,5.9
			l-22,4.4C300.6,95.4,300.2,95.4,299.9,95.4z"/>
	</g>
	<path class="st2" d="M82.6,199.9c-7.4,0-13.4-6-13.4-13.4c0-7.4,6-13.4,13.4-13.4s13.4,6,13.4,13.4C96,193.9,90,199.9,82.6,199.9z
		 M82.6,183.1c-1.9,0-3.4,1.5-3.4,3.4c0,1.9,1.5,3.4,3.4,3.4s3.4-1.5,3.4-3.4C86,184.7,84.5,183.1,82.6,183.1z"/>
	<path class="st1" d="M161.9,179.6c-7.4,0-13.4-6-13.4-13.4c0-7.4,6-13.4,13.4-13.4s13.4,6,13.4,13.4
		C175.2,173.6,169.2,179.6,161.9,179.6z M161.9,162.8c-1.9,0-3.4,1.5-3.4,3.4c0,1.9,1.5,3.4,3.4,3.4s3.4-1.5,3.4-3.4
		C165.2,164.4,163.7,162.8,161.9,162.8z"/>
	<path class="st2" d="M216.5,88.4c-7.4,0-13.4-6-13.4-13.4s6-13.4,13.4-13.4c7.4,0,13.4,6,13.4,13.4S223.9,88.4,216.5,88.4z
		 M216.5,71.6c-1.9,0-3.4,1.5-3.4,3.4s1.5,3.4,3.4,3.4c1.9,0,3.4-1.5,3.4-3.4S218.4,71.6,216.5,71.6z"/>
	<g>
		<path class="st1" d="M386.7,132.1c-1.1,0-2.1-0.3-3.1-1c-2.2-1.7-2.6-4.8-0.9-7l13.7-17.7c1.7-2.2,4.8-2.6,7-0.9
			c2.2,1.7,2.6,4.8,0.9,7l-13.7,17.7C389.6,131.4,388.1,132.1,386.7,132.1z"/>
		<path class="st1" d="M402.4,130.1c-1.1,0-2.1-0.3-3.1-1l-17.7-13.7c-2.2-1.7-2.6-4.8-0.9-7c1.7-2.2,4.8-2.6,7-0.9l17.7,13.7
			c2.2,1.7,2.6,4.8,0.9,7C405.3,129.4,403.9,130.1,402.4,130.1z"/>
	</g>
	<path class="st1" d="M409.5,318.9c-7.4,0-13.4-6-13.4-13.4c0-7.4,6-13.4,13.4-13.4c7.4,0,13.4,6,13.4,13.4
		C422.9,312.9,416.9,318.9,409.5,318.9z M409.5,302.1c-1.9,0-3.4,1.5-3.4,3.4c0,1.9,1.5,3.4,3.4,3.4c1.9,0,3.4-1.5,3.4-3.4
		C412.9,303.6,411.4,302.1,409.5,302.1z"/>
	<path class="st2" d="M393.8,191.9c-7.4,0-13.4-6-13.4-13.4c0-7.4,6-13.4,13.4-13.4c7.4,0,13.4,6,13.4,13.4
		C407.1,185.9,401.1,191.9,393.8,191.9z M393.8,175.1c-1.9,0-3.4,1.5-3.4,3.4c0,1.9,1.5,3.4,3.4,3.4c1.9,0,3.4-1.5,3.4-3.4
		C397.1,176.7,395.6,175.1,393.8,175.1z"/>
</g>
<g id="shock_x5F_color">
	<polygon class="st3" points="304.3,187.3 215.1,187.3 109.6,405.5 409.5,405.5 	"/>
	<circle class="st3" cx="259.9" cy="150.9" r="6.6"/>
</g>
<g id="color">
	<path class="st4" d="M279.2,122.7c0-9.2,0-10.1,0-10.1h-39.1c0,0,0,2,0,10.1s-25.1,47-25.1,64.6c0,24.7,20,44.6,44.6,44.6
		c24.7,0,44.6-20,44.6-44.6C304.3,169.7,279.2,131.8,279.2,122.7z M263.3,156.5c-0.6,0.4-1.3,0.7-2.1,0.8c-0.5,0.5-1.3,0.8-2.3,0.4
		c-0.6-0.2-1.2-0.5-1.8-0.8c-0.7-0.3-1.3-0.6-1.9-1.1c-2.8-2.3-1.7-5.9,0.4-8.3c1.1-1.2,2.5-1.9,3.9-1.9c1.6-0.3,3.3,0.2,4.5,1.6
		C266.4,149.9,266.5,154.5,263.3,156.5z"/>
	<polygon class="st4" points="176.9,266.3 342.4,266.3 373.8,331.5 145.4,331.5 	"/>
</g>
<g id="shadows-lights">
	<line class="st5" x1="409.5" y1="417.7" x2="109.6" y2="417.7"/>
	<line class="st6" x1="240.4" y1="120.1" x2="279.4" y2="120.1"/>
	<line class="st7" x1="304.3" y1="231.9" x2="380.1" y2="388.4"/>
	<path class="st7" d="M291.7,184.3c0,19.7-16,35.7-35.7,35.7"/>
</g>
<g id="lines">
	<line class="st8" x1="474" y1="406" x2="455.8" y2="406"/>
	<line class="st8" x1="439.7" y1="405.5" x2="79" y2="405.5"/>
	<line class="st8" x1="61.9" y1="406" x2="43.7" y2="406"/>
	<line class="st9" x1="240.2" y1="88.5" x2="279.2" y2="88.5"/>
	<line class="st9" x1="240.2" y1="100.5" x2="279.2" y2="100.5"/>
	<path class="st9" d="M266.6,83.7c0-1.6-1.3-2.8-2.8-2.8h-7.6c-1.6,0-2.8,1.3-2.8,2.8"/>
	<line class="st8" x1="259.7" y1="114.2" x2="259.7" y2="144.3"/>
	<path class="st8" d="M304.3,187.3c0,24.7-20,44.6-44.6,44.6c-24.7,0-44.6-20-44.6-44.6c0-17.6,25.1-56.5,25.1-64.6s0-10.1,0-10.1
		h39.1c0,0,0,1,0,10.1S304.3,169.7,304.3,187.3z"/>
	<polyline class="st10" points="304.3,187.3 409.5,405.5 109.6,405.5 215.1,187.3 	"/>
	<path class="st9" d="M304.3,187.3c0,24.7-20,44.6-44.6,44.6c-24.7,0-44.6-20-44.6-44.6c0-17.6,25.1-56.5,25.1-64.6s0-10.1,0-10.1
		h39.1c0,0,0,1,0,10.1S304.3,169.7,304.3,187.3z"/>
	<polygon class="st10" points="176.9,266.3 342.4,266.3 373.8,331.5 145.4,331.5 	"/>
	<circle class="st8" cx="259.9" cy="150.9" r="6.6"/>
</g>
</svg>
