<?xml version="1.0" encoding="utf-8"?>
<!-- Generator: Adobe Illustrator 21.0.0, SVG Export Plug-In . SVG Version: 6.00 Build 0)  -->
<svg version="1.1" id="Layer_1" xmlns="http://www.w3.org/2000/svg" xmlns:xlink="http://www.w3.org/1999/xlink" x="0px" y="0px"
	 viewBox="0 0 512 512" style="enable-background:new 0 0 512 512;" xml:space="preserve">
<style type="text/css">
	.st0{opacity:0.25;fill:#95A2AC;}
	.st1{fill:#FFD54F;}
	.st2{fill:#95A2AC;}
	.st3{fill:#FFCCBC;}
	.st4{fill:#57423A;}
	.st5{fill:#B3BDC3;}
	.st6{fill:none;stroke:#000000;stroke-width:10;stroke-linecap:round;stroke-linejoin:round;stroke-miterlimit:10;}
	.st7{fill:none;stroke:#000000;stroke-width:10;stroke-miterlimit:10;}
	.st8{fill:#FFFFFF;stroke:#000000;stroke-width:10;stroke-linecap:round;stroke-miterlimit:10;}
	.st9{opacity:0.25;fill:none;stroke:#6F6F6F;stroke-width:15;stroke-linecap:round;stroke-miterlimit:10;}
	.st10{opacity:0.25;fill:none;stroke:#000000;stroke-width:10;stroke-miterlimit:10;}
	.st11{opacity:0.25;fill:none;stroke:#000000;stroke-width:10;stroke-linecap:round;stroke-miterlimit:10;}
	.st12{opacity:0.75;}
	.st13{opacity:0.5;}
	.st14{opacity:0.25;fill:none;stroke:#000000;stroke-width:10;stroke-linecap:round;stroke-linejoin:round;stroke-miterlimit:10;}
	.st15{opacity:0.75;fill:#FFFFFF;stroke:#FFFFFF;stroke-width:10;stroke-linecap:round;stroke-miterlimit:10;}
</style>
<g id="background">
	<circle class="st0" cx="268.8" cy="263.1" r="193.4"/>
	<path class="st1" d="M403,359.4c-7.4,0-13.4-6-13.4-13.4c0-7.4,6-13.4,13.4-13.4c7.4,0,13.4,6,13.4,13.4
		C416.4,353.4,410.4,359.4,403,359.4z M403,342.6c-1.9,0-3.4,1.5-3.4,3.4s1.5,3.4,3.4,3.4c1.9,0,3.4-1.5,3.4-3.4
		S404.9,342.6,403,342.6z"/>
	<g>
		<path class="st2" d="M79.2,281c-1.4,0-2.7-0.6-3.7-1.7l-15-16.7c-1.8-2.1-1.7-5.2,0.4-7.1c2.1-1.8,5.2-1.7,7.1,0.4l15,16.7
			c1.8,2.1,1.7,5.2-0.4,7.1C81.6,280.6,80.4,281,79.2,281z"/>
		<path class="st2" d="M63.4,280.2c-1.4,0-2.7-0.6-3.7-1.7c-1.8-2.1-1.7-5.2,0.4-7.1l16.7-15c2.1-1.8,5.2-1.7,7.1,0.4
			c1.8,2.1,1.7,5.2-0.4,7.1l-16.7,15C65.8,279.8,64.6,280.2,63.4,280.2z"/>
	</g>
	<g>
		<path class="st2" d="M418.1,173.7c-2.3,0-4.4-1.6-4.9-4l-4.4-22c-0.5-2.7,1.2-5.3,3.9-5.9c2.7-0.5,5.3,1.2,5.9,3.9l4.4,22
			c0.5,2.7-1.2,5.3-3.9,5.9C418.8,173.7,418.5,173.7,418.1,173.7z"/>
		<path class="st2" d="M404.9,164.9c-2.3,0-4.4-1.6-4.9-4c-0.5-2.7,1.2-5.3,3.9-5.9l22-4.4c2.7-0.5,5.3,1.2,5.9,3.9
			c0.5,2.7-1.2,5.3-3.9,5.9l-22,4.4C405.6,164.9,405.3,164.9,404.9,164.9z"/>
	</g>
	<g>
		<path class="st2" d="M145.4,117.1c-2.3,0-4.4-1.6-4.9-4l-4.4-22c-0.5-2.7,1.2-5.3,3.9-5.9c2.7-0.5,5.3,1.2,5.9,3.9l4.4,22
			c0.5,2.7-1.2,5.3-3.9,5.9C146.1,117.1,145.7,117.1,145.4,117.1z"/>
		<path class="st2" d="M132.2,108.3c-2.3,0-4.4-1.6-4.9-4c-0.5-2.7,1.2-5.3,3.9-5.9l22-4.4c2.7-0.5,5.3,1.2,5.9,3.9
			c0.5,2.7-1.2,5.3-3.9,5.9l-22,4.4C132.9,108.3,132.5,108.3,132.2,108.3z"/>
	</g>
	<g>
		<path class="st2" d="M429.6,282.4c-0.5,0-1-0.1-1.5-0.2c-2.6-0.8-4.1-3.6-3.3-6.3l6.6-21.4c0.8-2.6,3.6-4.1,6.3-3.3
			c2.6,0.8,4.1,3.6,3.3,6.3l-6.6,21.4C433.7,281.1,431.7,282.4,429.6,282.4z"/>
		<path class="st2" d="M443.6,275c-0.5,0-1-0.1-1.5-0.2l-21.4-6.6c-2.6-0.8-4.1-3.6-3.3-6.3c0.8-2.6,3.6-4.1,6.3-3.3l21.4,6.6
			c2.6,0.8,4.1,3.6,3.3,6.3C447.7,273.7,445.7,275,443.6,275z"/>
	</g>
	<path class="st2" d="M104.6,330.2c-7.4,0-13.4-6-13.4-13.4c0-7.4,6-13.4,13.4-13.4s13.4,6,13.4,13.4
		C118,324.2,112,330.2,104.6,330.2z M104.6,313.4c-1.9,0-3.4,1.5-3.4,3.4s1.5,3.4,3.4,3.4s3.4-1.5,3.4-3.4S106.5,313.4,104.6,313.4z
		"/>
	<path class="st1" d="M237.1,80.1c-7.4,0-13.4-6-13.4-13.4c0-7.4,6-13.4,13.4-13.4s13.4,6,13.4,13.4
		C250.5,74.1,244.5,80.1,237.1,80.1z M237.1,63.3c-1.9,0-3.4,1.5-3.4,3.4s1.5,3.4,3.4,3.4s3.4-1.5,3.4-3.4S239,63.3,237.1,63.3z"/>
	<path class="st1" d="M67.8,189.2c-7.4,0-13.4-6-13.4-13.4c0-7.4,6-13.4,13.4-13.4c7.4,0,13.4,6,13.4,13.4
		C81.2,183.2,75.2,189.2,67.8,189.2z M67.8,172.4c-1.9,0-3.4,1.5-3.4,3.4s1.5,3.4,3.4,3.4c1.9,0,3.4-1.5,3.4-3.4
		S69.7,172.4,67.8,172.4z"/>
	<g>
		<path class="st1" d="M119.1,248.1c-0.5,0-0.9-0.1-1.4-0.2c-2.7-0.8-4.2-3.5-3.4-6.2l6.2-21.6c0.8-2.7,3.5-4.2,6.2-3.4
			c2.7,0.8,4.2,3.5,3.4,6.2l-6.2,21.6C123.3,246.7,121.3,248.1,119.1,248.1z"/>
		<path class="st1" d="M133,240.4c-0.5,0-0.9-0.1-1.4-0.2L110,234c-2.7-0.8-4.2-3.5-3.4-6.2c0.8-2.7,3.5-4.2,6.2-3.4l21.5,6.2
			c2.7,0.8,4.2,3.5,3.4,6.2C137.2,239,135.2,240.4,133,240.4z"/>
	</g>
	<path class="st1" d="M373.3,111.8c-7.4,0-13.4-6-13.4-13.4c0-7.4,6-13.4,13.4-13.4s13.4,6,13.4,13.4
		C386.7,105.8,380.7,111.8,373.3,111.8z M373.3,95.1c-1.9,0-3.4,1.5-3.4,3.4s1.5,3.4,3.4,3.4s3.4-1.5,3.4-3.4S375.2,95.1,373.3,95.1
		z"/>
</g>
<g id="color">
	<path class="st3" d="M174.4,291.8c0.8,49.6,41.2,89.5,91,89.5h4.7c49.8,0,90.2-39.9,91-89.5V172.4l-57.3,11.8
		c-23.8,4.9-48.2,4.9-72,0l-57.3-11.8V291.8z"/>
	<path class="st4" d="M367.4,172.4c2.9-14.7,1.8-47-24-52.5c0,0-27.2-41.3-88.3-22.3c-34.2,10.7-56-14.1-56-14.1
		c-49.8,28-37.3,64.7-29.7,88.8v84.1l14.9-13.8l11.5-50.5c1.8-7.7,9.9-12.6,18.1-10.9l32.9,7c14.3,2.2,28.9,2.2,43.3,0l32.5-6.8
		c7.9-1.7,15.9,2.9,17.9,10.4l13.6,50.4l13.4,14.3V172.4z"/>
</g>
<path id="shock_x5F_color" class="st5" d="M379,219c-1.6-0.4-3.2-0.6-4.8-1c-9-2.3-18-4.7-27.2-5.7c-1.9-0.2-13.7-1.2-21.2-0.4
	c-11.1,1.3-22.1,3.7-33,5.7c-9,1.7-18,3-27.1,2.8c-8.5-0.2-16.7-2-24.9-3.8c-10.8-2.4-21.8-3.8-32.8-4.8c-0.3,0-8-0.4-10.4-0.4
	c-1,0-7,0.6-9,0.9c-11.1,1.6-22,4.5-33,6.4c-0.6,0.1-1.1,0.2-1.7,0.2c0,3.5,0,7.1,0,10.6c1.1,3.3,3.5,5.7,5.7,8.3
	c1.8,2.1,3.1,4.4,3.7,7.2c2.2,9.4,5.5,18.5,9.2,27.4c2.6,6.3,7.1,10.5,13.1,13.3c8.9,4.2,18.4,5.4,28.1,4.9c7.1-0.4,14-1.3,20.2-5
	c12-7.4,18.8-18.7,23.3-31.7c1.2-3.6,4.9-15.1,7.5-15.3c1.8-0.2,7.4-0.1,8.5-0.1c3.1,0.1,7.2,13.5,7.6,14.8c1.1,3.3,2.3,6.6,3.8,9.7
	c3.8,8,8.5,15.3,16.3,20c13.4,8,27.7,9.5,42.6,5.1c11.7-3.4,19.9-10.9,24.2-22.5c2.4-6.7,3.7-13.6,5.7-20.4
	c1.3-4.5,2.8-8.9,7.2-11.6c1-0.6,1.2-1.8,1.1-2.9c0-2.8-0.2-5.7,0-8.5C381.9,220.5,380.8,219.4,379,219z M246.3,244.7
	c-1.6,7.4-4.5,14.4-8.7,20.6c-5,7.4-12.2,11.7-21.1,13.2c-5.9,1-11.7,0.5-17.4-0.7c-0.3-0.1-0.5-0.1-0.8-0.2
	c5.8,1.2,11.5,1.6,17.4,0.7c8.9-1.5,16.1-5.7,21.1-13.2c4.2-6.3,7.1-13.2,8.7-20.6c1.6-7.3-1.1-12.9-7.9-16.2c-3-1.4-6-2.6-9.2-3.4
	c3.4,0.9,6.7,2,10,3.6C245.2,231.8,247.9,237.5,246.3,244.7z M354.1,265c-2.8,7-8.2,11.2-15.5,12.8c-4.3,1-8.6,1.5-13,1.3
	c-2.5-0.1-5-0.5-7.4-1.1c2.1,0.5,4.3,0.7,6.6,0.9c4.4,0.2,8.7-0.3,13-1.3c7.3-1.6,12.8-5.8,15.5-12.8c3.5-8.9,5.8-18.2,5.1-27.9
	c-0.1-1.8-0.7-3.4-1.6-4.9c-2.3-3.6-6-5.2-9.9-6.2c0.2,0,0.4,0.1,0.6,0.1c4,1,7.8,2.6,10.1,6.3c0.9,1.5,1.5,3.1,1.6,4.9
	C359.9,246.8,357.6,256.1,354.1,265z"/>
<g id="lines">
	<g>
		<line class="st6" x1="393.3" y1="390.3" x2="382.7" y2="390.3"/>
		<line class="st6" x1="368.5" y1="389.8" x2="167.9" y2="389.8"/>
		<path class="st7" d="M174.4,277.1v14.7c0.8,49.6,41.2,89.5,91,89.5h4.7c49.8,0,90.2-39.9,91-89.5v-14.7"/>
		<path class="st7" d="M367.4,172.4c2.9-14.7,1.8-47-24-52.5c0,0-27.2-41.3-88.3-22.3c-34.2,10.7-56-14.1-56-14.1
			c-49.8,28-37.3,64.7-29.7,88.8v43.5l22-4.5l4.4-19.2c1.8-7.7,9.9-12.6,18.1-10.9l32.9,7c14.3,2.2,28.9,2.2,43.3,0l32.5-6.8
			c7.9-1.7,15.9,2.9,17.9,10.4l6.6,20.4l20.5,4.2V172.4z"/>
		<line class="st8" x1="236.4" y1="319.3" x2="299.1" y2="319.3"/>
		<line class="st6" x1="155" y1="390.3" x2="144.4" y2="390.3"/>
		<path class="st6" d="M381.7,222.3c0.2-1.8-0.9-3-2.7-3.4c-1.6-0.4-3.2-0.6-4.8-1c-9-2.3-18-4.7-27.2-5.7
			c-1.9-0.2-13.7-1.2-21.2-0.4c-11.1,1.3-22.1,3.7-33,5.7c-9,1.7-18,3-27.1,2.8c-8.5-0.2-16.7-2-24.9-3.8
			c-10.8-2.4-21.8-3.8-32.8-4.8c-0.3,0-8-0.4-10.4-0.4c-1,0-7,0.6-9,0.9c-11.1,1.6-22,4.5-33,6.4c-0.6,0.1-1.1,0.2-1.7,0.2
			c0,3.5,0,7.1,0,10.6c1.1,3.3,3.5,5.7,5.7,8.3c1.8,2.1,3.1,4.4,3.7,7.2c2.2,9.4,5.5,18.5,9.2,27.4c2.6,6.3,7.1,10.5,13.1,13.3
			c8.9,4.2,18.4,5.4,28.1,4.9c7.1-0.4,14-1.3,20.2-5c12-7.4,18.8-18.7,23.3-31.7c1.2-3.6,4.9-15.1,7.5-15.3c1.8-0.2,7.4-0.1,8.5-0.1
			c3.1,0.1,7.2,13.5,7.6,14.8c1.1,3.3,2.3,6.6,3.8,9.7c3.8,8,8.5,15.3,16.3,20c13.4,8,27.7,9.5,42.6,5.1
			c11.7-3.4,19.9-10.9,24.2-22.5c2.4-6.7,3.7-13.6,5.7-20.4c1.3-4.5,2.8-8.9,7.2-11.6c1-0.6,1.2-1.8,1.1-2.9
			C381.6,228,381.4,225.2,381.7,222.3z M246.3,244.7c-1.6,7.4-4.5,14.4-8.7,20.6c-5,7.4-12.2,11.7-21.1,13.2
			c-5.9,1-11.7,0.5-17.4-0.7c-8.5-1.8-13.9-7-16.8-15c-1.8-5.1-3.2-10.4-3.9-15.8c-0.5-3.6-0.8-7.4-0.1-11.1
			c0.9-4.5,3.8-7.3,7.9-8.9c5.1-2,10.4-2.6,15.8-3.1c3.7-0.4,7.5-0.7,10.8-0.6c9.3-0.3,17.8,1.4,25.7,5.2
			C245.2,231.8,247.9,237.5,246.3,244.7z M354.1,265c-2.8,7-8.2,11.2-15.5,12.8c-4.3,1-8.6,1.5-13,1.3c-9.1-0.5-17.2-3.6-23.4-10.5
			c-3.2-3.5-5.3-7.7-7.2-12c-1.7-3.9-3.3-7.9-4.1-12.1c-1.2-6.8,0.6-12.1,7.4-15.6c5.7-3,11.9-4.4,18.3-5.3c2.5-0.3,5-0.1,7.6-0.3
			c7.8,0.1,15.6,0.7,23.3,2.6c4,1,7.8,2.6,10.1,6.3c0.9,1.5,1.5,3.1,1.6,4.9C359.9,246.8,357.6,256.1,354.1,265z"/>
	</g>
</g>
<g id="shadows-lights">
	<g>
		<line class="st9" x1="352.8" y1="401.9" x2="183.8" y2="401.9"/>
		<g>
			<path class="st10" d="M174.3,290.7c0,44.8,40.8,81.1,91.1,81.1h4.7c50.3,0,91.1-36.3,91.1-81.1"/>
			<line class="st11" x1="255.4" y1="338.3" x2="280.1" y2="338.3"/>
			<path class="st12" d="M294.2,256.4c1.9,4.3,4,8.5,7.2,12c6.3,6.9,14.3,10,23.4,10.5c4.4,0.2,8.7-0.3,13-1.3
				c7.3-1.6,12.8-5.8,15.5-12.8c3.5-8.9,5.8-18.2,5.1-27.9c-0.1-1.8-0.7-3.4-1.6-4.9c-2.4-3.7-6.1-5.3-10.1-6.3
				c-7.7-1.9-15.5-2.5-23.3-2.6c-2.6,0.2-5.1,0-7.6,0.3c-6.4,0.8-12.5,2.3-18.3,5.3c-6.8,3.5-8.6,8.8-7.4,15.6
				C290.8,248.5,292.5,252.5,294.2,256.4z"/>
			<path class="st12" d="M181.4,262.7c2.8,8,8.3,13.2,16.8,15c5.8,1.2,11.6,1.6,17.4,0.7c8.9-1.5,16.1-5.7,21.1-13.2
				c4.2-6.3,7.1-13.2,8.7-20.6c1.6-7.3-1.1-12.9-7.9-16.2c-8-3.8-16.4-5.5-25.7-5.2c-3.3-0.1-7,0.2-10.8,0.6
				c-5.4,0.5-10.7,1.2-15.8,3.2c-4.1,1.6-7.1,4.3-7.9,8.9c-0.7,3.7-0.4,7.4,0.1,11.1C178.3,252.2,179.6,257.5,181.4,262.7z"/>
			<path class="st13" d="M381.7,222.3c0.2-1.8-0.9-3-2.7-3.4c-1.6-0.4-3.2-0.6-4.8-1c-9-2.3-18-4.7-27.2-5.7
				c-1.9-0.2-13.7-1.2-21.2-0.4c-11.1,1.3-22.1,3.7-33,5.7c-9,1.7-18,3-27.1,2.8c-8.5-0.2-16.7-2-24.9-3.8
				c-10.8-2.4-21.8-3.8-32.8-4.8c-0.3,0-8-0.4-10.4-0.4c-1,0-7,0.6-9,0.9c-11.1,1.6-22,4.5-33,6.4c-0.6,0.1-1.1,0.2-1.7,0.2
				c0,3.5,0,7.1,0,10.6c1.1,3.3,3.5,5.7,5.7,8.3c1.8,2.1,3.1,4.4,3.7,7.2c2.2,9.4,5.5,18.5,9.2,27.4c2.6,6.3,7.1,10.5,13.1,13.3
				c8.9,4.2,18.4,5.4,28.1,4.9c7.1-0.4,14-1.3,20.2-5c12-7.4,18.8-18.7,23.3-31.7c1.2-3.6,4.9-15.1,7.5-15.3
				c1.8-0.2,7.4-0.1,8.5-0.1c3.1,0.1,7.2,13.5,7.6,14.8c1.1,3.3,2.3,6.6,3.8,9.7c3.8,8,8.5,15.3,16.3,20c13.4,8,27.7,9.5,42.6,5.1
				c11.7-3.4,19.9-10.9,24.2-22.5c2.4-6.7,3.7-13.6,5.7-20.4c1.3-4.5,2.8-8.9,7.2-11.6c1-0.6,1.2-1.8,1.1-2.9
				C381.6,228,381.4,225.2,381.7,222.3z M246.3,244.7c-1.6,7.4-4.5,14.4-8.7,20.6c-5,7.4-12.2,11.7-21.1,13.2
				c-5.9,1-11.7,0.5-17.4-0.7c-8.5-1.8-13.9-7-16.8-15c-1.8-5.1-3.2-10.4-3.9-15.8c-0.5-3.6-0.8-7.4-0.1-11.1
				c0.9-4.5,3.8-7.3,7.9-8.9c5.1-2,10.4-2.6,15.8-3.1c3.7-0.4,7.5-0.7,10.8-0.6c9.3-0.3,17.8,1.4,25.7,5.2
				C245.2,231.8,247.9,237.5,246.3,244.7z M354.1,265c-2.8,7-8.2,11.2-15.5,12.8c-4.3,1-8.6,1.5-13,1.3c-9.1-0.5-17.2-3.6-23.4-10.5
				c-3.2-3.5-5.3-7.7-7.2-12c-1.7-3.9-3.3-7.9-4.1-12.1c-1.2-6.8,0.6-12.1,7.4-15.6c5.7-3,11.9-4.4,18.3-5.3c2.5-0.3,5-0.1,7.6-0.3
				c7.8,0.1,15.6,0.7,23.3,2.6c4,1,7.8,2.6,10.1,6.3c0.9,1.5,1.5,3.1,1.6,4.9C359.9,246.8,357.6,256.1,354.1,265z"/>
			<path class="st14" d="M175.8,286c2.5,3.3,5.8,5.7,9.8,7.6c8.9,4.2,18.4,5.4,28.1,4.9c7.1-0.4,14-1.3,20.2-5
				c12-7.4,18.8-18.7,23.3-31.7c1.2-3.6,4.9-15.1,7.5-15.3c1.8-0.2,7.4-0.1,8.5-0.1c3.1,0.1,7.2,13.5,7.6,14.8
				c1.1,3.3,2.3,6.6,3.8,9.7c3.8,8,8.5,15.3,16.3,20c13.4,8,27.7,9.5,42.6,5.1c6.5-1.9,12-5.1,16.3-9.6"/>
		</g>
	</g>
	<path class="st15" d="M347.1,238.4c0,0,0,13.2-3.6,20.9"/>
	<path class="st15" d="M234.5,240.3c0,0-2.6,12.9-7.6,19.9"/>
</g>
</svg>
