<?xml version="1.0" encoding="utf-8"?>
<!-- Generator: Adobe Illustrator 21.0.0, SVG Export Plug-In . SVG Version: 6.00 Build 0)  -->
<svg version="1.1" id="Layer_1" xmlns="http://www.w3.org/2000/svg" xmlns:xlink="http://www.w3.org/1999/xlink" x="0px" y="0px"
	 viewBox="0 0 512 512" style="enable-background:new 0 0 512 512;" xml:space="preserve">
<style type="text/css">
	.st0{opacity:0.25;fill:#95A2AC;}
	.st1{fill:#FFD54F;}
	.st2{fill:#95A2AC;}
	.st3{fill:#B3BDC3;}
	.st4{opacity:0.75;fill:#1DE9B6;}
	.st5{opacity:0.25;fill:none;stroke:#6F6F6F;stroke-width:15;stroke-linecap:round;stroke-miterlimit:10;}
	.st6{opacity:0.75;fill:#FFFFFF;}
	.st7{opacity:0.25;fill:none;stroke:#000000;stroke-width:10;stroke-linecap:round;stroke-linejoin:round;stroke-miterlimit:10;}
	.st8{opacity:0.75;fill:none;stroke:#FFFFFF;stroke-width:10;stroke-linecap:round;stroke-linejoin:round;stroke-miterlimit:10;}
	.st9{fill:none;stroke:#000000;stroke-width:10;stroke-linecap:round;stroke-linejoin:round;stroke-miterlimit:10;}
	
		.st10{fill:none;stroke:#000000;stroke-width:10;stroke-linecap:round;stroke-linejoin:round;stroke-miterlimit:10;stroke-dasharray:6,16,6;}
	.st11{fill:none;stroke:#000000;stroke-width:10;stroke-linecap:round;stroke-miterlimit:10;}
</style>
<g id="background">
	<circle class="st0" cx="256" cy="269.7" r="193.4"/>
	<g>
		<path class="st1" d="M362.4,80.2c-0.9,0-1.9-0.3-2.7-0.8c-2.3-1.5-3-4.6-1.4-6.9l12.3-18.7c1.5-2.3,4.6-3,6.9-1.4
			c2.3,1.5,3,4.6,1.4,6.9L366.6,78C365.6,79.4,364,80.2,362.4,80.2z"/>
		<path class="st1" d="M377.9,77c-0.9,0-1.9-0.3-2.7-0.8l-18.7-12.3c-2.3-1.5-3-4.6-1.4-6.9c1.5-2.3,4.6-3,6.9-1.4l18.7,12.3
			c2.3,1.5,3,4.6,1.4,6.9C381.1,76.2,379.5,77,377.9,77z"/>
	</g>
	<g>
		<path class="st2" d="M87.4,151c-2.3,0-4.4-1.6-4.9-4l-4.4-22c-0.5-2.7,1.2-5.3,3.9-5.9c2.7-0.5,5.3,1.2,5.9,3.9l4.4,22
			c0.5,2.7-1.2,5.3-3.9,5.9C88,151,87.7,151,87.4,151z"/>
		<path class="st2" d="M74.2,142.2c-2.3,0-4.4-1.6-4.9-4c-0.5-2.7,1.2-5.3,3.9-5.9l22-4.4c2.7-0.5,5.3,1.2,5.9,3.9
			c0.5,2.7-1.2,5.3-3.9,5.9l-22,4.4C74.8,142.2,74.5,142.2,74.2,142.2z"/>
	</g>
	<g>
		<path class="st1" d="M434.7,350.6c-0.5,0-0.9-0.1-1.4-0.2c-2.7-0.8-4.2-3.5-3.4-6.2l6.2-21.6c0.8-2.7,3.5-4.2,6.2-3.4
			c2.7,0.8,4.2,3.5,3.4,6.2l-6.2,21.6C438.9,349.2,436.9,350.6,434.7,350.6z"/>
		<path class="st1" d="M448.6,342.9c-0.5,0-0.9-0.1-1.4-0.2l-21.5-6.2c-2.7-0.8-4.2-3.5-3.4-6.2c0.8-2.7,3.5-4.2,6.2-3.4l21.5,6.2
			c2.7,0.8,4.2,3.5,3.4,6.2C452.7,341.5,450.7,342.9,448.6,342.9z"/>
	</g>
	<g>
		<path class="st2" d="M78.4,251.2c-2.3,0-4.4-1.6-4.9-4l-4.4-22c-0.5-2.7,1.2-5.3,3.9-5.9c2.7-0.5,5.3,1.2,5.9,3.9l4.4,22
			c0.5,2.7-1.2,5.3-3.9,5.9C79,251.2,78.7,251.2,78.4,251.2z"/>
		<path class="st2" d="M65.2,242.5c-2.3,0-4.4-1.6-4.9-4c-0.5-2.7,1.2-5.3,3.9-5.9l22-4.4c2.7-0.5,5.3,1.2,5.9,3.9
			c0.5,2.7-1.2,5.3-3.9,5.9l-22,4.4C65.8,242.4,65.5,242.5,65.2,242.5z"/>
	</g>
	<g>
		<path class="st2" d="M317.4,156.6c-0.5,0-1-0.1-1.5-0.2c-2.6-0.8-4.1-3.6-3.3-6.3l6.6-21.4c0.8-2.6,3.6-4.1,6.3-3.3
			c2.6,0.8,4.1,3.6,3.3,6.3l-6.6,21.4C321.5,155.2,319.5,156.6,317.4,156.6z"/>
		<path class="st2" d="M331.4,149.1c-0.5,0-1-0.1-1.5-0.2l-21.4-6.6c-2.6-0.8-4.1-3.6-3.3-6.3c0.8-2.6,3.6-4.1,6.3-3.3l21.4,6.6
			c2.6,0.8,4.1,3.6,3.3,6.3C335.5,147.8,333.6,149.1,331.4,149.1z"/>
	</g>
	<path class="st2" d="M273.7,93.8c-1.6,0-3.1-0.3-4.7-0.9c-3.3-1.3-6-3.7-7.5-7c-1.5-3.3-1.6-6.9-0.3-10.2
		c2.6-6.9,10.3-10.4,17.2-7.8c3.3,1.3,6,3.7,7.5,7c1.5,3.3,1.6,6.9,0.3,10.2C284.2,90.4,279.1,93.8,273.7,93.8z M273.7,77
		c-1.4,0-2.7,0.8-3.2,2.2c-0.3,0.8-0.3,1.8,0.1,2.6c0.4,0.8,1,1.5,1.9,1.8c1.7,0.7,3.7-0.2,4.4-2c0.3-0.8,0.3-1.8-0.1-2.6
		c-0.4-0.8-1-1.5-1.9-1.8l0,0C274.5,77.1,274.1,77,273.7,77z"/>
	<path class="st1" d="M85.2,348.2c-7.4,0-13.4-6-13.4-13.4c0-7.4,6-13.4,13.4-13.4c7.4,0,13.4,6,13.4,13.4
		C98.5,342.2,92.5,348.2,85.2,348.2z M85.2,331.5c-1.9,0-3.4,1.5-3.4,3.4s1.5,3.4,3.4,3.4c1.9,0,3.4-1.5,3.4-3.4
		S87,331.5,85.2,331.5z"/>
	<g>
		<path class="st1" d="M173.9,77c-1,0-2.1-0.3-3-1c-2.2-1.6-2.7-4.8-1-7l13.4-18c1.6-2.2,4.8-2.7,7-1c2.2,1.6,2.7,4.8,1,7l-13.4,18
			C176.9,76.3,175.4,77,173.9,77z"/>
		<path class="st1" d="M189.6,74.7c-1,0-2.1-0.3-3-1l-18-13.4c-2.2-1.6-2.7-4.8-1-7c1.6-2.2,4.8-2.7,7-1l18,13.4
			c2.2,1.6,2.7,4.8,1,7C192.6,74,191.1,74.7,189.6,74.7z"/>
	</g>
	<path class="st2" d="M437.8,189.4c-7.4,0-13.4-6-13.4-13.4c0-7.4,6-13.4,13.4-13.4c7.4,0,13.4,6,13.4,13.4
		C451.2,183.4,445.2,189.4,437.8,189.4z M437.8,172.6c-1.9,0-3.4,1.5-3.4,3.4s1.5,3.4,3.4,3.4c1.9,0,3.4-1.5,3.4-3.4
		S439.6,172.6,437.8,172.6z"/>
</g>
<g id="shock_x5F_color">
	<path class="st3" d="M388.5,176.6H128.3c-7.6,0-13.7,6.1-13.7,13.7v162.5c0,7.6,6.1,13.7,13.7,13.7h2.8v16.4h38.6v-16.4h218.8
		c7.6,0,13.7-6.1,13.7-13.7V190.3C402.1,182.7,396,176.6,388.5,176.6z"/>
	<rect x="346.9" y="366.7" class="st3" width="38.6" height="16.4"/>
</g>
<path id="color" class="st4" d="M328.6,347.1H138.1c-2.4,0-4.3-1.9-4.3-4.3V200.3c0-2.4,1.9-4.3,4.3-4.3h190.5
	c2.4,0,4.3,1.9,4.3,4.3v142.5C332.9,345.2,331,347.1,328.6,347.1z"/>
<g id="shadows-lights">
	<line class="st5" x1="379.5" y1="395" x2="131.1" y2="395"/>
	<path class="st6" d="M380.2,227.9h-24.3c-2.9,0-5.3-2.4-5.3-5.3v-19.4c0-2.9,2.4-5.3,5.3-5.3h24.3c2.9,0,5.3,2.4,5.3,5.3v19.4
		C385.5,225.6,383.1,227.9,380.2,227.9z"/>
	<line class="st7" x1="133.8" y1="205.6" x2="332.9" y2="205.6"/>
	<line class="st8" x1="379.5" y1="187.4" x2="306.4" y2="187.4"/>
</g>
<g id="lines">
	<line class="st9" x1="457.8" y1="383.4" x2="442.7" y2="383.4"/>
	<line class="st9" x1="404.5" y1="382.8" x2="105.8" y2="382.8"/>
	<line class="st9" x1="69.3" y1="383.4" x2="54.2" y2="383.4"/>
	<path class="st9" d="M388.5,366.5H128.3c-7.6,0-13.7-6.1-13.7-13.7V190.3c0-7.6,6.1-13.7,13.7-13.7h260.2c7.6,0,13.7,6.1,13.7,13.7
		v162.5C402.1,360.3,396,366.5,388.5,366.5z"/>
	<path class="st9" d="M165,383.2h-27.6c-2.6,0-4.7-2.1-4.7-4.7v-7.3c0-2.6,2.1-4.7,4.7-4.7H165c2.6,0,4.7,2.1,4.7,4.7v7.3
		C169.7,381.1,167.6,383.2,165,383.2z"/>
	<path class="st9" d="M380,383.2h-27.6c-2.6,0-4.7-2.1-4.7-4.7v-7.3c0-2.6,2.1-4.7,4.7-4.7H380c2.6,0,4.7,2.1,4.7,4.7v7.3
		C384.7,381.1,382.6,383.2,380,383.2z"/>
	<line class="st9" x1="313.5" y1="245.2" x2="313.5" y2="303.4"/>
	<line class="st10" x1="384.7" y1="274.3" x2="351.3" y2="274.3"/>
	<line class="st9" x1="384.7" y1="339.7" x2="351.3" y2="339.7"/>
	<line class="st9" x1="384.7" y1="246.8" x2="351.3" y2="246.8"/>
	<line class="st10" x1="384.7" y1="293.9" x2="351.3" y2="293.9"/>
	<line class="st10" x1="384.7" y1="312.9" x2="351.3" y2="312.2"/>
	<path class="st9" d="M380.2,227.9h-24.3c-2.9,0-5.3-2.4-5.3-5.3v-19.4c0-2.9,2.4-5.3,5.3-5.3h24.3c2.9,0,5.3,2.4,5.3,5.3v19.4
		C385.5,225.6,383.1,227.9,380.2,227.9z"/>
	<path class="st11" d="M175.1,262.8c32.7-30,83.5-27.8,113.5,4.9"/>
	<path class="st11" d="M187.9,276.8c24.7-22.7,63.1-21,85.8,3.7"/>
	<path class="st11" d="M200.7,290.7c17-15.6,43.5-14.5,59.1,2.5"/>
	<path class="st9" d="M328.6,347.1H138.1c-2.4,0-4.3-1.9-4.3-4.3V200.3c0-2.4,1.9-4.3,4.3-4.3h190.5c2.4,0,4.3,1.9,4.3,4.3v142.5
		C332.9,345.2,331,347.1,328.6,347.1z"/>
</g>
</svg>
