<?xml version="1.0" encoding="utf-8"?>
<!-- Generator: Adobe Illustrator 21.0.0, SVG Export Plug-In . SVG Version: 6.00 Build 0)  -->
<svg version="1.1" id="Layer_1" xmlns="http://www.w3.org/2000/svg" xmlns:xlink="http://www.w3.org/1999/xlink" x="0px" y="0px"
	 viewBox="0 0 512 512" style="enable-background:new 0 0 512 512;" xml:space="preserve">
<style type="text/css">
	.st0{opacity:0.25;fill:#95A2AC;}
	.st1{fill:#FFD54F;}
	.st2{fill:#95A2AC;}
	.st3{fill:#B3BDC3;}
	.st4{fill:#1DE9B6;}
	.st5{opacity:0.25;fill:none;stroke:#6F6F6F;stroke-width:15;stroke-linecap:round;stroke-miterlimit:10;}
	.st6{opacity:0.25;fill:none;stroke:#000000;stroke-width:10;stroke-linecap:round;stroke-miterlimit:10;}
	.st7{opacity:0.75;fill:#FFFFFF;stroke:#FFFFFF;stroke-width:10;stroke-linecap:round;stroke-miterlimit:10;}
	.st8{fill:none;stroke:#000000;stroke-width:10;stroke-linecap:round;stroke-linejoin:round;stroke-miterlimit:10;}
</style>
<g id="background">
	<circle class="st0" cx="256" cy="271.9" r="193.4"/>
	<path class="st1" d="M289,146.5c-7.4,0-13.4-6-13.4-13.4c0-7.4,6-13.4,13.4-13.4c7.4,0,13.4,6,13.4,13.4
		C302.4,140.5,296.4,146.5,289,146.5z M289,129.8c-1.9,0-3.4,1.5-3.4,3.4s1.5,3.4,3.4,3.4s3.4-1.5,3.4-3.4S290.9,129.8,289,129.8z"
		/>
	<g>
		<path class="st1" d="M461.4,215.7c-2.8,0-5-2.2-5-5v-22.4c0-2.8,2.2-5,5-5s5,2.2,5,5v22.4C466.4,213.4,464.2,215.7,461.4,215.7z"
			/>
		<path class="st1" d="M472.7,204.5h-22.4c-2.8,0-5-2.2-5-5s2.2-5,5-5h22.4c2.8,0,5,2.2,5,5S475.4,204.5,472.7,204.5z"/>
	</g>
	<g>
		<path class="st2" d="M396.2,118.1c-2.3,0-4.4-1.6-4.9-4l-4.4-22c-0.5-2.7,1.2-5.3,3.9-5.9c2.7-0.5,5.3,1.2,5.9,3.9l4.4,22
			c0.5,2.7-1.2,5.3-3.9,5.9C396.9,118.1,396.6,118.1,396.2,118.1z"/>
		<path class="st2" d="M383,109.4c-2.3,0-4.4-1.6-4.9-4c-0.5-2.7,1.2-5.3,3.9-5.9l22-4.4c2.7-0.5,5.3,1.2,5.9,3.9
			c0.5,2.7-1.2,5.3-3.9,5.9l-22,4.4C383.7,109.3,383.4,109.4,383,109.4z"/>
	</g>
	<g>
		<path class="st1" d="M282.9,68.8c-0.5,0-0.9-0.1-1.4-0.2c-2.7-0.8-4.2-3.5-3.4-6.2l6.2-21.6c0.8-2.7,3.5-4.2,6.2-3.4
			c2.7,0.8,4.2,3.5,3.4,6.2l-6.2,21.6C287.1,67.4,285.1,68.8,282.9,68.8z"/>
		<path class="st1" d="M296.7,61.1c-0.5,0-0.9-0.1-1.4-0.2l-21.6-6.2c-2.7-0.8-4.2-3.5-3.4-6.2c0.8-2.7,3.5-4.2,6.2-3.4l21.6,6.2
			c2.7,0.8,4.2,3.5,3.4,6.2C300.9,59.7,298.9,61.1,296.7,61.1z"/>
	</g>
	<g>
		<path class="st2" d="M55.3,328.6c-2.3,0-4.4-1.6-4.9-4l-4.4-22c-0.5-2.7,1.2-5.3,3.9-5.9c2.7-0.5,5.3,1.2,5.9,3.9l4.4,22
			c0.5,2.7-1.2,5.3-3.9,5.9C55.9,328.6,55.6,328.6,55.3,328.6z"/>
		<path class="st2" d="M42.1,319.8c-2.3,0-4.4-1.6-4.9-4c-0.5-2.7,1.2-5.3,3.9-5.9l22-4.4c2.7-0.5,5.3,1.2,5.9,3.9s-1.2,5.3-3.9,5.9
			l-22,4.4C42.7,319.8,42.4,319.8,42.1,319.8z"/>
	</g>
	<g>
		<path class="st2" d="M171.9,165.6c-0.5,0-1-0.1-1.5-0.2c-2.6-0.8-4.1-3.6-3.3-6.3l6.6-21.4c0.8-2.6,3.6-4.1,6.3-3.3
			c2.6,0.8,4.1,3.6,3.3,6.3l-6.6,21.4C176.1,164.2,174.1,165.6,171.9,165.6z"/>
		<path class="st2" d="M186,158.2c-0.5,0-1-0.1-1.5-0.2l-21.4-6.6c-2.6-0.8-4.1-3.6-3.3-6.3c0.8-2.6,3.6-4.1,6.3-3.3l21.4,6.6
			c2.6,0.8,4.1,3.6,3.3,6.3C190.1,156.8,188.1,158.2,186,158.2z"/>
	</g>
	<path class="st2" d="M458.2,313.3c-7.2,0-13-6-13-13.4c0-7.4,5.8-13.4,13-13.4s13,6,13,13.4C471.2,307.3,465.4,313.3,458.2,313.3z
		 M458.2,296.6c-1.6,0-3,1.5-3,3.4s1.3,3.4,3,3.4s3-1.5,3-3.4S459.9,296.6,458.2,296.6z"/>
	<path class="st2" d="M200.4,73.8c-7.4,0-13.4-6-13.4-13.4c0-7.4,6-13.4,13.4-13.4c7.4,0,13.4,6,13.4,13.4
		C213.8,67.8,207.8,73.8,200.4,73.8z M200.4,57c-1.9,0-3.4,1.5-3.4,3.4s1.5,3.4,3.4,3.4s3.4-1.5,3.4-3.4S202.3,57,200.4,57z"/>
	<path class="st1" d="M50.5,228.2c-7.4,0-13.4-6-13.4-13.4c0-7.4,6-13.4,13.4-13.4c7.4,0,13.4,6,13.4,13.4
		C63.9,222.2,57.8,228.2,50.5,228.2z M50.5,211.4c-1.9,0-3.4,1.5-3.4,3.4s1.5,3.4,3.4,3.4s3.4-1.5,3.4-3.4S52.3,211.4,50.5,211.4z"
		/>
	<g>
		<path class="st1" d="M91.2,140.6c-0.5,0-0.9-0.1-1.4-0.2c-2.7-0.8-4.2-3.5-3.4-6.2l6.2-21.6c0.8-2.7,3.5-4.2,6.2-3.4
			c2.7,0.8,4.2,3.5,3.4,6.2l-6.2,21.6C95.4,139.1,93.4,140.6,91.2,140.6z"/>
		<path class="st1" d="M105.1,132.9c-0.5,0-0.9-0.1-1.4-0.2l-21.6-6.2c-2.7-0.8-4.2-3.5-3.4-6.2c0.8-2.7,3.5-4.2,6.2-3.4l21.6,6.2
			c2.7,0.8,4.2,3.5,3.4,6.2C109.3,131.4,107.3,132.9,105.1,132.9z"/>
	</g>
</g>
<path id="shock_x5F_color" class="st3" d="M409.7,404.3H99c-10.7,0-19.5-8.7-19.5-19.5V198.8c0-10.7,8.7-19.5,19.5-19.5h310.7
	c10.7,0,19.5,8.7,19.5,19.5v186.1C429.2,395.6,420.4,404.3,409.7,404.3z"/>
<path id="color" class="st4" d="M377.8,385.9h-251c-9,0-16.3-7.3-16.3-16.3V213.9c0-9,7.3-16.3,16.3-16.3h251
	c9,0,16.3,7.3,16.3,16.3v155.7C394,378.6,386.8,385.9,377.8,385.9z"/>
<g id="shadows-lights">
	<line class="st5" x1="406" y1="423.3" x2="106.1" y2="423.3"/>
	<path class="st6" d="M428.5,376c0,10.7-8.7,19.5-19.5,19.5H98.3c-10.7,0-19.5-8.7-19.5-19.5"/>
	<path class="st6" d="M394,357.9c0,10.7-7.1,19.5-15.8,19.5h-252c-8.7,0-15.8-8.7-15.8-19.5"/>
	<line class="st7" x1="124.7" y1="213.2" x2="379.9" y2="213.2"/>
</g>
<g id="lines">
	<line class="st8" x1="470.6" y1="411.6" x2="452.3" y2="411.6"/>
	<line class="st8" x1="436.2" y1="411.1" x2="75.5" y2="411.1"/>
	<line class="st8" x1="59.6" y1="411.6" x2="41.4" y2="411.6"/>
	<path class="st8" d="M409,404.3H98.3c-10.7,0-19.5-8.7-19.5-19.5V198.7c0-10.7,8.7-19.5,19.5-19.5H409c10.7,0,19.5,8.7,19.5,19.5
		v186.1C428.5,395.5,419.8,404.3,409,404.3z"/>
	<path class="st8" d="M377.8,385.9h-251c-9,0-16.3-7.3-16.3-16.3V213.9c0-9,7.3-16.3,16.3-16.3h251c9,0,16.3,7.3,16.3,16.3v155.7
		C394,378.6,386.8,385.9,377.8,385.9z"/>
	<line class="st8" x1="94.4" y1="312.6" x2="94.4" y2="271"/>
	<line class="st8" x1="95.2" y1="256.9" x2="95.2" y2="245"/>
	<line class="st8" x1="93.1" y1="377.3" x2="93.1" y2="376.2"/>
	<circle class="st8" cx="411.1" cy="291.7" r="7.3"/>
	<circle class="st8" cx="338.2" cy="260.1" r="25"/>
	<line class="st8" x1="363.2" y1="260.1" x2="394" y2="260.1"/>
	<line class="st8" x1="313.2" y1="260.1" x2="114" y2="260.1"/>
	<line class="st8" x1="124.7" y1="235.1" x2="213.6" y2="235.1"/>
	<line class="st8" x1="124.7" y1="295.1" x2="213.6" y2="295.1"/>
	<line class="st8" x1="124.7" y1="315.1" x2="334" y2="315.1"/>
	<line class="st8" x1="124.7" y1="335.1" x2="286" y2="335.1"/>
	<line class="st8" x1="124.7" y1="355.1" x2="213.6" y2="355.1"/>
</g>
</svg>
