<?xml version="1.0" encoding="utf-8"?>
<!-- Generator: Adobe Illustrator 21.0.0, SVG Export Plug-In . SVG Version: 6.00 Build 0)  -->
<svg version="1.1" id="Layer_1" xmlns="http://www.w3.org/2000/svg" xmlns:xlink="http://www.w3.org/1999/xlink" x="0px" y="0px"
	 viewBox="0 0 512 512" style="enable-background:new 0 0 512 512;" xml:space="preserve">
<style type="text/css">
	.st0{opacity:0.25;fill:#95A2AC;}
	.st1{fill:#FFD54F;}
	.st2{fill:#95A2AC;}
	.st3{fill:#B3BDC3;}
	.st4{fill:#1DE9B6;}
	.st5{opacity:0.25;fill:#040006;}
	.st6{fill:#FFFFFF;}
	.st7{opacity:0.25;fill:none;stroke:#6F6F6F;stroke-width:15;stroke-linecap:round;stroke-miterlimit:10;}
	.st8{opacity:0.25;fill:none;stroke:#000000;stroke-width:10;stroke-linecap:round;stroke-miterlimit:10;}
	.st9{opacity:0.75;fill:none;stroke:#FFFFFF;stroke-width:10;stroke-linecap:round;stroke-miterlimit:10;}
	.st10{fill:none;stroke:#000000;stroke-width:10;stroke-linecap:round;stroke-linejoin:round;stroke-miterlimit:10;}
	.st11{fill:#FFFFFF;stroke:#000000;stroke-width:10;stroke-linecap:round;stroke-miterlimit:10;}
	.st12{fill:none;stroke:#000000;stroke-width:10;stroke-linecap:round;stroke-miterlimit:10;}
	.st13{fill:none;stroke:#000000;stroke-width:10;stroke-miterlimit:10;}
</style>
<g id="background">
	<circle class="st0" cx="257" cy="274.8" r="193.4"/>
	<g>
		<path class="st1" d="M213.5,161.1c-2.8,0-5-2.2-5-5v-22.4c0-2.8,2.2-5,5-5s5,2.2,5,5v22.4C218.5,158.8,216.2,161.1,213.5,161.1z"
			/>
		<path class="st1" d="M224.7,149.9h-22.4c-2.8,0-5-2.2-5-5s2.2-5,5-5h22.4c2.8,0,5,2.2,5,5S227.4,149.9,224.7,149.9z"/>
	</g>
	<g>
		<path class="st2" d="M43.2,264.2c-2.3,0-4.4-1.6-4.9-4l-4.4-22c-0.5-2.7,1.2-5.3,3.9-5.9c2.7-0.5,5.3,1.2,5.9,3.9l4.4,22
			c0.5,2.7-1.2,5.3-3.9,5.9C43.9,264.2,43.5,264.2,43.2,264.2z"/>
		<path class="st2" d="M30,255.4c-2.3,0-4.4-1.6-4.9-4c-0.5-2.7,1.2-5.3,3.9-5.9l22-4.4c2.7-0.5,5.3,1.2,5.9,3.9
			c0.5,2.7-1.2,5.3-3.9,5.9l-22,4.4C30.7,255.4,30.3,255.4,30,255.4z"/>
	</g>
	<g>
		<path class="st1" d="M89.9,128.4c-1.1,0-2.2-0.3-3.1-1c-2.2-1.7-2.6-4.8-0.9-7l13.7-17.7c1.7-2.2,4.8-2.6,7-0.9
			c2.2,1.7,2.6,4.8,0.9,7l-13.7,17.7C92.9,127.8,91.4,128.4,89.9,128.4z"/>
		<path class="st1" d="M105.6,126.4c-1.1,0-2.2-0.3-3.1-1l-17.7-13.7c-2.2-1.7-2.6-4.8-0.9-7c1.7-2.2,4.8-2.6,7-0.9l17.7,13.7
			c2.2,1.7,2.6,4.8,0.9,7C108.6,125.8,107.1,126.4,105.6,126.4z"/>
	</g>
	<g>
		<path class="st2" d="M137.2,247.2c-2.3,0-4.4-1.6-4.9-4l-4.4-22c-0.5-2.7,1.2-5.3,3.9-5.9c2.7-0.5,5.3,1.2,5.9,3.9l4.4,22
			c0.5,2.7-1.2,5.3-3.9,5.9C137.9,247.2,137.6,247.2,137.2,247.2z"/>
		<path class="st2" d="M124,238.4c-2.3,0-4.4-1.6-4.9-4c-0.5-2.7,1.2-5.3,3.9-5.9l22-4.4c2.7-0.5,5.3,1.2,5.9,3.9
			c0.5,2.7-1.2,5.3-3.9,5.9l-22,4.4C124.7,238.4,124.4,238.4,124,238.4z"/>
	</g>
	<g>
		<path class="st2" d="M306.9,74.8c-0.5,0-1-0.1-1.5-0.2c-2.6-0.8-4.1-3.6-3.3-6.3l6.6-21.4c0.8-2.6,3.6-4.1,6.3-3.3
			c2.6,0.8,4.1,3.6,3.3,6.3l-6.6,21.4C311,73.4,309,74.8,306.9,74.8z"/>
		<path class="st2" d="M320.9,67.4c-0.5,0-1-0.1-1.5-0.2L298,60.5c-2.6-0.8-4.1-3.6-3.3-6.3c0.8-2.6,3.6-4.1,6.3-3.3l21.4,6.6
			c2.6,0.8,4.1,3.6,3.3,6.3C325,66,323,67.4,320.9,67.4z"/>
	</g>
	<path class="st2" d="M218.5,363.4c-7.4,0-13.4-6-13.4-13.4c0-7.4,6-13.4,13.4-13.4c7.4,0,13.4,6,13.4,13.4
		C231.9,357.3,225.9,363.4,218.5,363.4z M218.5,346.6c-1.9,0-3.4,1.5-3.4,3.4s1.5,3.4,3.4,3.4s3.4-1.5,3.4-3.4
		S220.3,346.6,218.5,346.6z"/>
	<path class="st1" d="M199.5,77.5c-7.4,0-13.4-6-13.4-13.4c0-7.4,6-13.4,13.4-13.4c7.4,0,13.4,6,13.4,13.4
		C212.9,71.5,206.9,77.5,199.5,77.5z M199.5,60.7c-1.9,0-3.4,1.5-3.4,3.4c0,1.9,1.5,3.4,3.4,3.4s3.4-1.5,3.4-3.4
		C202.9,62.3,201.3,60.7,199.5,60.7z"/>
	<path class="st2" d="M433.4,158.2c-7.4,0-13.4-6-13.4-13.4c0-7.4,6-13.4,13.4-13.4c7.4,0,13.4,6,13.4,13.4
		C446.8,152.2,440.8,158.2,433.4,158.2z M433.4,141.5c-1.9,0-3.4,1.5-3.4,3.4s1.5,3.4,3.4,3.4s3.4-1.5,3.4-3.4
		S435.3,141.5,433.4,141.5z"/>
	<g>
		<path class="st1" d="M380.2,229.1c-1.1,0-2.2-0.3-3.1-1.1c-2.2-1.7-2.6-4.8-0.9-7l13.7-17.7c1.7-2.2,4.8-2.6,7-0.9
			c2.2,1.7,2.6,4.8,0.9,7l-13.7,17.7C383.2,228.4,381.7,229.1,380.2,229.1z"/>
		<path class="st1" d="M395.9,227.1c-1.1,0-2.2-0.3-3.1-1.1l-17.7-13.7c-2.2-1.7-2.6-4.8-0.9-7c1.7-2.2,4.8-2.6,7-0.9l17.7,13.7
			c2.2,1.7,2.6,4.8,0.9,7C398.9,226.4,397.4,227.1,395.9,227.1z"/>
	</g>
</g>
<g id="shock_x5F_color">
	<path class="st3" d="M280.6,250.4c10-10,10-26.3,0-36.3l-6.6-6.6l18.2-18.2l-15.5-15.5l-18.2,18.2l-6.6-6.6c-10-10-26.3-10-36.3,0
		l-9.8,9.8c-10,10-10,26.3,0,36.3l14.4,14.4l-7.8-7.8l-18.2,18.2l15.5,15.5l18.2-18.2l6.6,6.6c10,10,26.3,10,36.3,0L280.6,250.4z"/>
	<path class="st3" d="M349,253.5l-32.1-5.2c-1.5-0.2-3.1,0.3-4.2,1.4L301,261.3l-15.5-15.5L267.3,264l15.5,15.5l-12.7,12.7
		c-1.1,1.1-1.6,2.7-1.4,4.2l5.2,32.1c0.6,3.9,5.4,5.4,8.2,2.7l69.6-69.6C354.5,258.9,352.9,254.1,349,253.5z"/>
</g>
<path id="color" class="st4" d="M280.6,250.4l-9.8,9.8c-10,10-26.3,10-36.3,0l-28.8-28.8c-10-10-10-26.3,0-36.3l9.8-9.8
	c10-10,26.3-10,36.3,0l28.8,28.8C290.6,224.1,290.6,240.4,280.6,250.4z"/>
<g id="shadows-lights">
	
		<rect x="271.3" y="251.7" transform="matrix(0.7071 -0.7071 0.7071 0.7071 -102.488 277.8552)" class="st5" width="25.7" height="22"/>
	
		<rect x="262.4" y="179.6" transform="matrix(0.7071 -0.7071 0.7071 0.7071 -54.1342 250.4682)" class="st5" width="25.7" height="22"/>
	
		<rect x="198.2" y="243.8" transform="matrix(0.7071 -0.7071 0.7071 0.7071 -118.3885 223.8532)" class="st5" width="25.7" height="22"/>
	<g>
		<path class="st6" d="M386,127.5l-65.9,65.9c-6.5,6.5-17.1,6.5-23.6,0l-24.1-24.1c-6.5-6.5-6.5-17.1,0-23.6l65.9-65.9
			c6.5-6.5,17.1-6.5,23.6,0L386,104C392.5,110.5,392.5,121,386,127.5z"/>
		<path class="st6" d="M146.5,363.9l65.9-65.9c6.5-6.5,6.5-17.1,0-23.6l-24.1-24.1c-6.5-6.5-17.1-6.5-23.6,0l-65.9,65.9
			c-6.5,6.5-6.5,17.1,0,23.6l24.1,24.1C129.5,370.4,140,370.4,146.5,363.9z"/>
		<g>
			<line class="st7" x1="406.9" y1="426.2" x2="106.9" y2="426.2"/>
			<path class="st8" d="M349.8,253.6l-69.6,69.6c-2.8,2.8-7.6-0.7-8.2-4.6"/>
			<path class="st8" d="M282.1,215.8c6.3,7,3.7,19-1.5,24.4l-9.8,9.8c-12.1,12.8-23.9,11.3-36.3,0l-26.8-27.2
				c-8.1-8.8-9.2-13.8-7.6-19.2"/>
			<line class="st9" x1="237.2" y1="192.4" x2="268.6" y2="222.7"/>
			<path class="st8" d="M382.6,100.6c6.5,6.5,5.6,15-0.9,21.5l-62.1,62.1c-6.5,6.5-17.1,6.5-23.6,0l-20.7-20.7
				c-6.5-6.5-5.4-15.2,1.1-21.7"/>
			<path class="st8" d="M104.1,311c-6.5,6.5-9.8,15.5-3.3,22l21.6,21.6c6.5,6.5,17.1,6.5,23.6,0l63.2-63.2c3.9-4.1,7-13.3,0.5-19.8"
				/>
		</g>
	</g>
</g>
<g id="lines">
	<line class="st10" x1="471.4" y1="414.5" x2="453.2" y2="414.5"/>
	<line class="st10" x1="437" y1="414" x2="76.3" y2="414"/>
	<line class="st10" x1="59.2" y1="414.5" x2="41" y2="414.5"/>
	<line class="st11" x1="316.9" y1="296.4" x2="331.5" y2="311"/>
	<g>
		<path class="st12" d="M386,304.8c-0.5,33.7-28.2,60.6-61.9,60.1"/>
		<path class="st12" d="M371.6,304.6c-0.4,25.5-21.3,45.8-46.8,45.4"/>
		<path class="st12" d="M357.3,304.4c-0.3,17.6-14.7,31.6-32.3,31.3"/>
	</g>
	<path class="st13" d="M386,127.5l-65.9,65.9c-6.5,6.5-17.1,6.5-23.6,0l-24.1-24.1c-6.5-6.5-6.5-17.1,0-23.6l65.9-65.9
		c6.5-6.5,17.1-6.5,23.6,0L386,104C392.5,110.5,392.5,121,386,127.5z"/>
	<path class="st13" d="M351.7,261.7l-69.6,69.6c-2.8,2.8-7.6,1.2-8.2-2.7l-5.2-32.1c-0.2-1.5,0.3-3.1,1.4-4.2l42.6-42.6
		c1.1-1.1,2.7-1.6,4.2-1.4l32.1,5.2C352.9,254.1,354.5,258.9,351.7,261.7z"/>
	<path class="st13" d="M146.5,363.9l65.9-65.9c6.5-6.5,6.5-17.1,0-23.6l-24.1-24.1c-6.5-6.5-17.1-6.5-23.6,0l-65.9,65.9
		c-6.5,6.5-6.5,17.1,0,23.6l24.1,24.1C129.5,370.4,140,370.4,146.5,363.9z"/>
	
		<rect x="271.3" y="251.7" transform="matrix(0.7071 -0.7071 0.7071 0.7071 -102.488 277.8552)" class="st13" width="25.7" height="22"/>
	
		<rect x="262.4" y="179.6" transform="matrix(0.7071 -0.7071 0.7071 0.7071 -54.1342 250.4682)" class="st13" width="25.7" height="22"/>
	
		<rect x="198.2" y="243.8" transform="matrix(0.7071 -0.7071 0.7071 0.7071 -118.3885 223.8532)" class="st13" width="25.7" height="22"/>
	<path class="st12" d="M280.6,250.4l-9.8,9.8c-10,10-26.3,10-36.3,0l-28.8-28.8c-10-10-10-26.3,0-36.3l9.8-9.8c10-10,26.3-10,36.3,0
		l28.8,28.8C290.6,224.1,290.6,240.4,280.6,250.4z"/>
</g>
</svg>
