<?xml version="1.0" encoding="utf-8"?>
<!-- Generator: Adobe Illustrator 21.0.0, SVG Export Plug-In . SVG Version: 6.00 Build 0)  -->
<svg version="1.1" id="Layer_1" xmlns="http://www.w3.org/2000/svg" xmlns:xlink="http://www.w3.org/1999/xlink" x="0px" y="0px"
	 viewBox="0 0 512 512" style="enable-background:new 0 0 512 512;" xml:space="preserve">
<style type="text/css">
	.st0{opacity:0.25;fill:#95A2AC;}
	.st1{fill:#FFD54F;}
	.st2{fill:#95A2AC;}
	.st3{fill:#B3BDC3;}
	.st4{fill:#BA68C8;}
	.st5{fill:#1DE9B6;}
	.st6{opacity:0.25;fill:none;stroke:#6F6F6F;stroke-width:15;stroke-linecap:round;stroke-miterlimit:10;}
	.st7{opacity:0.25;}
	.st8{opacity:0.25;fill:#1DE9B6;stroke:#000000;stroke-width:10;stroke-miterlimit:10;}
	.st9{opacity:0.75;fill:#1DE9B6;stroke:#FFFFFF;stroke-width:10;stroke-linecap:round;stroke-miterlimit:10;}
	.st10{fill:none;stroke:#000000;stroke-width:10;stroke-linecap:round;stroke-linejoin:round;stroke-miterlimit:10;}
	.st11{fill:none;stroke:#000000;stroke-width:10;stroke-miterlimit:10;}
</style>
<g id="background">
	<circle class="st0" cx="259.7" cy="258.2" r="193.4"/>
	<g>
		<path class="st1" d="M160.5,96.4c-2.8,0-5-2.2-5-5V68.9c0-2.8,2.2-5,5-5s5,2.2,5,5v22.4C165.5,94.1,163.3,96.4,160.5,96.4z"/>
		<path class="st1" d="M171.7,85.1h-22.4c-2.8,0-5-2.2-5-5s2.2-5,5-5h22.4c2.8,0,5,2.2,5,5S174.5,85.1,171.7,85.1z"/>
	</g>
	<g>
		<path class="st2" d="M101.1,320.8c-2.3,0-4.4-1.6-4.9-4l-4.4-22c-0.5-2.7,1.2-5.3,3.9-5.9c2.7-0.5,5.3,1.2,5.9,3.9l4.4,22
			c0.5,2.7-1.2,5.3-3.9,5.9C101.8,320.7,101.4,320.8,101.1,320.8z"/>
		<path class="st2" d="M87.9,312c-2.3,0-4.4-1.6-4.9-4c-0.5-2.7,1.2-5.3,3.9-5.9l22-4.4c2.7-0.5,5.3,1.2,5.9,3.9
			c0.5,2.7-1.2,5.3-3.9,5.9l-22,4.4C88.6,312,88.2,312,87.9,312z"/>
	</g>
	<g>
		<path class="st2" d="M84.3,185.2c-2.3,0-4.4-1.6-4.9-4l-4.4-22c-0.5-2.7,1.2-5.3,3.9-5.9c2.7-0.5,5.3,1.2,5.9,3.9l4.4,22
			c0.5,2.7-1.2,5.3-3.9,5.9C85,185.2,84.7,185.2,84.3,185.2z"/>
		<path class="st2" d="M71.1,176.4c-2.3,0-4.4-1.6-4.9-4c-0.5-2.7,1.2-5.3,3.9-5.9l22-4.4c2.7-0.5,5.3,1.2,5.9,3.9
			c0.5,2.7-1.2,5.3-3.9,5.9l-22,4.4C71.8,176.4,71.5,176.4,71.1,176.4z"/>
	</g>
	<path class="st2" d="M220.1,127.1c-7.4,0-13.4-6-13.4-13.4s6-13.4,13.4-13.4c7.4,0,13.4,6,13.4,13.4S227.5,127.1,220.1,127.1z
		 M220.1,110.3c-1.9,0-3.4,1.5-3.4,3.4s1.5,3.4,3.4,3.4s3.4-1.5,3.4-3.4S222,110.3,220.1,110.3z"/>
	<path class="st1" d="M294.7,82c-7.4,0-13.4-6-13.4-13.4c0-7.4,6-13.4,13.4-13.4c7.4,0,13.4,6,13.4,13.4C308.1,76,302.1,82,294.7,82
		z M294.7,65.3c-1.9,0-3.4,1.5-3.4,3.4c0,1.9,1.5,3.4,3.4,3.4s3.4-1.5,3.4-3.4C298.1,66.8,296.6,65.3,294.7,65.3z"/>
	<path class="st2" d="M422.1,150.4c-7.4,0-13.4-6-13.4-13.4c0-7.4,6-13.4,13.4-13.4c7.4,0,13.4,6,13.4,13.4
		C435.5,144.4,429.5,150.4,422.1,150.4z M422.1,133.6c-1.9,0-3.4,1.5-3.4,3.4c0,1.9,1.5,3.4,3.4,3.4s3.4-1.5,3.4-3.4
		C425.5,135.1,424,133.6,422.1,133.6z"/>
	<g>
		<path class="st1" d="M342.4,134c-1.1,0-2.2-0.3-3.1-1c-2.2-1.7-2.6-4.8-0.9-7l13.7-17.7c1.7-2.2,4.8-2.6,7-0.9
			c2.2,1.7,2.6,4.8,0.9,7l-13.7,17.7C345.3,133.3,343.9,134,342.4,134z"/>
		<path class="st1" d="M358.1,132c-1.1,0-2.2-0.3-3.1-1l-17.7-13.7c-2.2-1.7-2.6-4.8-0.9-7c1.7-2.2,4.8-2.6,7-0.9l17.7,13.7
			c2.2,1.7,2.6,4.8,0.9,7C361.1,131.4,359.6,132,358.1,132z"/>
	</g>
	<path class="st1" d="M110.5,242.1c-7.4,0-13.4-6-13.4-13.4s6-13.4,13.4-13.4c7.4,0,13.4,6,13.4,13.4S117.9,242.1,110.5,242.1z
		 M110.5,225.4c-1.9,0-3.4,1.5-3.4,3.4s1.5,3.4,3.4,3.4s3.4-1.5,3.4-3.4S112.4,225.4,110.5,225.4z"/>
	<path class="st2" d="M440.9,309.8c-7.4,0-13.4-6-13.4-13.4c0-7.4,6-13.4,13.4-13.4c7.4,0,13.4,6,13.4,13.4
		C454.2,303.8,448.2,309.8,440.9,309.8z M440.9,293c-1.9,0-3.4,1.5-3.4,3.4c0,1.9,1.5,3.4,3.4,3.4s3.4-1.5,3.4-3.4
		C444.2,294.5,442.7,293,440.9,293z"/>
	<g>
		<path class="st1" d="M422.4,254c-1.1,0-2.2-0.3-3.1-1c-2.2-1.7-2.6-4.8-0.9-7l13.7-17.7c1.7-2.2,4.8-2.6,7-0.9
			c2.2,1.7,2.6,4.8,0.9,7l-13.7,17.7C425.3,253.3,423.9,254,422.4,254z"/>
		<path class="st1" d="M438.1,252c-1.1,0-2.2-0.3-3.1-1l-17.7-13.7c-2.2-1.7-2.6-4.8-0.9-7c1.7-2.2,4.8-2.6,7-0.9l17.7,13.7
			c2.2,1.7,2.6,4.8,0.9,7C441.1,251.4,439.6,252,438.1,252z"/>
	</g>
</g>
<g id="shock_x5F_color">
	<path class="st3" d="M158.5,215.6h201.7c8.7,0,15.8-7.1,15.8-15.8v-32.1c0-8.7-7.1-15.8-15.8-15.8H158.5c-8.7,0-15.8,7.1-15.8,15.8
		v32.1C142.7,208.5,149.8,215.6,158.5,215.6z"/>
	<path class="st3" d="M376,281.5v-32.1c0-8.7-7.1-15.8-15.8-15.8H158.5c-8.7,0-15.8,7.1-15.8,15.8v32.1c0,8.7,7.1,15.8,15.8,15.8
		h82.3v38.3h38.3v-38.3h81C368.9,297.4,376,290.3,376,281.5z"/>
	<path class="st3" d="M386.6,348H286.4v28.9h100.2c4.3,0,7.8-3.5,7.8-7.8v-13.2C394.4,351.5,390.9,348,386.6,348z"/>
	<path class="st3" d="M124.3,357.2v10.5c0,5.1,4.1,9.2,9.2,9.2h98.9V348h-98.9C128.4,348,124.3,352.1,124.3,357.2z"/>
</g>
<g id="color">
	<path class="st4" d="M348.8,200.6h-29.8c-6.3,0-11.4-5.1-11.4-11.4v-10.8c0-6.3,5.1-11.4,11.4-11.4h29.8c6.3,0,11.4,5.1,11.4,11.4
		v10.8C360.2,195.5,355.1,200.6,348.8,200.6z"/>
	<path class="st4" d="M348.8,282.3h-29.8c-6.3,0-11.4-5.1-11.4-11.4v-10.8c0-6.3,5.1-11.4,11.4-11.4h29.8c6.3,0,11.4,5.1,11.4,11.4
		v10.8C360.2,277.2,355.1,282.3,348.8,282.3z"/>
	<path class="st5" d="M275.9,335.7h-33.1c-5.8,0-10.5,4.7-10.5,10.5v33.1c0,5.8,4.7,10.5,10.5,10.5h33.1c5.8,0,10.5-4.7,10.5-10.5
		v-33.1C286.4,340.4,281.7,335.7,275.9,335.7z"/>
</g>
<g id="shadows-lights">
	<line class="st6" x1="409.5" y1="409.6" x2="109.6" y2="409.6"/>
	<rect x="240.8" y="297.4" class="st7" width="38.3" height="38.3"/>
	<path class="st7" d="M386.6,376.9H286.4V348h100.2c4.3,0,7.8,3.5,7.8,7.8v13.2C394.4,373.4,390.9,376.9,386.6,376.9z"/>
	<path class="st7" d="M232.3,348h-98.9c-5.1,0-9.2,4.1-9.2,9.2v10.5c0,5.1,4.1,9.2,9.2,9.2h98.9V348z"/>
	<line class="st8" x1="144.6" y1="207.2" x2="374.1" y2="207.2"/>
	<line class="st8" x1="144.6" y1="287.2" x2="374.1" y2="287.2"/>
	<line class="st9" x1="163" y1="169.2" x2="224.5" y2="169.2"/>
	<line class="st9" x1="163" y1="249.2" x2="224.5" y2="249.2"/>
</g>
<g id="lines">
	<line class="st10" x1="474" y1="397.9" x2="455.8" y2="397.9"/>
	<line class="st10" x1="439.7" y1="397.4" x2="79" y2="397.4"/>
	<line class="st10" x1="61.9" y1="397.9" x2="43.7" y2="397.9"/>
	<path class="st11" d="M360.2,215.6H158.5c-8.7,0-15.8-7.1-15.8-15.8v-32.1c0-8.7,7.1-15.8,15.8-15.8h201.7
		c8.7,0,15.8,7.1,15.8,15.8v32.1C376,208.5,368.9,215.6,360.2,215.6z"/>
	<path class="st11" d="M360.2,297.4H158.5c-8.7,0-15.8-7.1-15.8-15.8v-32.1c0-8.7,7.1-15.8,15.8-15.8h201.7
		c8.7,0,15.8,7.1,15.8,15.8v32.1C376,290.3,368.9,297.4,360.2,297.4z"/>
	<path class="st11" d="M275.9,335.7h-33.1c-5.8,0-10.5,4.7-10.5,10.5v33.1c0,5.8,4.7,10.5,10.5,10.5h33.1c5.8,0,10.5-4.7,10.5-10.5
		v-33.1C286.4,340.4,281.7,335.7,275.9,335.7z"/>
	<rect x="240.8" y="297.4" class="st11" width="38.3" height="38.3"/>
	<path class="st11" d="M386.6,376.9H286.4V348h100.2c4.3,0,7.8,3.5,7.8,7.8v13.2C394.4,373.4,390.9,376.9,386.6,376.9z"/>
	<path class="st11" d="M232.3,348h-98.9c-5.1,0-9.2,4.1-9.2,9.2v10.5c0,5.1,4.1,9.2,9.2,9.2h98.9V348z"/>
	<path class="st11" d="M348.8,200.6h-29.8c-6.3,0-11.4-5.1-11.4-11.4v-10.8c0-6.3,5.1-11.4,11.4-11.4h29.8c6.3,0,11.4,5.1,11.4,11.4
		v10.8C360.2,195.5,355.1,200.6,348.8,200.6z"/>
	<path class="st11" d="M348.8,282.3h-29.8c-6.3,0-11.4-5.1-11.4-11.4v-10.8c0-6.3,5.1-11.4,11.4-11.4h29.8c6.3,0,11.4,5.1,11.4,11.4
		v10.8C360.2,277.2,355.1,282.3,348.8,282.3z"/>
</g>
</svg>
