<?xml version="1.0" encoding="utf-8"?>
<!-- Generator: Adobe Illustrator 21.0.0, SVG Export Plug-In . SVG Version: 6.00 Build 0)  -->
<svg version="1.1" id="Layer_1" xmlns="http://www.w3.org/2000/svg" xmlns:xlink="http://www.w3.org/1999/xlink" x="0px" y="0px"
	 viewBox="0 0 512 512" style="enable-background:new 0 0 512 512;" xml:space="preserve">
<style type="text/css">
	.st0{opacity:0.25;fill:#95A2AC;}
	.st1{fill:#FFD54F;}
	.st2{fill:#95A2AC;}
	.st3{fill:#B3BDC3;}
	.st4{fill:#1DE9B6;}
	.st5{fill:#BA68C8;}
	.st6{opacity:0.25;fill:none;stroke:#6F6F6F;stroke-width:15;stroke-linecap:round;stroke-miterlimit:10;}
	.st7{opacity:0.25;fill:none;stroke:#000000;stroke-width:10;stroke-linecap:round;stroke-linejoin:round;stroke-miterlimit:10;}
	.st8{opacity:0.75;fill:none;stroke:#FFFFFF;stroke-width:10;stroke-linecap:round;stroke-linejoin:round;stroke-miterlimit:10;}
	.st9{fill:none;stroke:#000000;stroke-width:10;stroke-linecap:round;stroke-linejoin:round;stroke-miterlimit:10;}
	.st10{fill:none;stroke:#000000;stroke-width:10;stroke-linecap:round;stroke-miterlimit:10;}
</style>
<g id="background">
	<circle class="st0" cx="254" cy="262.2" r="193.4"/>
	<g>
		<path class="st1" d="M274.8,100.3c-2.8,0-5-2.2-5-5V72.9c0-2.8,2.2-5,5-5s5,2.2,5,5v22.4C279.8,98.1,277.6,100.3,274.8,100.3z"/>
		<path class="st1" d="M286,89.1h-22.4c-2.8,0-5-2.2-5-5s2.2-5,5-5H286c2.8,0,5,2.2,5,5S288.8,89.1,286,89.1z"/>
	</g>
	<g>
		<path class="st2" d="M89.5,170.8c-2.3,0-4.4-1.6-4.9-4l-4.4-22c-0.5-2.7,1.2-5.3,3.9-5.9c2.7-0.5,5.3,1.2,5.9,3.9l4.4,22
			c0.5,2.7-1.2,5.3-3.9,5.9C90.1,170.8,89.8,170.8,89.5,170.8z"/>
		<path class="st2" d="M76.3,162c-2.3,0-4.4-1.6-4.9-4c-0.5-2.7,1.2-5.3,3.9-5.9l22-4.4c2.7-0.5,5.3,1.2,5.9,3.9
			c0.5,2.7-1.2,5.3-3.9,5.9l-22,4.4C76.9,162,76.6,162,76.3,162z"/>
	</g>
	<g>
		<path class="st1" d="M410.4,345.4c-1.1,0-2.1-0.3-3.1-1c-2.2-1.7-2.6-4.8-0.9-7l13.7-17.7c1.7-2.2,4.8-2.6,7-0.9
			c2.2,1.7,2.6,4.8,0.9,7l-13.7,17.7C413.4,344.7,411.9,345.4,410.4,345.4z"/>
		<path class="st1" d="M426.1,343.4c-1.1,0-2.1-0.3-3.1-1l-17.7-13.7c-2.2-1.7-2.6-4.8-0.9-7c1.7-2.2,4.8-2.6,7-0.9l17.7,13.7
			c2.2,1.7,2.6,4.8,0.9,7C429.1,342.7,427.6,343.4,426.1,343.4z"/>
	</g>
	<g>
		<path class="st2" d="M113.6,327.5c-2.3,0-4.4-1.6-4.9-4l-4.4-22c-0.5-2.7,1.2-5.3,3.9-5.9c2.7-0.5,5.3,1.2,5.9,3.9l4.4,22
			c0.5,2.7-1.2,5.3-3.9,5.9C114.3,327.5,114,327.5,113.6,327.5z"/>
		<path class="st2" d="M100.4,318.7c-2.3,0-4.4-1.6-4.9-4c-0.5-2.7,1.2-5.3,3.9-5.9l22-4.4c2.7-0.5,5.3,1.2,5.9,3.9
			c0.5,2.7-1.2,5.3-3.9,5.9l-22,4.4C101.1,318.7,100.8,318.7,100.4,318.7z"/>
	</g>
	<path class="st2" d="M214.4,82C207,82,201,76,201,68.7c0-7.4,6-13.4,13.4-13.4c7.4,0,13.4,6,13.4,13.4C227.8,76,221.8,82,214.4,82z
		 M214.4,65.3c-1.9,0-3.4,1.5-3.4,3.4c0,1.9,1.5,3.4,3.4,3.4c1.9,0,3.4-1.5,3.4-3.4C217.8,66.8,216.3,65.3,214.4,65.3z"/>
	<path class="st1" d="M112.2,262c-7.4,0-13.4-6-13.4-13.4c0-7.4,6-13.4,13.4-13.4s13.4,6,13.4,13.4C125.6,256,119.6,262,112.2,262z
		 M112.2,245.2c-1.9,0-3.4,1.5-3.4,3.4c0,1.9,1.5,3.4,3.4,3.4s3.4-1.5,3.4-3.4C115.6,246.7,114.1,245.2,112.2,245.2z"/>
	<path class="st2" d="M346.9,99.8c-7.4,0-13.4-6-13.4-13.4s6-13.4,13.4-13.4c7.4,0,13.4,6,13.4,13.4S354.3,99.8,346.9,99.8z
		 M346.9,83.1c-1.9,0-3.4,1.5-3.4,3.4s1.5,3.4,3.4,3.4c1.9,0,3.4-1.5,3.4-3.4S348.8,83.1,346.9,83.1z"/>
	<g>
		<path class="st1" d="M403.9,182.4c-1.1,0-2.1-0.3-3.1-1c-2.2-1.7-2.6-4.8-0.9-7l13.7-17.7c1.7-2.2,4.8-2.6,7-0.9
			c2.2,1.7,2.6,4.8,0.9,7l-13.7,17.7C406.9,181.8,405.4,182.4,403.9,182.4z"/>
		<path class="st1" d="M419.6,180.5c-1.1,0-2.1-0.3-3.1-1l-17.7-13.7c-2.2-1.7-2.6-4.8-0.9-7c1.7-2.2,4.8-2.6,7-0.9l17.7,13.7
			c2.2,1.7,2.6,4.8,0.9,7C422.6,179.8,421.1,180.5,419.6,180.5z"/>
	</g>
	<path class="st1" d="M156.4,142.7c-7.4,0-13.4-6-13.4-13.4c0-7.4,6-13.4,13.4-13.4s13.4,6,13.4,13.4
		C169.8,136.7,163.8,142.7,156.4,142.7z M156.4,125.9c-1.9,0-3.4,1.5-3.4,3.4c0,1.9,1.5,3.4,3.4,3.4s3.4-1.5,3.4-3.4
		C159.8,127.5,158.3,125.9,156.4,125.9z"/>
	<path class="st2" d="M385.5,267.1c-7.4,0-13.4-6-13.4-13.4s6-13.4,13.4-13.4s13.4,6,13.4,13.4S392.9,267.1,385.5,267.1z
		 M385.5,250.4c-1.9,0-3.4,1.5-3.4,3.4s1.5,3.4,3.4,3.4s3.4-1.5,3.4-3.4S387.4,250.4,385.5,250.4z"/>
</g>
<path id="shock_x5F_color" class="st3" d="M225.4,129h108.2c9.1,0,16.4,7.4,16.4,16.4v233.5c0,9.1-7.4,16.4-16.4,16.4H172.1
	c-9.1,0-16.4-7.4-16.4-16.4V234.7l25.9,0.1V213l-25.9,0v-14.3c0-4.6,1.8-9,5.1-12.2l52.5-52.5C216.5,130.8,220.9,129,225.4,129z"/>
<g id="color">
	<rect x="300.8" y="149.5" class="st4" width="27.1" height="27.1"/>
	<rect x="252.1" y="149.5" class="st4" width="27.1" height="27.1"/>
	<path class="st5" d="M306.4,254.4H197.7c-5.7,0-10.3,4.6-10.3,10.3V349c0,5.7,4.6,10.3,10.3,10.3h108.7c5.7,0,10.3-4.6,10.3-10.3
		v-84.2C316.7,259.1,312.1,254.4,306.4,254.4z"/>
	<polygon class="st4" points="203.3,176.6 230.4,176.6 230.4,149.5 	"/>
</g>
<g id="shadows-lights">
	<line class="st6" x1="403.8" y1="413.6" x2="103.9" y2="413.6"/>
	<path class="st7" d="M350.1,370.9c0,9.1-7.4,16.4-16.4,16.4H172.1c-9.1,0-16.4-7.4-16.4-16.4"/>
	<line class="st8" x1="332.9" y1="203.3" x2="332.9" y2="279.1"/>
</g>
<g id="lines">
	<line class="st9" x1="468.3" y1="401.9" x2="450.1" y2="401.9"/>
	<line class="st9" x1="434" y1="401.4" x2="73.3" y2="401.4"/>
	<line class="st9" x1="56.2" y1="401.9" x2="37.9" y2="401.9"/>
	<g>
		<path class="st10" d="M203.5,306.9c26.5-28.4,71.1-30,99.6-3.5"/>
		<path class="st10" d="M215.7,318.3c20.1-21.5,53.7-22.7,75.3-2.6"/>
		<path class="st10" d="M227.7,329.5c13.8-14.8,37.1-15.6,51.9-1.8"/>
	</g>
	<path class="st9" d="M225.4,129h108.2c9.1,0,16.4,7.4,16.4,16.4v233.5c0,9.1-7.4,16.4-16.4,16.4H172.1c-9.1,0-16.4-7.4-16.4-16.4
		V234.7l25.9,0.1V213l-25.9,0v-14.3c0-4.6,1.8-9,5.1-12.2l52.5-52.5C216.5,130.8,220.9,129,225.4,129z"/>
	<rect x="300.8" y="149.5" class="st9" width="27.1" height="27.1"/>
	<rect x="252.1" y="149.5" class="st9" width="27.1" height="27.1"/>
	<path class="st9" d="M306.4,254.4H197.7c-5.7,0-10.3,4.6-10.3,10.3V349c0,5.7,4.6,10.3,10.3,10.3h108.7c5.7,0,10.3-4.6,10.3-10.3
		v-84.2C316.7,259.1,312.1,254.4,306.4,254.4z"/>
	<polygon class="st9" points="203.3,176.6 230.4,176.6 230.4,149.5 	"/>
</g>
</svg>
