<?xml version="1.0" encoding="utf-8"?>
<!-- Generator: Adobe Illustrator 21.0.0, SVG Export Plug-In . SVG Version: 6.00 Build 0)  -->
<svg version="1.1" id="Layer_1" xmlns="http://www.w3.org/2000/svg" xmlns:xlink="http://www.w3.org/1999/xlink" x="0px" y="0px"
	 viewBox="0 0 512 512" style="enable-background:new 0 0 512 512;" xml:space="preserve">
<style type="text/css">
	.st0{opacity:0.25;fill:#95A2AC;}
	.st1{fill:#FFD54F;}
	.st2{fill:#95A2AC;}
	.st3{fill:#B3BDC3;}
	.st4{opacity:0.25;fill:#040006;}
	.st5{opacity:0.25;fill:none;stroke:#6F6F6F;stroke-width:15;stroke-linecap:round;stroke-miterlimit:10;}
	.st6{opacity:0.25;fill:none;stroke:#000000;stroke-width:10;stroke-linecap:round;stroke-miterlimit:10;}
	.st7{opacity:0.75;fill:none;stroke:#FFFFFF;stroke-width:10;stroke-linecap:round;stroke-miterlimit:10;}
	.st8{fill:none;stroke:#000000;stroke-width:10;stroke-linecap:round;stroke-linejoin:round;stroke-miterlimit:10;}
	.st9{fill:none;stroke:#000000;stroke-width:10;stroke-linecap:round;stroke-miterlimit:10;}
</style>
<g id="background">
	<circle class="st0" cx="252.4" cy="275.3" r="193.4"/>
	<path class="st1" d="M398.4,243.4c-7.4,0-13.4-6-13.4-13.4c0-7.4,6-13.4,13.4-13.4s13.4,6,13.4,13.4
		C411.8,237.4,405.8,243.4,398.4,243.4z M398.4,226.7c-1.9,0-3.4,1.5-3.4,3.4s1.5,3.4,3.4,3.4s3.4-1.5,3.4-3.4
		S400.3,226.7,398.4,226.7z"/>
	<g>
		<path class="st1" d="M303.2,70c-1.4,0-2.7-0.6-3.7-1.7l-15-16.7c-1.8-2.1-1.7-5.2,0.4-7.1c2.1-1.8,5.2-1.7,7.1,0.4l15,16.7
			c1.8,2.1,1.7,5.2-0.4,7.1C305.6,69.6,304.4,70,303.2,70z"/>
		<path class="st1" d="M287.4,69.2c-1.4,0-2.7-0.6-3.7-1.7c-1.8-2.1-1.7-5.2,0.4-7.1l16.7-15c2.1-1.8,5.2-1.7,7.1,0.4
			c1.8,2.1,1.7,5.2-0.4,7.1l-16.7,15C289.8,68.8,288.6,69.2,287.4,69.2z"/>
	</g>
	<g>
		<path class="st2" d="M435.5,173.5c-2.3,0-4.4-1.6-4.9-4l-4.4-22c-0.5-2.7,1.2-5.3,3.9-5.9c2.7-0.5,5.3,1.2,5.9,3.9l4.4,22
			c0.5,2.7-1.2,5.3-3.9,5.9C436.2,173.5,435.9,173.5,435.5,173.5z"/>
		<path class="st2" d="M422.3,164.7c-2.3,0-4.4-1.6-4.9-4c-0.5-2.7,1.2-5.3,3.9-5.9l22-4.4c2.7-0.5,5.3,1.2,5.9,3.9
			s-1.2,5.3-3.9,5.9l-22,4.4C423,164.7,422.7,164.7,422.3,164.7z"/>
	</g>
	<g>
		<path class="st2" d="M104.2,309.6c-2.3,0-4.4-1.6-4.9-4l-4.4-22c-0.5-2.7,1.2-5.3,3.9-5.9c2.7-0.5,5.3,1.2,5.9,3.9l4.4,22
			c0.5,2.7-1.2,5.3-3.9,5.9C104.9,309.5,104.5,309.6,104.2,309.6z"/>
		<path class="st2" d="M91,300.8c-2.3,0-4.4-1.6-4.9-4c-0.5-2.7,1.2-5.3,3.9-5.9l22-4.4c2.7-0.5,5.3,1.2,5.9,3.9
			c0.5,2.7-1.2,5.3-3.9,5.9l-22,4.4C91.7,300.8,91.3,300.8,91,300.8z"/>
	</g>
	<path class="st2" d="M271.1,131.5c-7.4,0-13.4-6-13.4-13.4c0-7.4,6-13.4,13.4-13.4c7.4,0,13.4,6,13.4,13.4
		C284.5,125.5,278.5,131.5,271.1,131.5z M271.1,114.8c-1.9,0-3.4,1.5-3.4,3.4s1.5,3.4,3.4,3.4s3.4-1.5,3.4-3.4
		S273,114.8,271.1,114.8z"/>
	<path class="st1" d="M65.9,181.9c-7.4,0-13.4-6-13.4-13.4c0-7.4,6-13.4,13.4-13.4c7.4,0,13.4,6,13.4,13.4
		C79.2,175.9,73.2,181.9,65.9,181.9z M65.9,165.1c-1.9,0-3.4,1.5-3.4,3.4s1.5,3.4,3.4,3.4s3.4-1.5,3.4-3.4S67.7,165.1,65.9,165.1z"
		/>
	<g>
		<path class="st1" d="M150,98.1c-0.5,0-0.9-0.1-1.4-0.2c-2.7-0.8-4.2-3.5-3.4-6.2l6.2-21.6c0.8-2.7,3.5-4.2,6.2-3.4
			c2.7,0.8,4.2,3.5,3.4,6.2l-6.2,21.6C154.2,96.7,152.2,98.1,150,98.1z"/>
		<path class="st1" d="M163.8,90.4c-0.5,0-0.9-0.1-1.4-0.2l-21.6-6.2c-2.7-0.8-4.2-3.5-3.4-6.2c0.8-2.7,3.5-4.2,6.2-3.4l21.6,6.2
			c2.7,0.8,4.2,3.5,3.4,6.2C168,89,166,90.4,163.8,90.4z"/>
	</g>
	<g>
		<path class="st1" d="M401.4,335.5c-0.5,0-0.9-0.1-1.4-0.2c-2.7-0.8-4.2-3.5-3.4-6.2l6.2-21.6c0.8-2.7,3.5-4.2,6.2-3.4
			c2.7,0.8,4.2,3.5,3.4,6.2l-6.2,21.6C405.6,334.1,403.6,335.5,401.4,335.5z"/>
		<path class="st1" d="M415.3,327.8c-0.5,0-0.9-0.1-1.4-0.2l-21.5-6.2c-2.7-0.8-4.2-3.5-3.4-6.2c0.8-2.7,3.5-4.2,6.2-3.4l21.5,6.2
			c2.7,0.8,4.2,3.5,3.4,6.2C419.5,326.4,417.5,327.8,415.3,327.8z"/>
	</g>
</g>
<g id="shock_x5F_color">
	<path class="st3" d="M328.4,153.2H202c-13.1,0-23.7,10.6-23.7,23.7l-20,212.7c0,13.1,10.6,23.7,23.7,23.7h166.4
		c13.1,0,23.7-10.6,23.7-23.7l-20-212.7C352.1,163.8,341.5,153.2,328.4,153.2z"/>
</g>
<g id="shadows-lights">
	<path class="st4" d="M265.2,281.3c23.1,0,41.9,18.8,41.9,41.9S288.3,365,265.2,365s-41.9-18.8-41.9-41.9S242.1,281.3,265.2,281.3
		 M265.2,256.3c-36.9,0-66.9,29.9-66.9,66.9c0,36.9,29.9,66.9,66.9,66.9c36.9,0,66.9-29.9,66.9-66.9
		C332.1,286.2,302.1,256.3,265.2,256.3L265.2,256.3z"/>
	<g>
		<line class="st5" x1="343.5" y1="439.2" x2="167.2" y2="439.2"/>
		<path class="st6" d="M158.3,380.5c0,13.1,10.6,23.7,23.7,23.7h166.4c13.1,0,23.7-10.6,23.7-23.7"/>
		<path class="st6" d="M332.1,332.1c0-36.9-29.9-66.9-66.9-66.9s-66.9,29.9-66.9,66.9"/>
		<path class="st7" d="M212.5,323.1c0,29.1,23.6,52.7,52.7,52.7"/>
		<line class="st6" x1="173" y1="243.1" x2="356.3" y2="243.1"/>
	</g>
	<circle class="st4" cx="265.2" cy="323.1" r="23.3"/>
</g>
<g id="lines">
	<line class="st8" x1="416.3" y1="427.5" x2="402.7" y2="427.5"/>
	<line class="st8" x1="369.7" y1="427" x2="141.3" y2="427"/>
	<line class="st8" x1="109.9" y1="427.5" x2="96.2" y2="427.5"/>
	<path class="st9" d="M195.6,111c-33.7,0-61,27.3-61,61"/>
	<path class="st9" d="M195.6,125.5c-25.5,0-46.1,20.6-46.1,46.1"/>
	<path class="st9" d="M195.6,139.8c-17.6,0-31.8,14.2-31.8,31.8"/>
	<path class="st9" d="M328.4,153.2H202c-13.1,0-23.7,10.6-23.7,23.7l-20,212.7c0,13.1,10.6,23.7,23.7,23.7h166.4
		c13.1,0,23.7-10.6,23.7-23.7l-20-212.7C352.1,163.8,341.5,153.2,328.4,153.2z"/>
	<circle class="st9" cx="265.2" cy="323.1" r="66.9"/>
	<circle class="st9" cx="265.2" cy="323.1" r="38.4"/>
	<circle class="st9" cx="305.2" cy="193.6" r="23.3"/>
	<circle class="st9" cx="225.2" cy="193.6" r="23.3"/>
	<line class="st9" x1="173" y1="233.5" x2="357.4" y2="233.5"/>
	<line class="st9" x1="325.2" y1="385.2" x2="325.2" y2="381.1"/>
	<line class="st9" x1="205.2" y1="385.2" x2="205.2" y2="381.1"/>
	<line class="st9" x1="325.2" y1="265.2" x2="325.2" y2="261.1"/>
	<line class="st9" x1="205.2" y1="265.2" x2="205.2" y2="261.1"/>
	<line class="st9" x1="339" y1="421.8" x2="351.5" y2="421.8"/>
	<line class="st9" x1="179" y1="421.8" x2="191.5" y2="421.8"/>
	<circle class="st9" cx="265.2" cy="323.1" r="23.3"/>
	<circle class="st9" cx="225.2" cy="193.6" r="10.1"/>
	<circle class="st9" cx="305.2" cy="193.6" r="10.1"/>
</g>
</svg>
