<?xml version="1.0" encoding="utf-8"?>
<!-- Generator: Adobe Illustrator 21.0.0, SVG Export Plug-In . SVG Version: 6.00 Build 0)  -->
<svg version="1.1" id="Layer_1" xmlns="http://www.w3.org/2000/svg" xmlns:xlink="http://www.w3.org/1999/xlink" x="0px" y="0px"
	 viewBox="0 0 512 512" style="enable-background:new 0 0 512 512;" xml:space="preserve">
<style type="text/css">
	.st0{opacity:0.25;fill:#95A2AC;}
	.st1{fill:#FFD54F;}
	.st2{fill:#95A2AC;}
	.st3{fill:#BA68C8;}
	.st4{fill:#B3BDC3;}
	.st5{opacity:0.75;fill:#FFFFFF;stroke:#FFFFFF;stroke-width:10;stroke-linecap:round;stroke-miterlimit:10;}
	.st6{opacity:0.25;fill:none;stroke:#000000;stroke-width:10;stroke-linecap:round;stroke-miterlimit:10;}
	.st7{opacity:0.25;fill:none;stroke:#6F6F6F;stroke-width:15;stroke-linecap:round;stroke-miterlimit:10;}
	.st8{fill:none;stroke:#000000;stroke-width:10;stroke-miterlimit:10;}
	.st9{fill:none;stroke:#000000;stroke-width:10;stroke-linecap:round;stroke-linejoin:round;stroke-miterlimit:10;}
	.st10{fill:none;stroke:#000000;stroke-width:10;stroke-linecap:round;stroke-miterlimit:10;}
</style>
<g id="background">
	<circle class="st0" cx="258" cy="268.7" r="193.4"/>
	<path class="st1" d="M295,120.9c-7.4,0-13.4-6-13.4-13.4c0-7.4,6-13.4,13.4-13.4c7.4,0,13.4,6,13.4,13.4
		C308.4,114.9,302.4,120.9,295,120.9z M295,104.1c-1.9,0-3.4,1.5-3.4,3.4s1.5,3.4,3.4,3.4s3.4-1.5,3.4-3.4S296.9,104.1,295,104.1z"
		/>
	<g>
		<path class="st1" d="M102.3,283.1c-0.9,0-1.9-0.3-2.7-0.8c-2.3-1.5-3-4.6-1.5-6.9l12.2-18.8c1.5-2.3,4.6-3,6.9-1.5
			c2.3,1.5,3,4.6,1.5,6.9l-12.2,18.8C105.6,282.3,103.9,283.1,102.3,283.1z"/>
		<path class="st1" d="M117.8,279.8c-0.9,0-1.9-0.3-2.7-0.8l-18.8-12.2c-2.3-1.5-3-4.6-1.5-6.9c1.5-2.3,4.6-3,6.9-1.5l18.8,12.2
			c2.3,1.5,3,4.6,1.5,6.9C121,279,119.4,279.8,117.8,279.8z"/>
	</g>
	<g>
		<path class="st2" d="M187.3,80.4c-0.3,0-0.7,0-1-0.1c-2.7-0.5-4.5-3.2-3.9-5.9l4.4-22c0.5-2.7,3.2-4.5,5.9-3.9
			c2.7,0.5,4.5,3.2,3.9,5.9l-4.4,22C191.8,78.7,189.7,80.4,187.3,80.4z"/>
		<path class="st2" d="M200.5,71.6c-0.3,0-0.7,0-1-0.1l-22-4.4c-2.7-0.5-4.5-3.2-3.9-5.9c0.5-2.7,3.2-4.5,5.9-3.9l22,4.4
			c2.7,0.5,4.5,3.2,3.9,5.9C205,70,202.9,71.6,200.5,71.6z"/>
	</g>
	<g>
		<path class="st2" d="M308.6,195.1c-0.3,0-0.7,0-1-0.1c-2.7-0.5-4.5-3.2-3.9-5.9l4.4-22c0.5-2.7,3.2-4.5,5.9-3.9
			c2.7,0.5,4.5,3.2,3.9,5.9l-4.4,22C313,193.5,310.9,195.1,308.6,195.1z"/>
		<path class="st2" d="M321.8,186.4c-0.3,0-0.7,0-1-0.1l-22-4.4c-2.7-0.5-4.5-3.2-3.9-5.9c0.5-2.7,3.2-4.5,5.9-3.9l22,4.4
			c2.7,0.5,4.5,3.2,3.9,5.9C326.2,184.7,324.1,186.4,321.8,186.4z"/>
	</g>
	<g>
		<path class="st2" d="M85.6,164.5c-0.4,0-0.8,0-1.2-0.1c-2.7-0.7-4.3-3.4-3.7-6.1l5.4-21.8c0.7-2.7,3.4-4.3,6.1-3.7
			c2.7,0.7,4.3,3.4,3.7,6.1l-5.4,21.8C89.9,163,87.8,164.5,85.6,164.5z"/>
		<path class="st2" d="M99.1,156.3c-0.4,0-0.8,0-1.2-0.1l-21.8-5.4c-2.7-0.7-4.3-3.4-3.7-6.1s3.4-4.3,6.1-3.7l21.8,5.4
			c2.7,0.7,4.3,3.4,3.7,6.1C103.4,154.8,101.4,156.3,99.1,156.3z"/>
	</g>
	<path class="st2" d="M387.6,97.1c-7.4,0-13.4-6-13.4-13.4s6-13.4,13.4-13.4c7.4,0,13.4,6,13.4,13.4S395,97.1,387.6,97.1z
		 M387.6,80.4c-1.9,0-3.4,1.5-3.4,3.4s1.5,3.4,3.4,3.4s3.4-1.5,3.4-3.4S389.5,80.4,387.6,80.4z"/>
	<path class="st1" d="M400.7,211.9c-7.4,0-13.4-6-13.4-13.4c0-7.4,6-13.4,13.4-13.4s13.4,6,13.4,13.4
		C414.1,205.9,408.1,211.9,400.7,211.9z M400.7,195.1c-1.9,0-3.4,1.5-3.4,3.4s1.5,3.4,3.4,3.4s3.4-1.5,3.4-3.4
		S402.6,195.1,400.7,195.1z"/>
	<g>
		<path class="st1" d="M219.3,154.1c-1.5,0-3-0.7-4-2l-13.4-18c-1.6-2.2-1.2-5.3,1-7c2.2-1.6,5.3-1.2,7,1l13.4,18
			c1.6,2.2,1.2,5.3-1,7C221.4,153.8,220.3,154.1,219.3,154.1z"/>
		<path class="st1" d="M203.6,151.8c-1.5,0-3-0.7-4-2c-1.6-2.2-1.2-5.3,1-7l18-13.4c2.2-1.6,5.3-1.2,7,1c1.6,2.2,1.2,5.3-1,7
			l-18,13.4C205.7,151.5,204.6,151.8,203.6,151.8z"/>
	</g>
</g>
<path id="color" class="st3" d="M282.8,340.2h-42.6c-10.3,0-18.6-8.3-18.6-18.6v-10.9h79.8v10.9
	C301.4,331.8,293.1,340.2,282.8,340.2z"/>
<g id="shock_x5F_color">
	<path class="st4" d="M362.2,234.3v-1.6c0-8.1-6.5-14.6-14.6-14.6H168.3c-8.1,0-14.6,6.5-14.6,14.6V296c0,8.1,6.5,14.6,14.6,14.6
		h179.3c8.1,0,14.6-6.5,14.6-14.6v-3h18.1c5.1,0,9.9-2.1,13.3-5.9l25.2-27.8c1.4-1.5,2.1-3.4,2.1-5.4v-19.6H362.2z"/>
	<rect x="248.6" y="340.2" class="st4" width="25.5" height="80.4"/>
</g>
<g>
	<line class="st5" x1="344.9" y1="236.9" x2="171" y2="236.9"/>
	<line class="st5" x1="398.5" y1="249.2" x2="376.4" y2="249.2"/>
	<g id="shadows-light">
		<path class="st6" d="M362.2,283.6c0,9.6-7.8,17.3-17.3,17.3H171c-9.6,0-17.3-7.8-17.3-17.3"/>
		<line class="st6" x1="300.4" y1="320.5" x2="224.4" y2="320.5"/>
		<line class="st6" x1="274" y1="349.2" x2="248.6" y2="349.2"/>
		<line class="st7" x1="296.9" y1="432.2" x2="218.2" y2="432.2"/>
		<path class="st6" d="M362.2,283.6h18.1c5.1,0,9.9-2.1,13.3-5.9l25.2-27.8c1.4-1.5,2.1-3.4,2.1-5.4"/>
	</g>
</g>
<g id="lines">
	<rect x="248.6" y="340.2" class="st8" width="25.5" height="79.8"/>
	<path class="st8" d="M346.1,310.6H169.8c-8.9,0-16.2-7.2-16.2-16.2v-60.2c0-8.9,7.2-16.2,16.2-16.2h176.2c8.9,0,16.2,7.2,16.2,16.2
		v60.2C362.2,303.4,355,310.6,346.1,310.6z"/>
	<line class="st9" x1="320.9" y1="268.7" x2="300.7" y2="288.9"/>
	<line class="st9" x1="303.4" y1="268.7" x2="283.2" y2="288.9"/>
	<line class="st9" x1="286.6" y1="268.7" x2="266.4" y2="288.9"/>
	<line class="st9" x1="329.4" y1="420.5" x2="323.3" y2="420.5"/>
	<line class="st9" x1="308.6" y1="420" x2="206.6" y2="420"/>
	<line class="st9" x1="192.6" y1="420.5" x2="186.5" y2="420.5"/>
	<path class="st9" d="M418.9,259.4c1.4-1.5,2.1-3.4,2.1-5.4v-19.6h-58.7V293h18.1c5.1,0,9.9-2.1,13.3-5.9L418.9,259.4z"/>
	<path class="st8" d="M282.8,340.2h-42.6c-10.3,0-18.6-8.3-18.6-18.6v-10.9h79.8v10.9C301.4,331.8,293.1,340.2,282.8,340.2z"/>
	<path class="st10" d="M162,168c-33.7,0-61,27.3-61,61"/>
	<path class="st10" d="M162,182.9c-25.5,0-46.1,20.6-46.1,46.1"/>
	<path class="st10" d="M162,197.2c-17.6,0-31.8,14.2-31.8,31.8"/>
</g>
</svg>
