<?xml version="1.0" encoding="utf-8"?>
<!-- Generator: Adobe Illustrator 21.0.0, SVG Export Plug-In . SVG Version: 6.00 Build 0)  -->
<svg version="1.1" id="Layer_1" xmlns="http://www.w3.org/2000/svg" xmlns:xlink="http://www.w3.org/1999/xlink" x="0px" y="0px"
	 viewBox="0 0 512 512" style="enable-background:new 0 0 512 512;" xml:space="preserve">
<style type="text/css">
	.st0{opacity:0.25;fill:#95A2AC;}
	.st1{fill:#FFD54F;}
	.st2{fill:#95A2AC;}
	.st3{fill:#B3BDC3;}
	.st4{fill:#1DE9B6;}
	.st5{fill:#BA68C8;}
	.st6{fill:none;stroke:#000000;stroke-width:10;stroke-linecap:round;stroke-linejoin:round;stroke-miterlimit:10;}
	.st7{fill:none;stroke:#000000;stroke-width:10;stroke-linecap:round;stroke-miterlimit:10;}
	.st8{opacity:0.25;fill:none;stroke:#6F6F6F;stroke-width:15;stroke-linecap:round;stroke-miterlimit:10;}
	.st9{opacity:0.25;fill:none;stroke:#000000;stroke-width:10;stroke-linecap:round;stroke-miterlimit:10;}
	.st10{opacity:0.75;fill:none;stroke:#FFFFFF;stroke-width:10;stroke-linecap:round;stroke-miterlimit:10;}
</style>
<g id="background">
	<circle class="st0" cx="256.9" cy="263.1" r="193.4"/>
	<g>
		<path class="st1" d="M341.4,88c-2.8,0-5-2.2-5-5V60.6c0-2.8,2.2-5,5-5s5,2.2,5,5V83C346.4,85.8,344.2,88,341.4,88z"/>
		<path class="st1" d="M352.6,76.8h-22.4c-2.8,0-5-2.2-5-5s2.2-5,5-5h22.4c2.8,0,5,2.2,5,5S355.4,76.8,352.6,76.8z"/>
	</g>
	<g>
		<path class="st2" d="M379.9,203.3c-2.3,0-4.4-1.6-4.9-4l-4.4-22c-0.5-2.7,1.2-5.3,3.9-5.9c2.7-0.5,5.3,1.2,5.9,3.9l4.4,22
			c0.5,2.7-1.2,5.3-3.9,5.9C380.6,203.3,380.3,203.3,379.9,203.3z"/>
		<path class="st2" d="M366.7,194.6c-2.3,0-4.4-1.6-4.9-4c-0.5-2.7,1.2-5.3,3.9-5.9l22-4.4c2.7-0.5,5.3,1.2,5.9,3.9
			c0.5,2.7-1.2,5.3-3.9,5.9l-22,4.4C367.4,194.5,367.1,194.6,366.7,194.6z"/>
	</g>
	<g>
		<path class="st1" d="M394.1,334.7c-1.1,0-2.1-0.3-3.1-1c-2.2-1.7-2.6-4.8-0.9-7l13.7-17.7c1.7-2.2,4.8-2.6,7-0.9
			c2.2,1.7,2.6,4.8,0.9,7L398,332.8C397.1,334.1,395.6,334.7,394.1,334.7z"/>
		<path class="st1" d="M409.8,332.7c-1.1,0-2.1-0.3-3.1-1L389,317.9c-2.2-1.7-2.6-4.8-0.9-7c1.7-2.2,4.8-2.6,7-0.9l17.7,13.7
			c2.2,1.7,2.6,4.8,0.9,7C412.8,332.1,411.3,332.7,409.8,332.7z"/>
	</g>
	<g>
		<path class="st2" d="M76.5,288.4c-2.3,0-4.4-1.6-4.9-4l-4.4-22c-0.5-2.7,1.2-5.3,3.9-5.9c2.7-0.5,5.3,1.2,5.9,3.9l4.4,22
			c0.5,2.7-1.2,5.3-3.9,5.9C77.2,288.4,76.8,288.4,76.5,288.4z"/>
		<path class="st2" d="M63.3,279.6c-2.3,0-4.4-1.6-4.9-4c-0.5-2.7,1.2-5.3,3.9-5.9l22-4.4c2.7-0.5,5.3,1.2,5.9,3.9s-1.2,5.3-3.9,5.9
			l-22,4.4C64,279.6,63.6,279.6,63.3,279.6z"/>
	</g>
	<path class="st2" d="M245.7,111.3c-7.4,0-13.4-6-13.4-13.4c0-7.4,6-13.4,13.4-13.4s13.4,6,13.4,13.4
		C259.1,105.3,253,111.3,245.7,111.3z M245.7,94.6c-1.9,0-3.4,1.5-3.4,3.4s1.5,3.4,3.4,3.4s3.4-1.5,3.4-3.4S247.5,94.6,245.7,94.6z"
		/>
	<path class="st1" d="M375.1,142.9c-7.4,0-13.4-6-13.4-13.4c0-7.4,6-13.4,13.4-13.4s13.4,6,13.4,13.4
		C388.5,136.9,382.5,142.9,375.1,142.9z M375.1,126.1c-1.9,0-3.4,1.5-3.4,3.4c0,1.9,1.5,3.4,3.4,3.4s3.4-1.5,3.4-3.4
		C378.5,127.6,377,126.1,375.1,126.1z"/>
	<path class="st2" d="M114.3,363.9c-6.1,0-11.7-4.2-13.1-10.5c-1.6-7.2,2.9-14.4,10.1-16c7.2-1.6,14.4,2.9,16,10.1
		c0.8,3.5,0.2,7.1-1.8,10.1c-1.9,3-4.9,5.1-8.4,5.9C116.2,363.8,115.3,363.9,114.3,363.9z M114.3,347.1c-0.2,0-0.5,0-0.7,0.1
		c-0.9,0.2-1.6,0.7-2.1,1.5c-0.5,0.8-0.6,1.7-0.4,2.6c0,0,0,0,0,0c0.2,0.9,0.7,1.6,1.5,2.1c0.8,0.5,1.7,0.6,2.6,0.4
		c0.9-0.2,1.6-0.7,2.1-1.5c0.5-0.8,0.6-1.7,0.4-2.5C117.3,348.2,115.9,347.1,114.3,347.1z"/>
	<g>
		<path class="st1" d="M157.4,98.2c-1.1,0-2.1-0.3-3.1-1c-2.2-1.7-2.6-4.8-0.9-7l13.7-17.7c1.7-2.2,4.8-2.6,7-0.9
			c2.2,1.7,2.6,4.8,0.9,7l-13.7,17.7C160.4,97.5,158.9,98.2,157.4,98.2z"/>
		<path class="st1" d="M173.2,96.2c-1.1,0-2.1-0.3-3.1-1l-17.7-13.7c-2.2-1.7-2.6-4.8-0.9-7c1.7-2.2,4.8-2.6,7-0.9l17.7,13.7
			c2.2,1.7,2.6,4.8,0.9,7C176.1,95.5,174.6,96.2,173.2,96.2z"/>
	</g>
	<path class="st1" d="M115.1,202.9c-7.4,0-13.4-6-13.4-13.4c0-7.4,6-13.4,13.4-13.4s13.4,6,13.4,13.4
		C128.5,196.9,122.5,202.9,115.1,202.9z M115.1,186.1c-1.9,0-3.4,1.5-3.4,3.4s1.5,3.4,3.4,3.4s3.4-1.5,3.4-3.4
		S117,186.1,115.1,186.1z"/>
	<path class="st2" d="M448.4,268c-7.4,0-13.4-6-13.4-13.4c0-7.4,6-13.4,13.4-13.4s13.4,6,13.4,13.4C461.8,262,455.8,268,448.4,268z
		 M448.4,251.3c-1.9,0-3.4,1.5-3.4,3.4c0,1.9,1.5,3.4,3.4,3.4s3.4-1.5,3.4-3.4C451.8,252.8,450.3,251.3,448.4,251.3z"/>
</g>
<path id="shock_x5F_color" class="st3" d="M318.4,395.6H194.6c-13.8,0-25-11.2-25-25V216.3c0-13.8,11.2-25,25-25h123.9
	c13.8,0,25,11.2,25,25v154.3C343.5,384.4,332.3,395.6,318.4,395.6z"/>
<g id="color">
	<circle class="st4" cx="256.5" cy="315.5" r="32.4"/>
	<circle class="st5" cx="315.6" cy="214.8" r="11"/>
	<circle class="st5" cx="275.1" cy="214.8" r="11"/>
</g>
<g id="lines">
	<line class="st6" x1="471.2" y1="402.8" x2="453" y2="402.8"/>
	<line class="st6" x1="436.9" y1="402.3" x2="76.2" y2="402.3"/>
	<line class="st6" x1="59" y1="402.8" x2="40.8" y2="402.8"/>
	<line class="st7" x1="169.5" y1="241.1" x2="343.5" y2="241.1"/>
	<circle class="st7" cx="256.5" cy="315.5" r="47.3"/>
	<g>
		<path class="st7" d="M157.9,149.9c23-24.6,61.6-26,86.2-3"/>
		<path class="st7" d="M168.4,159.7c17.4-18.6,46.5-19.6,65.2-2.3"/>
		<path class="st7" d="M178.9,169.5c12-12.8,32.1-13.5,44.9-1.6"/>
	</g>
	<path class="st7" d="M212.2,206.8h-21.7c-3.5,0-6.3,2.8-6.3,6.3v9.3c0,3.5,2.8,6.3,6.3,6.3h21.7c3.5,0,6.3-2.8,6.3-6.3v-9.3
		C218.5,209.7,215.7,206.8,212.2,206.8z"/>
	<path class="st7" d="M224.1,315.5c20.5,16.9,48.5-13,64.8,0"/>
	<path class="st7" d="M318.4,395.6H194.6c-13.8,0-25-11.2-25-25V216.3c0-13.8,11.2-25,25-25h123.9c13.8,0,25,11.2,25,25v154.3
		C343.5,384.4,332.3,395.6,318.4,395.6z"/>
	<circle class="st7" cx="256.5" cy="315.5" r="32.4"/>
	<circle class="st7" cx="315.6" cy="214.8" r="11"/>
	<circle class="st7" cx="275.1" cy="214.8" r="11"/>
</g>
<g id="shadows-lights">
	<line class="st8" x1="406.7" y1="414.5" x2="106.7" y2="414.5"/>
	<path class="st9" d="M343.5,362.8c0,13.8-11.2,25-25,25H194.6c-13.8,0-25-11.2-25-25"/>
	<line class="st10" x1="329" y1="254.7" x2="249.9" y2="254.7"/>
	<path class="st10" d="M278.6,315.5c0-12.2-9.9-22.1-22.1-22.1"/>
</g>
</svg>
