<?xml version="1.0" encoding="utf-8"?>
<!-- Generator: Adobe Illustrator 21.0.0, SVG Export Plug-In . SVG Version: 6.00 Build 0)  -->
<svg version="1.1" id="Layer_1" xmlns="http://www.w3.org/2000/svg" xmlns:xlink="http://www.w3.org/1999/xlink" x="0px" y="0px"
	 viewBox="0 0 512 512" style="enable-background:new 0 0 512 512;" xml:space="preserve">
<style type="text/css">
	.st0{opacity:0.25;fill:#95A2AC;}
	.st1{fill:#FFD54F;}
	.st2{fill:#95A2AC;}
	.st3{fill:#B3BDC3;}
	.st4{fill:#BA68C8;}
	.st5{fill:#1DE9B6;}
	.st6{opacity:0.5;fill:none;stroke:#000000;stroke-width:10;stroke-miterlimit:10;}
	.st7{opacity:0.25;fill:none;stroke:#6F6F6F;stroke-width:15;stroke-linecap:round;stroke-miterlimit:10;}
	.st8{opacity:0.25;fill:#222221;}
	.st9{opacity:0.75;fill:none;stroke:#FFFFFF;stroke-width:10;stroke-linecap:round;stroke-miterlimit:10;}
	.st10{opacity:0.5;fill:#222221;}
	.st11{opacity:0.75;fill:#222221;}
	.st12{opacity:0.75;fill:#FFFFFF;stroke:#FFFFFF;stroke-width:10;stroke-linecap:round;stroke-miterlimit:10;}
	.st13{fill:none;stroke:#000000;stroke-width:10;stroke-linecap:round;stroke-linejoin:round;stroke-miterlimit:10;}
	.st14{fill:none;stroke:#000000;stroke-width:10;stroke-miterlimit:10;}
</style>
<g id="background">
	<circle class="st0" cx="258.5" cy="270.4" r="193.4"/>
	<path class="st1" d="M368.2,153.5c-7.4,0-13.4-6-13.4-13.4c0-7.4,6-13.4,13.4-13.4c7.4,0,13.4,6,13.4,13.4
		C381.5,147.4,375.5,153.5,368.2,153.5z M368.2,136.7c-1.9,0-3.4,1.5-3.4,3.4s1.5,3.4,3.4,3.4c1.9,0,3.4-1.5,3.4-3.4
		S370,136.7,368.2,136.7z"/>
	<g>
		<path class="st1" d="M419.8,234c-2.8,0-5-2.2-5-5v-22.4c0-2.8,2.2-5,5-5s5,2.2,5,5V229C424.8,231.8,422.5,234,419.8,234z"/>
		<path class="st1" d="M431,222.8h-22.4c-2.8,0-5-2.2-5-5s2.2-5,5-5H431c2.8,0,5,2.2,5,5S433.7,222.8,431,222.8z"/>
	</g>
	<g>
		<path class="st2" d="M398.8,116.7c-2.3,0-4.4-1.6-4.9-4l-4.4-22c-0.5-2.7,1.2-5.3,3.9-5.9c2.7-0.5,5.3,1.2,5.9,3.9l4.4,22
			c0.5,2.7-1.2,5.3-3.9,5.9C399.4,116.6,399.1,116.7,398.8,116.7z"/>
		<path class="st2" d="M385.6,107.9c-2.3,0-4.4-1.6-4.9-4c-0.5-2.7,1.2-5.3,3.9-5.9l22-4.4c2.7-0.5,5.3,1.2,5.9,3.9
			c0.5,2.7-1.2,5.3-3.9,5.9l-22,4.4C386.2,107.8,385.9,107.9,385.6,107.9z"/>
	</g>
	<g>
		<path class="st1" d="M304.8,74.7c-0.5,0-0.9-0.1-1.4-0.2c-2.7-0.8-4.2-3.5-3.4-6.2l6.2-21.6c0.8-2.7,3.5-4.2,6.2-3.4
			c2.7,0.8,4.2,3.5,3.4,6.2l-6.2,21.6C309,73.3,307,74.7,304.8,74.7z"/>
		<path class="st1" d="M318.7,67c-0.5,0-0.9-0.1-1.4-0.2l-21.5-6.2c-2.7-0.8-4.2-3.5-3.4-6.2c0.8-2.7,3.5-4.2,6.2-3.4l21.5,6.2
			c2.7,0.8,4.2,3.5,3.4,6.2C322.9,65.6,320.9,67,318.7,67z"/>
	</g>
	<g>
		<path class="st2" d="M127.4,310.7c-2.3,0-4.4-1.6-4.9-4l-4.4-22c-0.5-2.7,1.2-5.3,3.9-5.9c2.7-0.5,5.3,1.2,5.9,3.9l4.4,22
			c0.5,2.7-1.2,5.3-3.9,5.9C128.1,310.7,127.7,310.7,127.4,310.7z"/>
		<path class="st2" d="M114.2,302c-2.3,0-4.4-1.6-4.9-4c-0.5-2.7,1.2-5.3,3.9-5.9l22-4.4c2.7-0.5,5.3,1.2,5.9,3.9
			c0.5,2.7-1.2,5.3-3.9,5.9l-22,4.4C114.9,301.9,114.5,302,114.2,302z"/>
	</g>
	<g>
		<path class="st2" d="M167.1,142.1c-0.5,0-1-0.1-1.5-0.2c-2.6-0.8-4.1-3.6-3.3-6.3l6.6-21.4c0.8-2.6,3.6-4.1,6.3-3.3
			c2.6,0.8,4.1,3.6,3.3,6.3l-6.6,21.4C171.2,140.7,169.2,142.1,167.1,142.1z"/>
		<path class="st2" d="M181.1,134.7c-0.5,0-1-0.1-1.5-0.2l-21.4-6.6c-2.6-0.8-4.1-3.6-3.3-6.3c0.8-2.6,3.6-4.1,6.3-3.3l21.4,6.6
			c2.6,0.8,4.1,3.6,3.3,6.3C185.2,133.3,183.2,134.7,181.1,134.7z"/>
	</g>
	<path class="st2" d="M376.5,324.1c-7.4,0-13.4-6-13.4-13.4c0-7.4,6-13.4,13.4-13.4s13.4,6,13.4,13.4
		C389.9,318,383.9,324.1,376.5,324.1z M376.5,307.3c-1.9,0-3.4,1.5-3.4,3.4s1.5,3.4,3.4,3.4s3.4-1.5,3.4-3.4
		S378.4,307.3,376.5,307.3z"/>
	<path class="st2" d="M202.9,72.3c-7.4,0-13.4-6-13.4-13.4c0-7.4,6-13.4,13.4-13.4c7.4,0,13.4,6,13.4,13.4
		C216.3,66.3,210.3,72.3,202.9,72.3z M202.9,55.5c-1.9,0-3.4,1.5-3.4,3.4s1.5,3.4,3.4,3.4c1.9,0,3.4-1.5,3.4-3.4
		S204.8,55.5,202.9,55.5z"/>
	<path class="st1" d="M99.9,227.6c-7.4,0-13.4-6-13.4-13.4c0-7.4,6-13.4,13.4-13.4c7.4,0,13.4,6,13.4,13.4
		C113.3,221.6,107.3,227.6,99.9,227.6z M99.9,210.8c-1.9,0-3.4,1.5-3.4,3.4s1.5,3.4,3.4,3.4c1.9,0,3.4-1.5,3.4-3.4
		S101.8,210.8,99.9,210.8z"/>
	<g>
		<path class="st1" d="M79.9,145.5c-0.5,0-0.9-0.1-1.4-0.2c-2.7-0.8-4.2-3.5-3.4-6.2l6.2-21.6c0.8-2.7,3.5-4.2,6.2-3.4
			c2.7,0.8,4.2,3.5,3.4,6.2l-6.2,21.6C84.1,144,82.1,145.5,79.9,145.5z"/>
		<path class="st1" d="M93.8,137.8c-0.5,0-0.9-0.1-1.4-0.2l-21.5-6.2c-2.7-0.8-4.2-3.5-3.4-6.2s3.5-4.2,6.2-3.4l21.5,6.2
			c2.7,0.8,4.2,3.5,3.4,6.2C97.9,136.3,95.9,137.8,93.8,137.8z"/>
	</g>
</g>
<path id="shock_x5F_color" class="st3" d="M361.7,223.4c0-56.9-46.1-103.1-103.1-103.1s-103.1,46.1-103.1,103.1
	c0,51.9,38.4,94.9,88.4,102h-3.6v43.3h36.4v-43.3h-3.6C323.2,318.3,361.7,275.3,361.7,223.4z"/>
<g id="color">
	<path class="st4" d="M297.4,368.7h-77.5c-18.2,0-33,14.8-33,33v5.8h143.5v-5.8C330.3,383.4,315.6,368.7,297.4,368.7z"/>
	<path class="st5" d="M280.2,180.8h-0.5c-3.6,0-6.5-2.9-6.5-6.5v-0.5c0-3.6,2.9-6.5,6.5-6.5h0.5c3.6,0,6.5,2.9,6.5,6.5v0.5
		C286.8,177.9,283.8,180.8,280.2,180.8z"/>
</g>
<g id="shadows-lights_1_">
	<path class="st6" d="M223.6,226.2c0,22.2,15.7,40.2,35,40.2s35-18,35-40.2"/>
	<g id="shadows-lights">
		<line class="st7" x1="408.6" y1="421.8" x2="108.6" y2="421.8"/>
		<g>
			<g>
				<circle class="st8" cx="258.6" cy="223.4" r="71.4"/>
				<path class="st6" d="M155.5,216c0,56.9,46.1,103.1,103.1,103.1S361.7,272.9,361.7,216"/>
				<path class="st6" d="M330,230.5c0-38.2-32-69.2-71.4-69.2s-71.4,31-71.4,69.2"/>
				<path class="st9" d="M345.7,223.4c0-48.1-39-87.1-87.1-87.1"/>
				<circle class="st10" cx="258.6" cy="223.4" r="35"/>
				<circle class="st11" cx="258.6" cy="223.4" r="22.2"/>
				<path class="st9" d="M239.8,173.2c-20.3,7.6-34.8,27.2-34.8,50.2"/>
				<path class="st6" d="M276.8,334.7h-4.3c-4.5,0.6-9.2,1-13.9,1c-4.7,0-9.3-0.4-13.9-1h-4.3"/>
				<line class="st6" x1="186.9" y1="398" x2="330.3" y2="398"/>
			</g>
			<line class="st12" x1="250.5" y1="221.4" x2="257.7" y2="214.2"/>
			<line class="st12" x1="263.1" y1="232.5" x2="267.2" y2="228.5"/>
			<path class="st6" d="M286.8,176.6v1.3c0,3.4-2.8,6.2-6.2,6.2h-1.3c-3.4,0-6.2-2.8-6.2-6.2v-1.3"/>
		</g>
	</g>
</g>
<g id="lines">
	<line class="st13" x1="473.1" y1="410.1" x2="454.9" y2="410.1"/>
	<line class="st13" x1="438.8" y1="409.6" x2="78.1" y2="409.6"/>
	<line class="st13" x1="62.1" y1="410.1" x2="43.9" y2="410.1"/>
	<circle class="st14" cx="258.6" cy="223.4" r="103.1"/>
	<circle class="st14" cx="258.6" cy="223.4" r="71.4"/>
	<circle class="st14" cx="258.6" cy="223.4" r="35"/>
	<circle class="st14" cx="258.6" cy="223.4" r="22.2"/>
	<path class="st14" d="M258.6,326.4c-4.7,0-9.3-0.4-13.9-1h-4.3v43.3h36.4v-43.3h-4.3C267.9,326,263.3,326.4,258.6,326.4z"/>
	<path class="st14" d="M297.4,368.7h-77.5c-18.2,0-33,14.8-33,33v5.8h143.5v-5.8C330.3,383.4,315.6,368.7,297.4,368.7z"/>
	<path class="st14" d="M280.2,180.8h-0.5c-3.6,0-6.5-2.9-6.5-6.5v-0.5c0-3.6,2.9-6.5,6.5-6.5h0.5c3.6,0,6.5,2.9,6.5,6.5v0.5
		C286.8,177.9,283.8,180.8,280.2,180.8z"/>
</g>
</svg>
