<?xml version="1.0" encoding="utf-8"?>
<!-- Generator: Adobe Illustrator 21.0.0, SVG Export Plug-In . SVG Version: 6.00 Build 0)  -->
<svg version="1.1" id="Layer_1" xmlns="http://www.w3.org/2000/svg" xmlns:xlink="http://www.w3.org/1999/xlink" x="0px" y="0px"
	 viewBox="0 0 512 512" style="enable-background:new 0 0 512 512;" xml:space="preserve">
<style type="text/css">
	.st0{opacity:0.25;fill:#95A2AC;}
	.st1{fill:#FFD54F;}
	.st2{fill:#95A2AC;}
	.st3{fill:#B3BDC3;}
	.st4{fill:#BA68C8;}
	.st5{opacity:0.25;fill:none;stroke:#6F6F6F;stroke-width:15;stroke-linecap:round;stroke-miterlimit:10;}
	.st6{opacity:0.75;}
	.st7{opacity:0.75;fill:none;stroke:#FFFFFF;stroke-width:10;stroke-linecap:round;stroke-linejoin:round;stroke-miterlimit:10;}
	.st8{opacity:0.25;fill:none;stroke:#000000;stroke-width:10;stroke-linecap:round;stroke-miterlimit:10;}
	.st9{fill:none;stroke:#000000;stroke-width:10;stroke-linecap:round;stroke-linejoin:round;stroke-miterlimit:10;}
	.st10{fill:none;stroke:#000000;stroke-width:10;stroke-linecap:round;stroke-miterlimit:10;}
</style>
<g id="background">
	<circle class="st0" cx="259.8" cy="261.9" r="193.4"/>
	<g>
		<path class="st1" d="M441,321.2c-0.9,0-1.9-0.3-2.7-0.8c-2.3-1.5-3-4.6-1.4-6.9l12.3-18.7c1.5-2.3,4.6-3,6.9-1.4
			c2.3,1.5,3,4.6,1.4,6.9L445.2,319C444.2,320.4,442.6,321.2,441,321.2z"/>
		<path class="st1" d="M456.5,318c-0.9,0-1.9-0.3-2.7-0.8l-18.7-12.3c-2.3-1.5-3-4.6-1.4-6.9c1.5-2.3,4.6-3,6.9-1.4l18.7,12.3
			c2.3,1.5,3,4.6,1.4,6.9C459.8,317.2,458.2,318,456.5,318z"/>
	</g>
	<g>
		<path class="st2" d="M84.1,156.5c-2.3,0-4.4-1.6-4.9-4l-4.4-22c-0.5-2.7,1.2-5.3,3.9-5.9c2.7-0.5,5.3,1.2,5.9,3.9l4.4,22
			c0.5,2.7-1.2,5.3-3.9,5.9C84.7,156.5,84.4,156.5,84.1,156.5z"/>
		<path class="st2" d="M70.9,147.7c-2.3,0-4.4-1.6-4.9-4c-0.5-2.7,1.2-5.3,3.9-5.9l22-4.4c2.7-0.5,5.3,1.2,5.9,3.9
			c0.5,2.7-1.2,5.3-3.9,5.9l-22,4.4C71.5,147.7,71.2,147.7,70.9,147.7z"/>
	</g>
	<g>
		<path class="st1" d="M337.8,154.1c-0.5,0-0.9-0.1-1.4-0.2c-2.7-0.8-4.2-3.5-3.4-6.2l6.2-21.5c0.8-2.7,3.5-4.2,6.2-3.4
			c2.7,0.8,4.2,3.5,3.4,6.2l-6.2,21.5C342,152.7,340,154.1,337.8,154.1z"/>
		<path class="st1" d="M351.6,146.4c-0.5,0-0.9-0.1-1.4-0.2l-21.6-6.2c-2.7-0.8-4.2-3.5-3.4-6.2c0.8-2.7,3.5-4.2,6.2-3.4l21.6,6.2
			c2.7,0.8,4.2,3.5,3.4,6.2C355.8,145,353.8,146.4,351.6,146.4z"/>
	</g>
	<g>
		<path class="st2" d="M97.3,325.1c-2.3,0-4.4-1.6-4.9-4l-4.4-22c-0.5-2.7,1.2-5.3,3.9-5.9c2.7-0.5,5.3,1.2,5.9,3.9l4.4,22
			c0.5,2.7-1.2,5.3-3.9,5.9C97.9,325,97.6,325.1,97.3,325.1z"/>
		<path class="st2" d="M84.1,316.3c-2.3,0-4.4-1.6-4.9-4c-0.5-2.7,1.2-5.3,3.9-5.9l22-4.4c2.7-0.5,5.3,1.2,5.9,3.9
			c0.5,2.7-1.2,5.3-3.9,5.9l-22,4.4C84.7,316.3,84.4,316.3,84.1,316.3z"/>
	</g>
	<g>
		<path class="st2" d="M436,137.5c-0.5,0-1-0.1-1.5-0.2c-2.6-0.8-4.1-3.6-3.3-6.3l6.6-21.4c0.8-2.6,3.6-4.1,6.3-3.3
			c2.6,0.8,4.1,3.6,3.3,6.3l-6.6,21.4C440.2,136.1,438.2,137.5,436,137.5z"/>
		<path class="st2" d="M450.1,130.1c-0.5,0-1-0.1-1.5-0.2l-21.4-6.6c-2.6-0.8-4.1-3.6-3.3-6.3c0.8-2.6,3.6-4.1,6.3-3.3l21.4,6.6
			c2.6,0.8,4.1,3.6,3.3,6.3C454.2,128.7,452.2,130.1,450.1,130.1z"/>
	</g>
	<path class="st2" d="M415.2,226.8c-7.4,0-13.4-6-13.4-13.4c0-7.4,6-13.4,13.4-13.4s13.4,6,13.4,13.4
		C428.6,220.8,422.5,226.8,415.2,226.8z M415.2,210c-1.9,0-3.4,1.5-3.4,3.4s1.5,3.4,3.4,3.4s3.4-1.5,3.4-3.4S417,210,415.2,210z"/>
	<path class="st1" d="M100.1,245.1c-7.4,0-13.4-6-13.4-13.4c0-7.4,6-13.4,13.4-13.4s13.4,6,13.4,13.4
		C113.5,239.1,107.5,245.1,100.1,245.1z M100.1,228.3c-1.9,0-3.4,1.5-3.4,3.4s1.5,3.4,3.4,3.4s3.4-1.5,3.4-3.4
		S102,228.3,100.1,228.3z"/>
	<g>
		<path class="st1" d="M170.6,82.5c-1,0-2.1-0.3-3-1c-2.2-1.6-2.7-4.8-1-7l13.4-18c1.6-2.2,4.8-2.7,7-1c2.2,1.6,2.7,4.8,1,7
			l-13.4,18C173.6,81.8,172.1,82.5,170.6,82.5z"/>
		<path class="st1" d="M186.3,80.2c-1,0-2.1-0.3-3-1l-18-13.4c-2.2-1.6-2.7-4.8-1-7c1.6-2.2,4.8-2.7,7-1l18,13.4
			c2.2,1.6,2.7,4.8,1,7C189.3,79.5,187.8,80.2,186.3,80.2z"/>
	</g>
	<path class="st2" d="M330.4,60.6c-7.4,0-13.4-6-13.4-13.4c0-7.4,6-13.4,13.4-13.4c7.4,0,13.4,6,13.4,13.4
		C343.8,54.6,337.8,60.6,330.4,60.6z M330.4,43.9c-1.9,0-3.4,1.5-3.4,3.4s1.5,3.4,3.4,3.4c1.9,0,3.4-1.5,3.4-3.4
		S332.3,43.9,330.4,43.9z"/>
</g>
<path id="shock_x5F_color" class="st3" d="M332.6,178.9H179c-9.5,0-17.3,7.7-17.3,17.3v60.7c0,9.5,7.7,17.3,17.3,17.3h-2.1
	c0,44.2,36,80,80.3,80c44.4,0,80.3-35.8,80.3-80h-4.8c9.5,0,17.3-7.7,17.3-17.3v-60.7C349.9,186.6,342.2,178.9,332.6,178.9z"/>
<circle id="color" class="st4" cx="255.8" cy="226.5" r="23.9"/>
<g id="shadows-lights">
	<line class="st5" x1="381.1" y1="400.6" x2="132.6" y2="400.6"/>
	<path class="st6" d="M337.5,274.1c0,44.2-36,80-80.3,80s-80.3-35.8-80.3-80H337.5z"/>
	<path class="st7" d="M319.5,288c-5.7,21.6-27.1,49.5-63.7,49.5"/>
	<path class="st8" d="M349.9,252.1c0,8-6.5,14.5-14.5,14.5H176.2c-8,0-14.5-6.5-14.5-14.5"/>
	<path class="st8" d="M232.4,223.8c2.2,11,11.8,19.2,23.4,19.2c11.3,0,20.7-7.8,23.2-18.3"/>
	<line class="st7" x1="325.7" y1="192.7" x2="186.5" y2="192.7"/>
</g>
<g id="lines">
	<line class="st9" x1="459.3" y1="388.9" x2="444.2" y2="388.9"/>
	<line class="st9" x1="406.1" y1="388.4" x2="107.3" y2="388.4"/>
	<line class="st9" x1="70.9" y1="388.9" x2="55.8" y2="388.9"/>
	<path class="st10" d="M337.5,274.1c0,44.2-36,80-80.3,80s-80.3-35.8-80.3-80H337.5z"/>
	<line class="st9" x1="255" y1="370.7" x2="255" y2="384.8"/>
	<line class="st9" x1="330.9" y1="343.9" x2="340.9" y2="353.9"/>
	<line class="st9" x1="186.5" y1="340.9" x2="176.5" y2="350.9"/>
	<path class="st10" d="M298.1,135.1c-24.6-23-63.2-21.7-86.2,3"/>
	<path class="st10" d="M287.9,146c-18.6-17.4-47.8-16.4-65.2,2.2"/>
	<path class="st10" d="M278.1,156.4c-12.8-12-32.9-11.3-44.9,1.5"/>
	<path class="st10" d="M332.6,274.1H179c-9.5,0-17.3-7.7-17.3-17.3v-60.7c0-9.5,7.7-17.3,17.3-17.3h153.7c9.5,0,17.3,7.7,17.3,17.3
		v60.7C349.9,266.4,342.2,274.1,332.6,274.1z"/>
	<circle class="st10" cx="255.8" cy="226.5" r="23.9"/>
</g>
</svg>
