<svg xmlns="http://www.w3.org/2000/svg" viewBox="0 0 128 128"><defs><style>.cls-1{fill:#707ae4;}.cls-2{fill:#fff;opacity:0.5;}.cls-3{fill:#ffca15;}.cls-4{fill:#331e38;}</style></defs><title>_24h</title><g id="_24h" data-name="24h"><g id="shock_color"><path class="cls-1" d="M41.74,105.42c-.39-.28-.76-.57-1.14-.85L39.8,104l-.92-.74-1-.9-.69-.61c-.58-.53-1.15-1.07-1.71-1.63a51.09,51.09,0,0,1,0-72.17c.55-.55,1.12-1.09,1.7-1.61l.6-.53c.38-.33.76-.67,1.15-1l.74-.6,1.09-.84.77-.58c.4-.29.8-.57,1.2-.84l.67-.46q.94-.62,1.92-1.21l.28-.16q.88-.52,1.78-1l.42-.22,1.09-.57a48.25,48.25,0,0,0,0,91.39,50.57,50.57,0,0,1-6.85-4.1Z"/><path class="cls-1" d="M84.05,102q.9-.3,1.79-.63l.32-.12a39.85,39.85,0,0,0,6.11-3l.35-.22q.76-.47,1.51-1l.49-.34q.67-.47,1.32-1l.53-.41c.43-.34.85-.7,1.27-1.06l.47-.4c.56-.5,1.11-1,1.65-1.55q.29-.29.58-.55a10.16,10.16,0,0,0-5.79,2.49,42.63,42.63,0,0,1-10.78,7.83Z"/><path class="cls-1" d="M109.67,30.06a1.33,1.33,0,0,0-2.12-.9l-1.46,1.09-.56-.55-.28-.27,0,0q-.81-.79-1.65-1.53c-.47-.42-1-.82-1.45-1.22l0,0-.34-.29-.17-.14a47.76,47.76,0,0,0-12.41-7.11q-.94-.37-1.89-.69-1.91-.65-3.85-1.14-1-.24-2-.45-2-.41-3.94-.65a48.63,48.63,0,0,0-22.26,2.45,48,48,0,0,0-6,2.61l-.59.32h0l-.12.07-1.2.67-.62.37-.21.12-.2.13-.87.54-.89.59-1,.69-.88.64-.53.41-.46.35-.81.65c-.37.3-.73.62-1.09.93l-.07.06-.58.5c-.57.52-1.13,1-1.68,1.6S36.26,31,35.72,31.59a48.33,48.33,0,0,0,.85,65.7c.27.28.53.57.81.85.51.51,1,1,1.56,1.49l.07.07c.31.28.63.56,1,.83l.69.6c.45.37.91.74,1.38,1.1l.28.22a48,48,0,0,0,15.78,7.9q1.33.38,2.68.69l.67.15q1.4.3,2.82.51c1.25.19,2.51.33,3.78.42h0c1.13.08,2.26.13,3.4.13h.07a48,48,0,0,0,34.15-14.12l.13-.13c1.3-1.29,2-2.26,1.7-3.26a2.07,2.07,0,0,0-.25-.55l-.06-.1c-.14-.19-.27-.35-.41-.51l-.13-.16a2.61,2.61,0,0,0-1.63-.95,2,2,0,0,0-.61.06,3,3,0,0,0-.49.17l-.19.09-.19.1-.2.11-.16.1,0,0c-.18.12-.36.26-.54.41l-.19.16c-.2.18-.41.36-.62.58q-.76.76-1.56,1.48l-.68.59-.29.25-.63.54c-.34.28-.68.54-1,.8l-.32.25-.07.06-.23.18c-.52.38-1,.75-1.58,1.11l-.13.09c-.29.2-.6.38-.89.56l-.82.52,0,0q-.89.53-1.79,1h0q-.9.48-1.82.91l0,0q-.9.42-1.81.8h0l-.07,0c-.36.15-.73.28-1.1.42l-.67.26-.12,0-.07,0c-.57.2-1.15.39-1.73.57l-.26.08c-.57.17-1.14.33-1.71.47l-.11,0-.19.05c-.58.14-1.17.27-1.75.39l-.12,0-.16,0c-.63.13-1.27.23-1.9.33h-.05l-.09,0a43,43,0,0,1-7.46.45h-.14c-.78,0-1.57-.07-2.35-.13h-.05a43.13,43.13,0,0,1-5.42-.81q-1.79-.39-3.55-.93A42.57,42.57,0,0,1,52,102.09q-.83-.42-1.65-.89a42.49,42.49,0,0,1-6.24-4.32q-.74-.62-1.46-1.27t-1.41-1.35a43,43,0,0,1-4.25-5c-.59-.8-1.13-1.62-1.65-2.45s-.93-1.52-1.35-2.29A42.84,42.84,0,0,1,28.74,64q0-1,0-2.05t.15-2.05a42.73,42.73,0,0,1,5.43-17.13q.35-.61.71-1.2a42.53,42.53,0,0,1,3.08-4.37l.4-.49c.85-1,1.74-2,2.7-3A42.95,42.95,0,0,1,66.62,21.43q1.94-.22,3.9-.27h.09a42.65,42.65,0,0,1,29.85,11.29l1.06,1,.16.15-1.19.9a1.33,1.33,0,0,0,.2,2.26l1.17.58,9,4.48a.2.2,0,0,0,.29-.21Z"/><path class="cls-1" d="M95.28,34.93l2.07-1.56A39.92,39.92,0,0,0,84.07,26c.41.21.82.46,1.22.69A42.68,42.68,0,0,1,92.78,32c.18.16.36.3.53.46l.09.08,1.12,1-.93.7a1.33,1.33,0,0,0,.28,2.3l2.17.92-.57-.28A1.33,1.33,0,0,1,95.28,34.93Z"/><path class="cls-1" d="M106,26.38l.64,0,1.16-.87.92-.69H105.2l-.46.41,0,0C105.19,25.65,105.59,26,106,26.38Z"/></g><path class="cls-2" d="M105.68,98.14l.13-.13c1.3-1.29,2-2.26,1.7-3.26a2.07,2.07,0,0,0-.25-.55l-.06-.1c-.14-.19-.27-.35-.41-.51l-.13-.16a2.61,2.61,0,0,0-1.63-.95,2,2,0,0,0-.61.06,3,3,0,0,0-.49.17l-.19.09-.19.1-.2.11-.16.1,0,0c-.18.12-.36.26-.54.41l-.19.16c-.2.18-.41.36-.62.58q-.76.76-1.56,1.48l-.68.59-.29.25-.63.54c-.34.28-.68.54-1,.8l-.32.25-.07.06-.23.18c-.52.38-1,.75-1.58,1.11l-.13.09c-.29.2-.6.38-.89.56l-.82.52,0,0q-.89.53-1.79,1h0q-.9.48-1.82.91l0,0q-.9.42-1.81.8h0l-.07,0c-.36.15-.73.28-1.1.42l-.67.26-.12,0-.07,0c-.57.2-1.15.39-1.73.57l-.26.08c-.57.17-1.14.33-1.71.47l-.11,0-.19.05c-.58.14-1.17.27-1.75.39l-.12,0-.16,0c-.63.13-1.27.23-1.9.33h-.05l-.09,0a43,43,0,0,1-7.46.45h-.14c-.78,0-1.57-.07-2.35-.13h-.05a43.13,43.13,0,0,1-5.42-.81q-1.79-.39-3.55-.93A42.57,42.57,0,0,1,52,102.09q-.83-.42-1.65-.89a42.49,42.49,0,0,1-6.24-4.32q-.74-.62-1.46-1.27t-1.41-1.35a43,43,0,0,1-4.25-5c-.59-.8-1.13-1.62-1.65-2.45s-.93-1.52-1.35-2.29A42.84,42.84,0,0,1,28.74,64q0-1,0-2.05t.15-2.05a42.73,42.73,0,0,1,5.43-17.13q.35-.61.71-1.2a42.53,42.53,0,0,1,3.08-4.37l.4-.49c.85-1,1.74-2,2.7-3A42.95,42.95,0,0,1,66.62,21.43q1.94-.22,3.9-.27h.09a42.65,42.65,0,0,1,29.85,11.29l1.06,1,.16.15h0l-1.21.91a1.32,1.32,0,0,0,.2,2.24l1.19.6,8.94,4.47a.22.22,0,0,0,.31-.22L109.66,30a1.32,1.32,0,0,0-2.1-.89l-1.48,1.11-.56-.55-.28-.27,0,0q-.81-.79-1.65-1.53c-.47-.42-1-.82-1.45-1.22l0,0-.34-.29-.17-.14a47.76,47.76,0,0,0-12.41-7.11q-.94-.37-1.89-.69-1.91-.65-3.85-1.14-1-.24-2-.45-2-.41-3.94-.65a48.63,48.63,0,0,0-22.26,2.45,48,48,0,0,0-6,2.61l-.59.32h0l-.12.07-1.2.67-.62.37-.21.12-.2.13-.87.54-.89.59-1,.69-.88.64-.53.41-.46.35-.81.65c-.37.3-.73.62-1.09.93l-.07.06-.58.5c-.57.52-1.13,1-1.68,1.6S36.26,31,35.72,31.59a48.33,48.33,0,0,0,.85,65.7c.27.28.53.57.81.85.51.51,1,1,1.56,1.49l.07.07c.31.28.63.56,1,.83l.69.6c.45.37.91.74,1.38,1.1l.28.22a48,48,0,0,0,15.78,7.9q1.33.38,2.68.69l.67.15q1.4.3,2.82.51c1.25.19,2.51.33,3.78.42h0c1.13.08,2.26.13,3.4.13h.07A48,48,0,0,0,105.68,98.14Z"/><path class="cls-3" d="M64.07,76H49.81c.62-1.81,3.9-3.75,9.27-6.8,5-2.85,7.94-5.32,7.94-11.64,0-4.37-4.51-9.36-12.12-9.36-7,0-12.69,4.42-12.69,10.22,0,2.38,1.52,3.18,3.47,3.18s2.52-.9,3-2.66c1-3.8,3.09-5,6.13-5a4.71,4.71,0,0,1,5,4.8c0,3.85-2.28,4.7-8.89,8.89C45,71.34,42,75.09,42,78.47c0,1.66,1.14,3.52,3.9,3.52H63.69c2.19,0,3.52-.86,3.52-3S65.88,76,64.07,76Z"/><path class="cls-3" d="M87.06,69H84.68V51.62c0-2-1-3.42-3.56-3.42A3.58,3.58,0,0,0,78,49.53L63.39,68.3a4.15,4.15,0,0,0-.9,2.8,3.34,3.34,0,0,0,3.61,3.28H78v4.89c0,2,.85,3.33,3.33,3.33s3.33-1.33,3.33-3.33V74.38h2.38a2.71,2.71,0,0,0,0-5.42Zm-9,0H68.76l9.17-12.31H78Z"/><path class="cls-3" d="M103.51,63.12a7,7,0,0,0-5.78,2.73h-.07V58.72a2.59,2.59,0,1,0-5.18,0V80a2.59,2.59,0,1,0,5.18,0V71.46a4,4,0,0,1,3.94-4.08c2.24,0,3.26,1.49,3.26,3.58v9A2.59,2.59,0,0,0,110,80V69.93C110,64.68,106.64,63.12,103.51,63.12Z"/><polygon class="cls-4" points="68.76 68.96 78.03 68.96 78.03 56.65 77.94 56.65 68.76 68.96"/><path class="cls-4" d="M103.51,60.33c-.59,0-2.65,0-3.07,0V58.72a5.15,5.15,0,0,0-5.38-5.38H91.41a5.36,5.36,0,0,0-3.94,1.57V51.62c0-3.83-2.43-6.21-6.35-6.21H77.46a6.31,6.31,0,0,0-5.29,2.4l-3.72,4.77C66.46,49,62,45.41,54.9,45.41H51.24c-8.68,0-15.48,5.71-15.48,13,0,3.63,2.46,6,6.26,6a37.12,37.12,0,0,0,5.45-.23l-1.71,1.07C39,69.52,35.53,74,35.53,78.47a6.28,6.28,0,0,0,6.68,6.3H63.69c3.89,0,6.3-2.21,6.3-5.78a6.56,6.56,0,0,0-.25-1.82h1.84v2.11c0,3.83,2.29,6.11,6.11,6.11h3.66a5.72,5.72,0,0,0,5.28-2.65,5.05,5.05,0,0,0,4.77,2.65h3.66a5.18,5.18,0,0,0,4.36-2,5.19,5.19,0,0,0,4.37,2h3.66A5,5,0,0,0,112.83,80V69.93C112.83,62.84,107.81,60.33,103.51,60.33ZM63.69,82H45.87c-2.76,0-3.9-1.85-3.9-3.52,0-3.37,3-7.13,8.93-10.88,6.61-4.18,8.89-5,8.89-8.89a4.71,4.71,0,0,0-5-4.8c-3,0-5.08,1.24-6.13,5-.48,1.76-1.09,2.66-3,2.66s-3.47-.81-3.47-3.18c0-5.8,5.7-10.22,12.69-10.22,7.6,0,12.12,5,12.12,9.36,0,6.32-2.9,8.79-7.94,11.64-5.37,3-8.65,5-9.27,6.8H64.07c1.81,0,3.14.86,3.14,3S65.88,82,63.69,82ZM49.93,62.61a7.25,7.25,0,0,0,1.43-2.94,4.37,4.37,0,0,1,1.36-2.5,1.82,1.82,0,0,1,.63,1.52C53.35,60.07,53.21,60.51,49.93,62.61ZM87.06,74.38H84.68v4.89c0,2-.86,3.33-3.33,3.33S78,81.27,78,79.27V74.38H66.1a3.34,3.34,0,0,1-3.61-3.28,4.15,4.15,0,0,1,.9-2.8L78,49.53a3.58,3.58,0,0,1,3.09-1.33c2.57,0,3.56,1.38,3.56,3.42V69h2.38a2.71,2.71,0,0,1,0,5.42ZM110,80a2.59,2.59,0,0,1-5.18,0V71c0-2.09-1-3.58-3.26-3.58a4,4,0,0,0-3.94,4.08V80a2.59,2.59,0,1,1-5.18,0V58.72a2.59,2.59,0,1,1,5.18,0v7.13h.07a7,7,0,0,1,5.78-2.73c3.12,0,6.53,1.56,6.53,6.81Z"/><path class="cls-4" d="M114.2,44.18,112,23.3a1.33,1.33,0,0,0-1.33-1.19h-6a1.33,1.33,0,0,0-.88.33l-1.21,1.07a51,51,0,0,0-30-10.46c-1.52,0-7.43-.07-8.86,0a51,51,0,0,0,.65,102h7.15a50.87,50.87,0,0,0,36.09-14.92l.13-.13c1.12-1.11,4.09-4.07,1.68-7.46a6.17,6.17,0,0,0-3.52-2.66,42.47,42.47,0,0,0-4.78-.8,13,13,0,0,0-8.42,3.29,40.06,40.06,0,0,1-24.79,11.55,40.07,40.07,0,0,1-.08-79.8v0a39.62,39.62,0,0,1,22.37,9.26l-2.08,1.56a1.33,1.33,0,0,0,.28,2.3l23.92,10.09a1.47,1.47,0,0,0,2-1.51Zm-9-19.33h3.52l-.92.69-1.16.87-.64,0c-.41-.38-.83-.75-1.26-1.12Zm-75,73.28A48.25,48.25,0,0,1,48.85,18.29l-1.09.57-.42.22q-.9.48-1.78,1l-.28.16q-1,.58-1.92,1.21l-.67.46c-.4.28-.81.56-1.2.84l-.77.58-1.09.84-.74.6c-.39.32-.77.65-1.15,1l-.6.53c-.58.52-1.14,1.06-1.7,1.61a51.09,51.09,0,0,0,0,72.17c.56.56,1.13,1.1,1.71,1.63l.69.61,1,.9.92.74.79.61c.38.29.76.58,1.14.85l.25.17a50.57,50.57,0,0,0,6.85,4.1A48.11,48.11,0,0,1,30.24,98.14Zm64.41-3.88a10.16,10.16,0,0,1,5.79-2.49q-.29.26-.58.55c-.54.54-1.09,1.05-1.65,1.55l-.47.4c-.42.36-.84.72-1.27,1.06l-.53.41q-.65.5-1.32,1l-.49.34q-.74.51-1.51,1l-.35.22a39.85,39.85,0,0,1-6.11,3l-.32.12q-.89.34-1.79.63l-.18.06A42.63,42.63,0,0,0,94.65,94.26Zm.84-57.07.57.28-2.17-.92a1.33,1.33,0,0,1-.28-2.3l.93-.7-1.22-1.12A42.67,42.67,0,0,0,84.07,26a39.92,39.92,0,0,1,13.28,7.4l-2.07,1.55A1.33,1.33,0,0,0,95.49,37.19Zm15.26,4.56-10.06-5a1.33,1.33,0,0,1-.2-2.26l1.19-.9-1.22-1.12a42.8,42.8,0,1,0-32.62,74.16h.05a43.16,43.16,0,0,0,10-.31l.14,0c.64-.1,1.27-.2,1.9-.33l.28-.06c.59-.12,1.17-.25,1.75-.39l.3-.08c.57-.15,1.15-.3,1.71-.47l.26-.08c.58-.18,1.16-.37,1.73-.57l.19-.07c.59-.21,1.18-.44,1.77-.68l.11,0q.91-.38,1.81-.8l0,0q.92-.43,1.82-.91h0q.91-.48,1.79-1l0,0q.87-.52,1.72-1.08l.13-.09c.53-.36,1.06-.72,1.58-1.11l.31-.24c.46-.34.91-.69,1.35-1.05l.63-.54c.33-.28.66-.55,1-.84q.8-.72,1.56-1.48c.21-.21.42-.4.63-.58l.19-.16c.19-.15.37-.29.54-.41l.19-.12.38-.21.19-.09a3,3,0,0,1,.49-.17,2,2,0,0,1,.61-.06,3.27,3.27,0,0,1,2.17,1.62c.89,1.26.2,2.35-1.38,3.92l-.13.13a48,48,0,0,1-34.15,14.12c-1.17,0-2.32-.06-3.48-.14h0a48.28,48.28,0,0,1-25.73-9.68l-.28-.22c-.46-.36-.92-.72-1.38-1.1l-.69-.6c-.32-.28-.64-.55-1-.83q-.83-.76-1.64-1.56a48.35,48.35,0,0,1-1.66-66.55q.81-.89,1.66-1.74c.55-.55,1.11-1.08,1.68-1.6l.65-.57c.36-.31.72-.63,1.09-.93l.81-.65,1-.76.88-.64,1-.69.89-.59,1.08-.67.83-.49c.44-.25.88-.5,1.32-.73l.61-.33a48.59,48.59,0,0,1,52.35,5l.17.14.38.32c.49.4,1,.81,1.45,1.22s1.14,1,1.7,1.57l.84.82,1.46-1.09a1.33,1.33,0,0,1,2.12.9L111.1,41.5A.24.24,0,0,1,110.75,41.75Z"/></g></svg>