<?xml version="1.0" encoding="utf-8"?>
<!-- Generator: Adobe Illustrator 21.0.0, SVG Export Plug-In . SVG Version: 6.00 Build 0)  -->
<svg version="1.1" id="Layer_1" xmlns="http://www.w3.org/2000/svg" xmlns:xlink="http://www.w3.org/1999/xlink" x="0px" y="0px"
	 viewBox="0 0 512 512" style="enable-background:new 0 0 512 512;" xml:space="preserve">
<style type="text/css">
	.st0{opacity:0.25;fill:#95A2AC;}
	.st1{fill:#FFD54F;}
	.st2{fill:#95A2AC;}
	.st3{fill:#B3BDC3;}
	.st4{fill:none;stroke:#1DE9B6;stroke-width:10;stroke-linecap:round;stroke-miterlimit:10;}
	.st5{fill:none;stroke:#000000;stroke-width:10;stroke-linecap:round;stroke-linejoin:round;stroke-miterlimit:10;}
	.st6{fill:none;stroke:#000000;stroke-width:10;stroke-miterlimit:10;}
	.st7{opacity:0.25;fill:none;stroke:#6F6F6F;stroke-width:15;stroke-linecap:round;stroke-miterlimit:10;}
	.st8{opacity:0.25;fill:none;stroke:#000000;stroke-width:10;stroke-linecap:round;stroke-miterlimit:10;}
	.st9{opacity:0.75;fill:#FFFFFF;stroke:#FFFFFF;stroke-width:10;stroke-linecap:round;stroke-miterlimit:10;}
</style>
<g id="background">
	<circle class="st0" cx="257.2" cy="256.4" r="193.4"/>
	<g>
		<path class="st1" d="M306.4,216.2c-1.6,0-3.2-0.8-4.2-2.3L290,195.2c-1.5-2.3-0.9-5.4,1.4-6.9c2.3-1.5,5.4-0.9,6.9,1.4l12.3,18.7
			c1.5,2.3,0.9,5.4-1.4,6.9C308.3,215.9,307.4,216.2,306.4,216.2z"/>
		<path class="st1" d="M290.9,213c-1.6,0-3.2-0.8-4.2-2.3c-1.5-2.3-0.9-5.4,1.4-6.9l18.7-12.3c2.3-1.5,5.4-0.9,6.9,1.4
			c1.5,2.3,0.9,5.4-1.4,6.9l-18.7,12.3C292.8,212.7,291.9,213,290.9,213z"/>
	</g>
	<g>
		<path class="st2" d="M206.4,222.7c-0.3,0-0.7,0-1-0.1c-2.7-0.5-4.5-3.2-3.9-5.9l4.4-22c0.5-2.7,3.2-4.5,5.9-3.9
			c2.7,0.5,4.5,3.2,3.9,5.9l-4.4,22C210.8,221,208.7,222.7,206.4,222.7z"/>
		<path class="st2" d="M219.6,213.9c-0.3,0-0.7,0-1-0.1l-22-4.4c-2.7-0.5-4.5-3.2-3.9-5.9s3.2-4.5,5.9-3.9l22,4.4
			c2.7,0.5,4.5,3.2,3.9,5.9C224,212.2,221.9,213.9,219.6,213.9z"/>
	</g>
	<g>
		<path class="st1" d="M289.5,132.6c-1.6,0-3.1-0.7-4.1-2.1l-13.1-18.2c-1.6-2.2-1.1-5.4,1.1-7c2.2-1.6,5.4-1.1,7,1.1l13.1,18.2
			c1.6,2.2,1.1,5.4-1.1,7C291.5,132.3,290.5,132.6,289.5,132.6z"/>
		<path class="st1" d="M273.8,130c-1.6,0-3.1-0.7-4.1-2.1c-1.6-2.2-1.1-5.4,1.1-7l18.2-13.1c2.2-1.6,5.4-1.1,7,1.1
			c1.6,2.2,1.1,5.4-1.1,7l-18.2,13.1C275.9,129.7,274.8,130,273.8,130z"/>
	</g>
	<g>
		<path class="st2" d="M414.2,283.3c-0.3,0-0.7,0-1-0.1c-2.7-0.5-4.5-3.2-3.9-5.9l4.4-22c0.5-2.7,3.2-4.5,5.9-3.9
			c2.7,0.5,4.5,3.2,3.9,5.9l-4.4,22C418.7,281.7,416.6,283.3,414.2,283.3z"/>
		<path class="st2" d="M427.4,274.6c-0.3,0-0.7,0-1-0.1l-22-4.4c-2.7-0.5-4.5-3.2-3.9-5.9s3.2-4.5,5.9-3.9l22,4.4
			c2.7,0.5,4.5,3.2,3.9,5.9C431.9,272.9,429.8,274.6,427.4,274.6z"/>
	</g>
	<g>
		<path class="st2" d="M354.8,161.4c-2.1,0-4.1-1.4-4.8-3.5l-6.6-21.4c-0.8-2.6,0.7-5.4,3.3-6.3c2.6-0.8,5.4,0.7,6.3,3.3l6.6,21.4
			c0.8,2.6-0.7,5.4-3.3,6.3C355.8,161.3,355.3,161.4,354.8,161.4z"/>
		<path class="st2" d="M340.8,154c-2.1,0-4.1-1.4-4.8-3.5c-0.8-2.6,0.7-5.4,3.3-6.3l21.4-6.6c2.6-0.8,5.4,0.7,6.3,3.3
			c0.8,2.6-0.7,5.4-3.3,6.3l-21.4,6.6C341.8,153.9,341.3,154,340.8,154z"/>
	</g>
	<path class="st2" d="M117.6,269.7c-7.4,0-13.4-6-13.4-13.4c0-7.4,6-13.4,13.4-13.4c7.4,0,13.4,6,13.4,13.4
		C131,263.7,125,269.7,117.6,269.7z M117.6,253c-1.9,0-3.4,1.5-3.4,3.4c0,1.9,1.5,3.4,3.4,3.4s3.4-1.5,3.4-3.4
		C121,254.5,119.5,253,117.6,253z"/>
	<path class="st1" d="M379.4,233c-7.4,0-13.4-6-13.4-13.4c0-7.4,6-13.4,13.4-13.4c7.4,0,13.4,6,13.4,13.4
		C392.8,227,386.8,233,379.4,233z M379.4,216.2c-1.9,0-3.4,1.5-3.4,3.4s1.5,3.4,3.4,3.4s3.4-1.5,3.4-3.4S381.2,216.2,379.4,216.2z"
		/>
	<g>
		<path class="st1" d="M144.6,181c-1.5,0-3-0.7-4-2l-13.4-18c-1.6-2.2-1.2-5.3,1-7c2.2-1.6,5.3-1.2,7,1l13.4,18c1.6,2.2,1.2,5.3-1,7
			C146.7,180.7,145.6,181,144.6,181z"/>
		<path class="st1" d="M128.9,178.7c-1.5,0-3-0.7-4-2c-1.6-2.2-1.2-5.3,1-7l18-13.4c2.2-1.6,5.3-1.2,7,1c1.6,2.2,1.2,5.3-1,7
			l-18,13.4C131,178.4,130,178.7,128.9,178.7z"/>
	</g>
	<path class="st2" d="M210.8,131.9c-7.4,0-13.4-6-13.4-13.4c0-7.4,6-13.4,13.4-13.4c7.4,0,13.4,6,13.4,13.4
		C224.2,125.9,218.1,131.9,210.8,131.9z M210.8,115.1c-1.9,0-3.4,1.5-3.4,3.4s1.5,3.4,3.4,3.4s3.4-1.5,3.4-3.4
		S212.6,115.1,210.8,115.1z"/>
</g>
<path id="shock_x5F_color" class="st3" d="M375.4,287.2h-17.3v-1.6c0-8.1-6.5-14.6-14.6-14.6H164.2c-8.1,0-14.6,6.5-14.6,14.6v63.3
	c0,8.1,6.5,14.6,14.6,14.6h179.3c8.1,0,14.6-6.5,14.6-14.6v-3.7h17.3c6.3,0,11.5-5.1,11.5-11.5v-35
	C386.9,292.3,381.7,287.2,375.4,287.2z"/>
<g id="color">
	<line class="st4" x1="179.8" y1="336.5" x2="179.8" y2="299.2"/>
	<line class="st4" x1="193.2" y1="336.5" x2="193.2" y2="299.2"/>
	<line class="st4" x1="206.1" y1="336.5" x2="206.1" y2="299.2"/>
	<line class="st4" x1="219.5" y1="336.5" x2="219.5" y2="299.2"/>
	<line class="st4" x1="233" y1="336.5" x2="233" y2="299.2"/>
	<line class="st4" x1="245.9" y1="336.5" x2="245.9" y2="299.2"/>
</g>
<g id="lines">
	<line class="st5" x1="409.8" y1="369.5" x2="396.7" y2="369.5"/>
	<line class="st5" x1="117.6" y1="369.5" x2="104.6" y2="369.5"/>
	<line class="st5" x1="379.4" y1="369" x2="133.5" y2="369"/>
	<path class="st6" d="M342,363.5H165.7c-8.9,0-16.2-7.2-16.2-16.2v-60.2c0-8.9,7.2-16.2,16.2-16.2H342c8.9,0,16.2,7.2,16.2,16.2
		v60.2C358.1,356.3,350.9,363.5,342,363.5z"/>
	<path class="st6" d="M290.4,348.1H176.7c-5.4,0-9.8-4.4-9.8-9.8v-41.9c0-5.4,4.4-9.8,9.8-9.8h113.7c5.4,0,9.8,4.4,9.8,9.8v41.9
		C300.3,343.7,295.9,348.1,290.4,348.1z"/>
	<path class="st6" d="M375.4,345.2h-17.3v-58h17.3c6.3,0,11.5,5.1,11.5,11.5v35C386.9,340,381.7,345.2,375.4,345.2z"/>
</g>
<g id="shadows-lights">
	<line class="st7" x1="360.1" y1="381.1" x2="153" y2="381.1"/>
	<path class="st8" d="M358.1,336.5c0,9.6-7.8,17.3-17.3,17.3H166.9c-9.6,0-17.3-7.8-17.3-17.3"/>
	<line class="st8" x1="365.6" y1="290.5" x2="365.6" y2="342.8"/>
	<line class="st9" x1="340.8" y1="289.8" x2="316.9" y2="289.8"/>
	<line class="st8" x1="259.3" y1="336.5" x2="259.3" y2="299.2"/>
	<line class="st8" x1="272.6" y1="336.5" x2="272.6" y2="299.2"/>
	<line class="st8" x1="286" y1="336.5" x2="286" y2="299.2"/>
	<line class="st9" x1="289.8" y1="301.9" x2="181.9" y2="301.9"/>
</g>
</svg>
