<?xml version="1.0" encoding="utf-8"?>
<!-- Generator: Adobe Illustrator 21.0.0, SVG Export Plug-In . SVG Version: 6.00 Build 0)  -->
<svg version="1.1" id="Layer_1" xmlns="http://www.w3.org/2000/svg" xmlns:xlink="http://www.w3.org/1999/xlink" x="0px" y="0px"
	 viewBox="0 0 512 512" style="enable-background:new 0 0 512 512;" xml:space="preserve">
<style type="text/css">
	.st0{opacity:0.25;fill:#95A2AC;}
	.st1{fill:#FFD54F;}
	.st2{fill:#95A2AC;}
	.st3{fill:#1DE9B6;}
	.st4{fill:#B3BDC3;}
	.st5{fill:none;stroke:#000000;stroke-width:10;stroke-linecap:round;stroke-linejoin:round;stroke-miterlimit:10;}
	.st6{fill:none;stroke:#000000;stroke-width:10;stroke-linecap:round;stroke-miterlimit:10;}
	.st7{fill:none;stroke:#000000;stroke-width:10;stroke-linejoin:round;stroke-miterlimit:10;}
	.st8{opacity:0.25;fill:none;stroke:#6F6F6F;stroke-width:15;stroke-linecap:round;stroke-miterlimit:10;}
	.st9{opacity:0.75;fill:none;stroke:#FFFFFF;stroke-width:10;stroke-linecap:round;stroke-miterlimit:10;}
	.st10{opacity:0.25;fill:none;stroke:#000000;stroke-width:10;stroke-linejoin:round;stroke-miterlimit:10;}
	.st11{opacity:0.25;fill:none;stroke:#000000;stroke-width:10;stroke-linecap:round;stroke-linejoin:round;stroke-miterlimit:10;}
</style>
<g id="background">
	<circle class="st0" cx="265.3" cy="264.3" r="193.4"/>
	<g>
		<path class="st1" d="M131,152.5c-2.8,0-5-2.2-5-5v-22.4c0-2.8,2.2-5,5-5s5,2.2,5,5v22.4C136,150.2,133.7,152.5,131,152.5z"/>
		<path class="st1" d="M142.2,141.3h-22.4c-2.8,0-5-2.2-5-5s2.2-5,5-5h22.4c2.8,0,5,2.2,5,5S144.9,141.3,142.2,141.3z"/>
	</g>
	<g>
		<path class="st2" d="M129.8,253.2c-2.3,0-4.4-1.6-4.9-4l-4.4-22c-0.5-2.7,1.2-5.3,3.9-5.9c2.7-0.6,5.3,1.2,5.9,3.9l4.4,22
			c0.5,2.7-1.2,5.3-3.9,5.9C130.4,253.1,130.1,253.2,129.8,253.2z"/>
		<path class="st2" d="M116.6,244.4c-2.3,0-4.4-1.6-4.9-4c-0.5-2.7,1.2-5.3,3.9-5.9l22-4.4c2.7-0.5,5.3,1.2,5.9,3.9
			c0.5,2.7-1.2,5.3-3.9,5.9l-22,4.4C117.2,244.3,116.9,244.4,116.6,244.4z"/>
	</g>
	<g>
		<path class="st2" d="M341.6,324.6c-1.1,0-2.2-0.3-3.1-1c-2.2-1.7-2.6-4.8-0.9-7l13.7-17.7c1.7-2.2,4.8-2.6,7-0.9
			c2.2,1.7,2.6,4.8,0.9,7l-13.7,17.7C344.6,323.9,343.1,324.6,341.6,324.6z"/>
		<path class="st2" d="M357.3,322.6c-1.1,0-2.2-0.3-3.1-1l-17.7-13.7c-2.2-1.7-2.6-4.8-0.9-7c1.7-2.2,4.8-2.6,7-0.9l17.7,13.7
			c2.2,1.7,2.6,4.8,0.9,7C360.3,322,358.8,322.6,357.3,322.6z"/>
	</g>
	<g>
		<path class="st2" d="M358.7,102.2c-2.3,0-4.4-1.6-4.9-4l-4.4-22c-0.5-2.7,1.2-5.3,3.9-5.9c2.7-0.5,5.3,1.2,5.9,3.9l4.4,22
			c0.5,2.7-1.2,5.3-3.9,5.9C359.3,102.2,359,102.2,358.7,102.2z"/>
		<path class="st2" d="M345.5,93.4c-2.3,0-4.4-1.6-4.9-4c-0.5-2.7,1.2-5.3,3.9-5.9l22-4.4c2.7-0.5,5.3,1.2,5.9,3.9
			c0.5,2.7-1.2,5.3-3.9,5.9l-22,4.4C346.1,93.4,345.8,93.4,345.5,93.4z"/>
	</g>
	<path class="st2" d="M88.2,277.9c-7.4,0-13.4-6-13.4-13.4c0-7.4,6-13.4,13.4-13.4c7.4,0,13.4,6,13.4,13.4
		C101.6,271.9,95.6,277.9,88.2,277.9z M88.2,261.2c-1.9,0-3.4,1.5-3.4,3.4c0,1.9,1.5,3.4,3.4,3.4s3.4-1.5,3.4-3.4
		C91.6,262.7,90.1,261.2,88.2,261.2z"/>
	<path class="st1" d="M387.4,377.6c-7.4,0-13.4-6-13.4-13.4s6-13.4,13.4-13.4c7.4,0,13.4,6,13.4,13.4S394.8,377.6,387.4,377.6z
		 M387.4,360.9c-1.9,0-3.4,1.5-3.4,3.4s1.5,3.4,3.4,3.4s3.4-1.5,3.4-3.4S389.3,360.9,387.4,360.9z"/>
	<path class="st2" d="M222.1,86.4c-7.4,0-13.4-6-13.4-13.4s6-13.4,13.4-13.4c7.4,0,13.4,6,13.4,13.4S229.5,86.4,222.1,86.4z
		 M222.1,69.6c-1.9,0-3.4,1.5-3.4,3.4s1.5,3.4,3.4,3.4s3.4-1.5,3.4-3.4S224,69.6,222.1,69.6z"/>
	<g>
		<path class="st2" d="M399.4,226.9c-1.1,0-2.2-0.3-3.1-1c-2.2-1.7-2.6-4.8-0.9-7l13.7-17.7c1.7-2.2,4.8-2.6,7-0.9
			c2.2,1.7,2.6,4.8,0.9,7l-13.7,17.7C402.3,226.2,400.9,226.9,399.4,226.9z"/>
		<path class="st2" d="M415.1,224.9c-1.1,0-2.2-0.3-3.1-1l-17.7-13.7c-2.2-1.7-2.6-4.8-0.9-7s4.8-2.6,7-0.9l17.7,13.7
			c2.2,1.7,2.6,4.8,0.9,7C418.1,224.2,416.6,224.9,415.1,224.9z"/>
	</g>
	<path class="st1" d="M159.3,345.8c-7.4,0-13.4-6-13.4-13.4c0-7.4,6-13.4,13.4-13.4c7.4,0,13.4,6,13.4,13.4
		C172.7,339.8,166.7,345.8,159.3,345.8z M159.3,329.1c-1.9,0-3.4,1.5-3.4,3.4c0,1.9,1.5,3.4,3.4,3.4s3.4-1.5,3.4-3.4
		C162.7,330.6,161.2,329.1,159.3,329.1z"/>
	<path class="st1" d="M419.3,289.9c-7.4,0-13.4-6-13.4-13.4c0-7.4,6-13.4,13.4-13.4c7.4,0,13.4,6,13.4,13.4
		C432.7,283.9,426.7,289.9,419.3,289.9z M419.3,273.1c-1.9,0-3.4,1.5-3.4,3.4c0,1.9,1.5,3.4,3.4,3.4s3.4-1.5,3.4-3.4
		C422.7,274.7,421.2,273.1,419.3,273.1z"/>
	<path class="st1" d="M379.3,149.9c-7.4,0-13.4-6-13.4-13.4c0-7.4,6-13.4,13.4-13.4c7.4,0,13.4,6,13.4,13.4
		C392.7,143.9,386.7,149.9,379.3,149.9z M379.3,133.1c-1.9,0-3.4,1.5-3.4,3.4c0,1.9,1.5,3.4,3.4,3.4s3.4-1.5,3.4-3.4
		C382.7,134.7,381.2,133.1,379.3,133.1z"/>
</g>
<circle id="color" class="st3" cx="265.3" cy="186.5" r="24.9"/>
<rect id="shock_x5F_color" x="181" y="374.8" class="st4" width="166.9" height="24.1"/>
<g id="lines">
	<line class="st5" x1="479.6" y1="404.1" x2="461.4" y2="404.1"/>
	<line class="st5" x1="445.3" y1="403.5" x2="84.6" y2="403.5"/>
	<line class="st5" x1="67.5" y1="404.1" x2="49.2" y2="404.1"/>
	<g>
		<path class="st6" d="M238.1,229c-13.5-8.7-22.5-23.8-22.5-41.1c0-26.9,21.8-48.8,48.8-48.8s48.8,21.8,48.8,48.8
			c0,16.7-8.4,31.5-21.3,40.3"/>
		<path class="st6" d="M232.2,252.7c-23.8-11.8-40.1-36.4-40.1-64.7c0-39.9,32.4-72.3,72.3-72.3s72.3,32.4,72.3,72.3
			c0,27.9-15.8,52.1-38.9,64.1"/>
		<path class="st6" d="M226.3,276.8c-34.4-14.8-58.6-49-58.6-88.9c0-53.4,43.3-96.7,96.7-96.7s96.7,43.3,96.7,96.7
			c0,39.4-23.5,73.2-57.3,88.3"/>
	</g>
	<polygon class="st7" points="274,210.7 256.5,210.7 216.5,374.8 314,374.8 	"/>
	<polyline class="st5" points="216.5,374.8 296.4,302.3 246.2,253.1 274,210.7 	"/>
	<polyline class="st5" points="314,374.8 234.6,300.7 284.4,253.1 256.5,210.7 	"/>
	<circle class="st7" cx="265.3" cy="186.5" r="24.9"/>
	<rect x="181" y="374.8" class="st7" width="166.9" height="24.1"/>
</g>
<g id="shadows-lights">
	<line class="st8" x1="415.1" y1="415.7" x2="115.2" y2="415.7"/>
	<path class="st9" d="M258.9,174.9c6-3.5,13.7-1.6,17.2,4.4"/>
	<line class="st10" x1="181" y1="390.4" x2="347.9" y2="390.4"/>
	<path class="st11" d="M241.2,180.2c0,13.8,10.3,21.7,24.1,21.7s24.1-7.9,24.1-21.7"/>
</g>
</svg>
