<?xml version="1.0" encoding="utf-8"?>
<!-- Generator: Adobe Illustrator 21.0.0, SVG Export Plug-In . SVG Version: 6.00 Build 0)  -->
<svg version="1.1" id="Layer_1" xmlns="http://www.w3.org/2000/svg" xmlns:xlink="http://www.w3.org/1999/xlink" x="0px" y="0px"
	 viewBox="0 0 512 512" style="enable-background:new 0 0 512 512;" xml:space="preserve">
<style type="text/css">
	.st0{opacity:0.25;fill:#95A2AC;}
	.st1{fill:#FFD54F;}
	.st2{fill:#95A2AC;}
	.st3{fill:#BA68C8;}
	.st4{fill:#B3BDC3;}
	.st5{fill:none;stroke:#000000;stroke-width:10;stroke-linecap:round;stroke-linejoin:round;stroke-miterlimit:10;}
	.st6{fill:none;stroke:#000000;stroke-width:10;stroke-miterlimit:10;}
	.st7{fill:none;stroke:#000000;stroke-width:10;stroke-linecap:round;stroke-miterlimit:10;}
	.st8{opacity:0.25;fill:none;stroke:#000000;stroke-width:10;stroke-miterlimit:10;}
	.st9{opacity:0.25;fill:none;stroke:#6F6F6F;stroke-width:15;stroke-linecap:round;stroke-miterlimit:10;}
	.st10{opacity:0.25;}
	.st11{opacity:0.75;fill:none;stroke:#FFFFFF;stroke-width:10;stroke-linecap:round;stroke-miterlimit:10;}
</style>
<g id="background">
	<circle class="st0" cx="257.5" cy="260.7" r="193.4"/>
	<g>
		<path class="st1" d="M163.2,128.8c-2.8,0-5-2.2-5-5v-22.4c0-2.8,2.2-5,5-5s5,2.2,5,5v22.4C168.2,126.6,165.9,128.8,163.2,128.8z"
			/>
		<path class="st1" d="M174.4,117.6H152c-2.8,0-5-2.2-5-5s2.2-5,5-5h22.4c2.8,0,5,2.2,5,5S177.1,117.6,174.4,117.6z"/>
	</g>
	<g>
		<path class="st2" d="M102,169.5c-2.3,0-4.4-1.6-4.9-4l-4.4-22c-0.5-2.7,1.2-5.3,3.9-5.9c2.7-0.5,5.3,1.2,5.9,3.9l4.4,22
			c0.5,2.7-1.2,5.3-3.9,5.9C102.6,169.5,102.3,169.5,102,169.5z"/>
		<path class="st2" d="M88.8,160.8c-2.3,0-4.4-1.6-4.9-4c-0.5-2.7,1.2-5.3,3.9-5.9l22-4.4c2.7-0.5,5.3,1.2,5.9,3.9
			c0.5,2.7-1.2,5.3-3.9,5.9l-22,4.4C89.4,160.7,89.1,160.8,88.8,160.8z"/>
	</g>
	<g>
		<path class="st1" d="M413.8,321c-1.1,0-2.2-0.3-3.1-1c-2.2-1.7-2.6-4.8-0.9-7l13.7-17.7c1.7-2.2,4.8-2.6,7-0.9
			c2.2,1.7,2.6,4.8,0.9,7l-13.7,17.7C416.8,320.3,415.3,321,413.8,321z"/>
		<path class="st1" d="M429.5,319c-1.1,0-2.2-0.3-3.1-1l-17.7-13.7c-2.2-1.7-2.6-4.8-0.9-7s4.8-2.6,7-0.9l17.7,13.7
			c2.2,1.7,2.6,4.8,0.9,7C432.5,318.3,431,319,429.5,319z"/>
	</g>
	<g>
		<path class="st2" d="M310.9,98.6c-2.3,0-4.4-1.6-4.9-4l-4.4-22c-0.5-2.7,1.2-5.3,3.9-5.9c2.7-0.5,5.3,1.2,5.9,3.9l4.4,22
			c0.5,2.7-1.2,5.3-3.9,5.9C311.5,98.6,311.2,98.6,310.9,98.6z"/>
		<path class="st2" d="M297.7,89.8c-2.3,0-4.4-1.6-4.9-4c-0.5-2.7,1.2-5.3,3.9-5.9l22-4.4c2.7-0.5,5.3,1.2,5.9,3.9
			c0.5,2.7-1.2,5.3-3.9,5.9l-22,4.4C298.3,89.8,298,89.8,297.7,89.8z"/>
	</g>
	<path class="st2" d="M80.4,254.3c-7.4,0-13.4-6-13.4-13.4c0-7.4,6-13.4,13.4-13.4c7.4,0,13.4,6,13.4,13.4
		C93.8,248.3,87.8,254.3,80.4,254.3z M80.4,237.5c-1.9,0-3.4,1.5-3.4,3.4c0,1.9,1.5,3.4,3.4,3.4s3.4-1.5,3.4-3.4
		C83.8,239.1,82.3,237.5,80.4,237.5z"/>
	<path class="st1" d="M139.6,214c-7.4,0-13.4-6-13.4-13.4s6-13.4,13.4-13.4c7.4,0,13.4,6,13.4,13.4S147,214,139.6,214z M139.6,197.2
		c-1.9,0-3.4,1.5-3.4,3.4s1.5,3.4,3.4,3.4s3.4-1.5,3.4-3.4S141.5,197.2,139.6,197.2z"/>
	<path class="st2" d="M214.3,82.8c-7.4,0-13.4-6-13.4-13.4s6-13.4,13.4-13.4c7.4,0,13.4,6,13.4,13.4S221.7,82.8,214.3,82.8z
		 M214.3,66c-1.9,0-3.4,1.5-3.4,3.4s1.5,3.4,3.4,3.4s3.4-1.5,3.4-3.4S216.2,66,214.3,66z"/>
	<g>
		<path class="st1" d="M384.4,126.5c-1.1,0-2.2-0.3-3.1-1c-2.2-1.7-2.6-4.8-0.9-7l13.7-17.7c1.7-2.2,4.8-2.6,7-0.9
			c2.2,1.7,2.6,4.8,0.9,7l-13.7,17.7C387.4,125.8,385.9,126.5,384.4,126.5z"/>
		<path class="st1" d="M400.2,124.5c-1.1,0-2.2-0.3-3.1-1l-17.7-13.7c-2.2-1.7-2.6-4.8-0.9-7c1.7-2.2,4.8-2.6,7-0.9l17.7,13.7
			c2.2,1.7,2.6,4.8,0.9,7C403.1,123.8,401.6,124.5,400.2,124.5z"/>
	</g>
	<path class="st1" d="M111.5,342.2c-7.4,0-13.4-6-13.4-13.4c0-7.4,6-13.4,13.4-13.4c7.4,0,13.4,6,13.4,13.4
		C124.9,336.2,118.9,342.2,111.5,342.2z M111.5,325.4c-1.9,0-3.4,1.5-3.4,3.4c0,1.9,1.5,3.4,3.4,3.4s3.4-1.5,3.4-3.4
		C114.9,327,113.4,325.4,111.5,325.4z"/>
	<path class="st2" d="M411.5,226.3c-7.4,0-13.4-6-13.4-13.4c0-7.4,6-13.4,13.4-13.4s13.4,6,13.4,13.4
		C424.9,220.3,418.9,226.3,411.5,226.3z M411.5,209.5c-1.9,0-3.4,1.5-3.4,3.4c0,1.9,1.5,3.4,3.4,3.4s3.4-1.5,3.4-3.4
		C414.9,211.1,413.4,209.5,411.5,209.5z"/>
</g>
<path id="color" class="st3" d="M323,177.6h20.7c4.3,0,7.8,3.5,7.8,7.8v0c0,4.3-2.2,9.1-6.6,9.1l-11.6,9.2l-10.9-8.9
	c-4.3,0-7.3-5-7.3-9.3v0C315.2,181.1,318.7,177.6,323,177.6z"/>
<path id="shock_x5F_color" class="st4" d="M369.6,219.3v-7.9c0-10-8.1-18.1-18.1-18.1c-10,0-18.1,8.1-18.1,18.1
	c0-10-8.1-18.1-18.1-18.1h0c-10,0-18.1,8.1-18.1,18.1c0-10-8.1-18.1-18.1-18.1h0c-10,0-18.1,8.1-18.1,18.1c0-10-8.1-18.1-18.1-18.1
	s-18.1,8.1-18.1,18.1c0-10-8.1-18.1-18.1-18.1h0c-10,0-18.1,8.1-18.1,18.1v147.9c0,10,8.1,18.1,18.1,18.1h0c10,0,18.1-8.1,18.1-18.1
	c0,10,8.1,18.1,18.1,18.1c10,0,18.1-8.1,18.1-18.1c0,10,8.1,18.1,18.1,18.1h0c10,0,18.1-8.1,18.1-18.1c0,10,8.1,18.1,18.1,18.1h0
	c10,0,18.1-8.1,18.1-18.1c0,10,8.1,18.1,18.1,18.1c10,0,18.1-8.1,18.1-18.1v-89.9h13.6v-50H369.6z"/>
<g id="lines">
	<line class="st5" x1="471.8" y1="400.4" x2="453.6" y2="400.4"/>
	<line class="st5" x1="437.5" y1="399.9" x2="76.8" y2="399.9"/>
	<line class="st5" x1="59.7" y1="400.4" x2="41.4" y2="400.4"/>
	<line class="st6" x1="206.3" y1="377.4" x2="206.3" y2="394.4"/>
	<line class="st6" x1="351.5" y1="377.4" x2="351.5" y2="394.4"/>
	<path class="st7" d="M188.2,359.3c0,0-15.5,21.2-37.4,0c-21.8-21.2-36.5-2.3-38,0"/>
	<g>
		<path class="st7" d="M226.4,167c0.3-33.7,27.9-60.7,61.5-60.4"/>
		<path class="st7" d="M240.8,167.2c0.2-25.5,21.1-45.9,46.5-45.7"/>
		<path class="st7" d="M255.1,167.3c0.2-17.6,14.5-31.7,32.1-31.5"/>
	</g>
	<path class="st6" d="M206.3,377.4L206.3,377.4c-10,0-18.1-8.1-18.1-18.1V211.4c0-10,8.1-18.1,18.1-18.1h0c10,0,18.1,8.1,18.1,18.1
		v147.9C224.5,369.3,216.3,377.4,206.3,377.4z"/>
	<path class="st6" d="M242.6,377.4L242.6,377.4c-10,0-18.1-8.1-18.1-18.1V211.4c0-10,8.1-18.1,18.1-18.1h0c10,0,18.1,8.1,18.1,18.1
		v147.9C260.8,369.3,252.6,377.4,242.6,377.4z"/>
	<path class="st6" d="M278.9,377.4L278.9,377.4c-10,0-18.1-8.1-18.1-18.1V211.4c0-10,8.1-18.1,18.1-18.1h0c10,0,18.1,8.1,18.1,18.1
		v147.9C297.1,369.3,288.9,377.4,278.9,377.4z"/>
	<path class="st6" d="M315.2,377.4L315.2,377.4c-10,0-18.1-8.1-18.1-18.1V211.4c0-10,8.1-18.1,18.1-18.1h0c10,0,18.1,8.1,18.1,18.1
		v147.9C333.3,369.3,325.2,377.4,315.2,377.4z"/>
	<path class="st6" d="M351.5,377.4L351.5,377.4c-10,0-18.1-8.1-18.1-18.1V211.4c0-10,8.1-18.1,18.1-18.1h0c10,0,18.1,8.1,18.1,18.1
		v147.9C369.6,369.3,361.5,377.4,351.5,377.4z"/>
	<path class="st5" d="M323,177.6h20.7c4.3,0,7.8,3.5,7.8,7.8v0c0,4.3-2.2,9.1-6.6,9.1l-11.6,9.2l-10.9-8.9c-4.3,0-7.3-5-7.3-9.3v0
		C315.2,181.1,318.7,177.6,323,177.6z"/>
	<rect x="369.6" y="219.3" class="st5" width="13.6" height="50"/>
	<path class="st8" d="M318.8,187.6"/>
</g>
<g id="shadows-lights">
	<line class="st9" x1="407.3" y1="412.1" x2="107.4" y2="412.1"/>
	<g>
		<rect x="369.6" y="219.3" class="st10" width="13.6" height="50"/>
		<path class="st8" d="M224.5,350c0,10-4.5,18-14.5,18h0c-10,0-18.1-8.1-18.1-18.1V202"/>
		<path class="st8" d="M260.8,353.5c0,10-4.5,18.3-14.5,18.3h0c-10,0-18.1-8.1-18.1-18.1V200.5"/>
		<path class="st8" d="M297.1,353.8c0,10-4.5,18-14.5,18h0c-10,0-18.1-8.1-18.1-18.1V200.5"/>
		<path class="st8" d="M333.3,353.8c0,10-4.5,18-14.5,18h0c-10,0-18.1-8.1-18.1-18.1v-153"/>
		<path class="st8" d="M369.6,354.7c0,10-4.5,17.1-14.5,17.1h0c-10,0-18.1-8.1-18.1-18.1l0.3-153.1"/>
		<line class="st11" x1="356.3" y1="211" x2="356.3" y2="260.7"/>
		<line class="st11" x1="318.8" y1="211" x2="318.8" y2="260.7"/>
		<line class="st11" x1="281.9" y1="211" x2="281.9" y2="260.7"/>
		<line class="st11" x1="244.8" y1="211" x2="244.8" y2="260.7"/>
		<line class="st11" x1="210.1" y1="211" x2="210.1" y2="260.7"/>
	</g>
</g>
</svg>
