<?xml version="1.0" encoding="utf-8"?>
<!-- Generator: Adobe Illustrator 21.0.0, SVG Export Plug-In . SVG Version: 6.00 Build 0)  -->
<svg version="1.1" id="Layer_1" xmlns="http://www.w3.org/2000/svg" xmlns:xlink="http://www.w3.org/1999/xlink" x="0px" y="0px"
	 viewBox="0 0 512 512" style="enable-background:new 0 0 512 512;" xml:space="preserve">
<style type="text/css">
	.st0{opacity:0.25;fill:#95A2AC;}
	.st1{fill:#FFD54F;}
	.st2{fill:#95A2AC;}
	.st3{fill:#1DE9B6;}
	.st4{opacity:0.25;fill:none;stroke:#6F6F6F;stroke-width:15;stroke-linecap:round;stroke-miterlimit:10;}
	.st5{opacity:0.75;fill:none;stroke:#FFFFFF;stroke-width:10;stroke-linecap:round;stroke-linejoin:round;stroke-miterlimit:10;}
	.st6{opacity:0.25;fill:none;stroke:#000000;stroke-width:10;stroke-linecap:round;stroke-linejoin:round;stroke-miterlimit:10;}
	.st7{fill:none;stroke:#000000;stroke-width:10;stroke-linecap:round;stroke-linejoin:round;stroke-miterlimit:10;}
</style>
<g id="background">
	<circle class="st0" cx="250.3" cy="270.2" r="193.4"/>
	<path class="st1" d="M331.8,145.5c-1.9,0-3.8-0.4-5.6-1.2l0,0c-6.7-3.1-9.6-11.1-6.5-17.8c3.1-6.7,11.1-9.6,17.8-6.5
		c3.2,1.5,5.7,4.2,6.9,7.5c1.2,3.4,1.1,7-0.4,10.2c-1.5,3.2-4.2,5.7-7.5,6.9C334.9,145.2,333.3,145.5,331.8,145.5z M330.3,135.2
		c1.7,0.8,3.7,0,4.5-1.7c0.4-0.8,0.4-1.7,0.1-2.6c-0.3-0.8-0.9-1.5-1.8-1.9c-1.7-0.8-3.7,0-4.5,1.7
		C327.9,132.4,328.6,134.4,330.3,135.2L330.3,135.2z"/>
	<g>
		<path class="st1" d="M113.8,336.8c-1.4,0-2.7-0.6-3.7-1.7l-15-16.7c-1.8-2.1-1.7-5.2,0.4-7.1c2.1-1.8,5.2-1.7,7.1,0.4l15,16.7
			c1.8,2.1,1.7,5.2-0.4,7.1C116.1,336.3,114.9,336.8,113.8,336.8z"/>
		<path class="st1" d="M97.9,335.9c-1.4,0-2.7-0.6-3.7-1.7c-1.8-2.1-1.7-5.2,0.4-7.1l16.7-15c2.1-1.8,5.2-1.7,7.1,0.4
			c1.8,2.1,1.7,5.2-0.4,7.1l-16.7,15C100.3,335.5,99.1,335.9,97.9,335.9z"/>
	</g>
	<g>
		<path class="st2" d="M422.7,295.8c-2.3,0-4.4-1.6-4.9-4l-4.4-22c-0.5-2.7,1.2-5.3,3.9-5.9c2.7-0.5,5.3,1.2,5.9,3.9l4.4,22
			c0.5,2.7-1.2,5.3-3.9,5.9C423.4,295.7,423,295.8,422.7,295.8z"/>
		<path class="st2" d="M409.5,287c-2.3,0-4.4-1.6-4.9-4c-0.5-2.7,1.2-5.3,3.9-5.9l22-4.4c2.7-0.5,5.3,1.2,5.9,3.9
			c0.5,2.7-1.2,5.3-3.9,5.9l-22,4.4C410.2,287,409.8,287,409.5,287z"/>
	</g>
	<g>
		<path class="st2" d="M84,266.6c-2.3,0-4.4-1.6-4.9-4l-4.4-22c-0.5-2.7,1.2-5.3,3.9-5.9c2.7-0.5,5.3,1.2,5.9,3.9l4.4,22
			c0.5,2.7-1.2,5.3-3.9,5.9C84.7,266.6,84.3,266.6,84,266.6z"/>
		<path class="st2" d="M70.8,257.8c-2.3,0-4.4-1.6-4.9-4c-0.5-2.7,1.2-5.3,3.9-5.9l22-4.4c2.7-0.5,5.3,1.2,5.9,3.9
			c0.5,2.7-1.2,5.3-3.9,5.9l-22,4.4C71.5,257.8,71.1,257.8,70.8,257.8z"/>
	</g>
	<g>
		<path class="st2" d="M276,70.8c-0.5,0-1-0.1-1.5-0.2c-2.6-0.8-4.1-3.6-3.3-6.3l6.6-21.4c0.8-2.6,3.6-4.1,6.3-3.3
			c2.6,0.8,4.1,3.6,3.3,6.3l-6.6,21.4C280.1,69.5,278.1,70.8,276,70.8z"/>
		<path class="st2" d="M290,63.4c-0.5,0-1-0.1-1.5-0.2l-21.4-6.6c-2.6-0.8-4.1-3.6-3.3-6.3s3.6-4.1,6.3-3.3l21.4,6.6
			c2.6,0.8,4.1,3.6,3.3,6.3C294.1,62.1,292.1,63.4,290,63.4z"/>
	</g>
	<path class="st2" d="M406.5,117.6c-7.4,0-13.4-6-13.4-13.4c0-7.4,6-13.4,13.4-13.4s13.4,6,13.4,13.4
		C419.9,111.6,413.9,117.6,406.5,117.6z M406.5,100.9c-1.9,0-3.4,1.5-3.4,3.4s1.5,3.4,3.4,3.4s3.4-1.5,3.4-3.4
		S408.4,100.9,406.5,100.9z"/>
	<path class="st2" d="M65.5,152.1c-7.4,0-13.4-6-13.4-13.4c0-7.4,6-13.4,13.4-13.4c7.4,0,13.4,6,13.4,13.4
		C78.9,146.1,72.9,152.1,65.5,152.1z M65.5,135.3c-1.9,0-3.4,1.5-3.4,3.4s1.5,3.4,3.4,3.4c1.9,0,3.4-1.5,3.4-3.4
		S67.4,135.3,65.5,135.3z"/>
	<path class="st1" d="M458.9,208.1c-7.4,0-13.4-6-13.4-13.4c0-7.4,6-13.4,13.4-13.4s13.4,6,13.4,13.4
		C472.3,202.1,466.3,208.1,458.9,208.1z M458.9,191.3c-1.9,0-3.4,1.5-3.4,3.4s1.5,3.4,3.4,3.4s3.4-1.5,3.4-3.4
		S460.7,191.3,458.9,191.3z"/>
	<g>
		<path class="st1" d="M162.5,81.7c-0.5,0-0.9-0.1-1.4-0.2c-2.7-0.8-4.2-3.5-3.4-6.2l6.2-21.5c0.8-2.7,3.5-4.2,6.2-3.4
			c2.7,0.8,4.2,3.5,3.4,6.2l-6.2,21.5C166.7,80.3,164.7,81.7,162.5,81.7z"/>
		<path class="st1" d="M176.4,74c-0.5,0-0.9-0.1-1.4-0.2l-21.6-6.2c-2.7-0.8-4.2-3.5-3.4-6.2c0.8-2.7,3.5-4.2,6.2-3.4l21.6,6.2
			c2.7,0.8,4.2,3.5,3.4,6.2C180.6,72.6,178.6,74,176.4,74z"/>
	</g>
</g>
<path id="shock_x5F_color" class="st3" d="M372.1,197.2c-11.5-11.5-27.6-15.6-42.4-12.3c-9.6-13.7-25.4-22.7-43.4-22.7
	c-0.6,0-1.3,0.2-1.9,0.2c-6.6-27.3-31-47.7-60.4-47.7c-32.8,0-59.4,25.5-61.8,57.7c-17.7,7.5-30.5,23.8-33.3,43.3
	c-0.5,2-0.7,4.2-0.7,6.3v1c0,0.3-0.1,0.5-0.1,0.8c0,0.3,0.1,0.5,0.1,0.8v14.1c0,22.5,18.4,40.9,40.9,40.9h175.6
	c22.5,0,40.9-18.4,40.9-40.9v-7.4c0-0.3-0.1-0.6-0.1-0.9C385.7,218.5,381.3,206.4,372.1,197.2z"/>
<g id="shadows-lights">
	<line class="st4" x1="370.2" y1="408.9" x2="128.9" y2="408.9"/>
	<path class="st5" d="M365,212.7c-12.8-15.5-30.4-12.8-44.1-10.1c-9.6-15-24.3-25.7-46.1-22.9c-0.6,0.1-1.2,0.1-1.8,0.2
		c-6.1-22.4-16.1-47.7-53.2-47.7"/>
	<path class="st6" d="M128.1,228.4c0,22.5,18.4,40.9,40.9,40.9h175.6c22.5,0,40.9-18.4,40.9-40.9"/>
</g>
<g id="lines">
	<line class="st7" x1="428.1" y1="397.3" x2="412.9" y2="397.3"/>
	<line class="st7" x1="87.7" y1="397.3" x2="72.6" y2="397.3"/>
	<line class="st7" x1="392.7" y1="396.8" x2="106.2" y2="396.8"/>
	<path class="st7" d="M372.1,197.2c-11.5-11.5-27.6-15.6-42.4-12.3c-9.6-13.7-25.4-22.7-43.4-22.7c-0.6,0-1.3,0.2-1.9,0.2
		c-6.6-27.3-31-47.7-60.4-47.7c-32.8,0-59.4,25.5-61.8,57.7c-17.7,7.5-30.5,23.8-33.3,43.3c-0.5,2-0.7,4.2-0.7,6.3v1
		c0,0.3-0.1,0.5-0.1,0.8c0,0.3,0.1,0.5,0.1,0.8v14.1c0,22.5,18.4,40.9,40.9,40.9h175.6c22.5,0,40.9-18.4,40.9-40.9v-7.4
		c0-0.3-0.1-0.6-0.1-0.9C385.7,218.5,381.3,206.4,372.1,197.2z"/>
	<circle class="st7" cx="331.8" cy="372.9" r="13.2"/>
	<polyline class="st7" points="331.8,356.9 331.8,303.9 315.8,295.6 315.8,279.8 	"/>
	<circle class="st7" cx="169" cy="352.9" r="13.2"/>
	<polyline class="st7" points="169,339.7 169,303.9 185,295.6 185,279.8 	"/>
	<polyline class="st7" points="202.5,332.9 202.5,307 185,295.6 	"/>
	<polyline class="st7" points="222.5,377.9 222.5,323.4 262.1,302.9 262.1,279.8 	"/>
	<circle class="st7" cx="271.8" cy="332.9" r="13.2"/>
	<polyline class="st7" points="281,323.4 293.3,316.9 293.3,279.8 	"/>
</g>
</svg>
