<?xml version="1.0" encoding="utf-8"?>
<!-- Generator: Adobe Illustrator 21.0.0, SVG Export Plug-In . SVG Version: 6.00 Build 0)  -->
<svg version="1.1" id="Layer_1" xmlns="http://www.w3.org/2000/svg" xmlns:xlink="http://www.w3.org/1999/xlink" x="0px" y="0px"
	 viewBox="0 0 512 512" style="enable-background:new 0 0 512 512;" xml:space="preserve">
<style type="text/css">
	.st0{opacity:0.25;fill:#95A2AC;}
	.st1{fill:#FFD54F;}
	.st2{fill:#95A2AC;}
	.st3{fill:#B3BDC3;}
	.st4{fill:#BA68C8;}
	.st5{fill:#1DE9B6;}
	.st6{opacity:0.25;fill:none;stroke:#6F6F6F;stroke-width:15;stroke-linecap:round;stroke-miterlimit:10;}
	.st7{opacity:0.25;}
	.st8{opacity:0.25;fill:none;stroke:#000000;stroke-width:10;stroke-miterlimit:10;}
	.st9{opacity:0.75;fill:none;stroke:#FFFFFF;stroke-width:10;stroke-linecap:round;stroke-miterlimit:10;}
	.st10{fill:none;stroke:#000000;stroke-width:10;stroke-linecap:round;stroke-linejoin:round;stroke-miterlimit:10;}
	.st11{fill:none;stroke:#000000;stroke-width:10;stroke-miterlimit:10;}
</style>
<g id="background">
	<circle class="st0" cx="261.6" cy="262.2" r="193.4"/>
	<g>
		<path class="st1" d="M282.4,80.3c-2.8,0-5-2.2-5-5V52.9c0-2.8,2.2-5,5-5s5,2.2,5,5v22.4C287.4,78.1,285.2,80.3,282.4,80.3z"/>
		<path class="st1" d="M293.7,69.1h-22.4c-2.8,0-5-2.2-5-5s2.2-5,5-5h22.4c2.8,0,5,2.2,5,5S296.4,69.1,293.7,69.1z"/>
	</g>
	<g>
		<path class="st2" d="M117.1,170.8c-2.3,0-4.4-1.6-4.9-4l-4.4-22c-0.5-2.7,1.2-5.3,3.9-5.9c2.7-0.6,5.3,1.2,5.9,3.9l4.4,22
			c0.5,2.7-1.2,5.3-3.9,5.9C117.8,170.8,117.4,170.8,117.1,170.8z"/>
		<path class="st2" d="M103.9,162c-2.3,0-4.4-1.6-4.9-4c-0.5-2.7,1.2-5.3,3.9-5.9l22-4.4c2.7-0.5,5.3,1.2,5.9,3.9
			c0.5,2.7-1.2,5.3-3.9,5.9l-22,4.4C104.6,162,104.2,162,103.9,162z"/>
	</g>
	<g>
		<path class="st1" d="M418,325.4c-1.1,0-2.2-0.3-3.1-1c-2.2-1.7-2.6-4.8-0.9-7l13.7-17.7c1.7-2.2,4.8-2.6,7-0.9
			c2.2,1.7,2.6,4.8,0.9,7L422,323.4C421,324.7,419.5,325.4,418,325.4z"/>
		<path class="st1" d="M433.7,323.4c-1.1,0-2.2-0.3-3.1-1L413,308.6c-2.2-1.7-2.6-4.8-0.9-7c1.7-2.2,4.8-2.6,7-0.9l17.7,13.7
			c2.2,1.7,2.6,4.8,0.9,7C436.7,322.7,435.2,323.4,433.7,323.4z"/>
	</g>
	<g>
		<path class="st2" d="M101.3,327.5c-2.3,0-4.4-1.6-4.9-4l-4.4-22c-0.5-2.7,1.2-5.3,3.9-5.9c2.7-0.5,5.3,1.2,5.9,3.9l4.4,22
			c0.5,2.7-1.2,5.3-3.9,5.9C101.9,327.5,101.6,327.5,101.3,327.5z"/>
		<path class="st2" d="M88.1,318.7c-2.3,0-4.4-1.6-4.9-4c-0.5-2.7,1.2-5.3,3.9-5.9l22-4.4c2.7-0.5,5.3,1.2,5.9,3.9
			c0.5,2.7-1.2,5.3-3.9,5.9l-22,4.4C88.7,318.7,88.4,318.7,88.1,318.7z"/>
	</g>
	<path class="st2" d="M222,122c-7.4,0-13.4-6-13.4-13.4c0-7.4,6-13.4,13.4-13.4c7.4,0,13.4,6,13.4,13.4C235.4,116,229.4,122,222,122
		z M222,105.3c-1.9,0-3.4,1.5-3.4,3.4c0,1.9,1.5,3.4,3.4,3.4s3.4-1.5,3.4-3.4C225.4,106.8,223.9,105.3,222,105.3z"/>
	<path class="st1" d="M79.9,241.9c-7.4,0-13.4-6-13.4-13.4s6-13.4,13.4-13.4c7.4,0,13.4,6,13.4,13.4S87.3,241.9,79.9,241.9z
		 M79.9,225.2c-1.9,0-3.4,1.5-3.4,3.4s1.5,3.4,3.4,3.4s3.4-1.5,3.4-3.4S81.7,225.2,79.9,225.2z"/>
	<path class="st2" d="M334.6,119.8c-7.4,0-13.4-6-13.4-13.4c0-7.4,6-13.4,13.4-13.4c7.4,0,13.4,6,13.4,13.4
		C348,113.8,341.9,119.8,334.6,119.8z M334.6,103c-1.9,0-3.4,1.5-3.4,3.4c0,1.9,1.5,3.4,3.4,3.4s3.4-1.5,3.4-3.4
		C338,104.6,336.4,103,334.6,103z"/>
	<g>
		<path class="st1" d="M371.6,182.4c-1.1,0-2.1-0.3-3.1-1c-2.2-1.7-2.6-4.8-0.9-7l13.7-17.7c1.7-2.2,4.8-2.6,7-0.9
			c2.2,1.7,2.6,4.8,0.9,7l-13.7,17.7C374.5,181.8,373,182.4,371.6,182.4z"/>
		<path class="st1" d="M387.3,180.4c-1.1,0-2.2-0.3-3.1-1l-17.7-13.7c-2.2-1.7-2.6-4.8-0.9-7s4.8-2.6,7-0.9l17.7,13.7
			c2.2,1.7,2.6,4.8,0.9,7C390.2,179.8,388.8,180.4,387.3,180.4z"/>
	</g>
	<path class="st1" d="M184.1,82.7c-7.4,0-13.4-6-13.4-13.4s6-13.4,13.4-13.4c7.4,0,13.4,6,13.4,13.4S191.4,82.7,184.1,82.7z
		 M184.1,65.9c-1.9,0-3.4,1.5-3.4,3.4s1.5,3.4,3.4,3.4s3.4-1.5,3.4-3.4S185.9,65.9,184.1,65.9z"/>
	<path class="st2" d="M433.2,227.1c-7.4,0-13.4-6-13.4-13.4c0-7.4,6-13.4,13.4-13.4c7.4,0,13.4,6,13.4,13.4
		C446.6,221.1,440.6,227.1,433.2,227.1z M433.2,210.3c-1.9,0-3.4,1.5-3.4,3.4c0,1.9,1.5,3.4,3.4,3.4s3.4-1.5,3.4-3.4
		C436.6,211.9,435,210.3,433.2,210.3z"/>
</g>
<g id="shock_x5F_color">
	<rect x="242.7" y="303.2" class="st3" width="38.3" height="38.3"/>
	<path class="st3" d="M388.5,353.8H288.3v28.9h100.2c4.3,0,7.8-3.5,7.8-7.8v-13.2C396.3,357.3,392.8,353.8,388.5,353.8z"/>
	<path class="st3" d="M126.2,363v10.5c0,5.1,4.1,9.2,9.2,9.2h98.9v-28.9h-98.9C130.3,353.8,126.2,358,126.2,363z"/>
</g>
<g id="color_1_">
	<path class="st4" d="M277.8,341.5h-33.1c-5.8,0-10.5,4.7-10.5,10.5v33.1c0,5.8,4.7,10.5,10.5,10.5h33.1c5.8,0,10.5-4.7,10.5-10.5
		V352C288.3,346.2,283.6,341.5,277.8,341.5z"/>
	<path id="color" class="st5" d="M341.3,196.3c-3.5,0-7,0.4-10.3,1c-10.1-34.2-41.4-59.3-78.8-59.3c-45.3,0-82,36.5-82.5,81.8
		c-0.1,0-0.1,0-0.1,0c-23,0-41.7,18.7-41.7,41.7c0,23,18.7,41.7,41.7,41.7c13.6,0,156.2,0,171.8,0c29.5,0,53.4-23.9,53.4-53.4
		S370.8,196.3,341.3,196.3z"/>
</g>
<g id="shadows-lights">
	<line class="st6" x1="411.4" y1="413.6" x2="111.5" y2="413.6"/>
	<rect x="242.7" y="303.2" class="st7" width="38.3" height="38.3"/>
	<path class="st7" d="M388.5,382.7H288.3v-28.9h100.2c4.3,0,7.8,3.5,7.8,7.8v13.2C396.3,379.2,392.8,382.7,388.5,382.7z"/>
	<path class="st7" d="M234.3,353.8h-98.9c-5.1,0-9.2,4.1-9.2,9.2v10.5c0,5.1,4.1,9.2,9.2,9.2h98.9V353.8z"/>
	<path class="st8" d="M127.8,252.3c0,23,18.7,41.7,41.7,41.7c13.6,0,156.2,0,171.8,0c29.5,0,53.4-23.9,53.4-53.4"/>
	<path class="st9" d="M252.8,157.3c0,0,43.8,3.8,55,46.9"/>
</g>
<g id="lines">
	<line class="st10" x1="475.9" y1="401.9" x2="457.7" y2="401.9"/>
	<line class="st10" x1="441.6" y1="401.4" x2="80.9" y2="401.4"/>
	<line class="st10" x1="63.8" y1="401.9" x2="45.6" y2="401.9"/>
	<path class="st11" d="M277.8,341.5h-33.1c-5.8,0-10.5,4.7-10.5,10.5v33.1c0,5.8,4.7,10.5,10.5,10.5h33.1c5.8,0,10.5-4.7,10.5-10.5
		V352C288.3,346.2,283.6,341.5,277.8,341.5z"/>
	<rect x="242.7" y="303.2" class="st11" width="38.3" height="38.3"/>
	<path class="st11" d="M388.5,382.7H288.3v-28.9h100.2c4.3,0,7.8,3.5,7.8,7.8v13.2C396.3,379.2,392.8,382.7,388.5,382.7z"/>
	<path class="st11" d="M234.3,353.8h-98.9c-5.1,0-9.2,4.1-9.2,9.2v10.5c0,5.1,4.1,9.2,9.2,9.2h98.9V353.8z"/>
	<path class="st11" d="M341.3,196.3c-3.5,0-7,0.4-10.3,1c-10.1-34.2-41.4-59.3-78.8-59.3c-45.3,0-82,36.5-82.5,81.8
		c-0.1,0-0.1,0-0.1,0c-23,0-41.7,18.7-41.7,41.7c0,23,18.7,41.7,41.7,41.7c13.6,0,156.2,0,171.8,0c29.5,0,53.4-23.9,53.4-53.4
		S370.8,196.3,341.3,196.3z"/>
</g>
</svg>
