<?xml version="1.0" encoding="utf-8"?>
<!-- Generator: Adobe Illustrator 21.0.0, SVG Export Plug-In . SVG Version: 6.00 Build 0)  -->
<svg version="1.1" id="Layer_1" xmlns="http://www.w3.org/2000/svg" xmlns:xlink="http://www.w3.org/1999/xlink" x="0px" y="0px"
	 viewBox="0 0 512 512" style="enable-background:new 0 0 512 512;" xml:space="preserve">
<style type="text/css">
	.st0{opacity:0.25;fill:#95A2AC;}
	.st1{fill:#FFD54F;}
	.st2{fill:#95A2AC;}
	.st3{fill:#B3BDC3;}
	.st4{fill:#1DE9B6;}
	.st5{fill:none;stroke:#000000;stroke-width:10;stroke-linecap:round;stroke-linejoin:round;stroke-miterlimit:10;}
	.st6{fill:none;stroke:#000000;stroke-width:10;stroke-linecap:round;stroke-miterlimit:10;}
	.st7{fill:#95A2AC;stroke:#000000;stroke-width:10;stroke-linecap:round;stroke-miterlimit:10;}
	.st8{fill:none;stroke:#000000;stroke-width:10;stroke-miterlimit:10;}
	.st9{fill:none;stroke:#000000;stroke-width:10;stroke-linejoin:round;stroke-miterlimit:10;}
	.st10{opacity:0.25;}
	.st11{opacity:0.25;fill:none;stroke:#6F6F6F;stroke-width:15;stroke-linecap:round;stroke-miterlimit:10;}
	.st12{opacity:0.5;fill:none;stroke:#000000;stroke-width:10;stroke-miterlimit:10;}
	.st13{opacity:0.75;fill:none;stroke:#FFFFFF;stroke-width:10;stroke-linecap:round;stroke-miterlimit:10;}
	.st14{opacity:0.25;fill:none;stroke:#000000;stroke-width:10;stroke-miterlimit:10;}
</style>
<g id="background">
	<circle class="st0" cx="263.5" cy="260.9" r="193.4"/>
	<g>
		<path class="st1" d="M129.2,169.1c-2.8,0-5-2.2-5-5v-22.4c0-2.8,2.2-5,5-5s5,2.2,5,5v22.4C134.2,166.9,132,169.1,129.2,169.1z"/>
		<path class="st1" d="M140.4,157.9H118c-2.8,0-5-2.2-5-5s2.2-5,5-5h22.4c2.8,0,5,2.2,5,5S143.2,157.9,140.4,157.9z"/>
	</g>
	<g>
		<path class="st2" d="M128,289.8c-2.3,0-4.4-1.6-4.9-4l-4.4-22c-0.5-2.7,1.2-5.3,3.9-5.9c2.7-0.6,5.3,1.2,5.9,3.9l4.4,22
			c0.5,2.7-1.2,5.3-3.9,5.9C128.7,289.7,128.3,289.8,128,289.8z"/>
		<path class="st2" d="M114.8,281c-2.3,0-4.4-1.6-4.9-4c-0.5-2.7,1.2-5.3,3.9-5.9l22-4.4c2.7-0.5,5.3,1.2,5.9,3.9
			c0.5,2.7-1.2,5.3-3.9,5.9l-22,4.4C115.5,281,115.1,281,114.8,281z"/>
	</g>
	<g>
		<path class="st1" d="M399.8,361.2c-1.1,0-2.1-0.3-3.1-1c-2.2-1.7-2.6-4.8-0.9-7l13.7-17.7c1.7-2.2,4.8-2.6,7-0.9
			c2.2,1.7,2.6,4.8,0.9,7l-13.7,17.7C402.8,360.6,401.3,361.2,399.8,361.2z"/>
		<path class="st1" d="M415.5,359.2c-1.1,0-2.2-0.3-3.1-1l-17.7-13.7c-2.2-1.7-2.6-4.8-0.9-7c1.7-2.2,4.8-2.6,7-0.9l17.7,13.7
			c2.2,1.7,2.6,4.8,0.9,7C418.5,358.6,417,359.2,415.5,359.2z"/>
	</g>
	<g>
		<path class="st2" d="M279.1,76.6c-2.3,0-4.4-1.6-4.9-4l-4.4-22c-0.5-2.7,1.2-5.3,3.9-5.9c2.7-0.5,5.3,1.2,5.9,3.9l4.4,22
			c0.5,2.7-1.2,5.3-3.9,5.9C279.8,76.6,279.4,76.6,279.1,76.6z"/>
		<path class="st2" d="M265.9,67.9c-2.3,0-4.4-1.6-4.9-4c-0.5-2.7,1.2-5.3,3.9-5.9l22-4.4c2.7-0.5,5.3,1.2,5.9,3.9
			c0.5,2.7-1.2,5.3-3.9,5.9l-22,4.4C266.6,67.8,266.2,67.9,265.9,67.9z"/>
	</g>
	<path class="st2" d="M66.4,234.6c-7.4,0-13.4-6-13.4-13.4s6-13.4,13.4-13.4c7.4,0,13.4,6,13.4,13.4S73.8,234.6,66.4,234.6z
		 M66.4,217.8c-1.9,0-3.4,1.5-3.4,3.4s1.5,3.4,3.4,3.4s3.4-1.5,3.4-3.4S68.3,217.8,66.4,217.8z"/>
	<path class="st1" d="M265.7,134.3c-7.4,0-13.4-6-13.4-13.4c0-7.4,6-13.4,13.4-13.4c7.4,0,13.4,6,13.4,13.4
		C279,128.2,273,134.3,265.7,134.3z M265.7,117.5c-1.9,0-3.4,1.5-3.4,3.4c0,1.9,1.5,3.4,3.4,3.4s3.4-1.5,3.4-3.4
		C269,119,267.5,117.5,265.7,117.5z"/>
	<path class="st2" d="M160.3,103c-7.4,0-13.4-6-13.4-13.4c0-7.4,6-13.4,13.4-13.4c7.4,0,13.4,6,13.4,13.4
		C173.7,97,167.7,103,160.3,103z M160.3,86.3c-1.9,0-3.4,1.5-3.4,3.4c0,1.9,1.5,3.4,3.4,3.4s3.4-1.5,3.4-3.4
		C163.7,87.8,162.2,86.3,160.3,86.3z"/>
	<g>
		<path class="st1" d="M410.5,206.7c-1.1,0-2.2-0.3-3.1-1c-2.2-1.7-2.6-4.8-0.9-7l13.7-17.7c1.7-2.2,4.8-2.6,7-0.9
			c2.2,1.7,2.6,4.8,0.9,7l-13.7,17.7C413.4,206.1,411.9,206.7,410.5,206.7z"/>
		<path class="st1" d="M426.2,204.8c-1.1,0-2.2-0.3-3.1-1L405.4,190c-2.2-1.7-2.6-4.8-0.9-7c1.7-2.2,4.8-2.6,7-0.9l17.7,13.7
			c2.2,1.7,2.6,4.8,0.9,7C429.1,204.1,427.7,204.8,426.2,204.8z"/>
	</g>
	<path class="st1" d="M117.6,382.4c-7.4,0-13.4-6-13.4-13.4c0-7.4,6-13.4,13.4-13.4c7.4,0,13.4,6,13.4,13.4
		C131,376.4,125,382.4,117.6,382.4z M117.6,365.7c-1.9,0-3.4,1.5-3.4,3.4c0,1.9,1.5,3.4,3.4,3.4s3.4-1.5,3.4-3.4
		C121,367.2,119.4,365.7,117.6,365.7z"/>
	<path class="st2" d="M377.6,286.5c-7.4,0-13.4-6-13.4-13.4s6-13.4,13.4-13.4c7.4,0,13.4,6,13.4,13.4S384.9,286.5,377.6,286.5z
		 M377.6,269.8c-1.9,0-3.4,1.5-3.4,3.4s1.5,3.4,3.4,3.4s3.4-1.5,3.4-3.4S379.4,269.8,377.6,269.8z"/>
</g>
<path id="shock_x5F_color" class="st3" d="M306.2,148.5H190.3c-12,0-21.7,9.7-21.7,21.7v201.4c0,12,9.7,21.7,21.7,21.7h115.9
	c12,0,21.7-9.7,21.7-21.7V170.2C327.9,158.2,318.2,148.5,306.2,148.5z"/>
<g id="color">
	<path class="st4" d="M302.3,200.8h-2.7c-3.6,0-6.5-2.9-6.5-6.5v-2.7c0-3.6,2.9-6.5,6.5-6.5h2.7c3.6,0,6.5,2.9,6.5,6.5v2.7
		C308.9,197.9,305.9,200.8,302.3,200.8z"/>
	<path class="st4" d="M280.7,284.6h-73.1c-3.9,0-7,3.1-7,7v32.3c0,17.7,14.3,32,32,32h23.2c17.7,0,32-14.3,32-32v-32.3
		C287.7,287.7,284.6,284.6,280.7,284.6z"/>
</g>
<g id="lines">
	<line class="st5" x1="477.8" y1="400.7" x2="459.6" y2="400.7"/>
	<line class="st5" x1="443.5" y1="400.2" x2="82.8" y2="400.2"/>
	<line class="st5" x1="65.7" y1="400.7" x2="47.5" y2="400.7"/>
	<g>
		<path class="st6" d="M377.8,159.3c-0.3-33.7-27.9-60.7-61.5-60.4"/>
		<path class="st6" d="M363.4,159.5c-0.2-25.5-21.1-45.9-46.5-45.7"/>
		<path class="st6" d="M349.1,159.6c-0.2-17.6-14.5-31.7-32.1-31.5"/>
	</g>
	<path class="st6" d="M190.3,241.2c-12,0-21.7,9.7-21.7,21.7v89.5c0,12,9.7,21.7,21.7,21.7h115.9c12,0,21.7-9.7,21.7-21.7v-89.5
		c0-12-9.7-21.7-21.7-21.7l-50.5,20.1c-5.7,2.2-12,2.2-17.6-0.1L190.3,241.2z"/>
	<line class="st7" x1="187.6" y1="221.1" x2="228.2" y2="221.1"/>
	<line class="st7" x1="187.6" y1="203.5" x2="228.2" y2="203.5"/>
	<line class="st7" x1="187.6" y1="186" x2="228.2" y2="186"/>
	<path class="st5" d="M287.7,332c10.2,0,18.5-8.3,18.5-18.5c0-10.2-8.3-18.5-18.5-18.5"/>
	<path class="st8" d="M302.3,200.8h-2.7c-3.6,0-6.5-2.9-6.5-6.5v-2.7c0-3.6,2.9-6.5,6.5-6.5h2.7c3.6,0,6.5,2.9,6.5,6.5v2.7
		C308.9,197.9,305.9,200.8,302.3,200.8z"/>
	<path class="st9" d="M280.7,284.6h-73.1c-3.9,0-7,3.1-7,7v32.3c0,17.7,14.3,32,32,32h23.2c17.7,0,32-14.3,32-32v-32.3
		C287.7,287.7,284.6,284.6,280.7,284.6z"/>
	<path class="st8" d="M306.2,148.5H190.3c-12,0-21.7,9.7-21.7,21.7v201.4c0,12,9.7,21.7,21.7,21.7h115.9c12,0,21.7-9.7,21.7-21.7
		V170.2C327.9,158.2,318.2,148.5,306.2,148.5z"/>
</g>
<g id="shadows-lights">
	<path class="st10" d="M306.2,241.2l-50.5,20.1c-5.7,2.3-12,2.2-17.6-0.1l-47.8-19.9c-12,0-21.8,9.7-21.8,21.8v89.5
		c0,12,9.7,21.7,21.8,21.7h115.9c12,0,21.8-9.7,21.8-21.7v-89.5C327.9,250.9,318.2,241.2,306.2,241.2z M287.8,323.9
		c0,17.7-14.3,32-32,32h-23.2c-17.7,0-32-14.3-32-32v-32.3c0-3.9,3.1-7,7-7h73.1c3.9,0,7,3.1,7,7V323.9z"/>
	<g>
		<line class="st11" x1="413.3" y1="412.4" x2="113.4" y2="412.4"/>
		<path class="st12" d="M308.9,197.8v1.5c0,4-3.2,7.2-7.2,7.2h-1.5c-4,0-7.2-3.2-7.2-7.2v-1.5"/>
		<line class="st13" x1="300.9" y1="163.2" x2="217.9" y2="163.2"/>
		<line class="st13" x1="268.6" y1="303.8" x2="268.6" y2="332"/>
		<path class="st14" d="M168.5,367.8c0,10.6,8.6,19.1,19.1,19.1h121.2c10.6,0,19.1-8.6,19.1-19.1"/>
	</g>
</g>
</svg>
