<?xml version="1.0" encoding="utf-8"?>
<!-- Generator: Adobe Illustrator 21.0.0, SVG Export Plug-In . SVG Version: 6.00 Build 0)  -->
<svg version="1.1" id="Layer_1" xmlns="http://www.w3.org/2000/svg" xmlns:xlink="http://www.w3.org/1999/xlink" x="0px" y="0px"
	 viewBox="0 0 512 512" style="enable-background:new 0 0 512 512;" xml:space="preserve">
<style type="text/css">
	.st0{opacity:0.25;fill:#95A2AC;}
	.st1{fill:#FFD54F;}
	.st2{fill:#95A2AC;}
	.st3{fill:#B3BDC3;}
	.st4{opacity:0.25;fill:none;stroke:#000000;stroke-width:10;stroke-linecap:round;stroke-miterlimit:10;}
	.st5{opacity:0.25;fill:none;stroke:#6F6F6F;stroke-width:15;stroke-linecap:round;stroke-miterlimit:10;}
	.st6{opacity:0.25;fill:none;stroke:#000000;stroke-width:10;stroke-linecap:round;stroke-linejoin:round;stroke-miterlimit:10;}
	.st7{opacity:0.75;fill:#FFFFFF;stroke:#FFFFFF;stroke-width:10;stroke-linecap:round;stroke-linejoin:round;stroke-miterlimit:10;}
	.st8{fill:none;stroke:#000000;stroke-width:10;stroke-linecap:round;stroke-linejoin:round;stroke-miterlimit:10;}
</style>
<g id="background">
	<circle class="st0" cx="251.1" cy="284" r="193.4"/>
	<path class="st1" d="M326.7,154.5c-7.4,0-13.4-6-13.4-13.4c0-7.4,6-13.4,13.4-13.4c7.4,0,13.4,6,13.4,13.4
		C340.1,148.5,334.1,154.5,326.7,154.5z M326.7,137.7c-1.9,0-3.4,1.5-3.4,3.4s1.5,3.4,3.4,3.4c1.9,0,3.4-1.5,3.4-3.4
		S328.6,137.7,326.7,137.7z"/>
	<g>
		<path class="st1" d="M331,88.4c-1.4,0-2.7-0.6-3.7-1.7l-15-16.7c-1.8-2.1-1.7-5.2,0.4-7.1c2.1-1.8,5.2-1.7,7.1,0.4l15,16.7
			c1.8,2.1,1.7,5.2-0.4,7.1C333.4,88,332.2,88.4,331,88.4z"/>
		<path class="st1" d="M315.2,87.6c-1.4,0-2.7-0.6-3.7-1.7c-1.8-2.1-1.7-5.2,0.4-7.1l16.7-15c2.1-1.8,5.2-1.7,7.1,0.4
			c1.8,2.1,1.7,5.2-0.4,7.1l-16.7,15C317.6,87.2,316.4,87.6,315.2,87.6z"/>
	</g>
	<g>
		<path class="st2" d="M436.5,160.2c-2.3,0-4.4-1.6-4.9-4l-4.4-22c-0.5-2.7,1.2-5.3,3.9-5.9c2.7-0.5,5.3,1.2,5.9,3.9l4.4,22
			c0.5,2.7-1.2,5.3-3.9,5.9C437.1,160.1,436.8,160.2,436.5,160.2z"/>
		<path class="st2" d="M423.3,151.4c-2.3,0-4.4-1.6-4.9-4c-0.5-2.7,1.2-5.3,3.9-5.9l22-4.4c2.7-0.5,5.3,1.2,5.9,3.9
			c0.5,2.7-1.2,5.3-3.9,5.9l-22,4.4C423.9,151.4,423.6,151.4,423.3,151.4z"/>
	</g>
	<g>
		<path class="st2" d="M58.4,338.3c-2.3,0-4.4-1.6-4.9-4l-4.4-22c-0.5-2.7,1.2-5.3,3.9-5.9c2.7-0.5,5.3,1.2,5.9,3.9l4.4,22
			c0.5,2.7-1.2,5.3-3.9,5.9C59.1,338.3,58.7,338.3,58.4,338.3z"/>
		<path class="st2" d="M45.2,329.5c-2.3,0-4.4-1.6-4.9-4c-0.5-2.7,1.2-5.3,3.9-5.9l22-4.4c2.7-0.5,5.3,1.2,5.9,3.9
			c0.5,2.7-1.2,5.3-3.9,5.9l-22,4.4C45.9,329.5,45.5,329.5,45.2,329.5z"/>
	</g>
	<g>
		<path class="st2" d="M175.2,154.5c-0.5,0-1-0.1-1.5-0.2c-2.6-0.8-4.1-3.6-3.3-6.3l6.6-21.4c0.8-2.6,3.6-4.1,6.3-3.3
			c2.6,0.8,4.1,3.6,3.3,6.3L180,151C179.3,153.1,177.3,154.5,175.2,154.5z"/>
		<path class="st2" d="M189.2,147.1c-0.5,0-1-0.1-1.5-0.2l-21.4-6.6c-2.6-0.8-4.1-3.6-3.3-6.3c0.8-2.6,3.6-4.1,6.3-3.3l21.4,6.6
			c2.6,0.8,4.1,3.6,3.3,6.3C193.3,145.7,191.4,147.1,189.2,147.1z"/>
	</g>
	<path class="st2" d="M225.5,81c-7.4,0-13.4-6-13.4-13.4c0-7.4,6-13.4,13.4-13.4s13.4,6,13.4,13.4C238.9,75,232.9,81,225.5,81z
		 M225.5,64.2c-1.9,0-3.4,1.5-3.4,3.4s1.5,3.4,3.4,3.4s3.4-1.5,3.4-3.4S227.4,64.2,225.5,64.2z"/>
	<path class="st1" d="M56.2,210.1c-7.4,0-13.4-6-13.4-13.4c0-7.4,6-13.4,13.4-13.4c7.4,0,13.4,6,13.4,13.4
		C69.6,204.1,63.6,210.1,56.2,210.1z M56.2,193.3c-1.9,0-3.4,1.5-3.4,3.4s1.5,3.4,3.4,3.4c1.9,0,3.4-1.5,3.4-3.4
		S58.1,193.3,56.2,193.3z"/>
	<g>
		<path class="st1" d="M92.9,134.9c-0.5,0-0.9-0.1-1.4-0.2c-2.7-0.8-4.2-3.5-3.4-6.2l6.2-21.6c0.8-2.7,3.5-4.2,6.2-3.4
			c2.7,0.8,4.2,3.5,3.4,6.2l-6.2,21.6C97,133.4,95,134.9,92.9,134.9z"/>
		<path class="st1" d="M106.7,127.2c-0.5,0-0.9-0.1-1.4-0.2l-21.5-6.2c-2.7-0.8-4.2-3.5-3.4-6.2c0.8-2.7,3.5-4.2,6.2-3.4l21.5,6.2
			c2.7,0.8,4.2,3.5,3.4,6.2C110.9,125.7,108.9,127.2,106.7,127.2z"/>
	</g>
	<g>
		<path class="st1" d="M472.4,248.5c-0.5,0-0.9-0.1-1.4-0.2c-2.7-0.8-4.2-3.5-3.4-6.2l6.2-21.6c0.8-2.7,3.5-4.2,6.2-3.4
			c2.7,0.8,4.2,3.5,3.4,6.2l-6.2,21.6C476.6,247,474.6,248.5,472.4,248.5z"/>
		<path class="st1" d="M486.3,240.8c-0.5,0-0.9-0.1-1.4-0.2l-21.5-6.2c-2.7-0.8-4.2-3.5-3.4-6.2c0.8-2.7,3.5-4.2,6.2-3.4l21.5,6.2
			c2.7,0.8,4.2,3.5,3.4,6.2C490.4,239.3,488.4,240.8,486.3,240.8z"/>
	</g>
</g>
<path id="shock_x5F_color" class="st3" d="M275.9,171.3H119.3c-12,0-21.7,9.7-21.7,21.7v85.6c0,12,9.7,21.7,21.7,21.7h29
	c-1.7,9.3-7.6,25.6-28.4,36.6c0,0,41.8-1.6,71.1-36.6h85c12,0,21.7-9.7,21.7-21.7v-85.6C297.6,181,287.9,171.3,275.9,171.3z"/>
<g id="shadows-lights">
	<line class="st4" x1="275.9" y1="310.1" x2="206.2" y2="310.1"/>
	<g>
		<line class="st5" x1="404.9" y1="422.8" x2="95.4" y2="422.8"/>
		<path class="st6" d="M325.6,364.5c-1.5-3.7-2.4-7.1-2.9-9.8h60.1c12,0,21.7-9.7,21.7-21.7"/>
		<path class="st6" d="M204.5,333c0,12,9.7,21.7,21.7,21.7h56.6c16.9,20.2,38,29.3,52.8,33.3"/>
		<path class="st6" d="M139.7,323.1c14.7-4.3,34.9-13.4,51.2-32.9h85c12,0,21.7-9.7,21.7-21.7"/>
		<path class="st6" d="M97.6,268.6c0,12,9.7,21.7,21.7,21.7h31.4c-0.4,2.2-1,4.7-2,7.5"/>
		<polygon class="st7" points="385.3,252.9 377.6,252.9 309,252.9 		"/>
		<polygon class="st7" points="278.4,188.3 262,188.3 116.8,188.3 		"/>
	</g>
</g>
<g id="lines">
	<line class="st8" x1="479.1" y1="411.2" x2="459.7" y2="411.2"/>
	<line class="st8" x1="42.5" y1="411.2" x2="23.1" y2="411.2"/>
	<line class="st8" x1="433.7" y1="410.7" x2="66.3" y2="410.7"/>
	<path class="st8" d="M204.5,301.7V343c0,12,9.7,21.7,21.7,21.7h56.6c29.3,34.9,71.1,36.6,71.1,36.6c-20.9-11-26.7-27.3-28.4-36.6
		h57.4c12,0,21.7-9.7,21.7-21.7v-85.6c0-12-9.7-21.7-21.7-21.7H299"/>
	<path class="st8" d="M275.9,171.3H119.3c-12,0-21.7,9.7-21.7,21.7v85.6c0,12,9.7,21.7,21.7,21.7h29c-1.7,9.3-7.6,25.6-28.4,36.6
		c0,0,41.8-1.6,71.1-36.6h85c12,0,21.7-9.7,21.7-21.7v-85.6C297.6,181,287.9,171.3,275.9,171.3z"/>
	<line class="st8" x1="116.8" y1="213.6" x2="234.7" y2="213.6"/>
	<line class="st8" x1="116.8" y1="233.6" x2="274.7" y2="233.6"/>
	<line class="st8" x1="116.8" y1="253.6" x2="214.7" y2="253.6"/>
	<line class="st8" x1="270.1" y1="336.8" x2="388" y2="336.8"/>
	<line class="st8" x1="310.1" y1="316.8" x2="388" y2="316.8"/>
</g>
</svg>
