<?xml version="1.0" encoding="utf-8"?>
<!-- Generator: Adobe Illustrator 21.0.0, SVG Export Plug-In . SVG Version: 6.00 Build 0)  -->
<svg version="1.1" id="Layer_1" xmlns="http://www.w3.org/2000/svg" xmlns:xlink="http://www.w3.org/1999/xlink" x="0px" y="0px"
	 viewBox="0 0 512 512" style="enable-background:new 0 0 512 512;" xml:space="preserve">
<style type="text/css">
	.st0{opacity:0.25;fill:#95A2AC;}
	.st1{fill:#FFD54F;}
	.st2{fill:#95A2AC;}
	.st3{fill:#B3BDC3;}
	.st4{fill:#1DE9B6;}
	.st5{opacity:0.25;}
	.st6{fill:#222221;}
	.st7{opacity:0.25;fill:none;stroke:#6F6F6F;stroke-width:15;stroke-linecap:round;stroke-miterlimit:10;}
	.st8{opacity:0.25;fill:none;stroke:#000000;stroke-width:10;stroke-linecap:round;stroke-miterlimit:10;}
	.st9{opacity:0.75;fill:#FFFFFF;stroke:#FFFFFF;stroke-width:10;stroke-linecap:round;stroke-miterlimit:10;}
	.st10{fill:none;stroke:#000000;stroke-width:10;stroke-linecap:round;stroke-linejoin:round;stroke-miterlimit:10;}
	.st11{fill:none;stroke:#000000;stroke-width:10;stroke-miterlimit:10;}
</style>
<g id="background">
	<circle class="st0" cx="256" cy="268.9" r="193.4"/>
	<g>
		<path class="st1" d="M310.6,128.7c-7.4,0-13.4-6-13.4-13.4c0-7.4,6-13.4,13.4-13.4s13.4,6,13.4,13.4
			C324,122.7,318,128.7,310.6,128.7z M310.6,111.9c-1.9,0-3.4,1.5-3.4,3.4s1.5,3.4,3.4,3.4s3.4-1.5,3.4-3.4S312.5,111.9,310.6,111.9
			z"/>
		<g>
			<path class="st1" d="M110.6,237.3c-2.8,0-5-2.2-5-5v-22.4c0-2.8,2.2-5,5-5s5,2.2,5,5v22.4C115.6,235,113.4,237.3,110.6,237.3z"/>
			<path class="st1" d="M121.8,226.1H99.4c-2.8,0-5-2.2-5-5s2.2-5,5-5h22.4c2.8,0,5,2.2,5,5S124.6,226.1,121.8,226.1z"/>
		</g>
		<g>
			<path class="st2" d="M405.1,128.7c-0.3,0-0.7,0-1-0.1c-2.7-0.5-4.5-3.2-3.9-5.9l4.4-22c0.5-2.7,3.2-4.5,5.9-3.9
				c2.7,0.5,4.5,3.2,3.9,5.9l-4.4,22C409.5,127,407.4,128.7,405.1,128.7z"/>
			<path class="st2" d="M418.3,119.9c-0.3,0-0.7,0-1-0.1l-22-4.4c-2.7-0.5-4.5-3.2-3.9-5.9c0.5-2.7,3.2-4.5,5.9-3.9l22,4.4
				c2.7,0.5,4.5,3.2,3.9,5.9C422.7,118.3,420.6,119.9,418.3,119.9z"/>
		</g>
		<g>
			<path class="st2" d="M242.8,67.7c-0.3,0-0.7,0-1-0.1c-2.7-0.5-4.5-3.2-3.9-5.9l4.4-22c0.5-2.7,3.2-4.5,5.9-3.9
				c2.7,0.5,4.5,3.2,3.9,5.9l-4.4,22C247.2,66.1,245.1,67.7,242.8,67.7z"/>
			<path class="st2" d="M256,58.9c-0.3,0-0.7,0-1-0.1l-22-4.4c-2.7-0.5-4.5-3.2-3.9-5.9c0.5-2.7,3.2-4.5,5.9-3.9l22,4.4
				c2.7,0.5,4.5,3.2,3.9,5.9C260.4,57.3,258.3,58.9,256,58.9z"/>
		</g>
		<g>
			<path class="st2" d="M162.4,179.3c-2.1,0-4.1-1.4-4.8-3.5l-6.6-21.4c-0.8-2.6,0.7-5.4,3.3-6.3c2.6-0.8,5.4,0.7,6.3,3.3l6.6,21.4
				c0.8,2.6-0.7,5.4-3.3,6.3C163.4,179.3,162.9,179.3,162.4,179.3z"/>
			<path class="st2" d="M148.4,171.9c-2.1,0-4.1-1.4-4.8-3.5c-0.8-2.6,0.7-5.4,3.3-6.3l21.4-6.6c2.6-0.8,5.4,0.7,6.3,3.3
				c0.8,2.6-0.7,5.4-3.3,6.3l-21.4,6.6C149.4,171.9,148.9,171.9,148.4,171.9z"/>
		</g>
		<path class="st2" d="M88.5,128.7c-7.4,0-13.4-6-13.4-13.4c0-7.4,6-13.4,13.4-13.4s13.4,6,13.4,13.4
			C101.8,122.7,95.8,128.7,88.5,128.7z M88.5,111.9c-1.9,0-3.4,1.5-3.4,3.4s1.5,3.4,3.4,3.4s3.4-1.5,3.4-3.4S90.3,111.9,88.5,111.9z
			"/>
		<path class="st1" d="M367.5,223.2c-7.4,0-13.4-6-13.4-13.4c0-7.4,6-13.4,13.4-13.4s13.4,6,13.4,13.4
			C380.9,217.2,374.9,223.2,367.5,223.2z M367.5,206.5c-1.9,0-3.4,1.5-3.4,3.4s1.5,3.4,3.4,3.4s3.4-1.5,3.4-3.4
			S369.4,206.5,367.5,206.5z"/>
		<g>
			<path class="st1" d="M211.5,129.3c-1.5,0-3-0.7-4-2l-13.4-18c-1.6-2.2-1.2-5.3,1-7c2.2-1.6,5.3-1.2,7,1l13.4,18
				c1.6,2.2,1.2,5.3-1,7C213.6,129,212.6,129.3,211.5,129.3z"/>
			<path class="st1" d="M195.8,127c-1.5,0-3-0.7-4-2c-1.6-2.2-1.2-5.3,1-7l18-13.4c2.2-1.6,5.3-1.2,7,1c1.6,2.2,1.2,5.3-1,7
				l-18,13.4C197.9,126.7,196.9,127,195.8,127z"/>
		</g>
	</g>
</g>
<path id="shock_x5F_color" class="st3" d="M338.9,257.6h-8.3v-95.6c0-8.8-7.1-15.9-15.9-15.9c-8.8,0-15.9,7.1-15.9,15.9v95.6h-77.5
	v-95.6c0-8.8-7.1-15.9-15.9-15.9c-8.8,0-15.9,7.1-15.9,15.9v95.6h-10.2c-5.2,0-9.4,4.2-9.4,9.4v20.7c0,5.2,4.2,9.4,9.4,9.4h159.8
	c5.2,0,9.4-4.2,9.4-9.4V267C348.3,261.8,344.1,257.6,338.9,257.6z"/>
<path id="color" class="st4" d="M288.4,424h-58.7c-24.1,0-43.7-19.6-43.7-43.7v-83.2h146.1v83.2C332.1,404.4,312.5,424,288.4,424z"
	/>
<g id="shadows-lights">
	<g class="st5">
		<path class="st6" d="M330.6,257.6v-95.6c0-8.8-7.1-15.9-15.9-15.9c-8.8,0-15.9,7.1-15.9,15.9v95.6H330.6z"/>
	</g>
	<g class="st5">
		<path class="st6" d="M221.2,257.6v-95.6c0-8.8-7.1-15.9-15.9-15.9c-8.8,0-15.9,7.1-15.9,15.9v95.6H221.2z"/>
	</g>
	<line class="st7" x1="330.6" y1="443.3" x2="184.1" y2="443.3"/>
	<line class="st8" x1="332.1" y1="306.2" x2="186" y2="306.2"/>
	<line class="st9" x1="332.1" y1="272.2" x2="186" y2="272.2"/>
	<path class="st8" d="M332.1,372.6c0,24.1-19.6,43.7-43.7,43.7h-58.7c-24.1,0-43.7-19.6-43.7-43.7"/>
	<line class="st9" x1="318.3" y1="186.5" x2="318.3" y2="163.6"/>
	<line class="st9" x1="208.9" y1="186.5" x2="208.9" y2="163.6"/>
</g>
<g id="lines">
	<line class="st10" x1="420" y1="431.7" x2="407.3" y2="431.7"/>
	<line class="st10" x1="383.4" y1="431.1" x2="131.6" y2="431.1"/>
	<line class="st10" x1="109.6" y1="431.7" x2="96.8" y2="431.7"/>
	<path class="st11" d="M225,163.6"/>
	<g>
		<path class="st11" d="M330.6,257.6v-95.6c0-8.8-7.1-15.9-15.9-15.9c-8.8,0-15.9,7.1-15.9,15.9v95.6H330.6z"/>
	</g>
	<g>
		<path class="st11" d="M221.2,257.6v-95.6c0-8.8-7.1-15.9-15.9-15.9c-8.8,0-15.9,7.1-15.9,15.9v95.6H221.2z"/>
	</g>
	<path class="st11" d="M338.9,297.1H179.2c-5.2,0-9.4-4.2-9.4-9.4V267c0-5.2,4.2-9.4,9.4-9.4h159.8c5.2,0,9.4,4.2,9.4,9.4v20.7
		C348.3,292.9,344.1,297.1,338.9,297.1z"/>
	<path class="st11" d="M288.4,424h-58.7c-24.1,0-43.7-19.6-43.7-43.7v-83.2h146.1v83.2C332.1,404.4,312.5,424,288.4,424z"/>
	<line class="st10" x1="310.4" y1="379.4" x2="290.2" y2="399.6"/>
	<line class="st10" x1="293" y1="379.4" x2="272.8" y2="399.6"/>
	<line class="st10" x1="276.2" y1="379.4" x2="256" y2="399.6"/>
</g>
</svg>
