<?xml version="1.0" encoding="utf-8"?>
<!-- Generator: Adobe Illustrator 21.0.0, SVG Export Plug-In . SVG Version: 6.00 Build 0)  -->
<svg version="1.1" id="Layer_1" xmlns="http://www.w3.org/2000/svg" xmlns:xlink="http://www.w3.org/1999/xlink" x="0px" y="0px"
	 viewBox="0 0 512 512" style="enable-background:new 0 0 512 512;" xml:space="preserve">
<style type="text/css">
	.st0{opacity:0.25;fill:#95A2AC;}
	.st1{fill:#FFD54F;}
	.st2{fill:#95A2AC;}
	.st3{fill:#FFCCBC;}
	.st4{fill:none;stroke:#000000;stroke-width:10;stroke-linecap:round;stroke-linejoin:round;stroke-miterlimit:10;}
	.st5{fill:none;stroke:#000000;stroke-width:10;stroke-linecap:round;stroke-miterlimit:10;}
	.st6{fill:none;stroke:#000000;stroke-width:10;stroke-miterlimit:10;}
	.st7{opacity:0.25;fill:none;stroke:#6F6F6F;stroke-width:15;stroke-linecap:round;stroke-miterlimit:10;}
	.st8{opacity:0.25;fill:none;stroke:#000000;stroke-width:10;stroke-miterlimit:10;}
	.st9{opacity:0.75;fill:none;stroke:#FFFFFF;stroke-width:10;stroke-linecap:round;stroke-miterlimit:10;}
</style>
<g id="background">
	<circle class="st0" cx="259.3" cy="260.4" r="193.4"/>
	<g>
		<path class="st1" d="M201.9,89.3c-2.8,0-5-2.2-5-5V61.9c0-2.8,2.2-5,5-5s5,2.2,5,5v22.4C206.9,87.1,204.6,89.3,201.9,89.3z"/>
		<path class="st1" d="M213.1,78.1h-22.4c-2.8,0-5-2.2-5-5s2.2-5,5-5h22.4c2.8,0,5,2.2,5,5S215.8,78.1,213.1,78.1z"/>
	</g>
	<g>
		<path class="st2" d="M441.5,256c-2.3,0-4.4-1.6-4.9-4l-4.4-22c-0.5-2.7,1.2-5.3,3.9-5.9c2.7-0.6,5.3,1.2,5.9,3.9l4.4,22
			c0.5,2.7-1.2,5.3-3.9,5.9C442.2,256,441.9,256,441.5,256z"/>
		<path class="st2" d="M428.3,247.3c-2.3,0-4.4-1.6-4.9-4c-0.5-2.7,1.2-5.3,3.9-5.9l22-4.4c2.7-0.5,5.3,1.2,5.9,3.9
			c0.5,2.7-1.2,5.3-3.9,5.9l-22,4.4C429,247.2,428.7,247.3,428.3,247.3z"/>
	</g>
	<g>
		<path class="st1" d="M402.2,340.2c-1.1,0-2.2-0.3-3.1-1c-2.2-1.7-2.6-4.8-0.9-7l13.7-17.7c1.7-2.2,4.8-2.6,7-0.9
			c2.2,1.7,2.6,4.8,0.9,7l-13.7,17.7C405.2,339.5,403.7,340.2,402.2,340.2z"/>
		<path class="st1" d="M418,338.2c-1.1,0-2.2-0.3-3.1-1l-17.7-13.7c-2.2-1.7-2.6-4.8-0.9-7c1.7-2.2,4.8-2.6,7-0.9l17.7,13.7
			c2.2,1.7,2.6,4.8,0.9,7C420.9,337.6,419.5,338.2,418,338.2z"/>
	</g>
	<g>
		<path class="st2" d="M80.8,253.8c-2.3,0-4.4-1.6-4.9-4l-4.4-22c-0.5-2.7,1.2-5.3,3.9-5.9c2.7-0.5,5.3,1.2,5.9,3.9l4.4,22
			c0.5,2.7-1.2,5.3-3.9,5.9C81.5,253.8,81.2,253.8,80.8,253.8z"/>
		<path class="st2" d="M67.6,245c-2.3,0-4.4-1.6-4.9-4c-0.5-2.7,1.2-5.3,3.9-5.9l22-4.4c2.7-0.5,5.3,1.2,5.9,3.9
			c0.5,2.7-1.2,5.3-3.9,5.9l-22,4.4C68.3,245,68,245,67.6,245z"/>
	</g>
	<path class="st2" d="M98,179.8c-7.4,0-13.4-6-13.4-13.4s6-13.4,13.4-13.4c7.4,0,13.4,6,13.4,13.4S105.4,179.8,98,179.8z M98,163.1
		c-1.9,0-3.4,1.5-3.4,3.4s1.5,3.4,3.4,3.4s3.4-1.5,3.4-3.4S99.9,163.1,98,163.1z"/>
	<path class="st1" d="M151.4,135.6c-7.4,0-13.4-6-13.4-13.4s6-13.4,13.4-13.4c7.4,0,13.4,6,13.4,13.4S158.7,135.6,151.4,135.6z
		 M151.4,118.9c-1.9,0-3.4,1.5-3.4,3.4s1.5,3.4,3.4,3.4s3.4-1.5,3.4-3.4S153.2,118.9,151.4,118.9z"/>
	<path class="st2" d="M303.5,86.5c-7.4,0-13.4-6-13.4-13.4s6-13.4,13.4-13.4c7.4,0,13.4,6,13.4,13.4S310.8,86.5,303.5,86.5z
		 M303.5,69.7c-1.9,0-3.4,1.5-3.4,3.4s1.5,3.4,3.4,3.4s3.4-1.5,3.4-3.4S305.3,69.7,303.5,69.7z"/>
	<g>
		<path class="st1" d="M362.4,127.2c-1.1,0-2.2-0.3-3.1-1c-2.2-1.7-2.6-4.8-0.9-7l13.7-17.7c1.7-2.2,4.8-2.6,7-0.9
			c2.2,1.7,2.6,4.8,0.9,7l-13.7,17.7C365.4,126.6,363.9,127.2,362.4,127.2z"/>
		<path class="st1" d="M378.1,125.3c-1.1,0-2.2-0.3-3.1-1l-17.7-13.7c-2.2-1.7-2.6-4.8-0.9-7s4.8-2.6,7-0.9l17.7,13.7
			c2.2,1.7,2.6,4.8,0.9,7C381.1,124.6,379.6,125.3,378.1,125.3z"/>
	</g>
	<path class="st1" d="M109.2,310.4c-7.4,0-13.4-6-13.4-13.4c0-7.4,6-13.4,13.4-13.4c7.4,0,13.4,6,13.4,13.4
		C122.6,304.4,116.6,310.4,109.2,310.4z M109.2,293.6c-1.9,0-3.4,1.5-3.4,3.4c0,1.9,1.5,3.4,3.4,3.4s3.4-1.5,3.4-3.4
		C112.6,295.2,111.1,293.6,109.2,293.6z"/>
	<path class="st2" d="M400.3,197.8c-7.4,0-13.4-6-13.4-13.4c0-7.4,6-13.4,13.4-13.4c7.4,0,13.4,6,13.4,13.4
		C413.7,191.8,407.6,197.8,400.3,197.8z M400.3,181c-1.9,0-3.4,1.5-3.4,3.4c0,1.9,1.5,3.4,3.4,3.4s3.4-1.5,3.4-3.4
		C403.7,182.5,402.1,181,400.3,181z"/>
</g>
<path id="shock_x5F_color" class="st3" d="M259.8,117.3L259.8,117.3c-59.4,0-107.5,48.1-107.5,107.5v152.9c0,9.4,7.6,17.1,17.1,17.1
	h180.8c9.4,0,17.1-7.6,17.1-17.1V224.8C367.3,165.4,319.1,117.3,259.8,117.3z"/>
<g id="lines">
	<line class="st4" x1="473.6" y1="400.2" x2="455.4" y2="400.2"/>
	<line class="st4" x1="439.3" y1="399.6" x2="78.6" y2="399.6"/>
	<line class="st4" x1="61.5" y1="400.2" x2="43.3" y2="400.2"/>
	<path class="st5" d="M188.8,273c-1.3-3.5-2.4-7-3.4-10.7c-1-3.9-1.7-7.9-2.2-12c-0.5-4.1-0.8-8.3-0.8-12.5c0-5.1,0.4-10,1.1-14.9
		c0.8-5.3,2-10.4,3.5-15.3c1.6-4.9,3.5-9.6,5.7-14.1c2-3.9,4.2-7.7,6.7-11.2c3.2-4.6,6.8-8.8,10.7-12.5c5.2-5,11-9.2,17.2-12.4
		c1.5-0.8,3.1-1.6,4.7-2.3c3.9-1.7,8-3.1,12.2-4.1c5-1.2,10.2-1.8,15.5-1.8c6,0,11.8,0.8,17.3,2.2c4.2,1.1,8.2,2.6,12.1,4.4
		c5.1,2.4,9.9,5.4,14.3,8.9"/>
	<path class="st5" d="M322.6,186.3c2.6,4.2,4.9,8.7,6.9,13.4c1.1,2.6,2.1,5.3,2.9,8.1c1.4,4.6,2.6,9.3,3.3,14.2
		c0.8,5.2,1.2,10.5,1.2,15.9c0,4.6-0.3,9.1-0.9,13.5c-0.8,5.8-2,11.4-3.7,16.7c-1.7,5.4-3.8,10.5-6.4,15.3
		c-1.9,3.7-4.1,7.2-6.5,10.6c-3.9,5.4-8.3,10.3-13.2,14.5c-4.4,3.8-9.1,7.1-14.2,9.8c-2,1-4,2-6,2.8c-4,1.7-8.1,3-12.4,3.9
		c-4.5,1-9.2,1.5-14,1.5c-4.7,0-9.4-0.5-13.9-1.4c-4.5-0.9-8.9-2.3-13.1-4.1c-4.2-1.8-8.2-4-12.1-6.5c-3.9-2.6-7.7-5.7-11.1-9.1"/>
	<path class="st5" d="M219.8,183c4.2-4,8.8-7.4,13.8-10c1.2-0.7,2.5-1.3,3.8-1.8c3.2-1.4,6.4-2.5,9.8-3.3c4-0.9,8.2-1.4,12.5-1.4
		c4.8,0,9.5,0.6,14,1.8c3.4,0.9,6.6,2.1,9.7,3.5c4.1,1.9,7.9,4.3,11.5,7.2c2.5,2,4.9,4.2,7.2,6.6c3.1,3.3,5.8,6.9,8.3,10.8
		c2.1,3.4,4,7,5.6,10.8c0.9,2.1,1.7,4.3,2.4,6.5c1.2,3.7,2.1,7.5,2.7,11.4c0.7,4.2,1,8.5,1,12.8c0,3.7-0.2,7.3-0.7,10.9
		c-0.6,4.7-1.6,9.2-3,13.5c-1.4,4.3-3.1,8.5-5.1,12.4"/>
	<path class="st5" d="M297.4,294.8c-3.5,3.1-7.4,5.7-11.4,7.9c-1.6,0.8-3.2,1.6-4.8,2.3c-3.2,1.3-6.6,2.4-10,3.1
		c-3.7,0.8-7.4,1.2-11.3,1.2c-3.8,0-7.5-0.4-11.2-1.1c-3.6-0.8-7.2-1.9-10.6-3.3c-3.4-1.4-6.6-3.2-9.7-5.3c-3.2-2.1-6.2-4.6-9-7.3
		c-3.5-3.4-6.6-7.2-9.4-11.4c-2.9-4.5-5.4-9.3-7.4-14.5c-1.1-2.8-2-5.7-2.7-8.6c-0.8-3.1-1.4-6.4-1.8-9.7c-0.4-3.3-0.6-6.7-0.6-10.1
		c0-4.1,0.3-8.1,0.9-12c0.6-4.2,1.6-8.4,2.8-12.3c1.3-4,2.8-7.8,4.6-11.4"/>
	<path class="st5" d="M216.9,259.1c-0.8-2.1-1.5-4.2-2-6.5c-0.6-2.3-1-4.8-1.3-7.2c-0.3-2.5-0.5-5-0.5-7.6c0-3.1,0.2-6.1,0.7-9
		c0.5-3.2,1.2-6.3,2.1-9.2c0.9-3,2.1-5.8,3.5-8.5c1.2-2.4,2.6-4.6,4.1-6.8c1.9-2.8,4.1-5.3,6.5-7.6c3.1-3,6.6-5.5,10.4-7.5
		c0.9-0.5,1.9-0.9,2.8-1.4c2.4-1,4.8-1.9,7.4-2.5c3-0.7,6.2-1.1,9.4-1.1c3.6,0,7.1,0.5,10.5,1.3c2.5,0.7,4.9,1.6,7.3,2.7
		c3.1,1.4,6,3.2,8.6,5.4"/>
	<path class="st5" d="M297.7,206.7c1.6,2.5,3,5.2,4.2,8.1c0.7,1.6,1.3,3.2,1.8,4.9c0.9,2.8,1.5,5.6,2,8.5c0.5,3.1,0.8,6.3,0.8,9.6
		c0,2.8-0.2,5.5-0.5,8.1c-0.5,3.5-1.2,6.9-2.2,10.1c-1,3.2-2.3,6.3-3.9,9.3c-1.2,2.2-2.5,4.4-3.9,6.4c-2.3,3.3-5,6.2-7.9,8.8
		c-2.6,2.3-5.5,4.3-8.6,5.9c-1.2,0.6-2.4,1.2-3.6,1.7c-2.4,1-4.9,1.8-7.5,2.3c-2.7,0.6-5.6,0.9-8.5,0.9c-2.9,0-5.7-0.3-8.4-0.9
		c-2.7-0.6-5.4-1.4-7.9-2.5c-2.5-1.1-5-2.4-7.3-4c-2.4-1.6-4.6-3.4-6.7-5.5"/>
	<path class="st5" d="M249.6,227c-10.6,14.4,3.5,33.9,17.1,27.6c12-5.5,17.4,8.7,5.6,14.5c-0.8,0.4-1.5,0.8-2.3,1.1
		c-1.6,0.6-3.2,1.2-4.8,1.5c-1.8,0.4-3.6,0.6-5.4,0.6c-1.8,0-3.6-0.2-5.4-0.6c-1.8-0.4-3.4-0.9-5.1-1.6c-1.6-0.7-3.2-1.5-4.7-2.5
		c-1.5-1-3-2.2-4.3-3.5c-1.7-1.6-3.2-3.5-4.5-5.5c-1.4-2.1-2.6-4.5-3.6-7c-0.5-1.3-0.9-2.7-1.3-4.2c-0.4-1.5-0.7-3.1-0.9-4.7
		c-0.2-1.6-0.3-3.2-0.3-4.9c0-2,0.1-3.9,0.4-5.8c0.3-2,0.8-4,1.4-5.9c0.6-1.9,1.4-3.7,2.2-5.5c0.8-1.5,1.6-3,2.6-4.4
		c1.2-1.8,2.6-3.4,4.2-4.9c2-1.9,4.3-3.6,6.7-4.8c0.6-0.3,1.2-0.6,1.8-0.9c1.5-0.7,3.1-1.2,4.7-1.6c1.9-0.5,4-0.7,6-0.7
		c2.3,0,4.6,0.3,6.7,0.9c1.6,0.4,3.2,1,4.7,1.7c2,0.9,3.8,2.1,5.6,3.4c1.2,1,2.4,2,3.4,3.2c1.5,1.6,2.8,3.3,4,5.2
		c1,1.6,1.9,3.4,2.7,5.2c0.4,1,0.8,2.1,1.1,3.1"/>
	<path class="st5" d="M266.3,219.1c0,0,7,12.1-2.4,20.4"/>
	<path class="st6" d="M258.9,117.3L258.9,117.3c-59.4,0-107.5,48.1-107.5,107.5v152.9c0,9.4,7.6,17.1,17.1,17.1h180.8
		c9.4,0,17.1-7.6,17.1-17.1V224.8C366.4,165.4,318.2,117.3,258.9,117.3z"/>
</g>
<g id="shadows-lights">
	<line class="st7" x1="409.1" y1="411.8" x2="109.2" y2="411.8"/>
	<path class="st8" d="M151.8,368.8c0,9.4,7.6,17.1,17.1,17.1h180.8c9.4,0,17.1-7.6,17.1-17.1"/>
	<path class="st9" d="M286.1,137.6c0,0,45.4,14.2,60.8,64.6"/>
</g>
</svg>
