<?xml version="1.0" encoding="utf-8"?>
<!-- Generator: Adobe Illustrator 21.0.0, SVG Export Plug-In . SVG Version: 6.00 Build 0)  -->
<svg version="1.1" id="Layer_1" xmlns="http://www.w3.org/2000/svg" xmlns:xlink="http://www.w3.org/1999/xlink" x="0px" y="0px"
	 viewBox="0 0 512 512" style="enable-background:new 0 0 512 512;" xml:space="preserve">
<style type="text/css">
	.st0{opacity:0.25;fill:#95A2AC;}
	.st1{fill:#FFD54F;}
	.st2{fill:#95A2AC;}
	.st3{fill:#B3BDC3;}
	.st4{fill:#1DE9B6;}
	.st5{opacity:0.25;fill:none;stroke:#6F6F6F;stroke-width:15;stroke-linecap:round;stroke-miterlimit:10;}
	.st6{opacity:0.25;}
	.st7{opacity:0.25;fill:none;stroke:#000000;stroke-width:10;stroke-miterlimit:10;}
	.st8{opacity:0.75;fill:none;stroke:#FFFFFF;stroke-width:10;stroke-linecap:round;stroke-miterlimit:10;}
	.st9{fill:none;stroke:#000000;stroke-width:10;stroke-linecap:round;stroke-miterlimit:10;}
	.st10{fill:none;stroke:#000000;stroke-width:10;stroke-linecap:round;stroke-linejoin:round;stroke-miterlimit:10;}
	.st11{fill:none;stroke:#000000;stroke-width:10;stroke-miterlimit:10;}
</style>
<g id="background">
	<circle class="st0" cx="260.1" cy="268.7" r="193.4"/>
	<path class="st1" d="M449.7,311.7c-7.4,0-13.4-6-13.4-13.4s6-13.4,13.4-13.4s13.4,6,13.4,13.4S457.1,311.7,449.7,311.7z M449.7,295
		c-1.9,0-3.4,1.5-3.4,3.4s1.5,3.4,3.4,3.4s3.4-1.5,3.4-3.4S451.6,295,449.7,295z"/>
	<g>
		<path class="st1" d="M441.4,232.3c-2.8,0-5-2.2-5-5v-22.4c0-2.8,2.2-5,5-5s5,2.2,5,5v22.4C446.4,230.1,444.1,232.3,441.4,232.3z"
			/>
		<path class="st1" d="M452.6,221.1h-22.4c-2.8,0-5-2.2-5-5s2.2-5,5-5h22.4c2.8,0,5,2.2,5,5S455.3,221.1,452.6,221.1z"/>
	</g>
	<g>
		<path class="st2" d="M280.4,134.9c-2.3,0-4.4-1.6-4.9-4l-4.4-22c-0.5-2.7,1.2-5.3,3.9-5.9c2.7-0.5,5.3,1.2,5.9,3.9l4.4,22
			c0.5,2.7-1.2,5.3-3.9,5.9C281,134.9,280.7,134.9,280.4,134.9z"/>
		<path class="st2" d="M267.2,126.1c-2.3,0-4.4-1.6-4.9-4c-0.5-2.7,1.2-5.3,3.9-5.9l22-4.4c2.7-0.5,5.3,1.2,5.9,3.9
			c0.5,2.7-1.2,5.3-3.9,5.9l-22,4.4C267.8,126.1,267.5,126.1,267.2,126.1z"/>
	</g>
	<g>
		<path class="st1" d="M306.4,73c-0.5,0-0.9-0.1-1.4-0.2c-2.7-0.8-4.2-3.5-3.4-6.2l6.2-21.6c0.8-2.7,3.5-4.2,6.2-3.4
			c2.7,0.8,4.2,3.5,3.4,6.2l-6.2,21.6C310.6,71.5,308.6,73,306.4,73z"/>
		<path class="st1" d="M320.3,65.3c-0.5,0-0.9-0.1-1.4-0.2l-21.5-6.2c-2.7-0.8-4.2-3.5-3.4-6.2c0.8-2.7,3.5-4.2,6.2-3.4l21.5,6.2
			c2.7,0.8,4.2,3.5,3.4,6.2C324.5,63.8,322.5,65.3,320.3,65.3z"/>
	</g>
	<g>
		<path class="st2" d="M109,329c-2.3,0-4.4-1.6-4.9-4l-4.4-22c-0.5-2.7,1.2-5.3,3.9-5.9c2.7-0.5,5.3,1.2,5.9,3.9l4.4,22
			c0.5,2.7-1.2,5.3-3.9,5.9C109.7,329,109.3,329,109,329z"/>
		<path class="st2" d="M95.8,320.2c-2.3,0-4.4-1.6-4.9-4c-0.5-2.7,1.2-5.3,3.9-5.9l22-4.4c2.7-0.5,5.3,1.2,5.9,3.9
			c0.5,2.7-1.2,5.3-3.9,5.9l-22,4.4C96.5,320.2,96.1,320.2,95.8,320.2z"/>
	</g>
	<g>
		<path class="st2" d="M168.7,140.4c-0.5,0-1-0.1-1.5-0.2c-2.6-0.8-4.1-3.6-3.3-6.3l6.6-21.4c0.8-2.6,3.6-4.1,6.3-3.3
			c2.6,0.8,4.1,3.6,3.3,6.3l-6.6,21.4C172.8,139,170.8,140.4,168.7,140.4z"/>
		<path class="st2" d="M182.7,133c-0.5,0-1-0.1-1.5-0.2l-21.4-6.6c-2.6-0.8-4.1-3.6-3.3-6.3c0.8-2.6,3.6-4.1,6.3-3.3l21.4,6.6
			c2.6,0.8,4.1,3.6,3.3,6.3C186.8,131.6,184.8,133,182.7,133z"/>
	</g>
	<path class="st2" d="M378.1,322.3c-7.4,0-13.4-6-13.4-13.4c0-7.4,6-13.4,13.4-13.4c7.4,0,13.4,6,13.4,13.4
		C391.5,316.3,385.5,322.3,378.1,322.3z M378.1,305.6c-1.9,0-3.4,1.5-3.4,3.4s1.5,3.4,3.4,3.4c1.9,0,3.4-1.5,3.4-3.4
		S380,305.6,378.1,305.6z"/>
	<path class="st2" d="M204.5,70.6c-7.4,0-13.4-6-13.4-13.4s6-13.4,13.4-13.4s13.4,6,13.4,13.4S211.9,70.6,204.5,70.6z M204.5,53.8
		c-1.9,0-3.4,1.5-3.4,3.4s1.5,3.4,3.4,3.4s3.4-1.5,3.4-3.4S206.4,53.8,204.5,53.8z"/>
	<path class="st1" d="M101.5,225.9c-7.4,0-13.4-6-13.4-13.4c0-7.4,6-13.4,13.4-13.4s13.4,6,13.4,13.4
		C114.9,219.9,108.9,225.9,101.5,225.9z M101.5,209.1c-1.9,0-3.4,1.5-3.4,3.4s1.5,3.4,3.4,3.4s3.4-1.5,3.4-3.4
		S103.4,209.1,101.5,209.1z"/>
	<g>
		<path class="st1" d="M81.5,143.7c-0.5,0-0.9-0.1-1.4-0.2c-2.7-0.8-4.2-3.5-3.4-6.2l6.2-21.6c0.8-2.7,3.5-4.2,6.2-3.4
			c2.7,0.8,4.2,3.5,3.4,6.2l-6.2,21.6C85.7,142.3,83.7,143.7,81.5,143.7z"/>
		<path class="st1" d="M95.4,136c-0.5,0-0.9-0.1-1.4-0.2l-21.6-6.2c-2.7-0.8-4.2-3.5-3.4-6.2c0.8-2.7,3.5-4.2,6.2-3.4l21.6,6.2
			c2.7,0.8,4.2,3.5,3.4,6.2C99.5,134.6,97.5,136,95.4,136z"/>
	</g>
</g>
<path id="shock_x5F_color" class="st3" d="M324.5,402.6H182.8c-4.4,0-7.9-3.5-7.9-7.9V176.4c0-4.4,3.5-7.9,7.9-7.9h141.7
	c4.4,0,7.9,3.5,7.9,7.9v218.3C332.4,399.1,328.9,402.6,324.5,402.6z"/>
<path id="color" class="st4" d="M274.2,315.9h32.6c4.4,0,7.9-3.5,7.9-7.9v-32.6c0-4.4-3.5-7.9-7.9-7.9h-32.6c-4.4,0-7.9,3.5-7.9,7.9
	v32.6C266.3,312.3,269.8,315.9,274.2,315.9z"/>
<g id="shadows-lights">
	<line class="st5" x1="410.2" y1="420.1" x2="110.2" y2="420.1"/>
	<path class="st6" d="M190.8,310.1h-8c-4.4,0-7.9-3.5-7.9-7.9v-93c0-4.4,3.5-7.9,7.9-7.9h8c4.4,0,7.9,3.5,7.9,7.9v93
		C198.7,306.6,195.2,310.1,190.8,310.1z"/>
	<line class="st7" x1="174.9" y1="395.7" x2="332.4" y2="395.7"/>
	<line class="st7" x1="174.9" y1="244.9" x2="332.4" y2="244.9"/>
	<line class="st8" x1="192.7" y1="186.9" x2="286.4" y2="186.9"/>
</g>
<g id="lines">
	<path class="st9" d="M386,175.3c0-33.7-27.3-61-61-61"/>
	<path class="st9" d="M371.5,175.3c0-25.5-20.6-46.1-46.1-46.1"/>
	<path class="st9" d="M357.2,175.3c0-17.6-14.2-31.8-31.8-31.8"/>
	<line class="st10" x1="474.7" y1="408.4" x2="456.4" y2="408.4"/>
	<line class="st10" x1="440.3" y1="407.9" x2="79.6" y2="407.9"/>
	<line class="st10" x1="63.7" y1="408.4" x2="45.5" y2="408.4"/>
	<path class="st11" d="M324.5,402.6H182.8c-4.4,0-7.9-3.5-7.9-7.9V176.4c0-4.4,3.5-7.9,7.9-7.9h141.7c4.4,0,7.9,3.5,7.9,7.9v218.3
		C332.4,399.1,328.9,402.6,324.5,402.6z"/>
	<path class="st11" d="M332.4,250.4H174.9v-73.9c0-4.4,3.5-7.9,7.9-7.9h141.7c4.4,0,7.9,3.5,7.9,7.9V250.4z"/>
	<line class="st11" x1="174.9" y1="384.1" x2="332.4" y2="384.1"/>
	<circle class="st11" cx="306.8" cy="225.8" r="7.7"/>
	<circle class="st11" cx="306.8" cy="193.1" r="7.7"/>
	<path class="st11" d="M274.2,315.9h32.6c4.4,0,7.9-3.5,7.9-7.9v-32.6c0-4.4-3.5-7.9-7.9-7.9h-32.6c-4.4,0-7.9,3.5-7.9,7.9v32.6
		C266.3,312.3,269.8,315.9,274.2,315.9z"/>
	<path class="st11" d="M190.8,310.1h-8c-4.4,0-7.9-3.5-7.9-7.9v-93c0-4.4,3.5-7.9,7.9-7.9h8c4.4,0,7.9,3.5,7.9,7.9v93
		C198.7,306.6,195.2,310.1,190.8,310.1z"/>
</g>
</svg>
