<?xml version="1.0" encoding="utf-8"?>
<!-- Generator: Adobe Illustrator 21.0.0, SVG Export Plug-In . SVG Version: 6.00 Build 0)  -->
<svg version="1.1" id="Layer_1" xmlns="http://www.w3.org/2000/svg" xmlns:xlink="http://www.w3.org/1999/xlink" x="0px" y="0px"
	 viewBox="0 0 512 512" style="enable-background:new 0 0 512 512;" xml:space="preserve">
<style type="text/css">
	.st0{opacity:0.25;fill:#95A2AC;}
	.st1{fill:#95A2AC;}
	.st2{fill:#FFD54F;}
	.st3{fill:#B3BDC3;}
	.st4{opacity:0.25;fill:#222221;}
	.st5{opacity:0.5;}
	.st6{fill:#222221;}
	.st7{opacity:0.75;}
	.st8{opacity:0.25;fill:none;stroke:#6F6F6F;stroke-width:15;stroke-linecap:round;stroke-miterlimit:10;}
	.st9{opacity:0.5;fill:none;stroke:#000000;stroke-width:10;stroke-miterlimit:10;}
	.st10{opacity:0.75;fill:none;stroke:#FFFFFF;stroke-width:10;stroke-linecap:round;stroke-linejoin:round;stroke-miterlimit:10;}
	.st11{opacity:0.5;fill:none;stroke:#FFFFFF;stroke-width:10;stroke-linecap:round;stroke-linejoin:round;stroke-miterlimit:10;}
	.st12{opacity:0.25;fill:none;stroke:#FFFFFF;stroke-width:10;stroke-linecap:round;stroke-linejoin:round;stroke-miterlimit:10;}
	.st13{fill:none;stroke:#000000;stroke-width:10;stroke-linecap:round;stroke-linejoin:round;stroke-miterlimit:10;}
</style>
<g id="background">
	<circle class="st0" cx="253.5" cy="262.6" r="193.4"/>
	<path class="st1" d="M306,141.2c-7.4,0-13.4-6-13.4-13.4c0-7.4,6-13.4,13.4-13.4s13.4,6,13.4,13.4
		C319.4,135.2,313.4,141.2,306,141.2z M306,124.4c-1.9,0-3.4,1.5-3.4,3.4c0,1.9,1.5,3.4,3.4,3.4s3.4-1.5,3.4-3.4
		C309.4,125.9,307.8,124.4,306,124.4z"/>
	<g>
		<path class="st2" d="M52.8,193.9c-2.8,0-5-2.2-5-5v-22.4c0-2.8,2.2-5,5-5s5,2.2,5,5v22.4C57.8,191.7,55.5,193.9,52.8,193.9z"/>
		<path class="st2" d="M64,182.7H41.6c-2.8,0-5-2.2-5-5s2.2-5,5-5H64c2.8,0,5,2.2,5,5S66.7,182.7,64,182.7z"/>
	</g>
	<g>
		<path class="st2" d="M374.9,193.7c-0.3,0-0.7,0-1-0.1c-2.7-0.5-4.5-3.2-3.9-5.9l4.4-22c0.5-2.7,3.2-4.5,5.9-3.9
			c2.7,0.5,4.5,3.2,3.9,5.9l-4.4,22C379.4,192.1,377.3,193.7,374.9,193.7z"/>
		<path class="st2" d="M388.1,184.9c-0.3,0-0.7,0-1-0.1l-22-4.4c-2.7-0.5-4.5-3.2-3.9-5.9c0.5-2.7,3.2-4.5,5.9-3.9l22,4.4
			c2.7,0.5,4.5,3.2,3.9,5.9C392.6,183.3,390.5,184.9,388.1,184.9z"/>
	</g>
	<g>
		<path class="st2" d="M264.4,68.9c-1.3,0-2.7-0.5-3.6-1.6L245.4,51c-1.9-2-1.8-5.2,0.2-7.1s5.2-1.8,7.1,0.2l15.4,16.3
			c1.9,2,1.8,5.2-0.2,7.1C266.9,68.5,265.7,68.9,264.4,68.9z"/>
		<path class="st2" d="M248.6,68.4c-1.3,0-2.7-0.5-3.6-1.6c-1.9-2-1.8-5.2,0.2-7.1l16.3-15.4c2-1.9,5.2-1.8,7.1,0.2
			c1.9,2,1.8,5.2-0.2,7.1L252,67.1C251.1,68,249.8,68.4,248.6,68.4z"/>
	</g>
	<g>
		<path class="st1" d="M447.6,351.4c-0.3,0-0.7,0-1-0.1c-2.7-0.5-4.5-3.2-3.9-5.9l4.4-22c0.5-2.7,3.2-4.5,5.9-3.9
			c2.7,0.5,4.5,3.2,3.9,5.9l-4.4,22C452,349.8,449.9,351.4,447.6,351.4z"/>
		<path class="st1" d="M460.8,342.7c-0.3,0-0.7,0-1-0.1l-22-4.4c-2.7-0.5-4.5-3.2-3.9-5.9c0.5-2.7,3.2-4.5,5.9-3.9l22,4.4
			c2.7,0.5,4.5,3.2,3.9,5.9C465.2,341,463.1,342.7,460.8,342.7z"/>
	</g>
	<g>
		<path class="st1" d="M128,102.5c-2.1,0-4.1-1.4-4.8-3.5l-6.6-21.4c-0.8-2.6,0.7-5.4,3.3-6.3c2.6-0.8,5.4,0.7,6.3,3.3l6.6,21.4
			c0.8,2.6-0.7,5.4-3.3,6.3C129,102.5,128.5,102.5,128,102.5z"/>
		<path class="st1" d="M114,95.1c-2.1,0-4.1-1.4-4.8-3.5c-0.8-2.6,0.7-5.4,3.3-6.3l21.4-6.6c2.6-0.8,5.4,0.7,6.3,3.3
			c0.8,2.6-0.7,5.4-3.3,6.3l-21.4,6.6C115,95.1,114.5,95.1,114,95.1z"/>
	</g>
	<path class="st1" d="M52.8,338c-7.4,0-13.4-6-13.4-13.4c0-7.4,6-13.4,13.4-13.4c7.4,0,13.4,6,13.4,13.4C66.1,332,60.1,338,52.8,338
		z M52.8,321.2c-1.9,0-3.4,1.5-3.4,3.4c0,1.9,1.5,3.4,3.4,3.4s3.4-1.5,3.4-3.4C56.1,322.7,54.6,321.2,52.8,321.2z"/>
	<path class="st2" d="M403.5,115.8c-7.4,0-13.4-6-13.4-13.4c0-7.4,6-13.4,13.4-13.4c7.4,0,13.4,6,13.4,13.4
		C416.8,109.8,410.8,115.8,403.5,115.8z M403.5,99c-1.9,0-3.4,1.5-3.4,3.4s1.5,3.4,3.4,3.4s3.4-1.5,3.4-3.4S405.3,99,403.5,99z"/>
	<g>
		<path class="st2" d="M212.3,171.5c-1.5,0-3-0.7-4-2l-13.4-18c-1.6-2.2-1.2-5.3,1-7s5.3-1.2,7,1l13.4,18c1.6,2.2,1.2,5.3-1,7
			C214.3,171.2,213.3,171.5,212.3,171.5z"/>
		<path class="st2" d="M196.6,169.2c-1.5,0-3-0.7-4-2c-1.6-2.2-1.2-5.3,1-7l18-13.4c2.2-1.6,5.3-1.2,7,1c1.6,2.2,1.2,5.3-1,7
			l-18,13.4C198.7,168.9,197.6,169.2,196.6,169.2z"/>
	</g>
</g>
<polygon id="shock_x5F_color" class="st3" points="336.9,247.9 394,223.6 259.4,166.2 258.4,165.8 123.1,223.6 180.1,247.9 
	123.1,272.2 180.1,296.5 123.1,320.9 180.1,345.2 123.1,369.5 257.7,426.9 258.7,427.3 394,369.5 336.9,345.2 394,320.9 
	336.9,296.6 394,272.2 "/>
<g id="shadows-lights">
	<polygon class="st4" points="258.7,278.6 186.5,247.9 129.5,272.2 258.7,327.3 387.6,272.2 330.6,247.9 	"/>
	<g class="st5">
		<polygon class="st6" points="258.7,327.3 186.5,296.5 129.5,320.9 258.7,375.9 387.6,320.9 330.6,296.6 		"/>
	</g>
	<g class="st7">
		<polygon class="st6" points="258.7,375.9 186.5,345.2 129.5,369.5 258.7,424.6 387.6,369.5 330.6,345.2 		"/>
	</g>
	<polyline class="st8" points="399.4,414 311.3,414 258.5,436.5 209.7,414 99.5,414 	"/>
	<polyline class="st9" points="343.8,253.4 258.6,289.7 171.5,252.6 	"/>
	<polyline class="st10" points="298.2,244.1 257.9,261.3 217.3,243.9 	"/>
	<polyline class="st10" points="298.2,293.2 257.9,310.3 217.3,293 	"/>
	<polyline class="st11" points="298.2,342.8 257.9,360 217.3,342.6 	"/>
	<polyline class="st12" points="298.2,391.5 257.9,408.7 217.3,391.3 	"/>
	<polyline class="st9" points="343.7,301.3 258.6,337.6 171.5,300.5 	"/>
	<polyline class="st9" points="343.7,349.6 258.6,385.9 171.5,348.8 	"/>
</g>
<g id="lines">
	<line class="st13" x1="467.1" y1="402.4" x2="448.9" y2="402.4"/>
	<line class="st13" x1="202.9" y1="401.8" x2="72.1" y2="401.8"/>
	<line class="st13" x1="432.8" y1="401.8" x2="315.9" y2="401.8"/>
	<line class="st13" x1="58.1" y1="402.4" x2="39.8" y2="402.4"/>
	<polygon class="st13" points="258.7,278.6 186.5,247.9 129.5,272.2 258.7,327.3 387.6,272.2 330.6,247.9 	"/>
	<polygon class="st13" points="258.7,278.6 129.5,223.6 258.4,168.5 387.6,223.6 	"/>
	<g>
		<polygon class="st13" points="258.7,327.3 186.5,296.5 129.5,320.9 258.7,375.9 387.6,320.9 330.6,296.6 		"/>
	</g>
	<g>
		<polygon class="st13" points="258.7,375.9 186.5,345.2 129.5,369.5 258.7,424.6 387.6,369.5 330.6,345.2 		"/>
	</g>
</g>
</svg>
