<?xml version="1.0" encoding="utf-8"?>
<!-- Generator: Adobe Illustrator 21.0.0, SVG Export Plug-In . SVG Version: 6.00 Build 0)  -->
<svg version="1.1" id="Layer_1" xmlns="http://www.w3.org/2000/svg" xmlns:xlink="http://www.w3.org/1999/xlink" x="0px" y="0px"
	 viewBox="0 0 512 512" style="enable-background:new 0 0 512 512;" xml:space="preserve">
<style type="text/css">
	.st0{opacity:0.25;fill:#95A2AC;}
	.st1{fill:#FFD54F;}
	.st2{fill:#95A2AC;}
	.st3{fill:#BA68C8;}
	.st4{fill:#FFCCBC;}
	.st5{fill:none;stroke:#000000;stroke-width:10;stroke-linecap:round;stroke-linejoin:round;stroke-miterlimit:10;}
	.st6{fill:none;stroke:#000000;stroke-width:10;stroke-linejoin:round;stroke-miterlimit:10;}
	.st7{opacity:0.25;fill:none;stroke:#000000;stroke-width:10;stroke-linejoin:round;stroke-miterlimit:10;}
	.st8{opacity:0.75;fill:none;stroke:#FFFFFF;stroke-width:10;stroke-linecap:round;stroke-linejoin:round;stroke-miterlimit:10;}
	.st9{opacity:0.75;fill:none;stroke:#FFFFFF;stroke-width:10;stroke-linecap:round;stroke-miterlimit:10;}
	.st10{opacity:0.25;fill:none;stroke:#6F6F6F;stroke-width:15;stroke-linecap:round;stroke-miterlimit:10;}
</style>
<g id="background">
	<circle class="st0" cx="258" cy="264.4" r="193.4"/>
	<g>
		<path class="st1" d="M163.6,132.6c-2.8,0-5-2.2-5-5v-22.4c0-2.8,2.2-5,5-5s5,2.2,5,5v22.4C168.6,130.3,166.4,132.6,163.6,132.6z"
			/>
		<path class="st1" d="M174.9,121.4h-22.4c-2.8,0-5-2.2-5-5s2.2-5,5-5h22.4c2.8,0,5,2.2,5,5S177.6,121.4,174.9,121.4z"/>
	</g>
	<g>
		<path class="st2" d="M102.5,173.3c-2.3,0-4.4-1.6-4.9-4l-4.4-22c-0.5-2.7,1.2-5.3,3.9-5.9c2.7-0.5,5.3,1.2,5.9,3.9l4.4,22
			c0.5,2.7-1.2,5.3-3.9,5.9C103.1,173.2,102.8,173.3,102.5,173.3z"/>
		<path class="st2" d="M89.3,164.5c-2.3,0-4.4-1.6-4.9-4c-0.5-2.7,1.2-5.3,3.9-5.9l22-4.4c2.7-0.5,5.3,1.2,5.9,3.9s-1.2,5.3-3.9,5.9
			l-22,4.4C89.9,164.5,89.6,164.5,89.3,164.5z"/>
	</g>
	<g>
		<path class="st1" d="M414.3,264.7c-1.1,0-2.1-0.3-3.1-1c-2.2-1.7-2.6-4.8-0.9-7l13.7-17.7c1.7-2.2,4.8-2.6,7-0.9
			c2.2,1.7,2.6,4.8,0.9,7l-13.7,17.7C417.2,264.1,415.8,264.7,414.3,264.7z"/>
		<path class="st1" d="M430,262.7c-1.1,0-2.1-0.3-3.1-1l-17.7-13.7c-2.2-1.7-2.6-4.8-0.9-7c1.7-2.2,4.8-2.6,7-0.9l17.7,13.7
			c2.2,1.7,2.6,4.8,0.9,7C433,262.1,431.5,262.7,430,262.7z"/>
	</g>
	<g>
		<path class="st2" d="M311.4,102.3c-2.3,0-4.4-1.6-4.9-4l-4.4-22c-0.5-2.7,1.2-5.3,3.9-5.9c2.7-0.5,5.3,1.2,5.9,3.9l4.4,22
			c0.5,2.7-1.2,5.3-3.9,5.9C312,102.3,311.7,102.3,311.4,102.3z"/>
		<path class="st2" d="M298.2,93.6c-2.3,0-4.4-1.6-4.9-4c-0.5-2.7,1.2-5.3,3.9-5.9l22-4.4c2.7-0.5,5.3,1.2,5.9,3.9s-1.2,5.3-3.9,5.9
			l-22,4.4C298.8,93.5,298.5,93.6,298.2,93.6z"/>
	</g>
	<path class="st2" d="M100.9,258c-7.4,0-13.4-6-13.4-13.4c0-7.4,6-13.4,13.4-13.4c7.4,0,13.4,6,13.4,13.4
		C114.3,252,108.3,258,100.9,258z M100.9,241.3c-1.9,0-3.4,1.5-3.4,3.4c0,1.9,1.5,3.4,3.4,3.4c1.9,0,3.4-1.5,3.4-3.4
		C104.3,242.8,102.8,241.3,100.9,241.3z"/>
	<path class="st1" d="M400.1,357.7c-7.4,0-13.4-6-13.4-13.4c0-7.4,6-13.4,13.4-13.4c7.4,0,13.4,6,13.4,13.4
		C413.5,351.7,407.5,357.7,400.1,357.7z M400.1,341c-1.9,0-3.4,1.5-3.4,3.4c0,1.9,1.5,3.4,3.4,3.4c1.9,0,3.4-1.5,3.4-3.4
		C403.5,342.5,402,341,400.1,341z"/>
	<path class="st2" d="M214.8,86.5c-7.4,0-13.4-6-13.4-13.4c0-7.4,6-13.4,13.4-13.4s13.4,6,13.4,13.4
		C228.2,80.5,222.2,86.5,214.8,86.5z M214.8,69.8c-1.9,0-3.4,1.5-3.4,3.4c0,1.9,1.5,3.4,3.4,3.4s3.4-1.5,3.4-3.4
		C218.2,71.3,216.7,69.8,214.8,69.8z"/>
	<g>
		<path class="st1" d="M384.9,130.2c-1.1,0-2.1-0.3-3.1-1c-2.2-1.7-2.6-4.8-0.9-7l13.7-17.7c1.7-2.2,4.8-2.6,7-0.9
			c2.2,1.7,2.6,4.8,0.9,7l-13.7,17.7C387.9,129.6,386.4,130.2,384.9,130.2z"/>
		<path class="st1" d="M400.6,128.2c-1.1,0-2.1-0.3-3.1-1l-17.7-13.7c-2.2-1.7-2.6-4.8-0.9-7c1.7-2.2,4.8-2.6,7-0.9l17.7,13.7
			c2.2,1.7,2.6,4.8,0.9,7C403.6,127.6,402.1,128.2,400.6,128.2z"/>
	</g>
	<path class="st1" d="M112,345.9c-7.4,0-13.4-6-13.4-13.4c0-7.4,6-13.4,13.4-13.4c7.4,0,13.4,6,13.4,13.4
		C125.4,339.9,119.4,345.9,112,345.9z M112,329.2c-1.9,0-3.4,1.5-3.4,3.4c0,1.9,1.5,3.4,3.4,3.4c1.9,0,3.4-1.5,3.4-3.4
		C115.4,330.7,113.9,329.2,112,329.2z"/>
	<path class="st2" d="M412,190c-7.4,0-13.4-6-13.4-13.4s6-13.4,13.4-13.4s13.4,6,13.4,13.4S419.4,190,412,190z M412,173.3
		c-1.9,0-3.4,1.5-3.4,3.4s1.5,3.4,3.4,3.4s3.4-1.5,3.4-3.4S413.9,173.3,412,173.3z"/>
</g>
<path id="color_1_" class="st3" d="M150.8,147.3h202.4c6.9,0,12.5,5.6,12.5,12.5v108.6c0,6.9-5.6,12.5-12.5,12.5H150.8
	c-6.9,0-12.5-5.6-12.5-12.5V159.8C138.3,152.9,143.9,147.3,150.8,147.3z"/>
<path id="shock_x5F_color" class="st4" d="M294.4,292.8c0,0,0.6-16.2-11.8-16.3c-13.2-0.2-14.4,16.3-14.4,16.3s0.6-17.4-14.4-17.4
	c-13.3,0-14.8,17.4-14.8,17.4v-61.9c0-5.5-4.5-10-10-10c-5.5,0-10,4.5-10,10v61.9v29.4l-14.4-30.6c-2.3-5.1-8.2-7.3-13.3-5
	c-5.1,2.3-7.3,8.2-5,13.3l26.9,68.7c5.8,15.3,23.6,29.7,53.6,29.7c27.6,0,52.3-22.3,52.3-49.9v-55.5c0,0,1.5-13.7-12.9-13.7
	C294.8,279.1,294.4,292.8,294.4,292.8z"/>
<g id="lines">
	<line class="st5" x1="472.3" y1="404.2" x2="454.1" y2="404.2"/>
	<line class="st5" x1="438" y1="403.7" x2="77.3" y2="403.7"/>
	<line class="st5" x1="60.2" y1="404.2" x2="41.9" y2="404.2"/>
	<path class="st6" d="M294.4,292.8c0,0,0.6-16.2-11.8-16.3c-13.2-0.2-14.4,16.3-14.4,16.3s0.6-17.4-14.4-17.4
		c-13.3,0-14.8,17.4-14.8,17.4v-61.9c0-5.5-4.5-10-10-10c-5.5,0-10,4.5-10,10v61.9v29.4l-14.4-30.6c-2.3-5.1-8.2-7.3-13.3-5
		c-5.1,2.3-7.3,8.2-5,13.3l26.9,68.7c5.8,15.3,23.6,29.7,53.6,29.7c27.6,0,52.3-22.3,52.3-49.9v-55.5c0,0,1.5-13.7-12.9-13.7
		C294.8,279.1,294.4,292.8,294.4,292.8z"/>
	<path class="st5" d="M254.7,220.8c0-14.3-11.6-25.9-25.9-25.9S203,206.6,203,220.8"/>
	<path class="st5" d="M269.2,243.7c3.8-6.7,6-14.6,6-22.9c0-25.6-20.7-46.3-46.3-46.3s-46.3,20.7-46.3,46.3c0,16,8.1,30,20.4,38.4"
		/>
	<path class="st5" d="M217,281h-66.2c-6.9,0-12.5-5.6-12.5-12.5V159.8c0-6.9,5.6-12.5,12.5-12.5h202.4c6.9,0,12.5,5.6,12.5,12.5
		v108.6c0,6.9-5.6,12.5-12.5,12.5H316"/>
</g>
<g id="shadows-lights">
	<path class="st7" d="M217,272.7h-66.2c-6.9-1-12.5-6.6-12.5-13.5"/>
	<path class="st7" d="M365.8,259.2c0,6.9-5.6,12.5-12.5,13.5H237.9"/>
	<line class="st8" x1="300.6" y1="354" x2="300.6" y2="309.5"/>
	<path class="st7" d="M188.6,291l26.9,68.7c5.8,15.3,23.6,29.7,53.6,29.7c27.6,0,49.8-21.5,49.8-49.2"/>
	<line class="st9" x1="321.7" y1="167.3" x2="345.6" y2="195"/>
	<line class="st9" x1="305.9" y1="170.8" x2="329.8" y2="198.5"/>
	<line class="st10" x1="407.8" y1="415.9" x2="107.9" y2="415.9"/>
</g>
</svg>
