<?xml version="1.0" encoding="utf-8"?>
<!-- Generator: Adobe Illustrator 21.0.0, SVG Export Plug-In . SVG Version: 6.00 Build 0)  -->
<svg version="1.1" id="Layer_1" xmlns="http://www.w3.org/2000/svg" xmlns:xlink="http://www.w3.org/1999/xlink" x="0px" y="0px"
	 viewBox="0 0 512 512" style="enable-background:new 0 0 512 512;" xml:space="preserve">
<style type="text/css">
	.st0{fill:#FFD54F;}
	.st1{fill:#95A2AC;}
	.st2{opacity:0.25;fill:#95A2AC;}
	.st3{fill:#BA68C8;}
	.st4{fill:#B3BDC3;}
	.st5{opacity:0.25;fill:#FFFFFF;}
	.st6{opacity:0.25;fill:none;stroke:#6F6F6F;stroke-width:15;stroke-linecap:round;stroke-miterlimit:10;}
	.st7{opacity:0.25;fill:none;stroke:#040006;stroke-width:10;stroke-miterlimit:10;}
	.st8{opacity:0.75;fill:none;stroke:#FFFFFF;stroke-width:10;stroke-linecap:round;stroke-miterlimit:10;}
	.st9{fill:none;stroke:#040006;stroke-width:10;stroke-linecap:round;stroke-miterlimit:10;}
	.st10{fill:none;stroke:#040006;stroke-width:10;stroke-miterlimit:10;}
</style>
<g id="background">
	<g>
		<path class="st0" d="M347.2,109c-7.4,0-13.4-6-13.4-13.4s6-13.4,13.4-13.4c7.4,0,13.4,6,13.4,13.4S354.6,109,347.2,109z
			 M347.2,92.2c-1.9,0-3.4,1.5-3.4,3.4s1.5,3.4,3.4,3.4c1.9,0,3.4-1.5,3.4-3.4S349,92.2,347.2,92.2z"/>
		<g>
			<path class="st0" d="M281.1,123c-1.4,0-2.7-0.6-3.7-1.7l-15-16.7c-1.8-2.1-1.7-5.2,0.4-7.1c2.1-1.8,5.2-1.7,7.1,0.4l15,16.7
				c1.8,2.1,1.7,5.2-0.4,7.1C283.5,122.5,282.3,123,281.1,123z"/>
			<path class="st0" d="M265.3,122.1c-1.4,0-2.7-0.6-3.7-1.7c-1.8-2.1-1.7-5.2,0.4-7.1l16.7-15c2.1-1.8,5.2-1.7,7.1,0.4
				s1.7,5.2-0.4,7.1l-16.7,15C267.7,121.7,266.5,122.1,265.3,122.1z"/>
		</g>
		<g>
			<path class="st1" d="M406.6,175.5c-2.3,0-4.4-1.6-4.9-4l-4.4-22c-0.5-2.7,1.2-5.3,3.9-5.9c2.7-0.5,5.3,1.2,5.9,3.9l4.4,22
				c0.5,2.7-1.2,5.3-3.9,5.9C407.2,175.4,406.9,175.5,406.6,175.5z"/>
			<path class="st1" d="M393.4,166.7c-2.3,0-4.4-1.6-4.9-4c-0.5-2.7,1.2-5.3,3.9-5.9l22-4.4c2.7-0.5,5.3,1.2,5.9,3.9
				c0.5,2.7-1.2,5.3-3.9,5.9l-22,4.4C394,166.7,393.7,166.7,393.4,166.7z"/>
		</g>
		<g>
			<path class="st1" d="M114.2,116.4c-2.3,0-4.4-1.6-4.9-4l-4.4-22c-0.5-2.7,1.2-5.3,3.9-5.9c2.7-0.5,5.3,1.2,5.9,3.9l4.4,22
				c0.5,2.7-1.2,5.3-3.9,5.9C114.9,116.4,114.5,116.4,114.2,116.4z"/>
			<path class="st1" d="M101,107.7c-2.3,0-4.4-1.6-4.9-4c-0.5-2.7,1.2-5.3,3.9-5.9l22-4.4c2.7-0.5,5.3,1.2,5.9,3.9
				c0.5,2.7-1.2,5.3-3.9,5.9l-22,4.4C101.7,107.6,101.3,107.7,101,107.7z"/>
		</g>
		<g>
			<path class="st1" d="M412,344c-0.5,0-1-0.1-1.5-0.2c-2.6-0.8-4.1-3.6-3.3-6.3l6.6-21.4c0.8-2.6,3.6-4.1,6.3-3.3
				c2.6,0.8,4.1,3.6,3.3,6.3l-6.6,21.4C416.2,342.6,414.2,344,412,344z"/>
			<path class="st1" d="M426.1,336.6c-0.5,0-1-0.1-1.5-0.2l-21.4-6.6c-2.6-0.8-4.1-3.6-3.3-6.3c0.8-2.6,3.6-4.1,6.3-3.3l21.4,6.6
				c2.6,0.8,4.1,3.6,3.3,6.3C430.2,335.2,428.2,336.6,426.1,336.6z"/>
		</g>
		<path class="st1" d="M101,343.2c-7.4,0-13.4-6-13.4-13.4c0-7.4,6-13.4,13.4-13.4s13.4,6,13.4,13.4
			C114.4,337.2,108.4,343.2,101,343.2z M101,326.4c-1.9,0-3.4,1.5-3.4,3.4c0,1.9,1.5,3.4,3.4,3.4s3.4-1.5,3.4-3.4
			C104.4,327.9,102.9,326.4,101,326.4z"/>
		<path class="st1" d="M196.3,91.9c-7.4,0-13.4-6-13.4-13.4c0-7.4,6-13.4,13.4-13.4s13.4,6,13.4,13.4
			C209.7,85.8,203.7,91.9,196.3,91.9z M196.3,75.1c-1.9,0-3.4,1.5-3.4,3.4c0,1.9,1.5,3.4,3.4,3.4s3.4-1.5,3.4-3.4
			C199.7,76.6,198.2,75.1,196.3,75.1z"/>
		<path class="st0" d="M62.1,254.3c-7.4,0-13.4-6-13.4-13.4c0-7.4,6-13.4,13.4-13.4c7.4,0,13.4,6,13.4,13.4
			C75.5,248.3,69.5,254.3,62.1,254.3z M62.1,237.5c-1.9,0-3.4,1.5-3.4,3.4c0,1.9,1.5,3.4,3.4,3.4c1.9,0,3.4-1.5,3.4-3.4
			C65.5,239,63.9,237.5,62.1,237.5z"/>
		<g>
			<path class="st0" d="M111.4,191.4c-0.5,0-0.9-0.1-1.4-0.2c-2.7-0.8-4.2-3.5-3.4-6.2l6.2-21.6c0.8-2.7,3.5-4.2,6.2-3.4
				c2.7,0.8,4.2,3.5,3.4,6.2l-6.2,21.6C115.6,189.9,113.6,191.4,111.4,191.4z"/>
			<path class="st0" d="M125.3,183.7c-0.5,0-0.9-0.1-1.4-0.2l-21.5-6.2c-2.7-0.8-4.2-3.5-3.4-6.2c0.8-2.7,3.5-4.2,6.2-3.4l21.5,6.2
				c2.7,0.8,4.2,3.5,3.4,6.2C129.5,182.2,127.5,183.7,125.3,183.7z"/>
		</g>
	</g>
	<circle class="st2" cx="255.4" cy="271.5" r="193.4"/>
</g>
<path id="color" class="st3" d="M343.4,131.5H159.4c-10,0-18.1,8.1-18.1,18.1v91.3h220.1v-91.3C361.5,139.6,353.4,131.5,343.4,131.5
	z"/>
<g id="shock_x5F_color">
	<path class="st4" d="M141.3,240.7V372c0,10,8.1,18.1,18.1,18.1h183.9c10,0,18.1-8.1,18.1-18.1V240.7H141.3z"/>
	<circle class="st4" cx="251.4" cy="161.4" r="16.3"/>
	<path class="st4" d="M251.4,190.9c-16.8,0-30.5,13.6-30.5,30.5h60.9C281.9,204.5,268.2,190.9,251.4,190.9z"/>
</g>
<g id="shadows-lights">
	<path class="st5" d="M322,304.1H180.8c-8.6,0-15.6-8.7-15.6-19.5v0c0-10.7,7-19.5,15.6-19.5H322c8.6,0,15.6,8.7,15.6,19.5v0
		C337.6,295.4,330.6,304.1,322,304.1z"/>
	<path class="st5" d="M322,364.1H180.8c-8.6,0-15.6-8.7-15.6-19.5v0c0-10.7,7-19.5,15.6-19.5H322c8.6,0,15.6,8.7,15.6,19.5v0
		C337.6,355.4,330.6,364.1,322,364.1z"/>
	<g>
		<line class="st6" x1="339.4" y1="410.3" x2="170.4" y2="410.3"/>
		<path class="st7" d="M141.3,364c0,10,8.1,18.1,18.1,18.1h183.9c10,0,18.1-8.1,18.1-18.1"/>
		<line class="st8" x1="343.3" y1="153.3" x2="343.3" y2="217.7"/>
	</g>
</g>
<g id="lines">
	<line class="st9" x1="379.9" y1="398.7" x2="369.3" y2="398.7"/>
	<line class="st9" x1="141.6" y1="398.7" x2="130.9" y2="398.7"/>
	<line class="st9" x1="355.1" y1="398.2" x2="154.5" y2="398.2"/>
	<line class="st9" x1="196.9" y1="284.7" x2="306" y2="284.7"/>
	<path class="st10" d="M343.4,131.5H159.4c-10,0-18.1,8.1-18.1,18.1V372c0,10,8.1,18.1,18.1,18.1h183.9c10,0,18.1-8.1,18.1-18.1
		V149.6C361.5,139.6,353.4,131.5,343.4,131.5z"/>
	<circle class="st9" cx="251.4" cy="161.4" r="16.3"/>
	<path class="st9" d="M281.9,221.4c0-16.8-13.6-30.5-30.5-30.5c-16.8,0-30.5,13.6-30.5,30.5H281.9z"/>
	<g>
		<g>
			<line class="st9" x1="226.8" y1="340" x2="236" y2="349.3"/>
			<line class="st9" x1="226.8" y1="349.3" x2="236" y2="340"/>
		</g>
		<g>
			<line class="st9" x1="266.8" y1="340" x2="276" y2="349.3"/>
			<line class="st9" x1="266.8" y1="349.3" x2="276" y2="340"/>
		</g>
		<g>
			<line class="st9" x1="186.8" y1="340" x2="196" y2="349.3"/>
			<line class="st9" x1="186.8" y1="349.3" x2="196" y2="340"/>
		</g>
		<g>
			<line class="st9" x1="306.8" y1="340" x2="316" y2="349.3"/>
			<line class="st9" x1="306.8" y1="349.3" x2="316" y2="340"/>
		</g>
	</g>
	<path class="st9" d="M322,304.1H180.8c-8.6,0-15.6-8.7-15.6-19.5v0c0-10.7,7-19.5,15.6-19.5H322c8.6,0,15.6,8.7,15.6,19.5v0
		C337.6,295.4,330.6,304.1,322,304.1z"/>
	<path class="st9" d="M322,364.1H180.8c-8.6,0-15.6-8.7-15.6-19.5v0c0-10.7,7-19.5,15.6-19.5H322c8.6,0,15.6,8.7,15.6,19.5v0
		C337.6,355.4,330.6,364.1,322,364.1z"/>
	<line class="st9" x1="141.6" y1="240.9" x2="361.5" y2="240.9"/>
</g>
</svg>
