<?xml version="1.0" encoding="utf-8"?>
<!-- Generator: Adobe Illustrator 21.0.0, SVG Export Plug-In . SVG Version: 6.00 Build 0)  -->
<svg version="1.1" id="Layer_1" xmlns="http://www.w3.org/2000/svg" xmlns:xlink="http://www.w3.org/1999/xlink" x="0px" y="0px"
	 viewBox="0 0 512 512" style="enable-background:new 0 0 512 512;" xml:space="preserve">
<style type="text/css">
	.st0{opacity:0.25;fill:#95A2AC;}
	.st1{fill:#FFD54F;}
	.st2{fill:#95A2AC;}
	.st3{fill:#B3BDC3;}
	.st4{opacity:0.25;fill:none;stroke:#6F6F6F;stroke-width:15;stroke-linecap:round;stroke-miterlimit:10;}
	.st5{opacity:0.25;fill:none;stroke:#000000;stroke-width:10;stroke-linecap:round;stroke-miterlimit:10;}
	.st6{opacity:0.25;fill:#222221;}
	.st7{opacity:0.75;fill:none;stroke:#FFFFFF;stroke-width:10;stroke-linecap:round;stroke-miterlimit:10;}
	.st8{fill:none;stroke:#000000;stroke-width:10;stroke-linecap:round;stroke-linejoin:round;stroke-miterlimit:10;}
	.st9{fill:none;stroke:#000000;stroke-width:10;stroke-miterlimit:10;}
	.st10{fill:none;stroke:#000000;stroke-width:10;stroke-linecap:round;stroke-miterlimit:10;}
</style>
<g id="background">
	<circle class="st0" cx="271.3" cy="271.3" r="193.4"/>
	<g>
		<path class="st1" d="M177.7,165.8c-0.9,0-1.9-0.3-2.7-0.8c-2.3-1.5-3-4.6-1.4-6.9l12.3-18.7c1.5-2.3,4.6-3,6.9-1.4
			c2.3,1.5,3,4.6,1.4,6.9l-12.3,18.7C180.9,165,179.3,165.8,177.7,165.8z"/>
		<path class="st1" d="M193.2,162.5c-0.9,0-1.9-0.3-2.7-0.8l-18.7-12.3c-2.3-1.5-3-4.6-1.4-6.9c1.5-2.3,4.6-3,6.9-1.4l18.7,12.3
			c2.3,1.5,3,4.6,1.4,6.9C196.4,161.7,194.8,162.5,193.2,162.5z"/>
	</g>
	<g>
		<path class="st2" d="M90.9,163.4c-2.3,0-4.4-1.6-4.9-4l-4.4-22c-0.5-2.7,1.2-5.3,3.9-5.9c2.7-0.5,5.3,1.2,5.9,3.9l4.4,22
			c0.5,2.7-1.2,5.3-3.9,5.9C91.6,163.4,91.2,163.4,90.9,163.4z"/>
		<path class="st2" d="M77.7,154.7c-2.3,0-4.4-1.6-4.9-4c-0.5-2.7,1.2-5.3,3.9-5.9l22-4.4c2.7-0.5,5.3,1.2,5.9,3.9
			c0.5,2.7-1.2,5.3-3.9,5.9l-22,4.4C78.4,154.6,78,154.7,77.7,154.7z"/>
	</g>
	<g>
		<path class="st1" d="M209.8,78.9c-0.5,0-0.9-0.1-1.4-0.2c-2.7-0.8-4.2-3.5-3.4-6.2l6.2-21.6c0.8-2.7,3.5-4.2,6.2-3.4
			c2.7,0.8,4.2,3.5,3.4,6.2l-6.2,21.6C214,77.4,212,78.9,209.8,78.9z"/>
		<path class="st1" d="M223.6,71.2c-0.5,0-0.9-0.1-1.4-0.2l-21.6-6.2c-2.7-0.8-4.2-3.5-3.4-6.2c0.8-2.7,3.5-4.2,6.2-3.4l21.6,6.2
			c2.7,0.8,4.2,3.5,3.4,6.2C227.8,69.8,225.8,71.2,223.6,71.2z"/>
	</g>
	<g>
		<path class="st2" d="M135.9,255.6c-2.3,0-4.4-1.6-4.9-4l-4.4-22c-0.5-2.7,1.2-5.3,3.9-5.9c2.7-0.5,5.3,1.2,5.9,3.9l4.4,22
			c0.5,2.7-1.2,5.3-3.9,5.9C136.6,255.6,136.3,255.6,135.9,255.6z"/>
		<path class="st2" d="M122.7,246.9c-2.3,0-4.4-1.6-4.9-4c-0.5-2.7,1.2-5.3,3.9-5.9l22-4.4c2.7-0.5,5.3,1.2,5.9,3.9
			c0.5,2.7-1.2,5.3-3.9,5.9l-22,4.4C123.4,246.8,123.1,246.9,122.7,246.9z"/>
	</g>
	<g>
		<path class="st2" d="M396.5,255.4c-0.5,0-1-0.1-1.5-0.2c-2.6-0.8-4.1-3.6-3.3-6.3l6.6-21.4c0.8-2.6,3.6-4.1,6.3-3.3
			c2.6,0.8,4.1,3.6,3.3,6.3l-6.6,21.4C400.6,254,398.6,255.4,396.5,255.4z"/>
		<path class="st2" d="M410.5,248c-0.5,0-1-0.1-1.5-0.2l-21.4-6.6c-2.6-0.8-4.1-3.6-3.3-6.3c0.8-2.6,3.6-4.1,6.3-3.3l21.4,6.6
			c2.6,0.8,4.1,3.6,3.3,6.3C414.6,246.6,412.6,248,410.5,248z"/>
	</g>
	<path class="st2" d="M444.9,163c-7.4,0-13.4-6-13.4-13.4s6-13.4,13.4-13.4c7.4,0,13.4,6,13.4,13.4S452.3,163,444.9,163z
		 M444.9,146.3c-1.9,0-3.4,1.5-3.4,3.4s1.5,3.4,3.4,3.4c1.9,0,3.4-1.5,3.4-3.4S446.8,146.3,444.9,146.3z"/>
	<path class="st1" d="M60.3,253c-7.4,0-13.4-6-13.4-13.4c0-7.4,6-13.4,13.4-13.4c7.4,0,13.4,6,13.4,13.4C73.7,247,67.7,253,60.3,253
		z M60.3,236.3c-1.9,0-3.4,1.5-3.4,3.4s1.5,3.4,3.4,3.4c1.9,0,3.4-1.5,3.4-3.4S62.2,236.3,60.3,236.3z"/>
	<g>
		<path class="st1" d="M342.7,87.9c-1,0-2.1-0.3-3-1c-2.2-1.6-2.7-4.8-1-7l13.4-18c1.6-2.2,4.8-2.7,7-1s2.7,4.8,1,7l-13.4,18
			C345.7,87.2,344.2,87.9,342.7,87.9z"/>
		<path class="st1" d="M358.4,85.6c-1,0-2.1-0.3-3-1l-18-13.4c-2.2-1.6-2.7-4.8-1-7c1.6-2.2,4.8-2.7,7-1l18,13.4
			c2.2,1.6,2.7,4.8,1,7C361.4,84.9,359.9,85.6,358.4,85.6z"/>
	</g>
	<path class="st2" d="M352.1,157.5c-3.4,0-6.9-1.3-9.5-3.9c-5.2-5.2-5.2-13.7,0-18.9c5.2-5.2,13.7-5.2,18.9,0c0,0,0,0,0,0
		c5.2,5.2,5.2,13.7,0,18.9C359,156.2,355.5,157.5,352.1,157.5z M352.1,140.8c-0.9,0-1.7,0.3-2.4,1c-1.3,1.3-1.3,3.5,0,4.8
		c1.3,1.3,3.5,1.3,4.8,0c1.3-1.3,1.3-3.5,0-4.8C353.8,141.1,353,140.8,352.1,140.8z"/>
</g>
<path id="shock_x5F_color" class="st3" d="M275.9,405.1h-12.3c-42.1,0-76.2-34.1-76.2-76.2v-87.5c0-42.1,34.1-76.2,76.2-76.2h12.3
	c42.1,0,76.2,34.1,76.2,76.2v87.5C352.2,371,318,405.1,275.9,405.1z"/>
<g id="shadows-lights">
	<line class="st4" x1="349.2" y1="424.5" x2="190.9" y2="424.5"/>
	<path class="st5" d="M352.1,319.2c0,42.1-34.1,76.2-76.2,76.2h-12.3c-42.1,0-76.2-34.1-76.2-76.2"/>
	<path class="st6" d="M270.9,188.2h-2.4c-4.8,0-8.6,3.9-8.6,8.6v47.3c0,4.8,3.9,8.6,8.6,8.6h2.4c4.8,0,8.6-3.9,8.6-8.6v-47.3
		C279.6,192,275.7,188.2,270.9,188.2z"/>
	<path class="st5" d="M259.9,235.3c0,4.8,3.9,8.6,8.6,8.6h2.4c4.8,0,8.6-3.9,8.6-8.6"/>
	<path class="st7" d="M338.2,325V243c0-30.6-21.3-56.2-49.9-62.7"/>
</g>
<g id="lines">
	<line class="st8" x1="452" y1="412.8" x2="424.4" y2="412.8"/>
	<line class="st8" x1="394.8" y1="412.3" x2="144.7" y2="412.3"/>
	<line class="st8" x1="118.3" y1="412.8" x2="90.7" y2="412.8"/>
	<path class="st9" d="M270.9,188.2h-2.4c-4.8,0-8.6,3.9-8.6,8.6v47.3c0,4.8,3.9,8.6,8.6,8.6h2.4c4.8,0,8.6-3.9,8.6-8.6v-47.3
		C279.6,192,275.7,188.2,270.9,188.2z"/>
	<line class="st10" x1="269.7" y1="165.2" x2="269.7" y2="188.2"/>
	<line class="st10" x1="269.7" y1="252.7" x2="269.7" y2="275.7"/>
	<path class="st9" d="M275.9,405.1h-12.3c-42.1,0-76.2-34.1-76.2-76.2v-87.5c0-42.1,34.1-76.2,76.2-76.2h12.3
		c42.1,0,76.2,34.1,76.2,76.2v87.5C352.2,371,318,405.1,275.9,405.1z"/>
	<path class="st10" d="M228.3,130.2c24.8-22.8,63.4-21.1,86.2,3.7"/>
	<path class="st10" d="M238,140.9c18.8-17.2,47.9-16,65.1,2.8"/>
	<path class="st10" d="M247.7,151.4c12.9-11.9,33-11,44.9,1.9"/>
</g>
</svg>
