<?xml version="1.0" encoding="utf-8"?>
<!-- Generator: Adobe Illustrator 21.0.0, SVG Export Plug-In . SVG Version: 6.00 Build 0)  -->
<svg version="1.1" id="Layer_1" xmlns="http://www.w3.org/2000/svg" xmlns:xlink="http://www.w3.org/1999/xlink" x="0px" y="0px"
	 viewBox="0 0 512 512" style="enable-background:new 0 0 512 512;" xml:space="preserve">
<style type="text/css">
	.st0{opacity:0.25;fill:#95A2AC;}
	.st1{fill:#FFD54F;}
	.st2{fill:#95A2AC;}
	.st3{fill:#FFCCBC;}
	.st4{fill:#B3BDC3;}
	.st5{fill:none;stroke:#000000;stroke-width:10;stroke-linecap:round;stroke-miterlimit:10;}
	.st6{fill:#FFFFFF;stroke:#000000;stroke-width:10;stroke-linecap:round;stroke-miterlimit:10;}
	.st7{fill:none;stroke:#000000;stroke-width:10;stroke-linecap:round;stroke-linejoin:round;stroke-miterlimit:10;}
	.st8{fill:none;stroke:#000000;stroke-width:10;stroke-miterlimit:10;}
	.st9{opacity:0.25;fill:none;stroke:#6F6F6F;stroke-width:15;stroke-linecap:round;stroke-miterlimit:10;}
	.st10{opacity:0.25;fill:none;stroke:#000000;stroke-width:10;stroke-linecap:round;stroke-miterlimit:10;}
</style>
<g id="background">
	<circle class="st0" cx="263.8" cy="271.3" r="193.4"/>
	<g>
		<path class="st1" d="M339.9,145.4c-2.8,0-5-2.2-5-5v-22.4c0-2.8,2.2-5,5-5s5,2.2,5,5v22.4C344.9,143.1,342.7,145.4,339.9,145.4z"
			/>
		<path class="st1" d="M351.1,134.2h-22.4c-2.8,0-5-2.2-5-5s2.2-5,5-5h22.4c2.8,0,5,2.2,5,5S353.9,134.2,351.1,134.2z"/>
	</g>
	<g>
		<path class="st2" d="M226,71.5c-2.3,0-4.4-1.6-4.9-4l-4.4-22c-0.5-2.7,1.2-5.3,3.9-5.9c2.7-0.5,5.3,1.2,5.9,3.9l4.4,22
			c0.5,2.7-1.2,5.3-3.9,5.9C226.6,71.5,226.3,71.5,226,71.5z"/>
		<path class="st2" d="M212.8,62.8c-2.3,0-4.4-1.6-4.9-4c-0.5-2.7,1.2-5.3,3.9-5.9l22-4.4c2.7-0.5,5.3,1.2,5.9,3.9s-1.2,5.3-3.9,5.9
			l-22,4.4C213.4,62.7,213.1,62.8,212.8,62.8z"/>
	</g>
	<g>
		<path class="st1" d="M96.7,124.9c-1.1,0-2.2-0.3-3.1-1c-2.2-1.7-2.6-4.8-0.9-7l13.7-17.7c1.7-2.2,4.8-2.6,7-0.9
			c2.2,1.7,2.6,4.8,0.9,7L100.7,123C99.7,124.3,98.2,124.9,96.7,124.9z"/>
		<path class="st1" d="M112.4,122.9c-1.1,0-2.2-0.3-3.1-1l-17.7-13.7c-2.2-1.7-2.6-4.8-0.9-7c1.7-2.2,4.8-2.6,7-0.9l17.7,13.7
			c2.2,1.7,2.6,4.8,0.9,7C115.4,122.3,113.9,122.9,112.4,122.9z"/>
	</g>
	<g>
		<path class="st2" d="M152.1,250.6c-2.3,0-4.4-1.6-4.9-4l-4.4-22c-0.5-2.7,1.2-5.3,3.9-5.9c2.7-0.5,5.3,1.2,5.9,3.9l4.4,22
			c0.5,2.7-1.2,5.3-3.9,5.9C152.7,250.6,152.4,250.6,152.1,250.6z"/>
		<path class="st2" d="M138.9,241.9c-2.3,0-4.4-1.6-4.9-4c-0.5-2.7,1.2-5.3,3.9-5.9l22-4.4c2.7-0.5,5.3,1.2,5.9,3.9
			c0.5,2.7-1.2,5.3-3.9,5.9l-22,4.4C139.5,241.8,139.2,241.9,138.9,241.9z"/>
	</g>
	<g>
		<path class="st2" d="M453.9,195.7c-0.5,0-1-0.1-1.5-0.2c-2.6-0.8-4.1-3.6-3.3-6.3l6.6-21.4c0.8-2.6,3.6-4.1,6.3-3.3
			c2.6,0.8,4.1,3.6,3.3,6.3l-6.6,21.4C458,194.3,456,195.7,453.9,195.7z"/>
		<path class="st2" d="M467.9,188.3c-0.5,0-1-0.1-1.5-0.2l-21.4-6.6c-2.6-0.8-4.1-3.6-3.3-6.3c0.8-2.6,3.6-4.1,6.3-3.3l21.4,6.6
			c2.6,0.8,4.1,3.6,3.3,6.3C472,186.9,470,188.3,467.9,188.3z"/>
	</g>
	<path class="st2" d="M227.4,176.7c-7.4,0-13.4-6-13.4-13.4c0-7.4,6-13.4,13.4-13.4c7.4,0,13.4,6,13.4,13.4
		C240.8,170.7,234.8,176.7,227.4,176.7z M227.4,159.9c-1.9,0-3.4,1.5-3.4,3.4s1.5,3.4,3.4,3.4s3.4-1.5,3.4-3.4
		S229.3,159.9,227.4,159.9z"/>
	<path class="st1" d="M56.9,236c-7.4,0-13.4-6-13.4-13.4c0-7.4,6-13.4,13.4-13.4c7.4,0,13.4,6,13.4,13.4C70.3,230,64.3,236,56.9,236
		z M56.9,219.2c-1.9,0-3.4,1.5-3.4,3.4s1.5,3.4,3.4,3.4s3.4-1.5,3.4-3.4S58.8,219.2,56.9,219.2z"/>
	<path class="st2" d="M336.8,68.9c-7.4,0-13.4-6-13.4-13.4c0-7.4,6-13.4,13.4-13.4c7.4,0,13.4,6,13.4,13.4
		C350.2,62.9,344.2,68.9,336.8,68.9z M336.8,52.2c-1.9,0-3.4,1.5-3.4,3.4s1.5,3.4,3.4,3.4s3.4-1.5,3.4-3.4S338.7,52.2,336.8,52.2z"
		/>
	<g>
		<path class="st1" d="M392.4,366.1c-1.1,0-2.2-0.3-3.1-1c-2.2-1.7-2.6-4.8-0.9-7l13.7-17.7c1.7-2.2,4.8-2.6,7-0.9
			c2.2,1.7,2.6,4.8,0.9,7l-13.7,17.7C395.3,365.4,393.9,366.1,392.4,366.1z"/>
		<path class="st1" d="M408.1,364.1c-1.1,0-2.1-0.3-3.1-1l-17.7-13.7c-2.2-1.7-2.6-4.8-0.9-7c1.7-2.2,4.8-2.6,7-0.9l17.7,13.7
			c2.2,1.7,2.6,4.8,0.9,7C411.1,363.5,409.6,364.1,408.1,364.1z"/>
	</g>
</g>
<path id="color" class="st3" d="M98.9,341.7l22.1-33.4c5.9-8.9,14.4-15.8,24.4-19.6l42.2-16.4c19.9-8.9,32.5,14.1,15.3,26.6
	l-33.8,21.3c-10.8,7.4-2.9,18.8,6.5,15.4l86.9-25l27.7-42.3c12.5-20.1,36.9-8.2,23.7,14.9l-22.2,40.4c-2.7,4.9-6.9,8.9-11.9,11.4
	l-135.9,67.7c-4.6,2.3-10.2,0.9-13.2-3.4L99,353.3C96.5,349.8,96.5,345.2,98.9,341.7z"/>
<g id="shock_x5F_color">
	<path class="st4" d="M167.6,331.7l-0.4-0.6c-2.1-3.2-1.3-7.4,1.9-9.6l228.4-154.2c3.2-2.1,7.4-1.3,9.6,1.9l0.4,0.6
		c2.1,3.2,1.3,7.4-1.9,9.6L177.2,333.6C174,335.7,169.7,334.9,167.6,331.7z"/>
</g>
<g id="lines">
	<g>
		<path class="st5" d="M430.6,243.1c-8.2,34.5-42.9,55.9-77.4,47.7"/>
		<path class="st5" d="M415.8,239.6c-6.2,26.1-32.4,42.3-58.5,36.1"/>
		<path class="st5" d="M401.1,236.1c-4.3,18-22.3,29.1-40.4,24.9"/>
	</g>
	<line class="st6" x1="378.8" y1="206.1" x2="400.4" y2="191.5"/>
	<line class="st7" x1="478.2" y1="411" x2="460" y2="411"/>
	<line class="st7" x1="443.9" y1="410.5" x2="83.2" y2="410.5"/>
	<line class="st7" x1="66" y1="411" x2="47.8" y2="411"/>
	<path class="st8" d="M98.9,341.7l22.1-33.4c5.9-8.9,14.4-15.8,24.4-19.6l42.2-16.4c19.9-8.9,32.5,14.1,15.3,26.6l-33.8,21.3
		c-10.8,7.4-2.9,18.8,6.5,15.4l86.9-25l27.7-42.3c12.5-20.1,36.9-8.2,23.7,14.9l-22.2,40.4c-2.7,4.9-6.9,8.9-11.9,11.4l-135.9,67.7
		c-4.6,2.3-10.2,0.9-13.2-3.4L99,353.3C96.5,349.8,96.5,345.2,98.9,341.7z"/>
	<g>
		<path class="st5" d="M167.6,331.7l-0.4-0.6c-2.1-3.2-1.3-7.4,1.9-9.6l228.4-154.2c3.2-2.1,7.4-1.3,9.6,1.9l0.4,0.6
			c2.1,3.2,1.3,7.4-1.9,9.6L177.2,333.6C174,335.7,169.7,334.9,167.6,331.7z"/>
	</g>
</g>
<g id="shadows-lights">
	<line class="st9" x1="413.7" y1="422.7" x2="113.7" y2="422.7"/>
	<path class="st10" d="M310.2,260.1c2.8,9.1-4,22.4-4,22.4l-19,34.5c-2.7,4.9-6.9,8.9-11.9,11.4l-130.5,65.1
		c-4.6,2.3-10.2,0.9-13.2-3.4l-24.3-35.1c0,0-10-9.5-3.6-20.7"/>
	<path class="st10" d="M164.3,327.3c-7.3-12.2,4.1-18.7,4.1-18.7l33.9-20.5c0,0,5-2.6,5-9.3"/>
</g>
</svg>
