<?xml version="1.0" encoding="utf-8"?>
<!-- Generator: Adobe Illustrator 21.0.0, SVG Export Plug-In . SVG Version: 6.00 Build 0)  -->
<svg version="1.1" id="Layer_1" xmlns="http://www.w3.org/2000/svg" xmlns:xlink="http://www.w3.org/1999/xlink" x="0px" y="0px"
	 viewBox="0 0 512 512" style="enable-background:new 0 0 512 512;" xml:space="preserve">
<style type="text/css">
	.st0{opacity:0.25;fill:#95A2AC;}
	.st1{fill:#FFD54F;}
	.st2{fill:#95A2AC;}
	.st3{fill:#B3BDC3;}
	.st4{fill:#1DE9B6;}
	.st5{fill:#BA68C8;}
	.st6{fill:none;stroke:#000000;stroke-width:10;stroke-linecap:round;stroke-linejoin:round;stroke-miterlimit:10;}
	.st7{fill:none;stroke:#000000;stroke-width:10;stroke-miterlimit:10;}
	.st8{fill:none;stroke:#000000;stroke-width:10;stroke-linecap:round;stroke-miterlimit:10;}
	.st9{opacity:0.25;}
	.st10{fill:#222221;}
	.st11{opacity:0.75;fill:#FFFFFF;stroke:#FFFFFF;stroke-width:10;stroke-linecap:round;stroke-miterlimit:10;}
	.st12{opacity:0.25;fill:none;stroke:#6F6F6F;stroke-width:15;stroke-linecap:round;stroke-miterlimit:10;}
	.st13{opacity:0.25;fill:none;stroke:#000000;stroke-width:10;stroke-linecap:round;stroke-miterlimit:10;}
	.st14{opacity:0.25;fill:none;stroke:#000000;stroke-width:10;stroke-miterlimit:10;}
	.st15{opacity:0.75;fill:none;stroke:#FFFFFF;stroke-width:10;stroke-linecap:round;stroke-miterlimit:10;}
</style>
<g id="background">
	<circle class="st0" cx="255.6" cy="269.2" r="193.4"/>
	<path class="st1" d="M310.2,129c-7.4,0-13.4-6-13.4-13.4c0-7.4,6-13.4,13.4-13.4s13.4,6,13.4,13.4C323.6,123,317.6,129,310.2,129z
		 M310.2,112.2c-1.9,0-3.4,1.5-3.4,3.4c0,1.9,1.5,3.4,3.4,3.4s3.4-1.5,3.4-3.4C313.6,113.7,312.1,112.2,310.2,112.2z"/>
	<g>
		<path class="st1" d="M110.3,237.6c-2.8,0-5-2.2-5-5v-22.4c0-2.8,2.2-5,5-5s5,2.2,5,5v22.4C115.3,235.3,113,237.6,110.3,237.6z"/>
		<path class="st1" d="M121.5,226.3H99c-2.8,0-5-2.2-5-5s2.2-5,5-5h22.4c2.8,0,5,2.2,5,5S124.2,226.3,121.5,226.3z"/>
	</g>
	<g>
		<path class="st2" d="M404.7,329c-0.3,0-0.7,0-1-0.1c-2.7-0.5-4.5-3.2-3.9-5.9l4.4-22c0.5-2.7,3.2-4.5,5.9-3.9
			c2.7,0.5,4.5,3.2,3.9,5.9l-4.4,22C409.2,327.3,407.1,329,404.7,329z"/>
		<path class="st2" d="M417.9,320.2c-0.3,0-0.7,0-1-0.1l-22-4.4c-2.7-0.5-4.5-3.2-3.9-5.9c0.5-2.7,3.2-4.5,5.9-3.9l22,4.4
			c2.7,0.5,4.5,3.2,3.9,5.9C422.4,318.5,420.3,320.2,417.9,320.2z"/>
	</g>
	<g>
		<path class="st2" d="M242.4,68c-0.3,0-0.7,0-1-0.1c-2.7-0.5-4.5-3.2-3.9-5.9l4.4-22c0.5-2.7,3.2-4.5,5.9-3.9
			c2.7,0.5,4.5,3.2,3.9,5.9l-4.4,22C246.9,66.4,244.8,68,242.4,68z"/>
		<path class="st2" d="M255.6,59.2c-0.3,0-0.7,0-1-0.1l-22-4.4c-2.7-0.5-4.5-3.2-3.9-5.9c0.5-2.7,3.2-4.5,5.9-3.9l22,4.4
			c2.7,0.5,4.5,3.2,3.9,5.9C260.1,57.6,258,59.2,255.6,59.2z"/>
	</g>
	<g>
		<path class="st2" d="M202,219.6c-2.1,0-4.1-1.4-4.8-3.5l-6.6-21.4c-0.8-2.6,0.7-5.4,3.3-6.3c2.6-0.8,5.4,0.7,6.3,3.3l6.6,21.4
			c0.8,2.6-0.7,5.4-3.3,6.3C203,219.5,202.5,219.6,202,219.6z"/>
		<path class="st2" d="M188,212.2c-2.1,0-4.1-1.4-4.8-3.5c-0.8-2.6,0.7-5.4,3.3-6.3l21.4-6.6c2.6-0.8,5.4,0.7,6.3,3.3
			c0.8,2.6-0.7,5.4-3.3,6.3l-21.4,6.6C189,212.1,188.5,212.2,188,212.2z"/>
	</g>
	<path class="st2" d="M88.1,129c-7.4,0-13.4-6-13.4-13.4c0-7.4,6-13.4,13.4-13.4c7.4,0,13.4,6,13.4,13.4
		C101.5,123,95.5,129,88.1,129z M88.1,112.2c-1.9,0-3.4,1.5-3.4,3.4c0,1.9,1.5,3.4,3.4,3.4s3.4-1.5,3.4-3.4
		C91.5,113.7,90,112.2,88.1,112.2z"/>
	<path class="st1" d="M347.1,403.5c-7.4,0-13.4-6-13.4-13.4s6-13.4,13.4-13.4c7.4,0,13.4,6,13.4,13.4S354.5,403.5,347.1,403.5z
		 M347.1,386.8c-1.9,0-3.4,1.5-3.4,3.4s1.5,3.4,3.4,3.4s3.4-1.5,3.4-3.4S349,386.8,347.1,386.8z"/>
	<g>
		<path class="st1" d="M211.2,129.6c-1.5,0-3-0.7-4-2l-13.4-18c-1.6-2.2-1.2-5.3,1-7c2.2-1.6,5.3-1.2,7,1l13.4,18
			c1.6,2.2,1.2,5.3-1,7C213.2,129.3,212.2,129.6,211.2,129.6z"/>
		<path class="st1" d="M195.5,127.2c-1.5,0-3-0.7-4-2c-1.6-2.2-1.2-5.3,1-7l18-13.4c2.2-1.6,5.3-1.2,7,1s1.2,5.3-1,7l-18,13.4
			C197.6,126.9,196.5,127.2,195.5,127.2z"/>
	</g>
	<g>
		<path class="st2" d="M402,139.6c-2.1,0-4.1-1.4-4.8-3.5l-6.6-21.4c-0.8-2.6,0.7-5.4,3.3-6.3c2.6-0.8,5.4,0.7,6.3,3.3l6.6,21.4
			c0.8,2.6-0.7,5.4-3.3,6.3C403,139.5,402.5,139.6,402,139.6z"/>
		<path class="st2" d="M388,132.2c-2.1,0-4.1-1.4-4.8-3.5c-0.8-2.6,0.7-5.4,3.3-6.3l21.4-6.6c2.6-0.8,5.4,0.7,6.3,3.3
			c0.8,2.6-0.7,5.4-3.3,6.3l-21.4,6.6C389,132.1,388.5,132.2,388,132.2z"/>
	</g>
	<path class="st1" d="M110.2,349c-7.4,0-13.4-6-13.4-13.4c0-7.4,6-13.4,13.4-13.4s13.4,6,13.4,13.4C123.6,343,117.6,349,110.2,349z
		 M110.2,332.2c-1.9,0-3.4,1.5-3.4,3.4c0,1.9,1.5,3.4,3.4,3.4s3.4-1.5,3.4-3.4C113.6,333.7,112.1,332.2,110.2,332.2z"/>
</g>
<g id="shock_x5F_color">
	<path class="st3" d="M205.4,297c-3.7-3.7-9.6-3.7-13.3,0l-3.3,3.3c-3.7,3.7-3.7,9.6,0,13.3l61.9,61.9c3.7,3.7,9.6,3.7,13.3,0
		l3.3-3.3c3.7-3.7,3.7-9.6,0-13.3L205.4,297z"/>
	<path class="st3" d="M351,275.1l-61.9-61.9c-3.7-3.7-9.6-3.7-13.3,0l-3.3,3.3c-3.7,3.7-3.7,9.6,0,13.3l61.9,61.9
		c3.7,3.7,9.6,3.7,13.3,0l3.3-3.3C354.7,284.7,354.7,278.8,351,275.1z"/>
</g>
<g id="color">
	<path class="st4" d="M165.5,397.1l1.8,1.8c16.5,16.5,43.2,16.5,59.7,0l23.6-23.6L189,313.8l-23.6,23.6
		C149,353.9,149,380.6,165.5,397.1z"/>
	<path class="st5" d="M372.6,189.9l1.8,1.8c16.5,16.5,16.5,43.2,0,59.7L350.9,275l-61.5-61.5l23.6-23.6
		C329.4,173.4,356.1,173.4,372.6,189.9z"/>
</g>
<g id="lines">
	<line class="st6" x1="419.7" y1="431.9" x2="406.9" y2="431.9"/>
	<line class="st6" x1="383" y1="431.4" x2="131.2" y2="431.4"/>
	<line class="st6" x1="109.2" y1="431.9" x2="96.5" y2="431.9"/>
	<path class="st7" d="M290.3,302.7"/>
	<g>
		<path class="st7" d="M206.3,297.8l40.2-40.2c3.7-3.7,9.7-3.7,13.4,0c3.7,3.7,3.7,9.7,0,13.4l-40.2,40.2L206.3,297.8z"/>
	</g>
	<g>
		<path class="st7" d="M252.3,343.9l40.2-40.2c3.7-3.7,9.7-3.7,13.4,0c3.7,3.7,3.7,9.7,0,13.4l-40.2,40.2L252.3,343.9z"/>
	</g>
	<path class="st7" d="M188.9,313.6l61.9,61.9c3.7,3.7,9.6,3.7,13.3,0l3.3-3.3c3.7-3.7,3.7-9.6,0-13.3L205.4,297
		c-3.7-3.7-9.6-3.7-13.3,0l-3.3,3.3C185.2,304,185.2,310,188.9,313.6z"/>
	<path class="st7" d="M165.5,397.1l1.8,1.8c16.5,16.5,43.2,16.5,59.7,0l23.6-23.6L189,313.8l-23.6,23.6
		C149,353.9,149,380.6,165.5,397.1z"/>
	<path class="st7" d="M289.2,213.3l61.9,61.9c3.7,3.7,3.7,9.6,0,13.3l-3.3,3.3c-3.7,3.7-9.6,3.7-13.3,0l-61.9-61.9
		c-3.7-3.7-3.7-9.6,0-13.3l3.3-3.3C279.6,209.6,285.5,209.6,289.2,213.3z"/>
	<path class="st7" d="M372.6,189.9l1.8,1.8c16.5,16.5,16.5,43.2,0,59.7L350.9,275l-61.5-61.5l23.6-23.6
		C329.4,173.4,356.1,173.4,372.6,189.9z"/>
	<path class="st8" d="M372.3,187.4c0,0,33-39.9,67.9-2.4"/>
	<path class="st8" d="M164,395.4c0,0-38.3,34.8-67.6-7.3"/>
</g>
<g id="shadows-lights">
	<g class="st9">
		<path class="st10" d="M206.3,297.8l40.2-40.2c3.7-3.7,9.7-3.7,13.4,0c3.7,3.7,3.7,9.7,0,13.4l-40.2,40.2L206.3,297.8z"/>
	</g>
	<g class="st9">
		<path class="st10" d="M252.3,343.9l40.2-40.2c3.7-3.7,9.7-3.7,13.4,0c3.7,3.7,3.7,9.7,0,13.4l-40.2,40.2L252.3,343.9z"/>
	</g>
	<g>
		<line class="st11" x1="284.1" y1="218.7" x2="345.6" y2="280.2"/>
		<g>
			<line class="st12" x1="330.2" y1="443.6" x2="183.7" y2="443.6"/>
			<line class="st13" x1="185.2" y1="317.6" x2="246.7" y2="379.1"/>
			<line class="st11" x1="199.5" y1="303.4" x2="261" y2="364.8"/>
			<line class="st11" x1="243.6" y1="274" x2="253.2" y2="264.3"/>
			<line class="st11" x1="289.3" y1="320.6" x2="298.9" y2="310.9"/>
			<line class="st13" x1="293.2" y1="209.6" x2="354.7" y2="271.1"/>
			<path class="st14" d="M166.7,336.1c-15,15-15,39.4,0,54.4l7.1,7.1c15,15,39.4,15,54.4,0"/>
			<path class="st15" d="M346.8,193.2c0,0,25.5,4.9,22.8,35.5"/>
		</g>
	</g>
</g>
</svg>
