<?xml version="1.0" encoding="utf-8"?>
<!-- Generator: Adobe Illustrator 21.0.0, SVG Export Plug-In . SVG Version: 6.00 Build 0)  -->
<svg version="1.1" id="Layer_1" xmlns="http://www.w3.org/2000/svg" xmlns:xlink="http://www.w3.org/1999/xlink" x="0px" y="0px"
	 viewBox="0 0 512 512" style="enable-background:new 0 0 512 512;" xml:space="preserve">
<style type="text/css">
	.st0{opacity:0.25;fill:#95A2AC;}
	.st1{fill:#FFD54F;}
	.st2{fill:#95A2AC;}
	.st3{fill:#B3BDC3;}
	.st4{fill:#BA68C8;}
	.st5{fill:#1DE9B6;}
	.st6{opacity:0.5;fill:#080409;}
	.st7{opacity:0.25;fill:none;stroke:#6F6F6F;stroke-width:15;stroke-linecap:round;stroke-miterlimit:10;}
	.st8{opacity:0.25;fill:none;stroke:#000000;stroke-width:10;stroke-linecap:round;stroke-miterlimit:10;}
	.st9{opacity:0.75;fill:none;stroke:#FFFFFF;stroke-width:10;stroke-linecap:round;stroke-miterlimit:10;}
	.st10{opacity:0.5;fill:none;stroke:#000000;stroke-width:10;stroke-miterlimit:10;}
	.st11{opacity:0.25;fill:#FFFFFF;}
	.st12{opacity:0.25;}
	.st13{fill:none;stroke:#000000;stroke-width:10;stroke-linecap:round;stroke-linejoin:round;stroke-miterlimit:10;}
	.st14{fill:none;stroke:#000000;stroke-width:10;stroke-linecap:round;stroke-miterlimit:10;}
	.st15{fill:none;stroke:#000000;stroke-width:10;stroke-miterlimit:10;}
</style>
<g id="background">
	<circle class="st0" cx="269.8" cy="264" r="193.4"/>
	<g>
		<path class="st1" d="M386.1,170.8c-0.9,0-1.9-0.3-2.7-0.8c-2.3-1.5-3-4.6-1.4-6.9l12.3-18.7c1.5-2.3,4.6-3,6.9-1.4
			c2.3,1.5,3,4.6,1.4,6.9l-12.3,18.7C389.3,170,387.7,170.8,386.1,170.8z"/>
		<path class="st1" d="M401.6,167.6c-0.9,0-1.9-0.3-2.7-0.8l-18.7-12.3c-2.3-1.5-3-4.6-1.4-6.9c1.5-2.3,4.6-3,6.9-1.4l18.7,12.3
			c2.3,1.5,3,4.6,1.4,6.9C404.8,166.8,403.3,167.6,401.6,167.6z"/>
	</g>
	<g>
		<path class="st2" d="M215.1,74.2c-0.7,0-1.5-0.2-2.2-0.5l-20.1-10c-2.5-1.2-3.5-4.2-2.3-6.7c1.2-2.5,4.2-3.5,6.7-2.3l20.1,10
			c2.5,1.2,3.5,4.2,2.3,6.7C218.7,73.2,217,74.2,215.1,74.2z"/>
		<path class="st2" d="M200.1,79.3c-0.7,0-1.5-0.2-2.2-0.5c-2.5-1.2-3.5-4.2-2.3-6.7l10-20.1c1.2-2.5,4.2-3.5,6.7-2.3
			c2.5,1.2,3.5,4.2,2.3,6.7l-10,20.1C203.7,78.2,201.9,79.3,200.1,79.3z"/>
	</g>
	<g>
		<path class="st1" d="M145.8,172.2c-0.5,0-0.9-0.1-1.4-0.2c-2.7-0.8-4.2-3.5-3.4-6.2l6.2-21.6c0.8-2.7,3.5-4.2,6.2-3.4
			c2.7,0.8,4.2,3.5,3.4,6.2l-6.2,21.6C150,170.8,148,172.2,145.8,172.2z"/>
		<path class="st1" d="M159.7,164.6c-0.5,0-0.9-0.1-1.4-0.2l-21.5-6.2c-2.7-0.8-4.2-3.5-3.4-6.2c0.8-2.7,3.5-4.2,6.2-3.4l21.5,6.2
			c2.7,0.8,4.2,3.5,3.4,6.2C163.8,163.1,161.8,164.6,159.7,164.6z"/>
	</g>
	<g>
		<path class="st2" d="M79.3,319.4c-2.3,0-4.4-1.6-4.9-4l-4.4-22c-0.5-2.7,1.2-5.3,3.9-5.9c2.7-0.5,5.3,1.2,5.9,3.9l4.4,22
			c0.5,2.7-1.2,5.3-3.9,5.9C80,319.4,79.6,319.4,79.3,319.4z"/>
		<path class="st2" d="M66.1,310.6c-2.3,0-4.4-1.6-4.9-4c-0.5-2.7,1.2-5.3,3.9-5.9l22-4.4c2.7-0.5,5.3,1.2,5.9,3.9
			c0.5,2.7-1.2,5.3-3.9,5.9l-22,4.4C66.8,310.6,66.4,310.6,66.1,310.6z"/>
	</g>
	<g>
		<path class="st2" d="M432.5,240.7c-0.5,0-1-0.1-1.5-0.2c-2.6-0.8-4.1-3.6-3.3-6.3l6.6-21.4c0.8-2.6,3.6-4.1,6.3-3.3
			c2.6,0.8,4.1,3.6,3.3,6.3l-6.6,21.4C436.6,239.3,434.7,240.7,432.5,240.7z"/>
		<path class="st2" d="M446.5,233.3c-0.5,0-1-0.1-1.5-0.2l-21.4-6.6c-2.6-0.8-4.1-3.6-3.3-6.3c0.8-2.6,3.6-4.1,6.3-3.3l21.4,6.6
			c2.6,0.8,4.1,3.6,3.3,6.3C450.7,231.9,448.7,233.3,446.5,233.3z"/>
	</g>
	<path class="st2" d="M454.5,164.5c-7.4,0-13.4-6-13.4-13.4c0-7.4,6-13.4,13.4-13.4s13.4,6,13.4,13.4
		C467.9,158.5,461.9,164.5,454.5,164.5z M454.5,147.8c-1.9,0-3.4,1.5-3.4,3.4s1.5,3.4,3.4,3.4s3.4-1.5,3.4-3.4
		S456.4,147.8,454.5,147.8z"/>
	<path class="st1" d="M68.6,183c-7.4,0-13.4-6-13.4-13.4s6-13.4,13.4-13.4s13.4,6,13.4,13.4S76,183,68.6,183z M68.6,166.2
		c-1.9,0-3.4,1.5-3.4,3.4s1.5,3.4,3.4,3.4s3.4-1.5,3.4-3.4S70.5,166.2,68.6,166.2z"/>
	<g>
		<path class="st1" d="M353.5,91c-1,0-2.1-0.3-3-1c-2.2-1.6-2.7-4.8-1-7l13.4-18c1.6-2.2,4.8-2.7,7-1c2.2,1.6,2.7,4.8,1,7l-13.4,18
			C356.5,90.3,355,91,353.5,91z"/>
		<path class="st1" d="M369.2,88.7c-1,0-2.1-0.3-3-1l-18-13.4c-2.2-1.6-2.7-4.8-1-7c1.6-2.2,4.8-2.7,7-1l18,13.4
			c2.2,1.6,2.7,4.8,1,7C372.2,88,370.7,88.7,369.2,88.7z"/>
	</g>
	<path class="st2" d="M268.9,144.1c-7.4,0-13.4-6-13.4-13.4c0-7.4,6-13.4,13.4-13.4s13.4,6,13.4,13.4
		C282.3,138,276.3,144.1,268.9,144.1z M268.9,127.3c-1.9,0-3.4,1.5-3.4,3.4s1.5,3.4,3.4,3.4s3.4-1.5,3.4-3.4
		S270.8,127.3,268.9,127.3z"/>
</g>
<path id="shock_x5F_color" class="st3" d="M388,269.3H145.4c-7.1,0-12.8,5.7-12.8,12.8v93.7c0,7.1,5.7,12.8,12.8,12.8h24l-9.3,26.7
	c-1.6,4.6,1.8,9.4,6.7,9.4h200c4.8,0,8.2-4.8,6.7-9.4l-9.3-26.7h24c7.1,0,12.8-5.7,12.8-12.8v-93.7
	C400.8,275.1,395.1,269.3,388,269.3z"/>
<g id="color">
	<path class="st4" d="M157.8,360.4h-1.9c-3.6,0-6.5-2.9-6.5-6.5v-1.9c0-3.6,2.9-6.5,6.5-6.5h1.9c3.6,0,6.5,2.9,6.5,6.5v1.9
		C164.3,357.4,161.4,360.4,157.8,360.4z"/>
	<path class="st5" d="M381.2,343.6h-25.6c-3.6,0-6.5-2.9-6.5-6.5v-25.6c0-3.6,2.9-6.5,6.5-6.5h25.6c3.6,0,6.5,2.9,6.5,6.5V337
		C387.7,340.6,384.8,343.6,381.2,343.6z"/>
</g>
<g id="shadows-lights">
	<g>
		<g>
			<path class="st6" d="M321.4,329H208.3c-5.2,0-9.4,4.2-9.4,9.4v23h132v-23C330.8,333.2,326.6,329,321.4,329z"/>
			<g>
				<line class="st7" x1="161.5" y1="402.7" x2="138.1" y2="402.7"/>
				<line class="st7" x1="400" y1="402.7" x2="373.5" y2="402.7"/>
				<path class="st8" d="M171,379.6h-26.9c-6.4,0-11.5-5.2-11.5-11.5"/>
				<path class="st8" d="M400.8,368.1c0,6.4-5.2,11.5-11.5,11.5h-24.8"/>
				<line class="st9" x1="300.7" y1="287.1" x2="156.2" y2="287.1"/>
				<path class="st10" d="M164.3,355.8v1.4c0,3.8-3,6.8-6.8,6.8h-1.4c-3.8,0-6.8-3-6.8-6.8v-1.4"/>
				<path class="st11" d="M321.4,182.1H208.3c-5.2,0-9.4,4.2-9.4,9.4v77.1h132v-77.1C330.8,186.4,326.6,182.1,321.4,182.1z"/>
			</g>
		</g>
		<path class="st12" d="M366.7,424.7c4.8,0,8.2-4.8,6.7-9.4l-14.8-42.4c-1.9-4.8-5.2-11.5-11.5-11.5H186.3c-6.4,0-9.5,5.2-11.5,11.5
			L160,415.3c-1.6,4.6,1.8,9.4,6.7,9.4H366.7z"/>
	</g>
	<path class="st10" d="M387.7,331.7v3.6c0,9.7-7.9,17.6-17.6,17.6h-3.6c-9.7,0-17.6-7.9-17.6-17.6v-3.6"/>
</g>
<g id="lines">
	<line class="st13" x1="462.5" y1="391" x2="446.5" y2="391"/>
	<line class="st13" x1="167" y1="390.5" x2="111.4" y2="390.5"/>
	<line class="st13" x1="426.3" y1="390.5" x2="367.5" y2="390.5"/>
	<line class="st13" x1="93" y1="391" x2="77.1" y2="391"/>
	<path class="st13" d="M168.5,388.6h-23.1c-7.1,0-12.8-5.7-12.8-12.8v-93.7c0-7.1,5.7-12.8,12.8-12.8H388c7.1,0,12.8,5.7,12.8,12.8
		v93.7c0,7.1-5.7,12.8-12.8,12.8h-22"/>
	<path class="st13" d="M366.7,424.7c4.8,0,8.2-4.8,6.7-9.4l-14.8-42.4c-1.9-4.8-5.2-11.5-11.5-11.5H186.3c-6.4,0-9.5,5.2-11.5,11.5
		L160,415.3c-1.6,4.6,1.8,9.4,6.7,9.4H366.7z"/>
	<path class="st14" d="M182.5,194.9c-33.7,0-61,27.3-61,61"/>
	<path class="st14" d="M182.5,209.4c-25.5,0-46.1,20.6-46.1,46.1"/>
	<path class="st14" d="M182.5,223.7c-17.6,0-31.8,14.2-31.8,31.8"/>
	<path class="st13" d="M321.4,329H208.3c-5.2,0-9.4,4.2-9.4,9.4v23h132v-23C330.8,333.2,326.6,329,321.4,329z"/>
	<path class="st13" d="M321.4,182.1H208.3c-5.2,0-9.4,4.2-9.4,9.4v77.1h132v-77.1C330.8,186.4,326.6,182.1,321.4,182.1z"/>
	<path class="st15" d="M157.8,360.4h-1.9c-3.6,0-6.5-2.9-6.5-6.5v-1.9c0-3.6,2.9-6.5,6.5-6.5h1.9c3.6,0,6.5,2.9,6.5,6.5v1.9
		C164.3,357.4,161.4,360.4,157.8,360.4z"/>
	<path class="st15" d="M381.2,343.6h-25.6c-3.6,0-6.5-2.9-6.5-6.5v-25.6c0-3.6,2.9-6.5,6.5-6.5h25.6c3.6,0,6.5,2.9,6.5,6.5V337
		C387.7,340.6,384.8,343.6,381.2,343.6z"/>
</g>
</svg>
