<?xml version="1.0" encoding="utf-8"?>
<!-- Generator: Adobe Illustrator 21.0.0, SVG Export Plug-In . SVG Version: 6.00 Build 0)  -->
<svg version="1.1" id="Layer_1" xmlns="http://www.w3.org/2000/svg" xmlns:xlink="http://www.w3.org/1999/xlink" x="0px" y="0px"
	 viewBox="0 0 512 512" style="enable-background:new 0 0 512 512;" xml:space="preserve">
<style type="text/css">
	.st0{opacity:0.25;fill:#95A2AC;}
	.st1{fill:#FFD54F;}
	.st2{fill:#95A2AC;}
	.st3{fill:#1DE9B6;}
	.st4{fill:#B3BDC3;}
	.st5{opacity:0.25;fill:none;stroke:#6F6F6F;stroke-width:15;stroke-linecap:round;stroke-miterlimit:10;}
	.st6{opacity:0.25;}
	.st7{opacity:0.25;fill:none;stroke:#000000;stroke-width:10;stroke-linecap:round;stroke-miterlimit:10;}
	.st8{opacity:0.75;fill:none;stroke:#FFFFFF;stroke-width:10;stroke-linecap:round;stroke-miterlimit:10;}
	.st9{fill:none;stroke:#000000;stroke-width:10;stroke-linecap:round;stroke-linejoin:round;stroke-miterlimit:10;}
	.st10{fill:none;stroke:#000000;stroke-width:10;stroke-linecap:round;stroke-miterlimit:10;}
</style>
<g id="background">
	<circle class="st0" cx="256.7" cy="271.3" r="193.4"/>
	<g>
		<path class="st1" d="M387.1,146.9c-2.8,0-5-2.2-5-5v-22.4c0-2.8,2.2-5,5-5s5,2.2,5,5v22.4C392.1,144.7,389.9,146.9,387.1,146.9z"
			/>
		<path class="st1" d="M398.3,135.7h-22.4c-2.8,0-5-2.2-5-5s2.2-5,5-5h22.4c2.8,0,5,2.2,5,5S401.1,135.7,398.3,135.7z"/>
	</g>
	<g>
		<path class="st2" d="M142.7,135.7c-2.3,0-4.4-1.6-4.9-4l-4.4-22c-0.5-2.7,1.2-5.3,3.9-5.9c2.7-0.5,5.3,1.2,5.9,3.9l4.4,22
			c0.5,2.7-1.2,5.3-3.9,5.9C143.4,135.7,143.1,135.7,142.7,135.7z"/>
		<path class="st2" d="M129.5,126.9c-2.3,0-4.4-1.6-4.9-4c-0.5-2.7,1.2-5.3,3.9-5.9l22-4.4c2.7-0.5,5.3,1.2,5.9,3.9
			c0.5,2.7-1.2,5.3-3.9,5.9l-22,4.4C130.2,126.9,129.9,126.9,129.5,126.9z"/>
	</g>
	<g>
		<path class="st1" d="M399.6,341.6c-1.1,0-2.1-0.3-3.1-1c-2.2-1.7-2.6-4.8-0.9-7l13.7-17.7c1.7-2.2,4.8-2.6,7-0.9
			c2.2,1.7,2.6,4.8,0.9,7l-13.7,17.7C402.6,341,401.1,341.6,399.6,341.6z"/>
		<path class="st1" d="M415.4,339.6c-1.1,0-2.1-0.3-3.1-1l-17.7-13.7c-2.2-1.7-2.6-4.8-0.9-7c1.7-2.2,4.8-2.6,7-0.9l17.7,13.7
			c2.2,1.7,2.6,4.8,0.9,7C418.3,339,416.9,339.6,415.4,339.6z"/>
	</g>
	<g>
		<path class="st2" d="M112.4,323.9c-2.3,0-4.4-1.6-4.9-4l-4.4-22c-0.5-2.7,1.2-5.3,3.9-5.9c2.7-0.5,5.3,1.2,5.9,3.9l4.4,22
			c0.5,2.7-1.2,5.3-3.9,5.9C113,323.9,112.7,323.9,112.4,323.9z"/>
		<path class="st2" d="M99.2,315.1c-2.3,0-4.4-1.6-4.9-4c-0.5-2.7,1.2-5.3,3.9-5.9l22-4.4c2.7-0.5,5.3,1.2,5.9,3.9s-1.2,5.3-3.9,5.9
			l-22,4.4C99.9,315.1,99.5,315.1,99.2,315.1z"/>
	</g>
	<path class="st2" d="M290.6,91.3c-7.4,0-13.4-6-13.4-13.4c0-7.4,6-13.4,13.4-13.4c7.4,0,13.4,6,13.4,13.4
		C304,85.3,298,91.3,290.6,91.3z M290.6,74.6c-1.9,0-3.4,1.5-3.4,3.4s1.5,3.4,3.4,3.4c1.9,0,3.4-1.5,3.4-3.4S292.5,74.6,290.6,74.6z
		"/>
	<path class="st1" d="M76,220.5c-7.4,0-13.4-6-13.4-13.4c0-7.4,6-13.4,13.4-13.4c7.4,0,13.4,6,13.4,13.4
		C89.4,214.5,83.4,220.5,76,220.5z M76,203.7c-1.9,0-3.4,1.5-3.4,3.4s1.5,3.4,3.4,3.4c1.9,0,3.4-1.5,3.4-3.4S77.9,203.7,76,203.7z"
		/>
	<path class="st2" d="M367.6,236.9c-7.4,0-13.4-6-13.4-13.4c0-7.4,6-13.4,13.4-13.4s13.4,6,13.4,13.4
		C380.9,230.9,374.9,236.9,367.6,236.9z M367.6,220.1c-1.9,0-3.4,1.5-3.4,3.4s1.5,3.4,3.4,3.4s3.4-1.5,3.4-3.4
		S369.4,220.1,367.6,220.1z"/>
	<g>
		<path class="st1" d="M270.7,159.5c-1.1,0-2.1-0.3-3.1-1c-2.2-1.7-2.6-4.8-0.9-7l13.7-17.7c1.7-2.2,4.8-2.6,7-0.9
			c2.2,1.7,2.6,4.8,0.9,7l-13.7,17.7C273.6,158.8,272.2,159.5,270.7,159.5z"/>
		<path class="st1" d="M286.4,157.5c-1.1,0-2.1-0.3-3.1-1l-17.7-13.7c-2.2-1.7-2.6-4.8-0.9-7c1.7-2.2,4.8-2.6,7-0.9l17.7,13.7
			c2.2,1.7,2.6,4.8,0.9,7C289.4,156.8,287.9,157.5,286.4,157.5z"/>
	</g>
	<path class="st1" d="M200.3,133.1c-7.4,0-13.4-6-13.4-13.4c0-7.4,6-13.4,13.4-13.4s13.4,6,13.4,13.4
		C213.7,127.1,207.7,133.1,200.3,133.1z M200.3,116.3c-1.9,0-3.4,1.5-3.4,3.4s1.5,3.4,3.4,3.4s3.4-1.5,3.4-3.4
		S202.2,116.3,200.3,116.3z"/>
	<path class="st2" d="M436.6,270c-7.4,0-13.4-6-13.4-13.4c0-7.4,6-13.4,13.4-13.4s13.4,6,13.4,13.4C450,264,444,270,436.6,270z
		 M436.6,253.3c-1.9,0-3.4,1.5-3.4,3.4s1.5,3.4,3.4,3.4s3.4-1.5,3.4-3.4S438.5,253.3,436.6,253.3z"/>
</g>
<ellipse id="color" transform="matrix(0.7071 -0.7071 0.7071 0.7071 -53.4165 285.2136)" class="st3" cx="317.6" cy="207.1" rx="16.4" ry="16.4"/>
<g id="shock_x5F_color">
	<path class="st4" d="M345.2,320.9L203.7,179.5c-3.7-3.7-10-3.7-13.4,0.3c-36.2,43.1-34,107.5,6.5,148
		c19.2,19.2,43.7,29.8,68.7,31.8c-45.4-3.4-68.7-31.8-68.7-31.8l-26.4,62.6c-2.7,6.4,2,13.5,9,13.5h106.1c7.2,0,11.9-7.6,8.7-14
		l-14.8-30.1c23.4-1.1,46.5-9.5,65.5-25.5C348.9,330.9,348.9,324.7,345.2,320.9z"/>
	<path class="st4" d="M314,223.1c-8.8-1.3-12.4-12.4-12.4-12.4l-50,16.7l45.7,45.7L314,223.1z"/>
</g>
<g id="shadows-lights">
	<line class="st5" x1="406.5" y1="422.7" x2="106.6" y2="422.7"/>
	<path class="st6" d="M196.9,327.8c0,0,28.1,34.2,82.5,32l14.8,30.1c3.2,6.5-1.5,14-8.7,14H179.4c-7,0-11.7-7.1-9-13.5L196.9,327.8z
		"/>
	<path class="st6" d="M301.6,210.7l-50,16.7l45.7,45.7l16.7-50C305.2,221.8,301.6,210.7,301.6,210.7z"/>
	<path class="st7" d="M289.2,379.5c3.2,6.5,1.2,17.3-7.3,17.3h-98.4c-9.3,0-11.2-10.9-8.5-17.3"/>
	<path class="st7" d="M190.4,179.8c-36.2,43.1-34,97.9,6.5,138.4s104.9,42.7,148,6.5"/>
	<line class="st8" x1="281" y1="281.8" x2="200.3" y2="201"/>
</g>
<g id="lines">
	<line class="st9" x1="471" y1="411" x2="452.8" y2="411"/>
	<line class="st9" x1="436.7" y1="410.5" x2="76" y2="410.5"/>
	<line class="st9" x1="58.9" y1="411" x2="40.7" y2="411"/>
	<path class="st10" d="M203.7,179.5c-3.7-3.7-10-3.7-13.4,0.3c-36.2,43.1-34,107.5,6.5,148s104.9,42.7,148,6.5c4-3.4,4-9.6,0.3-13.4
		L203.7,179.5z"/>
	<path class="st9" d="M301.6,210.7l-50,16.7l45.7,45.7l16.7-50C305.2,221.8,301.6,210.7,301.6,210.7z"/>
	<path class="st10" d="M196.9,327.8c0,0,28.1,34.2,82.5,32l14.8,30.1c3.2,6.5-1.5,14-8.7,14H179.4c-7,0-11.7-7.1-9-13.5L196.9,327.8
		z"/>
	
		<ellipse transform="matrix(0.7071 -0.7071 0.7071 0.7071 -53.4165 285.2136)" class="st10" cx="317.6" cy="207.1" rx="16.4" ry="16.4"/>
</g>
</svg>
