<?xml version="1.0" encoding="utf-8"?>
<!-- Generator: Adobe Illustrator 16.0.0, SVG Export Plug-In . SVG Version: 6.00 Build 0)  -->
<!DOCTYPE svg PUBLIC "-//W3C//DTD SVG 1.1//EN" "http://www.w3.org/Graphics/SVG/1.1/DTD/svg11.dtd">
<svg version="1.1" id="Layer_1" xmlns="http://www.w3.org/2000/svg" xmlns:xlink="http://www.w3.org/1999/xlink" x="0px" y="0px"
	 viewBox="0 0 32 32" style="enable-background:new 0 0 32 32;" xml:space="preserve">
<path style="fill:#FFD878;" d="M22.5,21.5c0,3.866-3.134,7-7,7s-7-3.134-7-7s3.134-7,7-7S22.5,17.634,22.5,21.5z M15.5,16
	c-3.037,0-5.5,2.463-5.5,5.5s2.463,5.5,5.5,5.5s5.5-2.463,5.5-5.5S18.537,16,15.5,16z"/>
<path id="shock_x5F_color" style="fill:#67DDE0;" d="M17.167,14.5h-3.334l-1.367-3.958h6.069L17.167,14.5z M15.5,6
	C15.224,6,15,5.776,15,5.5v-4C15,1.223,15.224,1,15.5,1C15.777,1,16,1.223,16,1.5v4C16,5.776,15.777,6,15.5,6 M8.075,4.782
	c-0.195-0.195-0.195-0.512,0-0.707c0.196-0.195,0.513-0.195,0.708,0l2.828,2.828c0.195,0.195,0.195,0.513,0,0.708
	c-0.195,0.195-0.512,0.195-0.707,0L8.075,4.782z M25.5,11c0.276,0,0.5,0.223,0.5,0.5c0,0.276-0.224,0.5-0.5,0.5h-4
	c-0.276,0-0.5-0.224-0.5-0.5c0-0.277,0.224-0.5,0.5-0.5H25.5 M10,11.5c0,0.276-0.223,0.5-0.5,0.5h-4C5.224,12,5,11.776,5,11.5
	C5,11.223,5.224,11,5.5,11h4C9.777,11,10,11.223,10,11.5 M20.096,7.611c-0.194,0.195-0.512,0.195-0.707,0s-0.195-0.513,0-0.708
	l2.829-2.828c0.195-0.195,0.512-0.195,0.707,0c0.195,0.195,0.195,0.512,0,0.707L20.096,7.611"/>
<polygon style="opacity:0.4;fill:#FFFFFF;" points="17.167,14.5 13.833,14.5 12.465,10.542 18.534,10.542 "/>
<path style="fill:#4D5152;" d="M17.675,14.322l1.245-2.951c0.139-0.308,0.096-0.657-0.113-0.932C18.598,10.164,18.249,10,17.875,10
	h-4.75c-0.373,0-0.722,0.164-0.931,0.439c-0.21,0.275-0.252,0.624-0.114,0.932l1.245,2.951C10.244,15.255,8,18.114,8,21.5
	c0,4.143,3.358,7.5,7.5,7.5c4.143,0,7.5-3.357,7.5-7.5C23,18.114,20.756,15.255,17.675,14.322 M13,11h5l-1.354,3.096
	C16.271,14.039,15.891,14,15.5,14c-0.39,0-0.771,0.039-1.145,0.096L13,11z M15.5,28C11.91,28,9,25.09,9,21.5s2.91-6.5,6.5-6.5
	c3.59,0,6.5,2.91,6.5,6.5S19.09,28,15.5,28"/>
</svg>
