<?xml version="1.0" encoding="utf-8"?>
<!-- Generator: Adobe Illustrator 21.0.0, SVG Export Plug-In . SVG Version: 6.00 Build 0)  -->
<svg version="1.1" id="Layer_1" xmlns="http://www.w3.org/2000/svg" xmlns:xlink="http://www.w3.org/1999/xlink" x="0px" y="0px"
	 viewBox="0 0 512 512" style="enable-background:new 0 0 512 512;" xml:space="preserve">
<style type="text/css">
	.st0{opacity:0.25;fill:#95A2AC;}
	.st1{fill:#FFD54F;}
	.st2{fill:#95A2AC;}
	.st3{fill:#B3BDC3;}
	.st4{opacity:0.25;fill:none;stroke:#6F6F6F;stroke-width:15;stroke-linecap:round;stroke-miterlimit:10;}
	.st5{opacity:0.5;fill:none;stroke:#6F6F6F;stroke-width:10;stroke-linecap:round;stroke-miterlimit:10;}
	.st6{opacity:0.75;fill:none;stroke:#FFFFFF;stroke-width:10;stroke-linecap:round;stroke-miterlimit:10;}
	.st7{fill:#BA68C8;}
	.st8{opacity:0.75;fill:#1DE9B6;}
	.st9{fill:#1DE9B6;}
	.st10{fill:none;stroke:#000000;stroke-width:10;stroke-linecap:round;stroke-linejoin:round;stroke-miterlimit:10;}
	.st11{fill:none;stroke:#000000;stroke-width:10;stroke-linecap:round;stroke-miterlimit:10;}
</style>
<g id="background">
	<circle class="st0" cx="252.2" cy="268.6" r="193.4"/>
	<g>
		<path class="st1" d="M216.1,136.3l-5.2-3.4l3.4-5.2c1.5-2.3,0.9-5.4-1.4-6.9s-5.4-0.9-6.9,1.4l-3.4,5.2l-5.2-3.4
			c-2.3-1.5-5.4-0.9-6.9,1.4c-1.5,2.3-0.9,5.4,1.4,6.9l5.2,3.4l-3.4,5.2c-1.5,2.3-0.9,5.4,1.4,6.9c0.8,0.6,1.8,0.8,2.7,0.8
			c1.6,0,3.2-0.8,4.2-2.3l3.4-5.2l5.2,3.4c0.8,0.6,1.8,0.8,2.7,0.8c1.6,0,3.2-0.8,4.2-2.3C219,140.9,218.4,137.8,216.1,136.3z"/>
		<path class="st1" d="M328,86.8c0.5,0.1,0.9,0.2,1.4,0.2c2.2,0,4.2-1.4,4.8-3.6l1.7-6l6,1.7c0.5,0.1,0.9,0.2,1.4,0.2
			c2.2,0,4.2-1.4,4.8-3.6c0.8-2.7-0.8-5.4-3.4-6.2l-6-1.7l1.7-6c0.8-2.7-0.8-5.4-3.4-6.2c-2.6-0.8-5.4,0.8-6.2,3.4l-1.7,6l-6-1.7
			c-2.6-0.8-5.4,0.8-6.2,3.4c-0.8,2.7,0.8,5.4,3.4,6.2l6,1.7l-1.7,6C323.8,83.2,325.4,86,328,86.8z"/>
		<path class="st1" d="M129,187.5c-7.4,0-13.4,6-13.4,13.4c0,7.4,6,13.4,13.4,13.4c7.4,0,13.4-6,13.4-13.4
			C142.4,193.5,136.4,187.5,129,187.5z M129,204.3c-1.9,0-3.4-1.5-3.4-3.4s1.5-3.4,3.4-3.4s3.4,1.5,3.4,3.4S130.9,204.3,129,204.3z"
			/>
		<path class="st1" d="M351.1,232.9l-5-3.7l3.7-5c1.6-2.2,1.2-5.3-1-7c-2.2-1.6-5.3-1.2-7,1l-3.7,5l-5-3.7c-2.2-1.6-5.3-1.2-7,1
			c-1.6,2.2-1.2,5.3,1,7l5,3.7l-3.7,5c-1.6,2.2-1.2,5.3,1,7c0.9,0.7,1.9,1,3,1c1.5,0,3-0.7,4-2l3.7-5l5,3.7c0.9,0.7,1.9,1,3,1
			c1.5,0,3-0.7,4-2C353.8,237.7,353.4,234.6,351.1,232.9z"/>
	</g>
	<g>
		<path class="st2" d="M82.8,145.6c0.5,2.4,2.6,4,4.9,4c0.3,0,0.7,0,1-0.1c2.7-0.5,4.5-3.2,3.9-5.9l-1.2-6.1l6.1-1.2
			c2.7-0.5,4.5-3.2,3.9-5.9c-0.5-2.7-3.2-4.5-5.9-3.9l-6.1,1.2l-1.2-6.1c-0.5-2.7-3.2-4.5-5.9-3.9c-2.7,0.5-4.5,3.2-3.9,5.9l1.2,6.1
			l-6.1,1.2c-2.7,0.5-4.5,3.2-3.9,5.9c0.5,2.4,2.6,4,4.9,4c0.3,0,0.7,0,1-0.1l6.1-1.2L82.8,145.6z"/>
		<path class="st2" d="M106.5,258.9l-6.1,1.2l-1.2-6.1c-0.5-2.7-3.2-4.5-5.9-3.9c-2.7,0.5-4.5,3.2-3.9,5.9l1.2,6.1l-6.1,1.2
			c-2.7,0.5-4.5,3.2-3.9,5.9c0.5,2.4,2.6,4,4.9,4c0.3,0,0.7,0,1-0.1l6.1-1.2l1.2,6.1c0.5,2.4,2.6,4,4.9,4c0.3,0,0.7,0,1-0.1
			c2.7-0.5,4.5-3.2,3.9-5.9l-1.2-6.1l6.1-1.2c2.7-0.5,4.5-3.2,3.9-5.9C111.8,260.1,109.2,258.4,106.5,258.9z"/>
		<path class="st2" d="M305,151.7l-5.9-1.8l1.8-5.9c0.8-2.6-0.7-5.4-3.3-6.3c-2.6-0.8-5.4,0.7-6.3,3.3l-1.8,5.9l-5.9-1.8
			c-2.6-0.8-5.4,0.7-6.3,3.3c-0.8,2.6,0.7,5.4,3.3,6.3l5.9,1.8l-1.8,5.9c-0.8,2.6,0.7,5.4,3.3,6.3c0.5,0.2,1,0.2,1.5,0.2
			c2.1,0,4.1-1.4,4.8-3.5l1.8-5.9l5.9,1.8c0.5,0.2,1,0.2,1.5,0.2c2.1,0,4.1-1.4,4.8-3.5C309.2,155.3,307.7,152.5,305,151.7z"/>
		<path class="st2" d="M197.8,47c-7.4,0-13.4,6-13.4,13.4c0,7.4,6,13.4,13.4,13.4c7.4,0,13.4-6,13.4-13.4
			C211.2,53,205.2,47,197.8,47z M197.8,63.8c-1.9,0-3.4-1.5-3.4-3.4s1.5-3.4,3.4-3.4s3.4,1.5,3.4,3.4S199.7,63.8,197.8,63.8z"/>
		<path class="st2" d="M373.9,143.1c-7.4,0-13.4,6-13.4,13.4c0,7.4,6,13.4,13.4,13.4c7.4,0,13.4-6,13.4-13.4
			C387.3,149.1,381.3,143.1,373.9,143.1z M373.9,159.8c-1.9,0-3.4-1.5-3.4-3.4s1.5-3.4,3.4-3.4c1.9,0,3.4,1.5,3.4,3.4
			S375.8,159.8,373.9,159.8z"/>
		<path class="st2" d="M457.4,189.6l-6.1-1.1l1.1-6.1c0.5-2.7-1.3-5.3-4-5.8c-2.7-0.5-5.3,1.3-5.8,4l-1.1,6.1l-6.1-1.1
			c-2.7-0.5-5.3,1.3-5.8,4c-0.5,2.7,1.3,5.3,4,5.8l6.1,1.1l-1.1,6.1c-0.5,2.7,1.3,5.3,4,5.8c0.3,0.1,0.6,0.1,0.9,0.1
			c2.4,0,4.5-1.7,4.9-4.1l1.1-6.1l6.1,1.1c0.3,0.1,0.6,0.1,0.9,0.1c2.4,0,4.5-1.7,4.9-4.1C461.9,192.7,460.1,190.1,457.4,189.6z"/>
		<path class="st2" d="M406.5,252.6c-7.4,0-13.4,6-13.4,13.4s6,13.4,13.4,13.4s13.4-6,13.4-13.4S413.9,252.6,406.5,252.6z
			 M406.5,269.4c-1.9,0-3.4-1.5-3.4-3.4s1.5-3.4,3.4-3.4s3.4,1.5,3.4,3.4S408.4,269.4,406.5,269.4z"/>
	</g>
</g>
<path id="shock_x5F_color" class="st3" d="M376.5,307.9H190.1V164.8c0-5.9-4.8-10.6-10.6-10.6s-10.6,4.8-10.6,10.6v143.1h-36.7
	c-12,0-21.7,9.7-21.7,21.7V358c0,12,9.7,21.7,21.7,21.7h244.3c12,0,21.7-9.7,21.7-21.7v-28.4C398.1,317.6,388.4,307.9,376.5,307.9z"
	/>
<g id="lights_-_shadows">
	<line class="st4" x1="373.9" y1="395.2" x2="129" y2="395.2"/>
	<path class="st5" d="M398.1,351c0,10.4-8.4,18.8-18.8,18.8h-250c-10.4,0-18.8-8.4-18.8-18.8"/>
	<line class="st6" x1="379.5" y1="327.1" x2="324.8" y2="327.1"/>
	<line class="st6" x1="281.5" y1="327.1" x2="272.9" y2="327.1"/>
</g>
<g id="color">
	<circle class="st7" cx="180.8" cy="343.2" r="9.3"/>
	<circle class="st8" cx="215.5" cy="343.2" r="9.3"/>
	<circle class="st9" cx="146.2" cy="343.2" r="9.3"/>
	<circle class="st9" cx="250.2" cy="343.2" r="9.3"/>
	<circle class="st9" cx="302.2" cy="343.2" r="9.3"/>
</g>
<g id="lines">
	<line class="st10" x1="433.7" y1="385.1" x2="418.8" y2="385.1"/>
	<line class="st10" x1="398.5" y1="384.6" x2="104.1" y2="384.6"/>
	<line class="st10" x1="85.5" y1="385.1" x2="70.6" y2="385.1"/>
	<circle class="st10" cx="180.8" cy="343.2" r="9.3"/>
	<circle class="st10" cx="215.5" cy="343.2" r="9.3"/>
	<path class="st10" d="M132.2,307.9h244.3c12,0,21.7,9.7,21.7,21.7V358c0,12-9.7,21.7-21.7,21.7H132.2c-12,0-21.7-9.7-21.7-21.7
		v-28.4C110.5,317.6,120.2,307.9,132.2,307.9z"/>
	<path class="st10" d="M179.5,154.2L179.5,154.2c-5.9,0-10.6,4.8-10.6,10.6v143.1h21.3V164.8C190.1,159,185.4,154.2,179.5,154.2z"/>
	<line class="st10" x1="171.5" y1="283.6" x2="190.1" y2="283.6"/>
	<line class="st10" x1="170.8" y1="261.5" x2="188.6" y2="261.5"/>
	<path class="st11" d="M289.9,271.8c0-33.7-27.3-61-61-61"/>
	<path class="st11" d="M275,271.8c0-25.5-20.6-46.1-46.1-46.1"/>
	<path class="st11" d="M260.7,271.8c0-17.6-14.2-31.8-31.8-31.8"/>
	<circle class="st10" cx="146.2" cy="343.2" r="9.3"/>
	<circle class="st10" cx="250.2" cy="343.2" r="9.3"/>
	<circle class="st10" cx="302.2" cy="343.2" r="9.3"/>
</g>
</svg>
