<?xml version="1.0" encoding="utf-8"?>
<!-- Generator: Adobe Illustrator 21.0.0, SVG Export Plug-In . SVG Version: 6.00 Build 0)  -->
<svg version="1.1" id="Layer_1" xmlns="http://www.w3.org/2000/svg" xmlns:xlink="http://www.w3.org/1999/xlink" x="0px" y="0px"
	 viewBox="0 0 512 512" style="enable-background:new 0 0 512 512;" xml:space="preserve">
<style type="text/css">
	.st0{opacity:0.25;fill:#95A2AC;}
	.st1{fill:#FFD54F;}
	.st2{fill:#95A2AC;}
	.st3{fill:#B3BDC3;}
	.st4{fill:#1DE9B6;}
	.st5{fill:#BA68C8;}
	.st6{opacity:0.25;fill:none;stroke:#6F6F6F;stroke-width:15;stroke-linecap:round;stroke-miterlimit:10;}
	.st7{opacity:0.25;fill:none;stroke:#000000;stroke-width:10;stroke-linecap:round;stroke-miterlimit:10;}
	.st8{opacity:0.75;fill:none;stroke:#FFFFFF;stroke-width:10;stroke-linecap:round;stroke-miterlimit:10;}
	.st9{fill:none;stroke:#000000;stroke-width:10;stroke-linecap:round;stroke-linejoin:round;stroke-miterlimit:10;}
	.st10{fill:none;stroke:#000000;stroke-width:10;stroke-linecap:round;stroke-miterlimit:10;}
	.st11{fill:#1DE9B6;stroke:#000000;stroke-width:10;stroke-linecap:round;stroke-miterlimit:10;}
</style>
<g id="background">
	<circle class="st0" cx="256.1" cy="260.6" r="193.4"/>
	<g>
		<path class="st1" d="M87.2,185.9c-2.8,0-5-2.2-5-5v-22.4c0-2.8,2.2-5,5-5s5,2.2,5,5v22.4C92.2,183.6,89.9,185.9,87.2,185.9z"/>
		<path class="st1" d="M98.4,174.7H76c-2.8,0-5-2.2-5-5s2.2-5,5-5h22.4c2.8,0,5,2.2,5,5S101.1,174.7,98.4,174.7z"/>
	</g>
	<g>
		<path class="st2" d="M319.3,94.2c-2.3,0-4.4-1.6-4.9-4l-4.4-22c-0.5-2.7,1.2-5.3,3.9-5.9c2.7-0.5,5.3,1.2,5.9,3.9l4.4,22
			c0.5,2.7-1.2,5.3-3.9,5.9C320,94.2,319.6,94.2,319.3,94.2z"/>
		<path class="st2" d="M306.1,85.5c-2.3,0-4.4-1.6-4.9-4c-0.5-2.7,1.2-5.3,3.9-5.9l22-4.4c2.7-0.5,5.3,1.2,5.9,3.9
			c0.5,2.7-1.2,5.3-3.9,5.9l-22,4.4C306.8,85.4,306.4,85.5,306.1,85.5z"/>
	</g>
	<g>
		<path class="st1" d="M400.8,375.5c-1.1,0-2.1-0.3-3.1-1c-2.2-1.7-2.6-4.8-0.9-7l13.7-17.7c1.7-2.2,4.8-2.6,7-0.9
			c2.2,1.7,2.6,4.8,0.9,7l-13.7,17.7C403.7,374.8,402.3,375.5,400.8,375.5z"/>
		<path class="st1" d="M416.5,373.5c-1.1,0-2.1-0.3-3.1-1l-17.7-13.7c-2.2-1.7-2.6-4.8-0.9-7c1.7-2.2,4.8-2.6,7-0.9l17.7,13.7
			c2.2,1.7,2.6,4.8,0.9,7C419.5,372.8,418,373.5,416.5,373.5z"/>
	</g>
	<g>
		<path class="st2" d="M83.4,348.6c-2.3,0-4.4-1.6-4.9-4l-4.4-22c-0.5-2.7,1.2-5.3,3.9-5.9c2.7-0.5,5.3,1.2,5.9,3.9l4.4,22
			c0.5,2.7-1.2,5.3-3.9,5.9C84,348.6,83.7,348.6,83.4,348.6z"/>
		<path class="st2" d="M70.2,339.8c-2.3,0-4.4-1.6-4.9-4c-0.5-2.7,1.2-5.3,3.9-5.9l22-4.4c2.7-0.5,5.3,1.2,5.9,3.9s-1.2,5.3-3.9,5.9
			l-22,4.4C70.8,339.8,70.5,339.8,70.2,339.8z"/>
	</g>
	<path class="st2" d="M123.8,250.6c-7.4,0-13.4-6-13.4-13.4c0-7.4,6-13.4,13.4-13.4c7.4,0,13.4,6,13.4,13.4
		C137.2,244.6,131.2,250.6,123.8,250.6z M123.8,233.8c-1.9,0-3.4,1.5-3.4,3.4c0,1.9,1.5,3.4,3.4,3.4s3.4-1.5,3.4-3.4
		C127.2,235.4,125.6,233.8,123.8,233.8z"/>
	<path class="st1" d="M200.4,82.7c-7.4,0-13.4-6-13.4-13.4c0-7.4,6-13.4,13.4-13.4s13.4,6,13.4,13.4
		C213.7,76.7,207.7,82.7,200.4,82.7z M200.4,65.9c-1.9,0-3.4,1.5-3.4,3.4c0,1.9,1.5,3.4,3.4,3.4s3.4-1.5,3.4-3.4
		C203.7,67.5,202.2,65.9,200.4,65.9z"/>
	<path class="st2" d="M377.4,135.3c-7.4,0-13.4-6-13.4-13.4c0-7.4,6-13.4,13.4-13.4c7.4,0,13.4,6,13.4,13.4
		C390.8,129.3,384.8,135.3,377.4,135.3z M377.4,118.6c-1.9,0-3.4,1.5-3.4,3.4s1.5,3.4,3.4,3.4c1.9,0,3.4-1.5,3.4-3.4
		S379.3,118.6,377.4,118.6z"/>
	<g>
		<path class="st1" d="M393.9,198.5c-1.1,0-2.1-0.3-3.1-1c-2.2-1.7-2.6-4.8-0.9-7l13.7-17.7c1.7-2.2,4.8-2.6,7-0.9
			c2.2,1.7,2.6,4.8,0.9,7l-13.7,17.7C396.9,197.9,395.4,198.5,393.9,198.5z"/>
		<path class="st1" d="M409.6,196.5c-1.1,0-2.1-0.3-3.1-1l-17.7-13.7c-2.2-1.7-2.6-4.8-0.9-7c1.7-2.2,4.8-2.6,7-0.9l17.7,13.7
			c2.2,1.7,2.6,4.8,0.9,7C412.6,195.9,411.1,196.5,409.6,196.5z"/>
	</g>
	<path class="st1" d="M142.1,360.2c-7.4,0-13.4-6-13.4-13.4s6-13.4,13.4-13.4s13.4,6,13.4,13.4S149.5,360.2,142.1,360.2z
		 M142.1,343.4c-1.9,0-3.4,1.5-3.4,3.4s1.5,3.4,3.4,3.4s3.4-1.5,3.4-3.4S144,343.4,142.1,343.4z"/>
	<path class="st2" d="M379.3,338c-7.4,0-13.4-6-13.4-13.4s6-13.4,13.4-13.4s13.4,6,13.4,13.4S386.6,338,379.3,338z M379.3,321.3
		c-1.9,0-3.4,1.5-3.4,3.4s1.5,3.4,3.4,3.4s3.4-1.5,3.4-3.4S381.1,321.3,379.3,321.3z"/>
</g>
<path id="shock_x5F_color" class="st3" d="M316.8,395.2H187.7c-12,0-21.7-9.7-21.7-21.7v-241c0-12,9.7-21.7,21.7-21.7h129.2
	c12,0,21.7,9.7,21.7,21.7v241C338.5,385.5,328.8,395.2,316.8,395.2z"/>
<g id="color">
	<path class="st4" d="M305.9,354.8H198.7c-8.3,0-15-6.7-15-15V143.9c0-8.3,6.7-15,15-15h107.2c8.3,0,15,6.7,15,15v195.9
		C320.9,348.1,314.2,354.8,305.9,354.8z"/>
	<circle class="st5" cx="252.2" cy="314" r="15.8"/>
</g>
<g id="shadows-lights">
	<line class="st6" x1="405.9" y1="412" x2="106" y2="412"/>
	<path class="st7" d="M338.5,363.1c0,13-10.5,23.5-23.5,23.5H189.5c-13,0-23.5-10.5-23.5-23.5"/>
	<line class="st8" x1="274.9" y1="139.6" x2="307.5" y2="177.3"/>
</g>
<g id="lines">
	<line class="st9" x1="470.4" y1="400.4" x2="452.2" y2="400.4"/>
	<line class="st9" x1="436.1" y1="399.8" x2="75.4" y2="399.8"/>
	<line class="st9" x1="58.3" y1="400.4" x2="40" y2="400.4"/>
	<path class="st10" d="M316.8,395.2H187.7c-12,0-21.7-9.7-21.7-21.7v-241c0-12,9.7-21.7,21.7-21.7h129.2c12,0,21.7,9.7,21.7,21.7
		v241C338.5,385.5,328.8,395.2,316.8,395.2z"/>
	<line class="st11" x1="241.9" y1="373.3" x2="269" y2="373.3"/>
	<line class="st10" x1="252.2" y1="296.3" x2="252.2" y2="163.2"/>
	<polyline class="st9" points="269.1,171.6 252.2,154.8 235.4,171.6 	"/>
	<path class="st9" d="M218.5,249.8c0,22.1,33.7,22.1,33.7,44.3"/>
	<path class="st9" d="M252.2,271.9c0-22.1,33.7-25,33.7-58.2"/>
	<circle class="st9" cx="218.5" cy="236.5" r="10.4"/>
	
		<rect x="275.5" y="190.6" transform="matrix(4.308382e-11 -1 1 4.308382e-11 84.9235 487.0311)" class="st9" width="20.9" height="20.9"/>
	<circle class="st9" cx="252.2" cy="314" r="15.8"/>
	<path class="st10" d="M305.9,354.8H198.7c-8.3,0-15-6.7-15-15V143.9c0-8.3,6.7-15,15-15h107.2c8.3,0,15,6.7,15,15v195.9
		C320.9,348.1,314.2,354.8,305.9,354.8z"/>
</g>
</svg>
