<?xml version="1.0" encoding="utf-8"?>
<!-- Generator: Adobe Illustrator 21.0.0, SVG Export Plug-In . SVG Version: 6.00 Build 0)  -->
<svg version="1.1" id="Layer_1" xmlns="http://www.w3.org/2000/svg" xmlns:xlink="http://www.w3.org/1999/xlink" x="0px" y="0px"
	 viewBox="0 0 512 512" style="enable-background:new 0 0 512 512;" xml:space="preserve">
<style type="text/css">
	.st0{opacity:0.25;fill:#95A2AC;}
	.st1{fill:#FFD54F;}
	.st2{fill:#95A2AC;}
	.st3{fill:#1DE9B6;}
	.st4{fill:#BA68C8;}
	.st5{fill:#B3BDC3;}
	.st6{opacity:0.25;fill:none;stroke:#6F6F6F;stroke-width:15;stroke-linecap:round;stroke-miterlimit:10;}
	.st7{opacity:0.75;fill:none;stroke:#FFFFFF;stroke-width:10;stroke-linecap:round;stroke-miterlimit:10;}
	.st8{fill:none;stroke:#000000;stroke-width:10;stroke-linecap:round;stroke-linejoin:round;stroke-miterlimit:10;}
	.st9{fill:#FFFFFF;stroke:#000000;stroke-width:10;stroke-linecap:round;stroke-linejoin:round;stroke-miterlimit:10;}
	.st10{fill:none;stroke:#000000;stroke-width:10;stroke-linecap:round;stroke-miterlimit:10;}
</style>
<g id="background">
	<circle class="st0" cx="257.7" cy="259.4" r="193.4"/>
	<g>
		<path class="st1" d="M163.3,127.5c-2.8,0-5-2.2-5-5v-22.4c0-2.8,2.2-5,5-5s5,2.2,5,5v22.4C168.3,125.3,166.1,127.5,163.3,127.5z"
			/>
		<path class="st1" d="M174.5,116.3h-22.4c-2.8,0-5-2.2-5-5s2.2-5,5-5h22.4c2.8,0,5,2.2,5,5S177.3,116.3,174.5,116.3z"/>
	</g>
	<g>
		<path class="st2" d="M102.2,168.2c-2.3,0-4.4-1.6-4.9-4l-4.4-22c-0.5-2.7,1.2-5.3,3.9-5.9c2.7-0.5,5.3,1.2,5.9,3.9l4.4,22
			c0.5,2.7-1.2,5.3-3.9,5.9C102.8,168.2,102.5,168.2,102.2,168.2z"/>
		<path class="st2" d="M89,159.4c-2.3,0-4.4-1.6-4.9-4c-0.5-2.7,1.2-5.3,3.9-5.9l22-4.4c2.7-0.5,5.3,1.2,5.9,3.9
			c0.5,2.7-1.2,5.3-3.9,5.9l-22,4.4C89.6,159.4,89.3,159.4,89,159.4z"/>
	</g>
	<g>
		<path class="st1" d="M414,259.7c-1.1,0-2.1-0.3-3.1-1c-2.2-1.7-2.6-4.8-0.9-7l13.7-17.7c1.7-2.2,4.8-2.6,7-0.9
			c2.2,1.7,2.6,4.8,0.9,7l-13.7,17.7C416.9,259,415.5,259.7,414,259.7z"/>
		<path class="st1" d="M429.7,257.7c-1.1,0-2.1-0.3-3.1-1l-17.7-13.7c-2.2-1.7-2.6-4.8-0.9-7c1.7-2.2,4.8-2.6,7-0.9l17.7,13.7
			c2.2,1.7,2.6,4.8,0.9,7C432.7,257,431.2,257.7,429.7,257.7z"/>
	</g>
	<g>
		<path class="st2" d="M311.1,97.3c-2.3,0-4.4-1.6-4.9-4l-4.4-22c-0.5-2.7,1.2-5.3,3.9-5.9c2.7-0.5,5.3,1.2,5.9,3.9l4.4,22
			c0.5,2.7-1.2,5.3-3.9,5.9C311.7,97.2,311.4,97.3,311.1,97.3z"/>
		<path class="st2" d="M297.9,88.5c-2.3,0-4.4-1.6-4.9-4c-0.5-2.7,1.2-5.3,3.9-5.9l22-4.4c2.7-0.5,5.3,1.2,5.9,3.9
			c0.5,2.7-1.2,5.3-3.9,5.9l-22,4.4C298.5,88.5,298.2,88.5,297.9,88.5z"/>
	</g>
	<path class="st2" d="M80.6,233c-7.4,0-13.4-6-13.4-13.4c0-7.4,6-13.4,13.4-13.4s13.4,6,13.4,13.4C94,227,88,233,80.6,233z
		 M80.6,216.2c-1.9,0-3.4,1.5-3.4,3.4s1.5,3.4,3.4,3.4s3.4-1.5,3.4-3.4S82.5,216.2,80.6,216.2z"/>
	<path class="st1" d="M299.8,152.7c-7.4,0-13.4-6-13.4-13.4c0-7.4,6-13.4,13.4-13.4c7.4,0,13.4,6,13.4,13.4
		C313.2,146.7,307.2,152.7,299.8,152.7z M299.8,135.9c-1.9,0-3.4,1.5-3.4,3.4s1.5,3.4,3.4,3.4c1.9,0,3.4-1.5,3.4-3.4
		S301.7,135.9,299.8,135.9z"/>
	<path class="st2" d="M214.5,81.5c-7.4,0-13.4-6-13.4-13.4c0-7.4,6-13.4,13.4-13.4c7.4,0,13.4,6,13.4,13.4
		C227.9,75.5,221.9,81.5,214.5,81.5z M214.5,64.7c-1.9,0-3.4,1.5-3.4,3.4s1.5,3.4,3.4,3.4c1.9,0,3.4-1.5,3.4-3.4
		S216.4,64.7,214.5,64.7z"/>
	<g>
		<path class="st1" d="M384.6,125.2c-1.1,0-2.1-0.3-3.1-1c-2.2-1.7-2.6-4.8-0.9-7l13.7-17.7c1.7-2.2,4.8-2.6,7-0.9
			c2.2,1.7,2.6,4.8,0.9,7l-13.7,17.7C387.6,124.5,386.1,125.2,384.6,125.2z"/>
		<path class="st1" d="M400.3,123.2c-1.1,0-2.1-0.3-3.1-1l-17.7-13.7c-2.2-1.7-2.6-4.8-0.9-7c1.7-2.2,4.8-2.6,7-0.9l17.7,13.7
			c2.2,1.7,2.6,4.8,0.9,7C403.3,122.5,401.8,123.2,400.3,123.2z"/>
	</g>
	<path class="st1" d="M171.7,180.9c-7.4,0-13.4-6-13.4-13.4c0-7.4,6-13.4,13.4-13.4s13.4,6,13.4,13.4
		C185.1,174.9,179.1,180.9,171.7,180.9z M171.7,164.1c-1.9,0-3.4,1.5-3.4,3.4s1.5,3.4,3.4,3.4s3.4-1.5,3.4-3.4
		S173.6,164.1,171.7,164.1z"/>
	<path class="st2" d="M391.7,185c-7.4,0-13.4-6-13.4-13.4c0-7.4,6-13.4,13.4-13.4c7.4,0,13.4,6,13.4,13.4
		C405.1,179,399.1,185,391.7,185z M391.7,168.2c-1.9,0-3.4,1.5-3.4,3.4s1.5,3.4,3.4,3.4c1.9,0,3.4-1.5,3.4-3.4
		S393.6,168.2,391.7,168.2z"/>
</g>
<g id="color">
	<path class="st3" d="M241.6,391.1h-77.3c-6.9,0-12.6-4.3-13.3-9.9l-8-62.5c-0.8-6.5,5.4-12.2,13.3-12.2h92.3
		c7.9,0,14.1,5.6,13.3,12l-7,62.5C254.3,386.8,248.5,391.1,241.6,391.1z"/>
	<path class="st3" d="M320.2,391.1h77.3c6.9,0,12.6-4.3,13.3-9.9l8-62.5c0.8-6.5-5.4-12.2-13.3-12.2h-92.3c-7.9,0-14.1,5.6-13.3,12
		l7,62.5C307.5,386.8,313.3,391.1,320.2,391.1z"/>
	<path class="st4" d="M208,372.3h-73.8c-3.6,0-6.5-2.9-6.5-6.5v-30.4c0-3.6,2.9-6.5,6.5-6.5H208c3.6,0,6.5,2.9,6.5,6.5v30.4
		C214.5,369.4,211.6,372.3,208,372.3z"/>
</g>
<g id="shock_x5F_color">
	<path class="st5" d="M145.9,310.2c2-1.6,7.9-3.7,24.6-3.7l39.9-86.3h35.2l9.5-17.6h-52.7L145.9,310.2z"/>
	<path class="st5" d="M144.9,312.2l1-2C144.6,311.3,144.9,312.2,144.9,312.2z"/>
	<path class="st5" d="M306.6,202.6l9.5,17.6h35.2l39.9,86.3c16.7,0,22.5,2,24.6,3.7l-56.5-107.6H306.6z"/>
	<path class="st5" d="M415.9,310.2l1,2C416.9,312.2,417.2,311.3,415.9,310.2z"/>
	<polygon class="st5" points="261,326.6 258.8,346.5 302.3,346.6 300.8,326.6 	"/>
</g>
<g id="shadows-lights">
	<line class="st6" x1="407.5" y1="410.8" x2="107.5" y2="410.8"/>
	<line class="st7" x1="367.6" y1="326.6" x2="397.6" y2="361.4"/>
	<line class="st7" x1="347.6" y1="326.6" x2="377.6" y2="361.4"/>
	<line class="st7" x1="202.7" y1="338.9" x2="171.2" y2="338.9"/>
</g>
<g id="lines">
	<line class="st8" x1="472" y1="399.1" x2="453.8" y2="399.1"/>
	<line class="st8" x1="437.7" y1="398.6" x2="77" y2="398.6"/>
	<line class="st8" x1="59.8" y1="399.1" x2="41.6" y2="399.1"/>
	<polyline class="st8" points="127.8,353.7 146.2,353.7 146.2,344 	"/>
	<line class="st9" x1="187" y1="350.6" x2="187" y2="372.3"/>
	<g>
		<path class="st10" d="M77,302.9c0.1-36.5,29.7-66,66.2-66"/>
		<path class="st10" d="M92.6,302.9c0-27.6,22.4-49.9,50-49.9"/>
		<path class="st10" d="M108.1,303c0-19,15.5-34.4,34.5-34.4"/>
	</g>
	<path class="st8" d="M144.9,312.2l57.5-109.5h52.7l-9.5,17.6h-35.2l-39.9,86.3C142.9,306.6,144.9,312.2,144.9,312.2z"/>
	<path class="st8" d="M416.9,312.2l-57.5-109.5h-52.7l9.5,17.6h35.2l39.9,86.3C418.9,306.6,416.9,312.2,416.9,312.2z"/>
	<polygon class="st8" points="300.8,326.6 261,326.6 258.8,346.5 302.3,346.6 	"/>
	<path class="st10" d="M144.2,328.9l-1.3-10.2c-0.8-6.5,5.4-12.2,13.3-12.2h92.3c7.9,0,14.1,5.6,13.3,12l-7,62.5
		c-0.6,5.7-6.4,10-13.3,10h-77.3c-6.9,0-12.6-4.3-13.3-9.9l-1.1-8.2"/>
	<path class="st10" d="M320.2,391.1h77.3c6.9,0,12.6-4.3,13.3-9.9l8-62.5c0.8-6.5-5.4-12.2-13.3-12.2h-92.3c-7.9,0-14.1,5.6-13.3,12
		l7,62.5C307.5,386.8,313.3,391.1,320.2,391.1z"/>
	<path class="st10" d="M208,372.3h-73.8c-3.6,0-6.5-2.9-6.5-6.5v-30.4c0-3.6,2.9-6.5,6.5-6.5H208c3.6,0,6.5,2.9,6.5,6.5v30.4
		C214.5,369.4,211.6,372.3,208,372.3z"/>
</g>
</svg>
