<?xml version="1.0" encoding="utf-8"?>
<!-- Generator: Adobe Illustrator 21.0.0, SVG Export Plug-In . SVG Version: 6.00 Build 0)  -->
<svg version="1.1" id="Layer_1" xmlns="http://www.w3.org/2000/svg" xmlns:xlink="http://www.w3.org/1999/xlink" x="0px" y="0px"
	 viewBox="0 0 512 512" style="enable-background:new 0 0 512 512;" xml:space="preserve">
<style type="text/css">
	.st0{opacity:0.25;fill:#95A2AC;}
	.st1{fill:#FFD54F;}
	.st2{fill:#95A2AC;}
	.st3{fill:#B3BDC3;}
	.st4{fill:#1DE9B6;}
	.st5{opacity:0.75;fill:#FFFFFF;stroke:#FFFFFF;stroke-width:10;stroke-linecap:round;stroke-miterlimit:10;}
	.st6{opacity:0.25;fill:none;stroke:#000000;stroke-width:10;stroke-linecap:round;stroke-miterlimit:10;}
	.st7{opacity:0.25;fill:none;stroke:#6F6F6F;stroke-width:15;stroke-linecap:round;stroke-miterlimit:10;}
	.st8{fill:none;stroke:#000000;stroke-width:10;stroke-miterlimit:10;}
	.st9{fill:none;stroke:#000000;stroke-width:10;stroke-linecap:round;stroke-linejoin:round;stroke-miterlimit:10;}
	.st10{fill:none;stroke:#000000;stroke-width:10;stroke-linecap:round;stroke-miterlimit:10;}
</style>
<g id="background">
	<circle class="st0" cx="256" cy="273" r="193.4"/>
	<g>
		<g>
			<path class="st1" d="M332.7,105.7c-7.4,0-13.4,6-13.4,13.4c0,7.4,6,13.4,13.4,13.4c7.4,0,13.4-6,13.4-13.4
				C346.1,111.7,340.1,105.7,332.7,105.7z M332.7,122.4c-1.9,0-3.4-1.5-3.4-3.4s1.5-3.4,3.4-3.4c1.9,0,3.4,1.5,3.4,3.4
				S334.6,122.4,332.7,122.4z"/>
			<path class="st1" d="M409.8,110.2l4.6-4.2c2.1-1.8,2.2-5,0.4-7.1c-1.8-2.1-5-2.2-7.1-0.4l-4.6,4.2l-4.2-4.6
				c-1.8-2.1-5-2.2-7.1-0.4c-2.1,1.8-2.2,5-0.4,7.1l4.2,4.6l-4.6,4.2c-2.1,1.8-2.2,5-0.4,7.1c1,1.1,2.3,1.7,3.7,1.7
				c1.2,0,2.4-0.4,3.3-1.3l4.6-4.2l4.2,4.6c1,1.1,2.3,1.7,3.7,1.7c1.2,0,2.4-0.4,3.3-1.3c2.1-1.8,2.2-5,0.4-7.1L409.8,110.2z"/>
			<path class="st1" d="M100.3,213.2c-7.4,0-13.4,6-13.4,13.4c0,7.4,6,13.4,13.4,13.4c7.4,0,13.4-6,13.4-13.4
				C113.6,219.2,107.6,213.2,100.3,213.2z M100.3,230c-1.9,0-3.4-1.5-3.4-3.4s1.5-3.4,3.4-3.4s3.4,1.5,3.4,3.4S102.1,230,100.3,230z
				"/>
			<path class="st1" d="M89.4,133.6l6,1.7c0.5,0.1,0.9,0.2,1.4,0.2c2.2,0,4.2-1.4,4.8-3.6c0.8-2.7-0.8-5.4-3.4-6.2l-6-1.7l1.7-6
				c0.8-2.7-0.8-5.4-3.4-6.2c-2.7-0.8-5.4,0.8-6.2,3.4l-1.7,6l-6-1.7c-2.7-0.8-5.4,0.8-6.2,3.4c-0.8,2.7,0.8,5.4,3.4,6.2l6,1.7
				l-1.7,6c-0.8,2.7,0.8,5.4,3.4,6.2c0.5,0.1,0.9,0.2,1.4,0.2c2.2,0,4.2-1.4,4.8-3.6L89.4,133.6z"/>
		</g>
		<g>
			<path class="st2" d="M416.4,218.7c-0.5-2.7-3.2-4.5-5.9-3.9l-6.1,1.2l-1.2-6.1c-0.5-2.7-3.2-4.5-5.9-3.9
				c-2.7,0.5-4.5,3.2-3.9,5.9l1.2,6.1l-6.1,1.2c-2.7,0.5-4.5,3.2-3.9,5.9c0.5,2.4,2.6,4,4.9,4c0.3,0,0.7,0,1-0.1l6.1-1.2l1.2,6.1
				c0.5,2.4,2.6,4,4.9,4c0.3,0,0.7,0,1-0.1c2.7-0.5,4.5-3.2,3.9-5.9l-1.2-6.1l6.1-1.2C415.2,224,417,221.4,416.4,218.7z"/>
			<path class="st2" d="M110.3,284.1l-6.1,1.2l-1.2-6.1c-0.5-2.7-3.2-4.5-5.9-3.9c-2.7,0.5-4.5,3.2-3.9,5.9l1.2,6.1l-6.1,1.2
				c-2.7,0.5-4.5,3.2-3.9,5.9c0.5,2.4,2.6,4,4.9,4c0.3,0,0.7,0,1-0.1l6.1-1.2l1.2,6.1c0.5,2.4,2.6,4,4.9,4c0.3,0,0.7,0,1-0.1
				c2.7-0.5,4.5-3.2,3.9-5.9l-1.2-6.1l6.1-1.2c2.7-0.5,4.5-3.2,3.9-5.9C115.6,285.3,113,283.5,110.3,284.1z"/>
			<path class="st2" d="M162.6,140.5l-5.9-1.8l1.8-5.9c0.8-2.6-0.7-5.4-3.3-6.3c-2.6-0.8-5.4,0.7-6.3,3.3l-1.8,5.9l-5.9-1.8
				c-2.6-0.8-5.4,0.7-6.3,3.3c-0.8,2.6,0.7,5.4,3.3,6.3l5.9,1.8l-1.8,5.9c-0.8,2.6,0.7,5.4,3.3,6.3c0.5,0.2,1,0.2,1.5,0.2
				c2.1,0,4.1-1.4,4.8-3.5l1.8-5.9l5.9,1.8c0.5,0.2,1,0.2,1.5,0.2c2.1,0,4.1-1.4,4.8-3.5C166.7,144.1,165.3,141.3,162.6,140.5z"/>
			<path class="st2" d="M389.5,288.8c-7.4,0-13.4,6-13.4,13.4s6,13.4,13.4,13.4s13.4-6,13.4-13.4S396.9,288.8,389.5,288.8z
				 M389.5,305.6c-1.9,0-3.4-1.5-3.4-3.4s1.5-3.4,3.4-3.4s3.4,1.5,3.4,3.4S391.4,305.6,389.5,305.6z"/>
			<path class="st2" d="M245.2,96.5c-7.4,0-13.4,6-13.4,13.4c0,7.4,6,13.4,13.4,13.4c7.4,0,13.4-6,13.4-13.4
				C258.5,102.5,252.5,96.5,245.2,96.5z M245.2,113.2c-1.9,0-3.4-1.5-3.4-3.4s1.5-3.4,3.4-3.4s3.4,1.5,3.4,3.4
				S247,113.2,245.2,113.2z"/>
			<path class="st2" d="M221.6,59.2l-5-3.6l3.6-5c1.6-2.2,1.1-5.4-1.1-7c-2.2-1.6-5.4-1.1-7,1.1l-3.6,5l-5-3.6
				c-2.2-1.6-5.4-1.1-7,1.1c-1.6,2.2-1.1,5.4,1.1,7l5,3.6l-3.6,5c-1.6,2.2-1.1,5.4,1.1,7c0.9,0.6,1.9,0.9,2.9,0.9
				c1.6,0,3.1-0.7,4.1-2.1l3.6-5l5,3.6c0.9,0.6,1.9,0.9,2.9,0.9c1.6,0,3.1-0.7,4.1-2.1C224.3,63.9,223.8,60.8,221.6,59.2z"/>
			<path class="st2" d="M327.7,51.5l-6.1,1.2l-1.2-6.1c-0.5-2.7-3.2-4.5-5.9-3.9c-2.7,0.5-4.5,3.2-3.9,5.9l1.2,6.1l-6.1,1.2
				c-2.7,0.5-4.5,3.2-3.9,5.9c0.5,2.4,2.6,4,4.9,4c0.3,0,0.7,0,1-0.1l6.1-1.2l1.2,6.1c0.5,2.4,2.6,4,4.9,4c0.3,0,0.7,0,1-0.1
				c2.7-0.5,4.5-3.2,3.9-5.9l-1.2-6.1l6.1-1.2c2.7-0.5,4.5-3.2,3.9-5.9C333.1,52.7,330.4,50.9,327.7,51.5z"/>
		</g>
	</g>
</g>
<g id="shock_x5F_color">
	<path class="st3" d="M327.7,174.9H181.8v-16.2c0-9.3,7.5-16.8,16.8-16.8h112.2c9.3,0,16.8,7.5,16.8,16.8V174.9z"/>
	<path class="st3" d="M327.2,363.8H182.8c-12,0-21.7-9.7-21.7-21.7V197.7c0-12,9.7-21.7,21.7-21.7h144.4c12,0,21.7,9.7,21.7,21.7
		v144.4C348.9,354.1,339.2,363.8,327.2,363.8z"/>
	<path class="st3" d="M310.4,396.8H201.1c-10.1,0-18.3-8.2-18.3-18.3v-14.7h145.9v14.7C328.7,388.6,320.5,396.8,310.4,396.8z"/>
</g>
<path id="color" class="st4" d="M317.6,343.5H192.4c-6.1,0-11.1-5-11.1-11.1V207.3c0-6.1,5-11.1,11.1-11.1h125.2
	c6.1,0,11.1,5,11.1,11.1v125.2C328.7,338.6,323.7,343.5,317.6,343.5z"/>
<g id="shadows-lights">
	<line class="st5" x1="328.7" y1="186.8" x2="181.4" y2="186.8"/>
	<line class="st5" x1="311.6" y1="220.1" x2="198.4" y2="220.1"/>
	<path class="st6" d="M348.9,338.7c0,8.6-7,15.6-15.6,15.6H176.8c-8.6,0-15.6-7-15.6-15.6"/>
	<path class="st6" d="M328.7,372.5c0,8.6-5.4,15.6-12.1,15.6H194.9c-6.7,0-12.1-7-12.1-15.6"/>
	<line class="st6" x1="324.4" y1="372.5" x2="185.7" y2="372.5"/>
	<line class="st7" x1="409.8" y1="411.8" x2="100.3" y2="411.8"/>
	<path class="st6" d="M181.2,221.9c0-8.6,5.5-15.6,12.3-15.6h122.9c6.8,0,12.3,7,12.3,15.6"/>
</g>
<g id="lines">
	<path class="st8" d="M327.7,174.9H181.8v-16.2c0-9.3,7.5-16.8,16.8-16.8h112.2c9.3,0,16.8,7.5,16.8,16.8V174.9z"/>
	<line class="st9" x1="484" y1="400.2" x2="464.6" y2="400.2"/>
	<line class="st9" x1="47.4" y1="400.2" x2="28" y2="400.2"/>
	<line class="st9" x1="438.6" y1="399.7" x2="71.2" y2="399.7"/>
	<path class="st8" d="M327.2,363.8H182.8c-12,0-21.7-9.7-21.7-21.7V197.7c0-12,9.7-21.7,21.7-21.7h144.4c12,0,21.7,9.7,21.7,21.7
		v144.4C348.9,354.1,339.2,363.8,327.2,363.8z"/>
	<path class="st8" d="M327.2,363.8H182.8c-12,0-21.7-9.7-21.7-21.7V197.7c0-12,9.7-21.7,21.7-21.7h144.4c12,0,21.7,9.7,21.7,21.7
		v144.4C348.9,354.1,339.2,363.8,327.2,363.8z"/>
	<path class="st8" d="M317.6,343.5H192.4c-6.1,0-11.1-5-11.1-11.1V207.3c0-6.1,5-11.1,11.1-11.1h125.2c6.1,0,11.1,5,11.1,11.1v125.2
		C328.7,338.6,323.7,343.5,317.6,343.5z"/>
	<path class="st8" d="M310.4,396.8H201.1c-10.1,0-18.3-8.2-18.3-18.3v-14.7h145.9v14.7C328.7,388.6,320.5,396.8,310.4,396.8z"/>
	<line class="st8" x1="311.6" y1="269.9" x2="324.4" y2="269.9"/>
	<line class="st8" x1="182.8" y1="269.9" x2="266.2" y2="269.9"/>
	<circle class="st8" cx="288.9" cy="269.9" r="22.7"/>
	<line class="st10" x1="198.4" y1="247.2" x2="258" y2="247.2"/>
	<line class="st10" x1="198.4" y1="287.2" x2="258" y2="287.2"/>
	<line class="st10" x1="198.4" y1="307.2" x2="311.6" y2="307.2"/>
	<line class="st10" x1="198.4" y1="327.2" x2="284.8" y2="327.2"/>
</g>
</svg>
