<?xml version="1.0" encoding="utf-8"?>
<!-- Generator: Adobe Illustrator 21.0.0, SVG Export Plug-In . SVG Version: 6.00 Build 0)  -->
<svg version="1.1" id="Layer_1" xmlns="http://www.w3.org/2000/svg" xmlns:xlink="http://www.w3.org/1999/xlink" x="0px" y="0px"
	 viewBox="0 0 512 512" style="enable-background:new 0 0 512 512;" xml:space="preserve">
<style type="text/css">
	.st0{opacity:0.25;fill:#95A2AC;}
	.st1{fill:#FFD54F;}
	.st2{fill:#95A2AC;}
	.st3{fill:#B3BDC3;}
	.st4{fill:#1DE9B6;}
	.st5{fill:#BA68C8;}
	.st6{opacity:0.75;fill:none;stroke:#FFFFFF;stroke-width:10;stroke-linecap:round;stroke-linejoin:round;stroke-miterlimit:10;}
	.st7{opacity:0.25;fill:none;stroke:#000000;stroke-width:10;stroke-linecap:round;stroke-linejoin:round;stroke-miterlimit:10;}
	.st8{opacity:0.25;}
	.st9{opacity:0.25;fill:none;stroke:#6F6F6F;stroke-width:15;stroke-linecap:round;stroke-miterlimit:10;}
	.st10{fill:none;stroke:#000000;stroke-width:10;stroke-linecap:round;stroke-linejoin:round;stroke-miterlimit:10;}
	.st11{fill:none;stroke:#000000;stroke-width:10;stroke-linecap:round;stroke-miterlimit:10;}
</style>
<g id="background">
	<circle class="st0" cx="257.6" cy="265.4" r="193.4"/>
	<g>
		<path class="st1" d="M192.2,116.4c-0.9,0-1.9-0.3-2.7-0.8c-2.3-1.5-3-4.6-1.4-6.9l12.3-18.7c1.5-2.3,4.6-3,6.9-1.4
			c2.3,1.5,3,4.6,1.4,6.9l-12.3,18.7C195.5,115.6,193.9,116.4,192.2,116.4z"/>
		<path class="st1" d="M207.8,113.1c-0.9,0-1.9-0.3-2.7-0.8L186.3,100c-2.3-1.5-3-4.6-1.4-6.9c1.5-2.3,4.6-3,6.9-1.4l18.7,12.3
			c2.3,1.5,3,4.6,1.4,6.9C211,112.3,209.4,113.1,207.8,113.1z"/>
	</g>
	<g>
		<path class="st2" d="M120.1,106.2c-2.3,0-4.4-1.6-4.9-4l-4.4-22c-0.5-2.7,1.2-5.3,3.9-5.9c2.7-0.5,5.3,1.2,5.9,3.9l4.4,22
			c0.5,2.7-1.2,5.3-3.9,5.9C120.7,106.2,120.4,106.2,120.1,106.2z"/>
		<path class="st2" d="M106.9,97.4c-2.3,0-4.4-1.6-4.9-4c-0.5-2.7,1.2-5.3,3.9-5.9l22-4.4c2.7-0.5,5.3,1.2,5.9,3.9
			c0.5,2.7-1.2,5.3-3.9,5.9l-22,4.4C107.5,97.4,107.2,97.4,106.9,97.4z"/>
	</g>
	<g>
		<path class="st1" d="M256.8,79.8c-0.5,0-0.9-0.1-1.4-0.2c-2.7-0.8-4.2-3.5-3.4-6.2l6.2-21.6c0.8-2.7,3.5-4.2,6.2-3.4
			c2.7,0.8,4.2,3.5,3.4,6.2l-6.2,21.6C261,78.4,259,79.8,256.8,79.8z"/>
		<path class="st1" d="M270.6,72.1c-0.5,0-0.9-0.1-1.4-0.2l-21.5-6.2c-2.7-0.8-4.2-3.5-3.4-6.2c0.8-2.7,3.5-4.2,6.2-3.4l21.5,6.2
			c2.7,0.8,4.2,3.5,3.4,6.2C274.8,70.7,272.8,72.1,270.6,72.1z"/>
	</g>
	<g>
		<path class="st2" d="M57.2,281.4c-2.3,0-4.4-1.6-4.9-4l-4.4-22c-0.5-2.7,1.2-5.3,3.9-5.9c2.7-0.5,5.3,1.2,5.9,3.9l4.4,22
			c0.5,2.7-1.2,5.3-3.9,5.9C57.9,281.4,57.6,281.4,57.2,281.4z"/>
		<path class="st2" d="M44,272.6c-2.3,0-4.4-1.6-4.9-4c-0.5-2.7,1.2-5.3,3.9-5.9l22-4.4c2.7-0.5,5.3,1.2,5.9,3.9
			c0.5,2.7-1.2,5.3-3.9,5.9l-22,4.4C44.7,272.6,44.4,272.6,44,272.6z"/>
	</g>
	<g>
		<path class="st2" d="M427.4,199.8c-0.5,0-1-0.1-1.5-0.2c-2.6-0.8-4.1-3.6-3.3-6.3l6.6-21.4c0.8-2.6,3.6-4.1,6.3-3.3
			c2.6,0.8,4.1,3.6,3.3,6.3l-6.6,21.4C431.5,198.4,429.5,199.8,427.4,199.8z"/>
		<path class="st2" d="M441.4,192.4c-0.5,0-1-0.1-1.5-0.2l-21.4-6.6c-2.6-0.8-4.1-3.6-3.3-6.3c0.8-2.6,3.6-4.1,6.3-3.3l21.4,6.6
			c2.6,0.8,4.1,3.6,3.3,6.3C445.5,191,443.5,192.4,441.4,192.4z"/>
	</g>
	<path class="st2" d="M416.8,289.8c-7.4,0-13.4-6-13.4-13.4c0-7.4,6-13.4,13.4-13.4c7.4,0,13.4,6,13.4,13.4
		C430.2,283.8,424.2,289.8,416.8,289.8z M416.8,273c-1.9,0-3.4,1.5-3.4,3.4s1.5,3.4,3.4,3.4s3.4-1.5,3.4-3.4S418.6,273,416.8,273z"
		/>
	<path class="st1" d="M55.6,181.9c-7.4,0-13.4-6-13.4-13.4c0-7.4,6-13.4,13.4-13.4c7.4,0,13.4,6,13.4,13.4
		C68.9,175.9,62.9,181.9,55.6,181.9z M55.6,165.1c-1.9,0-3.4,1.5-3.4,3.4s1.5,3.4,3.4,3.4s3.4-1.5,3.4-3.4S57.4,165.1,55.6,165.1z"
		/>
	<g>
		<path class="st1" d="M339.9,101c-1,0-2.1-0.3-3-1c-2.2-1.6-2.7-4.8-1-7l13.4-18c1.6-2.2,4.8-2.7,7-1c2.2,1.6,2.7,4.8,1,7l-13.4,18
			C343,100.3,341.5,101,339.9,101z"/>
		<path class="st1" d="M355.6,98.6c-1,0-2.1-0.3-3-1l-18-13.4c-2.2-1.6-2.7-4.8-1-7c1.6-2.2,4.8-2.7,7-1l18,13.4
			c2.2,1.6,2.7,4.8,1,7C358.6,97.9,357.1,98.6,355.6,98.6z"/>
	</g>
	<path class="st2" d="M362.1,165.8c-7.4,0-13.4-6-13.4-13.4s6-13.4,13.4-13.4s13.4,6,13.4,13.4S369.4,165.8,362.1,165.8z M362.1,149
		c-1.9,0-3.4,1.5-3.4,3.4s1.5,3.4,3.4,3.4s3.4-1.5,3.4-3.4S363.9,149,362.1,149z"/>
</g>
<path id="shock_x5F_color" class="st3" d="M407.8,358.1l-0.8-23.7l-6.5-5.6l-0.7-19.7c-0.2-7-4.5-13.6-11.5-17.7L340.5,269l-49.9-61
	c-5.2-6.3-13.8-10.1-22.9-10.1H145.5h-18.6l12.1,16.7c0,0-18.8,26-24.5,62.6c-3.5,22.2-3.1,36.4-1.5,51.1l-6.8,5.1
	c1.6,13,3.8,24.8,3.8,24.8l24.4,0c0,0,0,0,0,0c0,12.4,10.1,22.5,22.5,22.5c12.4,0,22.5-10.1,22.5-22.5c0,0,0,0,0,0l144.9,0
	c0,0,0,0,0,0c0,12.4,10.1,22.5,22.5,22.5s22.5-10.1,22.5-22.5c0,0,0,0,0,0L407.8,358.1z"/>
<g id="color">
	<polygon class="st4" points="340.5,269 242.9,269 241,215.7 297.2,215.7 	"/>
	<path class="st5" d="M370,307.2h20.2c5.3,0,9.7,4.3,9.9,9.6l0,0.5c0.2,5.3-3.9,9.6-9.2,9.6h-20.2c-5.3,0-9.7-4.3-9.9-9.6l0-0.5
		C360.6,311.5,364.7,307.2,370,307.2z"/>
	<path class="st4" d="M170.7,217h-32.8c0,0-15.1,17.9-19.5,42.5h53.8L170.7,217z"/>
</g>
<g id="shadows-lights">
	<line class="st6" x1="193.9" y1="278" x2="132" y2="278"/>
	<g>
		<polyline class="st7" points="371,350 399.7,350 399.4,333.8 		"/>
		<line class="st7" x1="179" y1="350" x2="324.5" y2="350"/>
		<path class="st7" d="M112.9,328.2c2.5,13.4,5.2,21.8,5.2,21.8l13.3,0"/>
		<circle class="st8" cx="346.7" cy="358.1" r="22.5"/>
		<circle class="st8" cx="156.9" cy="358.1" r="22.5"/>
		<line class="st6" x1="305.8" y1="252" x2="287.9" y2="229.6"/>
	</g>
	<line class="st9" x1="357.1" y1="399.6" x2="156.9" y2="399.6"/>
</g>
<g id="lines">
	<line class="st10" x1="420.2" y1="387.9" x2="408" y2="387.9"/>
	<line class="st10" x1="377.3" y1="387.4" x2="136.5" y2="387.4"/>
	<line class="st10" x1="107.1" y1="387.9" x2="94.9" y2="387.9"/>
	<line class="st10" x1="181.5" y1="358.1" x2="323" y2="358.1"/>
	<path class="st10" d="M371,358.1l36.8,0l-0.8-23.7l-6.5-5.6l-0.7-19.7c-0.2-7-4.5-13.6-11.5-17.7L340.5,269l-49.9-61
		c-5.2-6.3-13.8-10.1-22.9-10.1H145.5h-18.6l12.1,16.7c0,0-18.8,26-24.5,62.6c-3.5,22.2-3.1,36.4-1.5,51.1l-6.8,5.1
		c1.6,13,3.8,24.8,3.8,24.8l22.5,0"/>
	<polyline class="st10" points="208.1,215.7 209.9,269 243.9,296.8 246,358.1 	"/>
	<line class="st10" x1="221.5" y1="301.6" x2="200.6" y2="301.6"/>
	<polygon class="st10" points="340.5,269 242.9,269 241,215.7 297.2,215.7 	"/>
	<path class="st10" d="M170.7,217h-32.8c0,0-15.1,17.9-19.5,42.5h53.8L170.7,217z"/>
	<circle class="st10" cx="346.7" cy="358.1" r="22.5"/>
	<circle class="st10" cx="156.9" cy="358.1" r="22.5"/>
	<path class="st11" d="M211.7,142.9c23-24.6,61.6-26,86.2-3"/>
	<path class="st11" d="M222.3,152.7c17.4-18.6,46.5-19.6,65.2-2.3"/>
	<path class="st11" d="M232.7,162.5c12-12.8,32.1-13.5,44.9-1.6"/>
	<path class="st10" d="M370,307.2h20.2c5.3,0,9.7,4.3,9.9,9.6l0,0.5c0.2,5.3-3.9,9.6-9.2,9.6h-20.2c-5.3,0-9.7-4.3-9.9-9.6l0-0.5
		C360.6,311.5,364.7,307.2,370,307.2z"/>
</g>
</svg>
