<?xml version="1.0" encoding="utf-8"?>
<!-- Generator: Adobe Illustrator 21.0.0, SVG Export Plug-In . SVG Version: 6.00 Build 0)  -->
<svg version="1.1" id="Layer_1" xmlns="http://www.w3.org/2000/svg" xmlns:xlink="http://www.w3.org/1999/xlink" x="0px" y="0px"
	 viewBox="0 0 512 512" style="enable-background:new 0 0 512 512;" xml:space="preserve">
<style type="text/css">
	.st0{opacity:0.25;fill:#95A2AC;}
	.st1{fill:#FFD54F;}
	.st2{fill:#95A2AC;}
	.st3{fill:#B3BDC3;}
	.st4{fill:#1DE9B6;}
	.st5{fill:none;stroke:#000000;stroke-width:10;stroke-linecap:round;stroke-linejoin:round;stroke-miterlimit:10;}
	.st6{opacity:0.25;}
	.st7{opacity:0.25;fill:none;stroke:#6F6F6F;stroke-width:15;stroke-linecap:round;stroke-miterlimit:10;}
	.st8{opacity:0.25;fill:none;stroke:#000000;stroke-width:10;stroke-linecap:round;stroke-linejoin:round;stroke-miterlimit:10;}
	.st9{opacity:0.75;fill:none;stroke:#FFFFFF;stroke-width:10;stroke-linecap:round;stroke-linejoin:round;stroke-miterlimit:10;}
</style>
<g id="background">
	<circle class="st0" cx="259.4" cy="263.5" r="193.4"/>
	<g>
		<path class="st1" d="M185.1,151.6c-2.8,0-5-2.2-5-5v-22.4c0-2.8,2.2-5,5-5s5,2.2,5,5v22.4C190.1,149.4,187.8,151.6,185.1,151.6z"
			/>
		<path class="st1" d="M196.3,140.4h-22.4c-2.8,0-5-2.2-5-5s2.2-5,5-5h22.4c2.8,0,5,2.2,5,5S199,140.4,196.3,140.4z"/>
	</g>
	<g>
		<path class="st2" d="M103.9,172.3c-2.3,0-4.4-1.6-4.9-4l-4.4-22c-0.5-2.7,1.2-5.3,3.9-5.9c2.7-0.5,5.3,1.2,5.9,3.9l4.4,22
			c0.5,2.7-1.2,5.3-3.9,5.9C104.6,172.3,104.2,172.3,103.9,172.3z"/>
		<path class="st2" d="M90.7,163.6c-2.3,0-4.4-1.6-4.9-4c-0.5-2.7,1.2-5.3,3.9-5.9l22-4.4c2.7-0.5,5.3,1.2,5.9,3.9
			c0.5,2.7-1.2,5.3-3.9,5.9l-22,4.4C91.4,163.5,91,163.6,90.7,163.6z"/>
	</g>
	<g>
		<path class="st1" d="M415.7,303.8c-1.1,0-2.2-0.3-3.1-1c-2.2-1.7-2.6-4.8-0.9-7l13.7-17.7c1.7-2.2,4.8-2.6,7-0.9
			c2.2,1.7,2.6,4.8,0.9,7l-13.7,17.7C418.7,303.1,417.2,303.8,415.7,303.8z"/>
		<path class="st1" d="M431.4,301.8c-1.1,0-2.2-0.3-3.1-1L410.7,287c-2.2-1.7-2.6-4.8-0.9-7s4.8-2.6,7-0.9l17.7,13.7
			c2.2,1.7,2.6,4.8,0.9,7C434.4,301.1,432.9,301.8,431.4,301.8z"/>
	</g>
	<g>
		<path class="st2" d="M312.8,101.4c-2.3,0-4.4-1.6-4.9-4l-4.4-22c-0.5-2.7,1.2-5.3,3.9-5.9c2.7-0.5,5.3,1.2,5.9,3.9l4.4,22
			c0.5,2.7-1.2,5.3-3.9,5.9C313.5,101.4,313.1,101.4,312.8,101.4z"/>
		<path class="st2" d="M299.6,92.6c-2.3,0-4.4-1.6-4.9-4c-0.5-2.7,1.2-5.3,3.9-5.9l22-4.4c2.7-0.5,5.3,1.2,5.9,3.9
			c0.5,2.7-1.2,5.3-3.9,5.9l-22,4.4C300.3,92.6,299.9,92.6,299.6,92.6z"/>
	</g>
	<path class="st2" d="M82.3,237.1c-7.4,0-13.4-6-13.4-13.4c0-7.4,6-13.4,13.4-13.4c7.4,0,13.4,6,13.4,13.4
		C95.7,231.1,89.7,237.1,82.3,237.1z M82.3,220.3c-1.9,0-3.4,1.5-3.4,3.4c0,1.9,1.5,3.4,3.4,3.4s3.4-1.5,3.4-3.4
		C85.7,221.9,84.2,220.3,82.3,220.3z"/>
	<path class="st1" d="M281.5,136.8c-7.4,0-13.4-6-13.4-13.4c0-7.4,6-13.4,13.4-13.4c7.4,0,13.4,6,13.4,13.4
		C294.9,130.8,288.9,136.8,281.5,136.8z M281.5,120c-1.9,0-3.4,1.5-3.4,3.4c0,1.9,1.5,3.4,3.4,3.4s3.4-1.5,3.4-3.4
		C284.9,121.6,283.4,120,281.5,120z"/>
	<path class="st2" d="M216.2,85.6c-7.4,0-13.4-6-13.4-13.4s6-13.4,13.4-13.4c7.4,0,13.4,6,13.4,13.4S223.6,85.6,216.2,85.6z
		 M216.2,68.8c-1.9,0-3.4,1.5-3.4,3.4s1.5,3.4,3.4,3.4s3.4-1.5,3.4-3.4S218.1,68.8,216.2,68.8z"/>
	<g>
		<path class="st1" d="M386.3,129.3c-1.1,0-2.2-0.3-3.1-1c-2.2-1.7-2.6-4.8-0.9-7l13.7-17.7c1.7-2.2,4.8-2.6,7-0.9
			c2.2,1.7,2.6,4.8,0.9,7l-13.7,17.7C389.3,128.6,387.8,129.3,386.3,129.3z"/>
		<path class="st1" d="M402.1,127.3c-1.1,0-2.2-0.3-3.1-1l-17.7-13.7c-2.2-1.7-2.6-4.8-0.9-7c1.7-2.2,4.8-2.6,7-0.9l17.7,13.7
			c2.2,1.7,2.6,4.8,0.9,7C405,126.6,403.6,127.3,402.1,127.3z"/>
	</g>
	<path class="st1" d="M113.5,325c-7.4,0-13.4-6-13.4-13.4c0-7.4,6-13.4,13.4-13.4c7.4,0,13.4,6,13.4,13.4
		C126.8,319,120.8,325,113.5,325z M113.5,308.2c-1.9,0-3.4,1.5-3.4,3.4c0,1.9,1.5,3.4,3.4,3.4s3.4-1.5,3.4-3.4
		C116.8,309.8,115.3,308.2,113.5,308.2z"/>
	<path class="st2" d="M413.5,209.1c-7.4,0-13.4-6-13.4-13.4c0-7.4,6-13.4,13.4-13.4s13.4,6,13.4,13.4
		C426.8,203.1,420.8,209.1,413.5,209.1z M413.5,192.3c-1.9,0-3.4,1.5-3.4,3.4c0,1.9,1.5,3.4,3.4,3.4s3.4-1.5,3.4-3.4
		C416.8,193.8,415.3,192.3,413.5,192.3z"/>
</g>
<path id="shock_x5F_color" class="st3" d="M363,199.4c0-19.7-45.1-35.7-100.8-35.7s-100.8,16-100.8,35.7v40c0,3.5,1.4,6.8,4,10
	c-2.6,3.2-4,6.5-4,10v40c0,3.5,1.4,6.8,4,10c-2.6,3.2-4,6.5-4,10v40c0,19.7,45.1,35.7,100.8,35.7s100.8-16,100.8-35.7v-40
	c0-3.5-1.4-6.8-4-10c2.6-3.2,4-6.5,4-10v-40c0-3.5-1.4-6.8-4-10c2.6-3.2,4-6.5,4-10V199.4z"/>
<path id="color" class="st4" d="M363,259.4c-1.1,19.7-45.1,35.7-100.8,35.7s-100.8-16-100.8-35.7c0-13.7,45.1,15.7,100.8,15.7
	S363.7,247.3,363,259.4z"/>
<g id="lines">
	<line class="st5" x1="473.7" y1="403.2" x2="455.5" y2="403.2"/>
	<line class="st5" x1="439.4" y1="402.7" x2="78.7" y2="402.7"/>
	<line class="st5" x1="61.6" y1="403.2" x2="43.4" y2="403.2"/>
	<path class="st5" d="M165.6,310c-2.3,3-3.5,6.1-3.5,9.4v40c0,19.7,45.1,35.7,100.8,35.7s100.8-16,100.8-35.7v-40
		c0-3.3-1.3-6.5-3.7-9.6"/>
	<path class="st5" d="M361.1,311.3c1.7,2.6,2.6,5.3,2.6,8.1c0,19.7-45.1,35.7-100.8,35.7s-100.8-16-100.8-35.7
		c0-3.3,1.3-6.5,3.7-9.6"/>
	<path class="st5" d="M165.7,249.8c-2.4,3-3.7,6.3-3.7,9.6v40c0,19.7,45.1,35.7,100.8,35.7s100.8-16,100.8-35.7v-40
		c0-3.5-1.4-6.8-4-10"/>
	<path class="st5" d="M363.7,259.4c0,19.7-45.1,35.7-100.8,35.7s-100.8-16-100.8-35.7"/>
	<path class="st5" d="M262.9,163.7c-55.7,0-100.8,16-100.8,35.7v40c0,19.7,45.1,35.7,100.8,35.7s100.8-16,100.8-35.7v-40
		C363.7,179.7,318.6,163.7,262.9,163.7z"/>
	<ellipse class="st5" cx="262.9" cy="199.4" rx="100.8" ry="35.7"/>
</g>
<g id="shadows-lights">
	<g>
		<path class="st6" d="M259.4,355.1c-89.1,0-98-35.7-98-35.7v40c0,19.7,45.1,35.7,100.8,35.7s100.8-16,100.8-35.7v-40
			C363,319.4,352.3,355.1,259.4,355.1z"/>
		<path class="st6" d="M260.7,295.1c-99.3,0-99.3-39.4-99.3-35.7v40c0,19.7,45.1,35.7,100.8,35.7s100.8-16,100.8-35.7v-40
			C363,255.9,363,295.1,260.7,295.1z"/>
		<path class="st6" d="M259.4,235.1c-86.1,0-98-35.7-98-35.7v40c0,19.7,45.1,35.7,100.8,35.7s100.8-16,100.8-35.7v-40
			C363,199.4,359.2,235.1,259.4,235.1z"/>
	</g>
	<g>
		<line class="st7" x1="409.2" y1="414.9" x2="109.3" y2="414.9"/>
		<path class="st8" d="M162.1,349.9c0,19.7,45.1,35.7,100.8,35.7s100.8-16,100.8-35.7"/>
		<path class="st8" d="M162.1,286.7c0,19.7,44.5,39.2,100.2,39.2s101.5-18.5,101.5-38.2"/>
		<path class="st8" d="M359.2,191.3c0,19.7-40.7,35.7-96.4,35.7s-97.1-16-97.1-35.7"/>
		<path class="st9" d="M266.1,175.7c32.8,0,61.6,7.8,75.3,15.6"/>
		<path class="st8" d="M162.1,230.9c0,19.7,45.1,35.7,100.8,35.7s100.8-16,100.8-35.7"/>
	</g>
</g>
</svg>
