<?xml version="1.0" encoding="utf-8"?>
<!-- Generator: Adobe Illustrator 21.0.0, SVG Export Plug-In . SVG Version: 6.00 Build 0)  -->
<svg version="1.1" id="Layer_1" xmlns="http://www.w3.org/2000/svg" xmlns:xlink="http://www.w3.org/1999/xlink" x="0px" y="0px"
	 viewBox="0 0 512 512" style="enable-background:new 0 0 512 512;" xml:space="preserve">
<style type="text/css">
	.st0{opacity:0.25;fill:#95A2AC;}
	.st1{fill:#FFD54F;}
	.st2{fill:#95A2AC;}
	.st3{fill:#B3BDC3;}
	.st4{fill:#1DE9B6;}
	.st5{opacity:0.25;fill:none;stroke:#6F6F6F;stroke-width:15;stroke-linecap:round;stroke-miterlimit:10;}
	.st6{opacity:0.25;}
	.st7{opacity:0.25;fill:none;stroke:#000000;stroke-width:10;stroke-linecap:round;stroke-linejoin:round;stroke-miterlimit:10;}
	.st8{opacity:0.25;fill:none;stroke:#000000;stroke-width:10;stroke-linecap:round;stroke-miterlimit:10;}
	.st9{opacity:0.75;fill:none;stroke:#FFFFFF;stroke-width:10;stroke-linecap:round;stroke-linejoin:round;stroke-miterlimit:10;}
	.st10{fill:none;stroke:#000000;stroke-width:10;stroke-linecap:round;stroke-linejoin:round;stroke-miterlimit:10;}
	.st11{fill:none;stroke:#000000;stroke-width:10;stroke-linecap:round;stroke-miterlimit:10;}
</style>
<g id="background">
	<circle class="st0" cx="259" cy="263.4" r="193.4"/>
	<g>
		<path class="st1" d="M259.8,161.6c-2.8,0-5-2.2-5-5v-22.4c0-2.8,2.2-5,5-5s5,2.2,5,5v22.4C264.8,159.4,262.6,161.6,259.8,161.6z"
			/>
		<path class="st1" d="M271,150.4h-22.4c-2.8,0-5-2.2-5-5s2.2-5,5-5H271c2.8,0,5,2.2,5,5S273.8,150.4,271,150.4z"/>
	</g>
	<g>
		<path class="st2" d="M134.5,152.1c-2.3,0-4.4-1.6-4.9-4l-4.4-22c-0.5-2.7,1.2-5.3,3.9-5.9c2.7-0.5,5.3,1.2,5.9,3.9l4.4,22
			c0.5,2.7-1.2,5.3-3.9,5.9C135.1,152.1,134.8,152.1,134.5,152.1z"/>
		<path class="st2" d="M121.3,143.3c-2.3,0-4.4-1.6-4.9-4c-0.5-2.7,1.2-5.3,3.9-5.9l22-4.4c2.7-0.5,5.3,1.2,5.9,3.9
			s-1.2,5.3-3.9,5.9l-22,4.4C121.9,143.3,121.6,143.3,121.3,143.3z"/>
	</g>
	<g>
		<path class="st1" d="M435.4,306.7c-1.1,0-2.1-0.3-3.1-1c-2.2-1.7-2.6-4.8-0.9-7l13.7-17.7c1.7-2.2,4.8-2.6,7-0.9
			c2.2,1.7,2.6,4.8,0.9,7l-13.7,17.7C438.4,306,436.9,306.7,435.4,306.7z"/>
		<path class="st1" d="M451.1,304.7c-1.1,0-2.1-0.3-3.1-1l-17.7-13.7c-2.2-1.7-2.6-4.8-0.9-7c1.7-2.2,4.8-2.6,7-0.9l17.7,13.7
			c2.2,1.7,2.6,4.8,0.9,7C454.1,304,452.6,304.7,451.1,304.7z"/>
	</g>
	<g>
		<path class="st2" d="M78.6,308.8c-2.3,0-4.4-1.6-4.9-4l-4.4-22c-0.5-2.7,1.2-5.3,3.9-5.9c2.7-0.5,5.3,1.2,5.9,3.9l4.4,22
			c0.5,2.7-1.2,5.3-3.9,5.9C79.3,308.8,79,308.8,78.6,308.8z"/>
		<path class="st2" d="M65.5,300c-2.3,0-4.4-1.6-4.9-4c-0.5-2.7,1.2-5.3,3.9-5.9l22-4.4c2.7-0.5,5.3,1.2,5.9,3.9s-1.2,5.3-3.9,5.9
			l-22,4.4C66.1,300,65.8,300,65.5,300z"/>
	</g>
	<path class="st2" d="M279.4,103.3c-7.4,0-13.4-6-13.4-13.4s6-13.4,13.4-13.4c7.4,0,13.4,6,13.4,13.4S286.8,103.3,279.4,103.3z
		 M279.4,86.5c-1.9,0-3.4,1.5-3.4,3.4s1.5,3.4,3.4,3.4c1.9,0,3.4-1.5,3.4-3.4S281.3,86.5,279.4,86.5z"/>
	<path class="st1" d="M77.3,223.2c-7.4,0-13.4-6-13.4-13.4s6-13.4,13.4-13.4s13.4,6,13.4,13.4S84.6,223.2,77.3,223.2z M77.3,206.5
		c-1.9,0-3.4,1.5-3.4,3.4s1.5,3.4,3.4,3.4s3.4-1.5,3.4-3.4S79.1,206.5,77.3,206.5z"/>
	<path class="st2" d="M352,181.1c-7.4,0-13.4-6-13.4-13.4c0-7.4,6-13.4,13.4-13.4c7.4,0,13.4,6,13.4,13.4
		C365.3,175.1,359.3,181.1,352,181.1z M352,164.3c-1.9,0-3.4,1.5-3.4,3.4c0,1.9,1.5,3.4,3.4,3.4c1.9,0,3.4-1.5,3.4-3.4
		C355.3,165.9,353.8,164.3,352,164.3z"/>
	<g>
		<path class="st1" d="M368.9,103.7c-1.1,0-2.1-0.3-3.1-1c-2.2-1.7-2.6-4.8-0.9-7l13.7-17.7c1.7-2.2,4.8-2.6,7-0.9
			c2.2,1.7,2.6,4.8,0.9,7l-13.7,17.7C371.9,103,370.4,103.7,368.9,103.7z"/>
		<path class="st1" d="M384.7,101.7c-1.1,0-2.1-0.3-3.1-1l-17.7-13.7c-2.2-1.7-2.6-4.8-0.9-7c1.7-2.2,4.8-2.6,7-0.9l17.7,13.7
			c2.2,1.7,2.6,4.8,0.9,7C387.6,101.1,386.2,101.7,384.7,101.7z"/>
	</g>
	<path class="st1" d="M181.4,84c-7.4,0-13.4-6-13.4-13.4s6-13.4,13.4-13.4s13.4,6,13.4,13.4S188.8,84,181.4,84z M181.4,67.2
		c-1.9,0-3.4,1.5-3.4,3.4s1.5,3.4,3.4,3.4s3.4-1.5,3.4-3.4S183.3,67.2,181.4,67.2z"/>
	<path class="st2" d="M430.6,228.4c-7.4,0-13.4-6-13.4-13.4c0-7.4,6-13.4,13.4-13.4s13.4,6,13.4,13.4
		C443.9,222.4,437.9,228.4,430.6,228.4z M430.6,211.6c-1.9,0-3.4,1.5-3.4,3.4c0,1.9,1.5,3.4,3.4,3.4s3.4-1.5,3.4-3.4
		C433.9,213.1,432.4,211.6,430.6,211.6z"/>
</g>
<g id="shock_x5F_color">
	<path class="st3" d="M424.4,378.4l-27.9-28.2c0.2-1,0.3-2,0.3-3.1v-82c0-7.1-4.2-13.4-10.6-16.2c-3.7-1.6-13.9-5.6-13.9-5.6
		c-8.5-18.1-49-60.9-99.7-19.7c0,0-7.9-0.3-13.4-0.3c-61.2,0-107.3,16.9-127.1,25.7c-6.4,2.9-10.6,9.1-10.6,16.2v82
		c0,9.7,7.9,17.6,17.6,17.6h240.1c1.1,0,2.2-0.1,3.2-0.3l28,28c3.9,3.9,10.2,3.9,14,0S428.2,382.3,424.4,378.4z M382.3,364.5
		c7.2-1.3,12.8-7,14.2-14.2C396.7,357.3,390,364.8,382.3,364.5z"/>
	<path class="st3" d="M121.2,350.2l-27.9,28.2c-3.9,3.9-3.9,10.2,0,14h0c3.9,3.9,10.2,3.9,14,0l28-28
		C127.6,364.8,120.9,357.2,121.2,350.2z"/>
</g>
<circle id="color" class="st4" cx="314.4" cy="268.8" r="40.5"/>
<g id="shadows-lights">
	<line class="st5" x1="408.8" y1="414.9" x2="108.9" y2="414.9"/>
	<path class="st6" d="M314.4,206.9c-34.2,0-61.8,27.7-61.8,61.8c0,34.2,27.7,61.9,61.8,61.9s61.9-27.7,61.9-61.9
		C376.3,234.6,348.6,206.9,314.4,206.9z M314.4,309.2c-22.3,0-40.5-18.1-40.5-40.5c0-22.3,18.1-40.4,40.5-40.4
		c22.3,0,40.5,18.1,40.5,40.4C354.9,291.1,336.8,309.2,314.4,309.2z"/>
	<path class="st7" d="M274.3,263.4c0,22.3,17.8,37.4,40.1,37.4c22.3,0,40.1-15,40.1-37.4"/>
	<path class="st8" d="M121.1,337.9c0,9.7,7.9,17.6,17.6,17.6h240.1c9.7,0,17.6-7.9,17.6-17.6"/>
	<path class="st9" d="M343.5,268.8c0-16.1-13-29.1-29.1-29.1"/>
</g>
<g id="lines">
	<line class="st10" x1="473.3" y1="403.2" x2="455.1" y2="403.2"/>
	<line class="st10" x1="439" y1="402.7" x2="78.3" y2="402.7"/>
	<line class="st10" x1="61.2" y1="403.2" x2="43" y2="403.2"/>
	<line class="st10" x1="144.2" y1="268.8" x2="228.8" y2="268.8"/>
	<line class="st10" x1="144.2" y1="287.4" x2="228.8" y2="287.4"/>
	<line class="st10" x1="144.2" y1="306.1" x2="228.8" y2="306.1"/>
	<g>
		<path class="st11" d="M122.3,176.8c23-24.6,61.6-26,86.2-3"/>
		<path class="st11" d="M132.9,186.7c17.4-18.6,46.5-19.6,65.2-2.3"/>
		<path class="st11" d="M143.4,196.4c12-12.8,32.1-13.5,44.9-1.6"/>
	</g>
	<circle class="st10" cx="314.4" cy="268.8" r="61.9"/>
	<path class="st11" d="M396.6,265.1c0-7.1-4.2-13.4-10.6-16.2c-3.7-1.6-13.9-5.6-13.9-5.6c-8.5-18.1-49-60.9-99.7-19.7
		c0,0-7.9-0.3-13.4-0.3c-61.2,0-107.3,16.9-127.1,25.7c-6.4,2.9-10.6,9.1-10.6,16.2v82c0,9.7,7.9,17.6,17.6,17.6h240.1
		c9.7,0,17.6-7.9,17.6-17.6V265.1z"/>
	<g>
		<path class="st10" d="M424.2,392.4L424.2,392.4c-3.9,3.9-10.2,3.9-14,0l-28-28c7.8,0.3,14.4-7.3,14.2-14.3l27.9,28.2
			C428.1,382.3,428.1,388.6,424.2,392.4z"/>
	</g>
	<g>
		<path class="st10" d="M93.1,392.4L93.1,392.4c3.9,3.9,10.2,3.9,14,0l28-28c-7.8,0.3-14.4-7.3-14.2-14.3l-27.9,28.2
			C89.3,382.3,89.3,388.6,93.1,392.4z"/>
	</g>
	<circle class="st10" cx="314.4" cy="268.8" r="40.5"/>
</g>
</svg>
