<?xml version="1.0" encoding="utf-8"?>
<!-- Generator: Adobe Illustrator 21.0.0, SVG Export Plug-In . SVG Version: 6.00 Build 0)  -->
<svg version="1.1" id="Layer_1" xmlns="http://www.w3.org/2000/svg" xmlns:xlink="http://www.w3.org/1999/xlink" x="0px" y="0px"
	 viewBox="0 0 512 512" style="enable-background:new 0 0 512 512;" xml:space="preserve">
<style type="text/css">
	.st0{opacity:0.25;fill:#95A2AC;}
	.st1{fill:#FFD54F;}
	.st2{fill:#95A2AC;}
	.st3{fill:#B3BDC3;}
	.st4{fill:#1DE9B6;}
	.st5{opacity:0.25;fill:none;stroke:#6F6F6F;stroke-width:15;stroke-linecap:round;stroke-miterlimit:10;}
	.st6{opacity:0.25;fill:none;stroke:#000000;stroke-width:10;stroke-linecap:round;stroke-linejoin:round;stroke-miterlimit:10;}
	.st7{opacity:0.5;}
	.st8{opacity:0.25;}
	.st9{fill:none;stroke:#000000;stroke-width:10;stroke-linecap:round;stroke-linejoin:round;stroke-miterlimit:10;}
	.st10{fill:none;stroke:#000000;stroke-width:10;stroke-linejoin:round;stroke-miterlimit:10;}
</style>
<g id="background">
	<circle class="st0" cx="259.1" cy="257.5" r="193.4"/>
	<g>
		<path class="st1" d="M184.8,125.6c-2.8,0-5-2.2-5-5V98.2c0-2.8,2.2-5,5-5s5,2.2,5,5v22.4C189.8,123.4,187.6,125.6,184.8,125.6z"/>
		<path class="st1" d="M196,114.4h-22.4c-2.8,0-5-2.2-5-5s2.2-5,5-5H196c2.8,0,5,2.2,5,5S198.8,114.4,196,114.4z"/>
	</g>
	<g>
		<path class="st2" d="M430.3,244.1c-2.3,0-4.4-1.6-4.9-4l-4.4-22c-0.5-2.7,1.2-5.3,3.9-5.9c2.7-0.5,5.3,1.2,5.9,3.9l4.4,22
			c0.5,2.7-1.2,5.3-3.9,5.9C431,244.1,430.7,244.1,430.3,244.1z"/>
		<path class="st2" d="M417.1,235.3c-2.3,0-4.4-1.6-4.9-4c-0.5-2.7,1.2-5.3,3.9-5.9l22-4.4c2.7-0.5,5.3,1.2,5.9,3.9
			s-1.2,5.3-3.9,5.9l-22,4.4C417.8,235.3,417.5,235.3,417.1,235.3z"/>
	</g>
	<g>
		<path class="st1" d="M386.1,359.9c-1.1,0-2.1-0.3-3.1-1c-2.2-1.7-2.6-4.8-0.9-7l13.7-17.7c1.7-2.2,4.8-2.6,7-0.9
			c2.2,1.7,2.6,4.8,0.9,7L390,358C389,359.3,387.5,359.9,386.1,359.9z"/>
		<path class="st1" d="M401.8,358c-1.1,0-2.1-0.3-3.1-1L381,343.2c-2.2-1.7-2.6-4.8-0.9-7c1.7-2.2,4.8-2.6,7-0.9l17.7,13.7
			c2.2,1.7,2.6,4.8,0.9,7C404.7,357.3,403.3,358,401.8,358z"/>
	</g>
	<g>
		<path class="st2" d="M332.5,95.4c-2.3,0-4.4-1.6-4.9-4l-4.4-22c-0.5-2.7,1.2-5.3,3.9-5.9c2.7-0.5,5.3,1.2,5.9,3.9l4.4,22
			c0.5,2.7-1.2,5.3-3.9,5.9C333.2,95.3,332.8,95.4,332.5,95.4z"/>
		<path class="st2" d="M319.3,86.6c-2.3,0-4.4-1.6-4.9-4c-0.5-2.7,1.2-5.3,3.9-5.9l22-4.4c2.7-0.5,5.3,1.2,5.9,3.9
			c0.5,2.7-1.2,5.3-3.9,5.9l-22,4.4C320,86.6,319.6,86.6,319.3,86.6z"/>
	</g>
	<path class="st2" d="M82,231.1c-7.4,0-13.4-6-13.4-13.4s6-13.4,13.4-13.4c7.4,0,13.4,6,13.4,13.4S89.4,231.1,82,231.1z M82,214.3
		c-1.9,0-3.4,1.5-3.4,3.4s1.5,3.4,3.4,3.4c1.9,0,3.4-1.5,3.4-3.4S83.9,214.3,82,214.3z"/>
	<path class="st1" d="M358,179c-7.4,0-13.4-6-13.4-13.4s6-13.4,13.4-13.4s13.4,6,13.4,13.4S365.4,179,358,179z M358,162.2
		c-1.9,0-3.4,1.5-3.4,3.4s1.5,3.4,3.4,3.4s3.4-1.5,3.4-3.4S359.9,162.2,358,162.2z"/>
	<path class="st2" d="M216,79.6c-7.4,0-13.4-6-13.4-13.4c0-7.4,6-13.4,13.4-13.4s13.4,6,13.4,13.4C229.3,73.6,223.3,79.6,216,79.6z
		 M216,62.8c-1.9,0-3.4,1.5-3.4,3.4c0,1.9,1.5,3.4,3.4,3.4s3.4-1.5,3.4-3.4C219.3,64.3,217.8,62.8,216,62.8z"/>
	<g>
		<path class="st1" d="M386.1,123.3c-1.1,0-2.1-0.3-3.1-1c-2.2-1.7-2.6-4.8-0.9-7l13.7-17.7c1.7-2.2,4.8-2.6,7-0.9
			c2.2,1.7,2.6,4.8,0.9,7L390,121.3C389,122.6,387.5,123.3,386.1,123.3z"/>
		<path class="st1" d="M401.8,121.3c-1.1,0-2.1-0.3-3.1-1L381,106.5c-2.2-1.7-2.6-4.8-0.9-7c1.7-2.2,4.8-2.6,7-0.9l17.7,13.7
			c2.2,1.7,2.6,4.8,0.9,7C404.7,120.6,403.3,121.3,401.8,121.3z"/>
	</g>
	<path class="st1" d="M133.2,179c-7.4,0-13.4-6-13.4-13.4s6-13.4,13.4-13.4c7.4,0,13.4,6,13.4,13.4S140.6,179,133.2,179z
		 M133.2,162.2c-1.9,0-3.4,1.5-3.4,3.4s1.5,3.4,3.4,3.4s3.4-1.5,3.4-3.4S135,162.2,133.2,162.2z"/>
	<path class="st2" d="M258.3,156.7c-7.4,0-13.4-6-13.4-13.4s6-13.4,13.4-13.4c7.4,0,13.4,6,13.4,13.4S265.6,156.7,258.3,156.7z
		 M258.3,139.9c-1.9,0-3.4,1.5-3.4,3.4s1.5,3.4,3.4,3.4s3.4-1.5,3.4-3.4S260.1,139.9,258.3,139.9z"/>
	<g>
		<path class="st1" d="M106.1,339.9c-1.1,0-2.1-0.3-3.1-1c-2.2-1.7-2.6-4.8-0.9-7l13.7-17.7c1.7-2.2,4.8-2.6,7-0.9
			c2.2,1.7,2.6,4.8,0.9,7L110,338C109,339.3,107.5,339.9,106.1,339.9z"/>
		<path class="st1" d="M121.8,338c-1.1,0-2.1-0.3-3.1-1L101,323.2c-2.2-1.7-2.6-4.8-0.9-7c1.7-2.2,4.8-2.6,7-0.9l17.7,13.7
			c2.2,1.7,2.6,4.8,0.9,7C124.7,337.3,123.3,338,121.8,338z"/>
	</g>
</g>
<g id="shock_x5F_color">
	<path class="st3" d="M385.7,268.9c-3.8,0-7.5-1.5-10.3-4.4c-30.6-32.5-71.9-50.4-116.2-50.4s-85.7,17.9-116.2,50.4
		c-5.4,5.7-14.3,6-20,0.6c-5.7-5.4-6-14.3-0.6-20c36-38.3,84.6-59.3,136.8-59.3S360,206.8,396,245.1c5.3,5.7,5.1,14.6-0.6,20
		C392.6,267.7,389.1,268.9,385.7,268.9z"/>
	<path class="st3" d="M310.7,343.9c-3.7,0-7.4-1.5-10.2-4.3c-7.1-7.4-22-19.8-41.4-19.8c-15,0-27.8,5.9-40.4,18.6
		c-5.5,5.6-14.4,5.6-20,0.1c-5.6-5.5-5.6-14.5-0.1-20c18-18.2,37.8-27,60.5-27c22.2,0,44.1,10.1,61.8,28.4c5.4,5.6,5.3,14.6-0.4,20
		C317.8,342.6,314.2,343.9,310.7,343.9z"/>
	<path class="st3" d="M348.5,306.1c-3.8,0-7.6-1.5-10.4-4.6c-20.3-22.2-49.1-34.9-79-34.9s-58.6,12.7-79,34.9
		c-5.3,5.8-14.2,6.2-20,0.9c-5.8-5.3-6.2-14.2-0.9-20c25.7-28,62-44.1,99.8-44.1s74.2,16.1,99.8,44.1c5.3,5.8,4.9,14.7-0.9,20
		C355.3,304.9,351.9,306.1,348.5,306.1z"/>
	<circle class="st3" cx="261.1" cy="365.8" r="21.9"/>
</g>
<circle id="color" class="st4" cx="261.1" cy="365.8" r="21.9"/>
<g id="shadows-lights">
	<line class="st5" x1="368.9" y1="408.9" x2="149" y2="408.9"/>
	<g>
		<path class="st6" d="M395.4,256c-2.7,2.6-6.2,3.8-9.7,3.8c-3.8,0-7.5-1.5-10.3-4.4c-30.6-32.5-71.9-50.4-116.2-50.4
			s-85.7,17.9-116.2,50.4c-5.4,5.7-14.3,6-20,0.6"/>
		<path class="st6" d="M320.5,330.8c-2.7,2.7-6.3,4-9.8,4c-3.7,0-7.4-1.5-10.2-4.3c-7.1-7.4-22-19.8-41.4-19.8
			c-15,0-27.8,5.9-40.4,18.6c-5.5,5.6-14.4,5.6-20,0.1"/>
		<path class="st6" d="M358,293.3c-2.7,2.5-6.1,3.7-9.5,3.7c-3.8,0-7.6-1.5-10.4-4.6c-20.3-22.2-49.1-34.9-79-34.9
			s-58.6,12.7-79,34.9c-5.3,5.8-14.2,6.2-20,0.9"/>
		<path class="st6" d="M241.2,356.7c0,12.1,7.8,21.9,19.9,21.9c12.1,0,20.3-9,20.3-21.1"/>
	</g>
	<path class="st7" d="M310.7,343.9c-3.7,0-7.4-1.5-10.2-4.3c-7.1-7.4-22-19.8-41.4-19.8c-15,0-27.8,5.9-40.4,18.6
		c-5.5,5.6-14.4,5.6-20,0.1c-5.6-5.5-5.6-14.5-0.1-20c18-18.2,37.8-27,60.5-27c22.2,0,44.1,10.1,61.8,28.4c5.4,5.6,5.3,14.6-0.4,20
		C317.8,342.6,314.2,343.9,310.7,343.9z"/>
	<path class="st8" d="M348.5,306.1c-3.8,0-7.6-1.5-10.4-4.6c-20.3-22.2-49.1-34.9-79-34.9s-58.6,12.7-79,34.9
		c-5.3,5.8-14.2,6.2-20,0.9c-5.8-5.3-6.2-14.2-0.9-20c25.7-28,62-44.1,99.8-44.1s74.2,16.1,99.8,44.1c5.3,5.8,4.9,14.7-0.9,20
		C355.3,304.9,351.9,306.1,348.5,306.1z"/>
</g>
<g id="lines">
	<line class="st9" x1="473.4" y1="397.2" x2="455.2" y2="397.2"/>
	<line class="st9" x1="439.1" y1="396.7" x2="78.4" y2="396.7"/>
	<line class="st9" x1="61.3" y1="397.2" x2="43.1" y2="397.2"/>
	<path class="st10" d="M385.7,268.9c-3.8,0-7.5-1.5-10.3-4.4c-30.6-32.5-71.9-50.4-116.2-50.4s-85.7,17.9-116.2,50.4
		c-5.4,5.7-14.3,6-20,0.6c-5.7-5.4-6-14.3-0.6-20c36-38.3,84.6-59.3,136.8-59.3S360,206.8,396,245.1c5.3,5.7,5.1,14.6-0.6,20
		C392.6,267.7,389.1,268.9,385.7,268.9z"/>
	<path class="st10" d="M310.7,343.9c-3.7,0-7.4-1.5-10.2-4.3c-7.1-7.4-22-19.8-41.4-19.8c-15,0-27.8,5.9-40.4,18.6
		c-5.5,5.6-14.4,5.6-20,0.1c-5.6-5.5-5.6-14.5-0.1-20c18-18.2,37.8-27,60.5-27c22.2,0,44.1,10.1,61.8,28.4c5.4,5.6,5.3,14.6-0.4,20
		C317.8,342.6,314.2,343.9,310.7,343.9z"/>
	<path class="st10" d="M348.5,306.1c-3.8,0-7.6-1.5-10.4-4.6c-20.3-22.2-49.1-34.9-79-34.9s-58.6,12.7-79,34.9
		c-5.3,5.8-14.2,6.2-20,0.9c-5.8-5.3-6.2-14.2-0.9-20c25.7-28,62-44.1,99.8-44.1s74.2,16.1,99.8,44.1c5.3,5.8,4.9,14.7-0.9,20
		C355.3,304.9,351.9,306.1,348.5,306.1z"/>
	<circle class="st10" cx="261.1" cy="365.8" r="21.9"/>
</g>
</svg>
