<?xml version="1.0" encoding="utf-8"?>
<!-- Generator: Adobe Illustrator 21.0.0, SVG Export Plug-In . SVG Version: 6.00 Build 0)  -->
<svg version="1.1" id="Layer_1" xmlns="http://www.w3.org/2000/svg" xmlns:xlink="http://www.w3.org/1999/xlink" x="0px" y="0px"
	 viewBox="0 0 512 512" style="enable-background:new 0 0 512 512;" xml:space="preserve">
<style type="text/css">
	.st0{opacity:0.25;fill:#95A2AC;}
	.st1{fill:#FFD54F;}
	.st2{fill:#95A2AC;}
	.st3{fill:#B3BDC3;}
	.st4{fill:#1DE9B6;}
	.st5{opacity:0.25;fill:none;stroke:#000000;stroke-width:10;stroke-linecap:round;stroke-miterlimit:10;}
	.st6{opacity:0.75;fill:none;stroke:#FFFFFF;stroke-width:10;stroke-linecap:round;stroke-miterlimit:10;}
	.st7{opacity:0.25;fill:#222221;}
	.st8{opacity:0.25;fill:none;stroke:#6F6F6F;stroke-width:15;stroke-linecap:round;stroke-miterlimit:10;}
	.st9{fill:none;stroke:#000000;stroke-width:10;stroke-linecap:round;stroke-linejoin:round;stroke-miterlimit:10;}
	.st10{fill:none;stroke:#000000;stroke-width:10;stroke-miterlimit:10;}
	.st11{fill:none;stroke:#000000;stroke-width:10;stroke-linecap:round;stroke-miterlimit:10;}
</style>
<g>
	<circle class="st0" cx="260.4" cy="275.7" r="193.4"/>
	<g>
		<path class="st1" d="M329,89.5c-1.6,0-3.2-0.8-4.2-2.3l-12.3-18.7c-1.5-2.3-0.9-5.4,1.4-6.9c2.3-1.5,5.4-0.9,6.9,1.4l12.3,18.7
			c1.5,2.3,0.9,5.4-1.4,6.9C330.9,89.2,329.9,89.5,329,89.5z"/>
		<path class="st1" d="M313.5,86.3c-1.6,0-3.2-0.8-4.2-2.3c-1.5-2.3-0.9-5.4,1.4-6.9l18.7-12.3c2.3-1.5,5.4-0.9,6.9,1.4
			c1.5,2.3,0.9,5.4-1.4,6.9l-18.7,12.3C315.4,86,314.4,86.3,313.5,86.3z"/>
	</g>
	<g>
		<path class="st1" d="M162.9,197.3c-2.2,0-4.2-1.4-4.8-3.6l-6.2-21.6c-0.8-2.7,0.8-5.4,3.4-6.2c2.6-0.8,5.4,0.8,6.2,3.4l6.2,21.6
			c0.8,2.7-0.8,5.4-3.4,6.2C163.8,197.3,163.3,197.3,162.9,197.3z"/>
		<path class="st1" d="M149,189.6c-2.2,0-4.2-1.4-4.8-3.6c-0.8-2.7,0.8-5.4,3.4-6.2l21.5-6.2c2.6-0.8,5.4,0.8,6.2,3.4
			c0.8,2.7-0.8,5.4-3.4,6.2l-21.5,6.2C149.9,189.6,149.5,189.6,149,189.6z"/>
	</g>
	<g>
		<path class="st2" d="M442.7,176.7c-0.3,0-0.7,0-1-0.1c-2.7-0.5-4.5-3.2-3.9-5.9l4.4-22c0.5-2.7,3.2-4.5,5.9-3.9
			c2.7,0.5,4.5,3.2,3.9,5.9l-4.4,22C447.2,175.1,445.1,176.7,442.7,176.7z"/>
		<path class="st2" d="M455.9,168c-0.3,0-0.7,0-1-0.1l-22-4.4c-2.7-0.5-4.5-3.2-3.9-5.9c0.5-2.7,3.2-4.5,5.9-3.9l22,4.4
			c2.7,0.5,4.5,3.2,3.9,5.9C460.3,166.3,458.3,168,455.9,168z"/>
	</g>
	<g>
		<path class="st2" d="M92.4,151.1c-2.1,0-4.1-1.4-4.8-3.5L81,126.2c-0.8-2.6,0.7-5.4,3.3-6.3c2.6-0.8,5.4,0.7,6.3,3.3l6.6,21.4
			c0.8,2.6-0.7,5.4-3.3,6.3C93.4,151.1,92.9,151.1,92.4,151.1z"/>
		<path class="st2" d="M78.4,143.7c-2.1,0-4.1-1.4-4.8-3.5c-0.8-2.6,0.7-5.4,3.3-6.3l21.4-6.6c2.6-0.8,5.4,0.7,6.3,3.3
			c0.8,2.6-0.7,5.4-3.3,6.3l-21.4,6.6C79.3,143.7,78.8,143.7,78.4,143.7z"/>
	</g>
	<path class="st2" d="M124.4,269.7c-7.4,0-13.4-6-13.4-13.4c0-7.4,6-13.4,13.4-13.4c7.4,0,13.4,6,13.4,13.4
		C137.8,263.7,131.8,269.7,124.4,269.7z M124.4,252.9c-1.9,0-3.4,1.5-3.4,3.4s1.5,3.4,3.4,3.4c1.9,0,3.4-1.5,3.4-3.4
		S126.3,252.9,124.4,252.9z"/>
	<path class="st1" d="M381.6,245.8c-7.4,0-13.4-6-13.4-13.4c0-7.4,6-13.4,13.4-13.4s13.4,6,13.4,13.4
		C395,239.8,388.9,245.8,381.6,245.8z M381.6,229.1c-1.9,0-3.4,1.5-3.4,3.4s1.5,3.4,3.4,3.4s3.4-1.5,3.4-3.4
		S383.4,229.1,381.6,229.1z"/>
	<g>
		<path class="st1" d="M207.4,83c-1.5,0-3-0.7-4-2l-13.4-18c-1.6-2.2-1.2-5.3,1-7c2.2-1.6,5.3-1.2,7,1l13.4,18c1.6,2.2,1.2,5.3-1,7
			C209.5,82.7,208.5,83,207.4,83z"/>
		<path class="st1" d="M191.8,80.7c-1.5,0-3-0.7-4-2c-1.6-2.2-1.2-5.3,1-7l18-13.4c2.2-1.6,5.3-1.2,7,1c1.6,2.2,1.2,5.3-1,7
			l-18,13.4C193.8,80.4,192.8,80.7,191.8,80.7z"/>
	</g>
	<path class="st2" d="M245.2,152.3c-7.4,0-13.4-6-13.4-13.4c0-7.4,6-13.4,13.4-13.4s13.4,6,13.4,13.4
		C258.6,146.3,252.6,152.3,245.2,152.3z M245.2,135.5c-1.9,0-3.4,1.5-3.4,3.4s1.5,3.4,3.4,3.4s3.4-1.5,3.4-3.4
		S247,135.5,245.2,135.5z"/>
</g>
<g id="shock_x5F_color">
	<path class="st3" d="M267.8,202.4h-59.6c-4.1,0-7.5,3.3-7.5,7.5v74h74.5v-74C275.2,205.7,271.9,202.4,267.8,202.4z"/>
	<path class="st3" d="M332.4,327.4h-43.2v34.1h43.2c3.7,0,6.6-3,6.6-6.6V334C339.1,330.4,336.1,327.4,332.4,327.4z"/>
	<path class="st3" d="M324.4,178.1c0-5.9-4.8-10.6-10.6-10.6h0c-5.9,0-10.6,4.8-10.6,10.6v143.1h21.3V178.1z"/>
</g>
<path id="color" class="st4" d="M282.6,283.9h-89.3c-3.7,0-6.6,3-6.6,6.6v82.1c0,3.7,3,6.6,6.6,6.6h89.3c3.7,0,6.6-3,6.6-6.6v-82.1
	C289.3,286.8,286.3,283.9,282.6,283.9z"/>
<g id="shadows-lights">
	<path class="st5" d="M186.7,359c0,5.8,4.7,10.4,10.4,10.4h81.7c5.8,0,10.4-4.7,10.4-10.4"/>
	<line class="st6" x1="213.4" y1="215.7" x2="262.5" y2="215.7"/>
	<line class="st6" x1="200.7" y1="296.6" x2="275.2" y2="296.6"/>
	<line class="st6" x1="301.6" y1="339.3" x2="326.5" y2="339.3"/>
	<path class="st7" d="M259.2,265h-10.8c-1.8,0-3.3-1.5-3.3-3.3v-10.8c0-1.8,1.5-3.3,3.3-3.3h10.8c1.8,0,3.3,1.5,3.3,3.3v10.8
		C262.5,263.5,261.1,265,259.2,265z"/>
	<path class="st7" d="M227.4,265h-10.8c-1.8,0-3.3-1.5-3.3-3.3v-10.8c0-1.8,1.5-3.3,3.3-3.3h10.8c1.8,0,3.3,1.5,3.3,3.3v10.8
		C230.7,263.5,229.3,265,227.4,265z"/>
	<path class="st5" d="M289.3,352.6h43.2c3.7,0,6.6-3,6.6-6.6"/>
	<line class="st8" x1="366.9" y1="400.4" x2="159.8" y2="400.4"/>
</g>
<g id="lines">
	<line class="st9" x1="416.6" y1="388.8" x2="403.5" y2="388.8"/>
	<line class="st9" x1="124.4" y1="388.8" x2="111.4" y2="388.8"/>
	<line class="st9" x1="386.2" y1="388.3" x2="140.3" y2="388.3"/>
	<path class="st10" d="M275.2,283.9h-74.5v-74c0-4.1,3.3-7.5,7.5-7.5h59.6c4.1,0,7.5,3.3,7.5,7.5V283.9z"/>
	<path class="st10" d="M282.6,283.9h-89.3c-3.7,0-6.6,3-6.6,6.6v82.1c0,3.7,3,6.6,6.6,6.6h89.3c3.7,0,6.6-3,6.6-6.6v-82.1
		C289.3,286.8,286.3,283.9,282.6,283.9z"/>
	<path class="st9" d="M313.7,167.4L313.7,167.4c-5.9,0-10.6,4.8-10.6,10.6v143.1h21.3V178.1C324.4,172.2,319.6,167.4,313.7,167.4z"
		/>
	<line class="st9" x1="305.8" y1="296.9" x2="324.4" y2="296.9"/>
	<line class="st9" x1="305.1" y1="274.7" x2="322.8" y2="274.7"/>
	<path class="st10" d="M332.4,327.4h-43.2v34.1h43.2c3.7,0,6.6-3,6.6-6.6V334C339.1,330.4,336.1,327.4,332.4,327.4z"/>
	<path class="st11" d="M259.3,265h-10.8c-1.8,0-3.3-1.5-3.3-3.3v-10.8c0-1.8,1.5-3.3,3.3-3.3h10.8c1.8,0,3.3,1.5,3.3,3.3v10.8
		C262.6,263.5,261.1,265,259.3,265z"/>
	<path class="st11" d="M227.5,265h-10.8c-1.8,0-3.3-1.5-3.3-3.3v-10.8c0-1.8,1.5-3.3,3.3-3.3h10.8c1.8,0,3.3,1.5,3.3,3.3v10.8
		C230.8,263.5,229.3,265,227.5,265z"/>
	<path class="st11" d="M373.2,176.6c0-33.7-27.3-61-61-61"/>
	<path class="st11" d="M358.7,176.6c0-25.5-20.6-46.1-46.1-46.1"/>
	<path class="st11" d="M344.4,176.6c0-17.6-14.2-31.8-31.8-31.8"/>
</g>
</svg>
