<?xml version="1.0" encoding="utf-8"?>
<!-- Generator: Adobe Illustrator 25.0.0, SVG Export Plug-In . SVG Version: 6.00 Build 0)  -->
<svg version="1.1" id="Layer_1" xmlns="http://www.w3.org/2000/svg" xmlns:xlink="http://www.w3.org/1999/xlink" x="0px" y="0px"
	 viewBox="0 0 2000 2000" style="enable-background:new 0 0 2000 2000;" xml:space="preserve">
<style type="text/css">
	.st0{display:none;}
	.st1{fill:#FFFFFF;}
	.st2{fill:#2E4FA2;}
</style>
<rect class="st0" width="2000" height="2000"/>
<g>
	<g>
		<g>
			<path class="st2" d="M553.7,1325.9v45.5h-24.5v-122.5h44.6c14.5,0,25.4,3.5,32.7,10.4c7.3,6.9,11,16.4,11,28.3
				c0,11.7-3.8,21-11.4,27.9c-7.6,6.9-18.4,10.4-32.4,10.4H553.7z M592.8,1287.6c0-6.1-1.7-10.8-5-14.1c-3.4-3.2-8.8-4.9-16.5-4.9
				h-17.5v37.7h17.5C585.6,1306.3,592.8,1300.1,592.8,1287.6z"/>
			<path class="st2" d="M739.4,1346.8h-49.1l-8.7,24.6h-25.9l45.1-121.1h27.9l44.9,121.1h-25.9L739.4,1346.8z M732.8,1328.2
				l-18.1-51.7l-18,51.7H732.8z"/>
			<path class="st2" d="M842.7,1352.7h41.1v18.7h-65.6v-122.5h24.5V1352.7z"/>
			<path class="st2" d="M1004.3,1346.8h-49.1l-8.7,24.6h-25.9l45.1-121.1h27.9l44.9,121.1h-25.9L1004.3,1346.8z M997.7,1328.2
				l-18.1-51.7l-18,51.7H997.7z"/>
			<path class="st2" d="M1100.2,1248.9l32.8,97l33-97h26.2l-43.4,122.5h-31.4l-43.4-122.5H1100.2z"/>
			<path class="st2" d="M1335.4,1248.9l-41.5,79.7v42.9h-24.6v-42.9l-41.7-79.7h28.1l26,53.6l26-53.6H1335.4z"/>
			<path class="st2" d="M1443.7,1371.4l-28.6-47.7h-10.8v47.7h-24.5v-122.5h46.7c14.2,0,25.1,3.5,32.5,10.4
				c7.5,6.9,11.2,16.1,11.2,27.4c0,9.3-2.6,17-7.7,23.3c-5.2,6.2-12.6,10.4-22.3,12.5l30.5,48.9H1443.7z M1404.3,1306.8h20.1
				c14,0,21-6.2,21-18.6c0-5.9-1.7-10.5-5.1-13.8c-3.4-3.3-8.7-4.9-15.9-4.9h-20.1V1306.8z"/>
		</g>
		<g>
			<g>
				<path class="st2" d="M552.1,1422.4c1.2,1.5,1.8,3.2,1.8,5.1c0,2.7-0.9,4.9-2.7,6.5c-1.8,1.6-4.5,2.4-7.9,2.4h-14v-32.5h13.7
					c3.3,0,5.8,0.7,7.6,2.2c1.8,1.4,2.6,3.5,2.6,6.1c0,2-0.5,3.7-1.6,5c-1.1,1.3-2.5,2.1-4.2,2.5
					C549.3,1420.1,550.9,1421,552.1,1422.4z M535.7,1417.5h5.8c1.6,0,2.9-0.4,3.7-1.1c0.8-0.7,1.3-1.8,1.3-3.1
					c0-1.3-0.4-2.4-1.2-3.1c-0.8-0.7-2.1-1.1-3.8-1.1h-5.8V1417.5z M545.9,1430c0.9-0.7,1.4-1.9,1.4-3.3c0-1.4-0.5-2.6-1.4-3.3
					c-0.9-0.8-2.3-1.2-4-1.2h-6.1v8.9h6.2C543.6,1431.1,544.9,1430.7,545.9,1430z"/>
				<path class="st2" d="M570.2,1403.9v19.1c0,2.5,0.6,4.5,1.7,5.7c1.1,1.3,2.7,1.9,4.9,1.9c2.1,0,3.7-0.6,4.8-1.9
					c1.1-1.3,1.7-3.2,1.7-5.7v-19.1h6.4v19.1c0,3-0.6,5.5-1.7,7.6c-1.1,2.1-2.7,3.6-4.6,4.6c-2,1-4.2,1.5-6.7,1.5
					c-3.9,0-7-1.2-9.3-3.5c-2.3-2.3-3.5-5.8-3.5-10.3v-19.1H570.2z"/>
				<path class="st2" d="M607.4,1403.9v32.5h-6.5v-32.5H607.4z"/>
				<path class="st2" d="M625.3,1431.4h10.9v5h-17.4v-32.5h6.5V1431.4z"/>
				<path class="st2" d="M672.2,1428.6c-1.3,2.5-3.3,4.4-5.9,5.7c-2.6,1.4-5.6,2-9.1,2h-11.6v-32.5h11.6c3.5,0,6.6,0.7,9.1,2
					c2.6,1.3,4.5,3.2,5.9,5.7c1.3,2.4,2,5.3,2,8.5C674.3,1423.3,673.6,1426.2,672.2,1428.6z M664.8,1427.8c1.9-1.8,2.9-4.4,2.9-7.7
					c0-3.3-1-5.9-2.9-7.8c-1.9-1.8-4.6-2.8-8.1-2.8h-4.5v21h4.5C660.2,1430.6,662.9,1429.7,664.8,1427.8z"/>
				<path class="st2" d="M706.7,1403.9v32.5h-6.5v-32.5H706.7z"/>
				<path class="st2" d="M745.7,1436.4h-6.5l-14.5-22.1v22.1h-6.5v-32.5h6.5l14.5,22.3v-22.3h6.5V1436.4z"/>
				<path class="st2" d="M781.9,1406.7c2.7,2.1,4.4,4.9,5.3,8.5h-6.8c-0.7-1.8-1.8-3.1-3.3-4.1c-1.5-1-3.3-1.5-5.4-1.5
					c-1.7,0-3.3,0.4-4.7,1.3c-1.4,0.9-2.5,2.1-3.2,3.7c-0.8,1.6-1.1,3.5-1.1,5.6c0,2.1,0.4,4,1.1,5.6c0.8,1.6,1.8,2.8,3.2,3.7
					c1.4,0.9,2.9,1.3,4.7,1.3c2.1,0,3.9-0.5,5.4-1.5c1.5-1,2.6-2.4,3.3-4.1h6.8c-0.9,3.6-2.6,6.4-5.3,8.5c-2.7,2.1-6,3.1-10.1,3.1
					c-3.1,0-5.8-0.7-8.2-2.1c-2.4-1.4-4.2-3.4-5.5-5.9c-1.3-2.5-2-5.4-2-8.6c0-3.2,0.7-6.1,2-8.6s3.1-4.5,5.5-5.9
					c2.4-1.4,5.1-2.1,8.2-2.1C775.8,1403.6,779.2,1404.6,781.9,1406.7z"/>
				<path class="st2" d="M814.5,1436.4l-7.6-12.7h-2.8v12.7h-6.5v-32.5H810c3.8,0,6.7,0.9,8.6,2.8c2,1.8,3,4.3,3,7.3
					c0,2.5-0.7,4.5-2,6.2c-1.4,1.7-3.3,2.8-5.9,3.3l8.1,13H814.5z M804.1,1419.3h5.3c3.7,0,5.6-1.6,5.6-4.9c0-1.6-0.5-2.8-1.4-3.7
					c-0.9-0.9-2.3-1.3-4.2-1.3h-5.3V1419.3z"/>
				<path class="st2" d="M838,1409.1v8.4h11.5v5H838v8.8h12.9v5.2h-19.4v-32.5h19.4v5.2H838z"/>
				<path class="st2" d="M887.7,1428.6c-1.3,2.5-3.3,4.4-5.9,5.7c-2.6,1.4-5.6,2-9.1,2h-11.6v-32.5h11.6c3.5,0,6.6,0.7,9.1,2
					c2.6,1.3,4.5,3.2,5.9,5.7c1.3,2.4,2,5.3,2,8.5C889.8,1423.3,889.1,1426.2,887.7,1428.6z M880.3,1427.8c1.9-1.8,2.9-4.4,2.9-7.7
					c0-3.3-1-5.9-2.9-7.8c-1.9-1.8-4.6-2.8-8.1-2.8h-4.5v21h4.5C875.7,1430.6,878.4,1429.7,880.3,1427.8z"/>
				<path class="st2" d="M906.7,1403.9v32.5h-6.5v-32.5H906.7z"/>
				<path class="st2" d="M941,1422.4c1.2,1.5,1.8,3.2,1.8,5.1c0,2.7-0.9,4.9-2.7,6.5c-1.8,1.6-4.5,2.4-7.9,2.4h-14v-32.5h13.7
					c3.3,0,5.8,0.7,7.6,2.2c1.8,1.4,2.6,3.5,2.6,6.1c0,2-0.5,3.7-1.6,5c-1.1,1.3-2.5,2.1-4.2,2.5
					C938.2,1420.1,939.8,1421,941,1422.4z M924.6,1417.5h5.8c1.6,0,2.9-0.4,3.7-1.1c0.8-0.7,1.3-1.8,1.3-3.1c0-1.3-0.4-2.4-1.2-3.1
					c-0.8-0.7-2.1-1.1-3.8-1.1h-5.8V1417.5z M934.7,1430c0.9-0.7,1.4-1.9,1.4-3.3c0-1.4-0.5-2.6-1.4-3.3c-0.9-0.8-2.3-1.2-4-1.2
					h-6.1v8.9h6.2C932.5,1431.1,933.8,1430.7,934.7,1430z"/>
				<path class="st2" d="M959.3,1431.4h10.9v5h-17.4v-32.5h6.5V1431.4z"/>
				<path class="st2" d="M986.1,1409.1v8.4h11.5v5h-11.5v8.8H999v5.2h-19.4v-32.5H999v5.2H986.1z"/>
				<path class="st2" d="M1049.7,1406.7c2.7,2.1,4.4,4.9,5.3,8.5h-6.8c-0.7-1.8-1.8-3.1-3.3-4.1c-1.5-1-3.3-1.5-5.4-1.5
					c-1.7,0-3.3,0.4-4.7,1.3c-1.4,0.9-2.5,2.1-3.2,3.7c-0.8,1.6-1.1,3.5-1.1,5.6c0,2.1,0.4,4,1.1,5.6c0.8,1.6,1.8,2.8,3.2,3.7
					c1.4,0.9,2.9,1.3,4.7,1.3c2.1,0,3.9-0.5,5.4-1.5c1.5-1,2.6-2.4,3.3-4.1h6.8c-0.9,3.6-2.6,6.4-5.3,8.5c-2.7,2.1-6,3.1-10.1,3.1
					c-3.1,0-5.8-0.7-8.2-2.1c-2.4-1.4-4.2-3.4-5.5-5.9c-1.3-2.5-2-5.4-2-8.6c0-3.2,0.7-6.1,2-8.6s3.1-4.5,5.5-5.9
					c2.4-1.4,5.1-2.1,8.2-2.1C1043.6,1403.6,1047,1404.6,1049.7,1406.7z"/>
				<path class="st2" d="M1088.9,1405.6c2.5,1.4,4.4,3.4,5.8,5.9c1.4,2.5,2.1,5.4,2.1,8.6s-0.7,6.1-2.1,8.6
					c-1.4,2.5-3.4,4.5-5.8,5.9c-2.5,1.4-5.2,2.1-8.3,2.1c-3,0-5.8-0.7-8.3-2.1c-2.5-1.4-4.4-3.4-5.8-5.9c-1.4-2.5-2.1-5.4-2.1-8.6
					s0.7-6.1,2.1-8.6c1.4-2.5,3.4-4.5,5.8-5.9c2.5-1.4,5.2-2.1,8.3-2.1C1083.7,1403.4,1086.4,1404.1,1088.9,1405.6z M1075.6,1410.7
					c-1.4,0.9-2.6,2.1-3.4,3.7c-0.8,1.6-1.2,3.5-1.2,5.6s0.4,4,1.2,5.6c0.8,1.6,1.9,2.8,3.4,3.7c1.4,0.9,3.1,1.3,5,1.3
					c1.9,0,3.6-0.4,5-1.3c1.4-0.9,2.6-2.1,3.4-3.7c0.8-1.6,1.2-3.5,1.2-5.6s-0.4-4-1.2-5.6c-0.8-1.6-1.9-2.8-3.4-3.7
					c-1.4-0.9-3.1-1.3-5-1.3C1078.7,1409.4,1077,1409.9,1075.6,1410.7z"/>
				<path class="st2" d="M1134.8,1436.4h-6.5l-14.5-22.1v22.1h-6.5v-32.5h6.5l14.5,22.3v-22.3h6.5V1436.4z"/>
				<path class="st2" d="M1150.8,1403.9l8.7,25.7l8.7-25.7h7l-11.5,32.5h-8.3l-11.5-32.5H1150.8z"/>
				<path class="st2" d="M1190.7,1409.1v8.4h11.5v5h-11.5v8.8h12.9v5.2h-19.4v-32.5h19.4v5.2H1190.7z"/>
				<path class="st2" d="M1230.9,1436.4l-7.6-12.7h-2.8v12.7h-6.5v-32.5h12.4c3.8,0,6.7,0.9,8.6,2.8c2,1.8,3,4.3,3,7.3
					c0,2.5-0.7,4.5-2,6.2c-1.4,1.7-3.3,2.8-5.9,3.3l8.1,13H1230.9z M1220.4,1419.3h5.3c3.7,0,5.6-1.6,5.6-4.9c0-1.6-0.5-2.8-1.4-3.7
					c-0.9-0.9-2.3-1.3-4.2-1.3h-5.3V1419.3z"/>
				<path class="st2" d="M1268.9,1432.1c-0.8,1.4-2.1,2.5-3.7,3.4c-1.6,0.8-3.6,1.3-5.9,1.3c-2.3,0-4.4-0.4-6.2-1.2
					c-1.8-0.8-3.3-1.9-4.4-3.4c-1.1-1.5-1.7-3.2-1.9-5.2h6.9c0.2,1.3,0.7,2.4,1.6,3.3s2.1,1.3,3.6,1.3c1.3,0,2.4-0.4,3.1-1.1
					c0.7-0.7,1.1-1.6,1.1-2.8c0-1-0.3-1.9-0.9-2.5c-0.6-0.7-1.3-1.2-2.2-1.6c-0.9-0.4-2.1-0.9-3.7-1.4c-2-0.7-3.7-1.3-5-2
					c-1.3-0.7-2.4-1.6-3.3-2.9c-0.9-1.3-1.4-2.9-1.4-4.9c0-2.8,1-5,3-6.6c2-1.6,4.7-2.4,8-2.4c3.4,0,6.2,0.8,8.2,2.5
					c2,1.7,3.2,3.9,3.5,6.6h-7c-0.2-1.2-0.7-2.1-1.5-2.9c-0.8-0.7-1.9-1.1-3.3-1.1c-1.2,0-2.2,0.3-2.9,0.9c-0.7,0.6-1.1,1.5-1.1,2.7
					c0,1,0.3,1.7,0.8,2.4c0.6,0.6,1.3,1.1,2.2,1.5c0.9,0.4,2.1,0.8,3.6,1.3c2.1,0.7,3.8,1.4,5.1,2.1c1.3,0.6,2.4,1.6,3.3,2.9
					c0.9,1.3,1.4,3,1.4,5.1C1270.2,1429.2,1269.8,1430.7,1268.9,1432.1z"/>
				<path class="st2" d="M1300.3,1429.9h-13l-2.3,6.5h-6.9l12-32.1h7.4l11.9,32.1h-6.9L1300.3,1429.9z M1298.5,1424.9l-4.8-13.7
					l-4.8,13.7H1298.5z"/>
				<path class="st2" d="M1340.5,1403.9v5.2h-9v27.4h-6.5v-27.4h-8.9v-5.2H1340.5z"/>
				<path class="st2" d="M1356.1,1403.9v32.5h-6.5v-32.5H1356.1z"/>
				<path class="st2" d="M1391.1,1405.6c2.5,1.4,4.4,3.4,5.8,5.9c1.4,2.5,2.1,5.4,2.1,8.6s-0.7,6.1-2.1,8.6
					c-1.4,2.5-3.4,4.5-5.8,5.9c-2.5,1.4-5.2,2.1-8.3,2.1c-3,0-5.8-0.7-8.3-2.1c-2.5-1.4-4.4-3.4-5.8-5.9c-1.4-2.5-2.1-5.4-2.1-8.6
					s0.7-6.1,2.1-8.6c1.4-2.5,3.4-4.5,5.8-5.9c2.5-1.4,5.2-2.1,8.3-2.1C1385.8,1403.4,1388.6,1404.1,1391.1,1405.6z M1377.8,1410.7
					c-1.4,0.9-2.6,2.1-3.4,3.7c-0.8,1.6-1.2,3.5-1.2,5.6s0.4,4,1.2,5.6c0.8,1.6,1.9,2.8,3.4,3.7c1.4,0.9,3.1,1.3,5,1.3
					c1.9,0,3.6-0.4,5-1.3c1.4-0.9,2.6-2.1,3.4-3.7c0.8-1.6,1.2-3.5,1.2-5.6s-0.4-4-1.2-5.6c-0.8-1.6-1.9-2.8-3.4-3.7
					c-1.4-0.9-3.1-1.3-5-1.3C1380.9,1409.4,1379.2,1409.9,1377.8,1410.7z"/>
				<path class="st2" d="M1437,1436.4h-6.5l-14.5-22.1v22.1h-6.5v-32.5h6.5l14.5,22.3v-22.3h6.5V1436.4z"/>
				<path class="st2" d="M1469.5,1432.1c-0.8,1.4-2.1,2.5-3.7,3.4c-1.6,0.8-3.6,1.3-5.9,1.3c-2.3,0-4.4-0.4-6.2-1.2
					c-1.8-0.8-3.3-1.9-4.4-3.4c-1.1-1.5-1.7-3.2-1.9-5.2h6.9c0.1,1.3,0.7,2.4,1.6,3.3s2.1,1.3,3.6,1.3c1.3,0,2.4-0.4,3.1-1.1
					c0.7-0.7,1.1-1.6,1.1-2.8c0-1-0.3-1.9-0.9-2.5c-0.6-0.7-1.3-1.2-2.2-1.6c-0.9-0.4-2.1-0.9-3.7-1.4c-2-0.7-3.7-1.3-5-2
					c-1.3-0.7-2.4-1.6-3.3-2.9c-0.9-1.3-1.4-2.9-1.4-4.9c0-2.8,1-5,3-6.6c2-1.6,4.7-2.4,8-2.4c3.4,0,6.2,0.8,8.2,2.5
					c2,1.7,3.2,3.9,3.5,6.6h-7c-0.2-1.2-0.7-2.1-1.5-2.9c-0.8-0.7-1.9-1.1-3.3-1.1c-1.2,0-2.2,0.3-2.9,0.9c-0.7,0.6-1.1,1.5-1.1,2.7
					c0,1,0.3,1.7,0.8,2.4c0.6,0.6,1.3,1.1,2.2,1.5c0.9,0.4,2.1,0.8,3.6,1.3c2.1,0.7,3.8,1.4,5.1,2.1c1.3,0.6,2.4,1.6,3.3,2.9
					c0.9,1.3,1.4,3,1.4,5.1C1470.8,1429.2,1470.4,1430.7,1469.5,1432.1z"/>
			</g>
		</g>
		<g>
			<path class="st2" d="M1147.6,642.9c-18.5,16.5-36.1,21.9-48.5,23.4c-10.2,1.2-19.3-7.3-18.1-17.6c0-0.1,0-0.1,0-0.2
				c2,0.4,4.1,0.5,6.2,0.5c23.7,0,42.8-19.2,42.8-42.8s-19.1-42.8-42.8-42.8c-21.8,0-39.7,16.3-42.4,37.3c-0.3,1.8-0.4,3.7-0.4,5.5
				c0,0.9,0.2,1.9,0.2,2.8c0,0.1,0,0.3,0,0.4c0.1,0.7,0.1,1.5,0.2,2.2c0.1,0.4,0.1,0.8,0.1,1.2c1.9,18.5,9.2,36.2,21,50.5
				c6,7.4,13.3,14,21.6,19.3c-59.2-14-77.1-56.7-82.8-81c-0.1-0.4-0.2-0.9-0.2-1.2c-1.3-5.2-2-10.7-2.2-16.2c0,0,0,0-0.1,0
				c-15.4,14.9-26.9,33.7-32.9,54.3c-9.9,33.5-4.6,70.8,9.8,102.2c0.4,1,0.9,2,1.4,3c4.9,10.2,11.6,19.2,17.2,28.9
				c12.7,22.2,26.6,58.6,2.3,78.3c0,0,76-11.5,65.3-104c0,0,0,0,0,0c15.1,34.7,56.8,49.7,88.8,29.9c17.4-10.7,30.8-24.1,38.4-35.8
				c12.6-19.4,20-42.7,20-67.6v-1C1212.5,638.8,1172.7,620.5,1147.6,642.9z"/>
			<path class="st2" d="M792,703.3c16.5,18.5,21.9,36.1,23.4,48.5c1.2,10.2-7.3,19.3-17.6,18.1c-0.1,0-0.1,0-0.2,0
				c0.4-2,0.5-4.1,0.5-6.2c0-23.7-19.2-42.8-42.8-42.8s-42.8,19.1-42.8,42.8c0,21.8,16.3,39.7,37.3,42.4c1.8,0.3,3.7,0.4,5.5,0.4
				c0.9,0,1.9-0.2,2.8-0.2c0.1,0,0.3,0,0.4,0c0.7-0.1,1.5-0.1,2.2-0.2c0.4-0.1,0.8-0.1,1.2-0.1c18.5-1.9,36.2-9.2,50.5-21
				c7.4-6,14-13.3,19.3-21.6c-14,59.2-56.7,77.1-81,82.8c-0.4,0.1-0.9,0.2-1.2,0.2c-5.2,1.3-10.7,2-16.2,2.2c0,0,0,0,0,0.1
				c14.9,15.4,33.7,26.9,54.3,32.9c33.5,9.9,70.8,4.6,102.2-9.8c1-0.4,2-0.9,3-1.4c10.2-4.9,19.2-11.6,28.9-17.2
				c22.2-12.7,58.6-26.6,78.3-2.3c0,0-11.5-76-104-65.3c0,0,0,0,0,0c34.7-15.1,49.7-56.8,29.9-88.8c-10.7-17.4-24.1-30.8-35.8-38.4
				c-19.4-12.6-42.7-20-67.6-20h-1C787.9,638.3,769.6,678.2,792,703.3z"/>
			<path class="st2" d="M852.4,1058.9c18.5-16.5,36.1-21.9,48.5-23.4c10.2-1.2,19.3,7.3,18.1,17.6c0,0.1,0,0.1,0,0.2
				c-2-0.4-4.1-0.5-6.2-0.5c-23.7,0-42.8,19.2-42.8,42.8c0,23.6,19.1,42.8,42.8,42.8c21.8,0,39.7-16.3,42.4-37.3
				c0.3-1.8,0.4-3.7,0.4-5.5c0-0.9-0.2-1.9-0.2-2.8c0-0.1,0-0.3,0-0.4c-0.1-0.7-0.1-1.5-0.2-2.2c-0.1-0.4-0.1-0.8-0.1-1.2
				c-1.9-18.5-9.2-36.2-21-50.5c-6-7.4-13.3-14-21.6-19.3c59.2,14,77.1,56.7,82.8,81c0.1,0.4,0.2,0.9,0.2,1.2
				c1.3,5.2,2,10.7,2.2,16.2c0,0,0,0,0.1,0c15.4-14.9,26.9-33.7,32.9-54.3c9.9-33.5,4.6-70.8-9.8-102.2c-0.4-1-0.9-2-1.4-3
				c-4.9-10.2-11.6-19.2-17.2-28.9c-12.7-22.2-26.6-58.6-2.3-78.3c0,0-76,11.5-65.3,104c0,0,0,0,0,0c-15.1-34.7-56.8-49.7-88.8-29.9
				c-17.4,10.7-30.8,24.1-38.4,35.8c-12.6,19.4-20,42.7-20,67.6v1C787.5,1063,827.3,1081.3,852.4,1058.9z"/>
			<path class="st2" d="M1208,998.4c-16.5-18.5-21.9-36.1-23.4-48.5c-1.2-10.2,7.3-19.3,17.6-18.1c0.1,0,0.1,0,0.2,0
				c-0.4,2-0.5,4.1-0.5,6.2c0,23.7,19.2,42.8,42.8,42.8s42.8-19.1,42.8-42.8c0-21.8-16.3-39.7-37.3-42.4c-1.8-0.3-3.7-0.4-5.5-0.4
				c-0.9,0-1.9,0.2-2.8,0.2c-0.1,0-0.3,0-0.4,0c-0.7,0.1-1.5,0.1-2.2,0.2c-0.4,0.1-0.8,0.1-1.2,0.1c-18.5,1.9-36.2,9.2-50.5,21
				c-7.4,6-14,13.3-19.3,21.6c14-59.2,56.7-77.1,81-82.8c0.4-0.1,0.9-0.2,1.2-0.2c5.2-1.3,10.7-2,16.2-2.2c0,0,0,0,0-0.1
				c-14.9-15.4-33.7-26.9-54.3-32.9c-33.5-9.9-70.8-4.6-102.2,9.8c-1,0.4-2,0.9-3,1.4c-10.2,4.9-19.2,11.6-28.9,17.2
				c-22.2,12.7-58.6,26.6-78.3,2.3c0,0,11.5,76,104,65.3c0,0,0,0,0,0c-34.7,15.1-49.7,56.8-29.9,88.8c10.7,17.4,24.1,30.8,35.8,38.4
				c19.4,12.6,42.7,20,67.6,20h1C1212.1,1063.4,1230.4,1023.6,1208,998.4z"/>
		</g>
	</g>
</g>
</svg>
