<?xml version="1.0" encoding="utf-8"?>
<!-- Generator: Adobe Illustrator 16.0.0, SVG Export Plug-In . SVG Version: 6.00 Build 0)  -->
<!DOCTYPE svg PUBLIC "-//W3C//DTD SVG 1.1//EN" "http://www.w3.org/Graphics/SVG/1.1/DTD/svg11.dtd">
<svg version="1.1" id="Layer_1" xmlns="http://www.w3.org/2000/svg" xmlns:xlink="http://www.w3.org/1999/xlink" x="0px" y="0px"
	 width="153.33px" height="153.33px" viewBox="22.63 91.554 303.33 303.33" enable-background="new 22.63 91.554 303.33 303.33"
	 xml:space="preserve">
<desc>Created with Fabric.js 1.6.0-rc.1</desc>
<g>
	<g transform="translate(29.099999999999966 102.38) scale(0.51 0.51)">
		<g>
			<path fill="#2D2F2E" d="M-7.999,569.833c-0.542,0-0.98-0.438-0.98-0.98V302.764c0-0.542,0.438-0.98,0.98-0.98h26.608
				c0.542,0,0.98,0.439,0.98,0.98v238.5h238.498c0.542,0,0.98,0.439,0.98,0.98v26.608c0,0.542-0.438,0.98-0.98,0.98H-7.999z
				 M311.302,569.829c-0.542,0-0.98-0.438-0.98-0.98v-26.605c0-0.542,0.438-0.98,0.98-0.98h238.5v-238.5
				c0-0.542,0.438-0.98,0.98-0.98h26.608c0.542,0,0.98,0.439,0.98,0.98v266.085c0,0.542-0.438,0.98-0.98,0.98H311.302z
				 M550.782,250.527c-0.542,0-0.98-0.438-0.98-0.98v-238.5h-238.5c-0.542,0-0.98-0.438-0.98-0.98v-26.608
				c0-0.542,0.438-0.98,0.98-0.98h266.088c0.542,0,0.98,0.438,0.98,0.98v266.088c0,0.542-0.438,0.98-0.98,0.98H550.782z
				 M-7.999,250.527c-0.542,0-0.98-0.438-0.98-0.98V-16.541c0-0.542,0.438-0.98,0.98-0.98h266.086c0.542,0,0.98,0.438,0.98,0.98
				v26.608c0,0.542-0.438,0.98-0.98,0.98H19.59v238.5c0,0.542-0.438,0.98-0.98,0.98H-7.999z"/>
			<path d="M577.391-16.541v266.088h-26.608V10.067h-239.48v-26.608H577.391 M258.087-16.541v26.608H18.609v239.48H-7.999V-16.541
				H258.087 M577.391,302.764v266.085H311.302v-26.605h239.48v-239.48H577.391 M18.609,302.764v239.48h239.478v26.608H-7.999
				V302.764H18.609 M577.391-18.502H311.302c-1.084,0-1.961,0.878-1.961,1.961v26.608c0,1.083,0.877,1.961,1.961,1.961h237.519
				v237.519c0,1.084,0.877,1.961,1.961,1.961h26.608c1.084,0,1.961-0.877,1.961-1.961V-16.541
				C579.352-17.624,578.475-18.502,577.391-18.502L577.391-18.502z M258.087-18.502H-7.999c-1.083,0-1.961,0.878-1.961,1.961
				v266.088c0,1.084,0.878,1.961,1.961,1.961h26.608c1.083,0,1.961-0.877,1.961-1.961V12.028h237.517
				c1.083,0,1.961-0.878,1.961-1.961v-26.608C260.048-17.624,259.17-18.502,258.087-18.502L258.087-18.502z M577.391,300.803
				h-26.608c-1.084,0-1.961,0.877-1.961,1.961v237.519H311.302c-1.084,0-1.961,0.877-1.961,1.961v26.605
				c0,1.084,0.877,1.961,1.961,1.961h266.088c1.084,0,1.961-0.877,1.961-1.961V302.764
				C579.352,301.68,578.475,300.803,577.391,300.803L577.391,300.803z M18.609,300.803H-7.999c-1.083,0-1.961,0.877-1.961,1.961
				v266.088c0,1.084,0.878,1.961,1.961,1.961h266.086c1.083,0,1.961-0.877,1.961-1.961v-26.608c0-1.084-0.878-1.961-1.961-1.961
				H20.57V302.764C20.57,301.68,19.692,300.803,18.609,300.803L18.609,300.803z"/>
		</g>
	</g>
	<g>
		<g>
			<path fill="#5D5557" d="M254.747,307.151c-0.276,0-0.5-0.224-0.5-0.5v-55.816h-71.408v55.816c0,0.276-0.224,0.5-0.5,0.5H166.25
				c-0.276,0-0.5-0.224-0.5-0.5v-55.816H94.342v55.816c0,0.276-0.224,0.5-0.5,0.5h-16.09c-0.276,0-0.5-0.224-0.5-0.5v-72.408
				c0-0.276,0.224-0.5,0.5-0.5h87.998v-55.817c0-0.276,0.224-0.5,0.5-0.5h16.089c0.276,0,0.5,0.224,0.5,0.5v55.817h87.998
				c0.276,0,0.5,0.224,0.5,0.5v72.408c0,0.276-0.224,0.5-0.5,0.5H254.747z"/>
			<path d="M182.339,177.925v56.317h88.498v72.408h-16.09v-56.316h-72.408v56.316H166.25v-56.316H93.842v56.316h-16.09v-72.408
				h88.498v-56.317H182.339 M182.339,176.925H166.25c-0.552,0-1,0.448-1,1v55.317H77.752c-0.552,0-1,0.447-1,1v72.408
				c0,0.553,0.448,1,1,1h16.09c0.552,0,1-0.447,1-1v-55.316h70.408v55.316c0,0.553,0.448,1,1,1h16.089c0.553,0,1-0.447,1-1v-55.316
				h70.408v55.316c0,0.553,0.447,1,1,1h16.09c0.553,0,1-0.447,1-1v-72.408c0-0.553-0.447-1-1-1h-87.498v-55.317
				C183.339,177.373,182.892,176.925,182.339,176.925L182.339,176.925z"/>
		</g>
		<g>
			<path fill="#069A49" d="M150.159,179.925c-5.54,0-10.046-4.506-10.046-10.045v-48.271c0-5.539,4.506-10.045,10.046-10.045h48.271
				c5.539,0,10.045,4.506,10.045,10.045v48.271c0,5.539-4.506,10.045-10.045,10.045H150.159z"/>
			<path d="M198.431,113.564c4.449,0,8.045,3.604,8.045,8.045v48.271c0,4.448-3.598,8.045-8.045,8.045h-48.271
				c-4.449,0-8.046-3.597-8.046-8.045v-48.271c0-4.44,3.597-8.045,8.046-8.045H198.431 M198.431,109.564h-48.271
				c-6.642,0-12.046,5.403-12.046,12.045v48.271c0,6.642,5.404,12.045,12.046,12.045h48.271c6.642,0,12.045-5.403,12.045-12.045
				v-48.271C210.476,114.967,205.072,109.564,198.431,109.564L198.431,109.564z"/>
		</g>
		<g>
			<path fill="#2E4FA2" d="M61.661,373.012c-5.539,0-10.045-4.506-10.045-10.045v-48.271c0-5.539,4.506-10.045,10.045-10.045h48.271
				c2.686,0,5.209,1.045,7.106,2.943c1.896,1.896,2.939,4.419,2.939,7.102v48.271c0,5.539-4.506,10.045-10.045,10.045H61.661z"/>
			<path d="M109.933,306.651c4.449,0,8.046,3.604,8.045,8.045v48.271c0,4.447-3.597,8.045-8.045,8.045H61.661
				c-4.449,0-8.045-3.598-8.045-8.045v-48.271c0-4.441,3.596-8.045,8.045-8.045H109.933 M109.933,302.651H61.661
				c-6.642,0-12.045,5.403-12.045,12.045v48.271c0,6.642,5.403,12.045,12.045,12.045h48.271c6.642,0,12.045-5.403,12.045-12.045
				v-48.271c0-3.216-1.251-6.241-3.524-8.516C116.179,303.904,113.152,302.651,109.933,302.651L109.933,302.651z"/>
		</g>
		<g>
			<path fill="#2E4FA2" d="M238.655,373.012c-5.539,0-10.045-4.506-10.045-10.045v-48.271c0-5.539,4.506-10.045,10.045-10.045
				h48.273c5.539,0,10.045,4.506,10.045,10.045v48.271c0,5.539-4.507,10.045-10.047,10.045H238.655z"/>
			<path d="M286.929,306.651c4.449,0,8.045,3.604,8.045,8.045v48.271c0,4.447-3.598,8.045-8.047,8.045h-48.271
				c-4.447,0-8.045-3.598-8.045-8.045v-48.271c0-4.441,3.598-8.045,8.045-8.045H286.929 M286.929,302.651h-48.273
				c-6.642,0-12.045,5.403-12.045,12.045v48.271c0,6.642,5.403,12.045,12.045,12.045h48.271c6.643,0,12.047-5.403,12.047-12.045
				v-48.271C298.974,308.054,293.57,302.651,286.929,302.651L286.929,302.651z"/>
		</g>
		<g>
			<path fill="#BF2026" d="M150.159,373.012c-5.54,0-10.046-4.506-10.046-10.045v-48.271c0-5.539,4.506-10.045,10.046-10.045h48.271
				c5.539,0,10.045,4.506,10.045,10.045v48.271c0,5.539-4.506,10.045-10.045,10.045H150.159z"/>
			<path d="M198.431,306.651c4.449,0,8.045,3.604,8.045,8.045v48.271c0,4.447-3.598,8.045-8.045,8.045h-48.271
				c-4.449,0-8.046-3.598-8.046-8.045v-48.271c0-4.441,3.597-8.045,8.046-8.045H198.431 M198.431,302.651h-48.271
				c-6.642,0-12.046,5.403-12.046,12.045v48.271c0,6.642,5.404,12.045,12.046,12.045h48.271c6.642,0,12.045-5.403,12.045-12.045
				v-48.271C210.476,308.054,205.072,302.651,198.431,302.651L198.431,302.651z"/>
		</g>
	</g>
</g>
</svg>
