<?xml version="1.0" encoding="utf-8"?>
<!-- Generator: Adobe Illustrator 25.0.0, SVG Export Plug-In . SVG Version: 6.00 Build 0)  -->
<svg version="1.1" id="Layer_1" xmlns="http://www.w3.org/2000/svg" xmlns:xlink="http://www.w3.org/1999/xlink" x="0px" y="0px"
	 viewBox="0 0 2000 2000" style="enable-background:new 0 0 2000 2000;" xml:space="preserve">
<style type="text/css">
	.st0{display:none;}
	.st1{fill:#FFFFFF;}
	.st2{fill:#2E4FA2;}
</style>
<rect width="2000" height="2000"/>
<g>
	<g>
		<g>
			<path class="st1" d="M936.7,655c-46-24.8-99.7-38.1-152.4-36.8c-48.9,1.4-96.9,15.4-137.2,44.8c-59.5,43.6-95.5,114.2-95.5,188
				v315.5c0,39.8,7.7,137.6,144.3,137.6v-7.6c0-85,68.9-154,154-154c64.3,0,122.5-26,164.6-68.2c42.1-42.1,68.2-100.3,68.2-164.5
				C1082.6,805.3,1029.8,705,936.7,655z M849.9,1101.7c-89,0-164.2,60-187.3,141.6c-2.9-5.4-4.6-11.5-4.6-18V909.8
				c0-105.8,86.1-192,191.9-192c69,0,129.6,36.6,163.4,91.4c18.1,29.2,28.5,63.7,28.5,100.5
				C1041.8,1015.6,955.7,1101.7,849.9,1101.7z"/>
			<path class="st1" d="M845.7,795.9c-66.4,0-120.3,54-120.3,120.3v156.7c35.4-23.5,77.2-36.4,120.3-36.4
				c66.4,0,120.3-54,120.3-120.3c0-22.4-6.2-44.1-17.9-63C926,817.3,887.7,795.9,845.7,795.9z M774.1,865.3h75.1v11.9h-75.1V865.3z
				 M774.1,931.4h37.6v11.9h-37.6V931.4z M871,976.4h-96.9v-11.9H871V976.4z M917.4,976.4h-35.7v-11.9h35.7V976.4z M917.4,943.3
				h-92.9v-11.9h92.9V943.3z M917.4,910.3H774.1v-11.9h143.3V910.3z M917.4,877.2H861v-11.9h56.4V877.2z"/>
		</g>
		<path class="st1" d="M849.5,1259.6l15.5-64.9c-4.6-2.3-9.5-4-14.6-5.2c-5.1-1.3-9.9-2.2-14.6-2.8c-4.6-0.5-8.7-0.9-12.3-1.1
			c-3.6-0.1-6.1-0.2-7.5-0.2c-11,0-21.2,2.1-30.6,6.2c-9.4,4.1-17.5,9.8-24.5,17.1c-6.9,7.3-12.3,15.7-16.2,25.4
			c-3.9,9.8-5.8,20.1-5.8,31c0,7.2,0.8,13.9,2.4,20.2c1.6,6.2,4.2,11.8,7.8,16.5c3.6,4.7,8.2,8.4,13.9,11.2
			c5.6,2.8,12.4,4.2,20.4,4.2c6.7,0,12.7-1.2,18.1-3.6c5.4-2.4,10.3-5.4,14.8-9c0.8,2.2,1.6,4.2,2.4,5.9c0.8,1.8,1.7,3.6,2.6,5.5
			l31.7-4.6c-2.7-7.1-4.5-15.3-5.5-24.4C846.7,1277.8,847.3,1268.7,849.5,1259.6z M822.5,1224.5l-7.1,28.9c-0.8,3.6-1.5,7.7-2.3,12
			c-0.3,1.7-0.5,3.3-0.7,4.9c-0.9,6.2-4.5,12-10.3,14.9c-3,1.4-6.2,2.1-9.9,2.1c-6.8,0-11.5-2.3-14-6.7c-2.6-4.5-3.9-10.5-3.9-18.1
			c0-6.2,1-12.2,3-17.9c2-5.7,4.8-10.8,8.3-15.2c3.4-4.3,7.6-8.1,12.5-10.7c10.3-5.6,23.5-5.3,34.3-1.2c2.2,0.8,4.4,1.8,6.5,3
			C838.8,1220.4,830,1220,822.5,1224.5z"/>
		<path class="st1" d="M916.8,1280.3c-1-1.8-1.4-3.9-1.3-6.3c0.1-2.4,0.4-5,1.1-7.9l27.8-115.8l-37,5.7L882.5,1261
			c-1.7,7.5-2.7,14.5-2.7,21.1c-0.1,6.7,1.2,12.5,4,17.6c2.8,5.1,7.4,9.1,13.9,12c6.4,3,15.3,4.5,26.6,4.5l7.1-29.4
			c-4.2-0.4-7.4-1.1-9.7-2.1C919.4,1283.6,917.8,1282.1,916.8,1280.3z"/>
		<path class="st1" d="M1184.4,1188.3c-1.9,6.4-4.6,13.4-8.1,21.1c-3.4,7.7-7.3,15.4-11.4,23c-4.2,7.7-8.4,15-12.8,22
			c-4.4,7-8.3,12.8-11.8,17.7c-0.8-5.8-1.5-12.1-2.1-19.2c-0.7-7.1-1.2-14.4-1.7-21.9c-0.5-7.5-0.9-14.9-1.2-22.3
			c-0.3-7.4-0.6-14.2-0.7-20.4h-36.7c1.2,25.3,3.6,48.6,6.9,69.8c3.3,21.2,7.1,39.8,11.2,55.7h29.6c6.2-6.8,12.9-15.1,20.2-24.8
			s14.3-20.2,21.3-31.3c7-11.1,13.6-22.7,19.7-34.6c6.1-12,11.3-23.5,15.4-34.8H1184.4z"/>
		<path class="st1" d="M1310.1,1188.3c-0.2,0.7-0.5,1.4-0.8,2.1c-5.8,14-12.5,26.8-20.2,38.2c-1-5.8-1.8-12.2-2.7-19.3
			c-0.7-6.8-1.4-13.8-2-21h-35.6c1,7.9,2.1,15.5,3.3,22.7c3.4,19.7,7.2,37.5,11.4,53.5c-3.3,6.1-7.6,10.9-12.5,14.4
			c-5,3.6-10.3,5.4-15.9,5.4c-3.6,0-6.8-0.4-9.3-1.1c-2.6-0.7-5.4-1.7-8.6-3l-10.8,27.9c3.5,1.7,7.3,3.2,11.2,4.2
			c4,1,8.7,1.5,14.3,1.5c9.1,0,17.1-1.6,24-4.8c7-3.2,13.3-7.3,18.9-12.4c5.6-5.1,10.8-10.8,15.4-17.2c4.6-6.4,9-12.7,13.3-18.8
			c5.9-8.4,11.5-16.9,16.7-25.6c5.3-8.6,10.3-17.6,15.3-27.1c3.3-6.4,6.5-12.9,9.6-19.7H1310.1z"/>
		<path class="st1" d="M1435.7,1186.7c-4.9-0.7-9.3-1.1-13.3-1.1c-10.7,0-20.3,1-28.8,3c-8.5,2-16.2,4.1-23.1,6.3l-28.6,118.9h35.6
			l20.9-87.3c-7.1-0.2-12.7,1-12.7,1c4.7-6,11.8-9.6,19.1-11.3c7.6-1.8,14.9-1,22.5,0.1c0.9,0.1,10.6,2.4,10.6,2.5
			c3.5-9.5,7-19,10.4-28.6C1444.8,1188.6,1440.5,1187.4,1435.7,1186.7z"/>
		<path class="st1" d="M1062,1259.6l15.5-64.9c-4.6-2.3-9.5-4-14.6-5.2c-5.1-1.3-9.9-2.2-14.6-2.8c-4.6-0.5-8.7-0.9-12.3-1.1
			c-3.6-0.1-6.1-0.2-7.5-0.2c-11,0-21.2,2.1-30.6,6.2c-9.4,4.1-17.5,9.8-24.5,17.1c-6.9,7.3-12.3,15.7-16.2,25.4
			c-3.9,9.8-5.8,20.1-5.8,31c0,7.2,0.8,13.9,2.4,20.2c1.6,6.2,4.2,11.8,7.8,16.5c3.6,4.7,8.2,8.4,13.9,11.2
			c5.6,2.8,12.4,4.2,20.4,4.2c6.7,0,12.7-1.2,18.1-3.6c5.4-2.4,10.3-5.4,14.8-9c0.8,2.2,1.6,4.2,2.4,5.9c0.8,1.8,1.7,3.6,2.6,5.5
			l31.7-4.6c-2.7-7.1-4.5-15.3-5.5-24.4C1059.1,1277.8,1059.7,1268.7,1062,1259.6z M1034.9,1224.5l-7.1,28.9
			c-0.8,3.6-1.5,7.7-2.3,12c-0.3,1.7-0.5,3.3-0.7,4.9c-0.9,6.2-4.5,12-10.3,14.9c-3,1.4-6.2,2.1-9.9,2.1c-6.8,0-11.5-2.3-14-6.7
			c-2.6-4.5-3.9-10.5-3.9-18.1c0-6.2,1-12.2,3-17.9c2-5.7,4.8-10.8,8.3-15.2c3.4-4.3,7.6-8.1,12.5-10.7c10.3-5.6,23.5-5.3,34.3-1.2
			c2.2,0.8,4.4,1.8,6.5,3C1051.2,1220.4,1042.4,1220,1034.9,1224.5z"/>
	</g>
	<g>
		<g>
			<path class="st1" d="M560.2,1381.7c-1.4,0-2.8,0-4.2-0.1c-1.4-0.1-2.9-0.3-4.4-0.6v-25c1.2-0.2,2.5-0.4,3.9-0.5
				c1.4-0.1,2.7-0.2,3.9-0.2c1.6,0,3.2,0.1,4.5,0.4c1.4,0.2,2.6,0.6,3.6,1.2c1,0.6,1.8,1.3,2.3,2.3c0.6,0.9,0.8,2.1,0.8,3.4
				c0,2.1-1,3.7-3,4.9c1.6,0.6,2.8,1.5,3.4,2.5c0.6,1.1,0.9,2.3,0.9,3.6c0,2.7-1,4.7-3,6.1C567,1381,564.1,1381.7,560.2,1381.7z
				 M557.3,1365.7h2.8c1.8,0,3.1-0.2,3.8-0.7s1.2-1.2,1.2-2.2c0-1-0.4-1.8-1.2-2.2c-0.8-0.4-2-0.6-3.5-0.6c-0.5,0-1,0-1.6,0
				c-0.6,0-1.1,0-1.5,0.1V1365.7z M557.3,1370.1v6.7c0.4,0,0.9,0.1,1.4,0.1c0.5,0,1,0,1.6,0c1.7,0,3.1-0.2,4.2-0.7
				c1.1-0.5,1.6-1.4,1.6-2.8c0-1.2-0.4-2-1.3-2.6c-0.9-0.5-2.2-0.8-3.8-0.8H557.3z"/>
			<path class="st1" d="M594.9,1381.9c-1.8,0-3.4-0.3-4.7-0.8c-1.3-0.5-2.4-1.2-3.3-2.1c-0.9-0.9-1.5-2-1.9-3.2
				c-0.4-1.3-0.6-2.6-0.6-4.2v-16.1h5.8v15.6c0,1,0.1,1.9,0.4,2.7c0.2,0.7,0.6,1.3,1,1.8c0.4,0.5,0.9,0.8,1.5,1
				c0.6,0.2,1.2,0.3,1.9,0.3c1.4,0,2.6-0.4,3.4-1.3c0.9-0.9,1.3-2.4,1.3-4.4v-15.6h5.8v16.1c0,1.5-0.2,2.9-0.6,4.2s-1.1,2.4-1.9,3.3
				c-0.9,0.9-2,1.6-3.3,2.1C598.4,1381.7,596.8,1381.9,594.9,1381.9z"/>
			<path class="st1" d="M619.4,1355.6h5.8v25.8h-5.8V1355.6z"/>
			<path class="st1" d="M656.6,1376.4v5h-17.3v-25.8h5.8v20.8H656.6z"/>
			<path class="st1" d="M691.2,1368.4c0,2.2-0.3,4.2-1,5.9c-0.7,1.7-1.7,3-3,4.1c-1.3,1.1-2.8,1.9-4.7,2.5c-1.8,0.5-3.9,0.8-6.2,0.8
				c-1,0-2.3,0-3.7-0.1c-1.4-0.1-2.8-0.3-4.1-0.5v-25.2c1.3-0.2,2.7-0.4,4.2-0.5c1.5-0.1,2.7-0.1,3.7-0.1c2.2,0,4.2,0.2,6,0.7
				c1.8,0.5,3.4,1.3,4.6,2.3c1.3,1.1,2.3,2.4,3,4.1C690.8,1364.1,691.2,1366.1,691.2,1368.4z M674.3,1376.6c0.3,0,0.6,0,0.9,0.1
				c0.4,0,0.8,0,1.3,0c2.9,0,5.1-0.7,6.5-2.2c1.4-1.5,2.1-3.5,2.1-6.1c0-2.7-0.7-4.8-2-6.1s-3.5-2.1-6.4-2.1c-0.4,0-0.8,0-1.2,0
				s-0.8,0-1.2,0.1V1376.6z"/>
			<path class="st1" d="M721.3,1355.6h5.8v25.8h-5.8V1355.6z"/>
			<path class="st1" d="M758.6,1381.4c-1.7-3-3.5-5.9-5.4-8.8c-1.9-2.9-4-5.6-6.2-8.2v16.9h-5.7v-25.8h4.7c0.8,0.8,1.7,1.8,2.7,3
				c1,1.2,2,2.5,3,3.8c1,1.4,2.1,2.8,3.1,4.2c1,1.5,2,2.8,2.9,4.2v-15.2h5.8v25.8H758.6z"/>
			<path class="st1" d="M789.5,1381.9c-4.2,0-7.4-1.2-9.6-3.5c-2.2-2.3-3.3-5.7-3.3-10c0-2.1,0.3-4,1-5.7s1.6-3.1,2.8-4.2
				c1.2-1.2,2.6-2,4.2-2.6c1.6-0.6,3.4-0.9,5.3-0.9c1.1,0,2.1,0.1,3,0.2c0.9,0.2,1.7,0.3,2.4,0.6c0.7,0.2,1.2,0.4,1.7,0.7
				c0.4,0.2,0.8,0.4,1,0.5l-1.7,4.7c-0.8-0.4-1.7-0.8-2.8-1.1c-1.1-0.3-2.3-0.4-3.6-0.4c-0.9,0-1.8,0.1-2.6,0.4
				c-0.9,0.3-1.6,0.8-2.3,1.4c-0.7,0.7-1.2,1.5-1.6,2.6c-0.4,1-0.6,2.3-0.6,3.8c0,1.2,0.1,2.3,0.4,3.3c0.3,1,0.7,1.9,1.3,2.7
				c0.6,0.7,1.3,1.3,2.3,1.8c0.9,0.4,2.1,0.7,3.4,0.7c0.8,0,1.6,0,2.3-0.2c0.7-0.1,1.3-0.2,1.8-0.4c0.5-0.1,1-0.3,1.4-0.5
				c0.4-0.2,0.8-0.3,1.1-0.5l1.6,4.7c-0.8,0.5-2,0.9-3.5,1.3C793.2,1381.7,791.4,1381.9,789.5,1381.9z"/>
			<path class="st1" d="M817.6,1355.3c3.9,0,6.8,0.7,8.9,2.1c2.1,1.4,3.1,3.5,3.1,6.4c0,1.8-0.4,3.3-1.2,4.4c-0.8,1.1-2,2-3.6,2.7
				c0.5,0.6,1.1,1.4,1.6,2.2c0.6,0.8,1.1,1.7,1.7,2.6c0.6,0.9,1.1,1.9,1.6,2.8c0.5,1,1,1.9,1.5,2.9h-6.5c-0.5-0.8-1-1.7-1.4-2.6
				c-0.5-0.9-1-1.7-1.5-2.5c-0.5-0.8-1-1.6-1.5-2.3c-0.5-0.7-1-1.4-1.5-2h-2.9v9.4H810v-25.5c1.3-0.2,2.6-0.4,3.9-0.5
				C815.3,1355.3,816.5,1355.3,817.6,1355.3z M817.9,1360.2c-0.4,0-0.8,0-1.1,0c-0.3,0-0.6,0.1-0.9,0.1v7h1.6c2.2,0,3.7-0.3,4.7-0.8
				c0.9-0.5,1.4-1.5,1.4-2.8c0-1.3-0.5-2.2-1.4-2.7C821.2,1360.5,819.8,1360.2,817.9,1360.2z"/>
			<path class="st1" d="M843.1,1381.4v-25.8h17.4v4.9h-11.6v5.1h10.3v4.8h-10.3v6.2h12.5v4.9H843.1z"/>
			<path class="st1" d="M896.5,1368.4c0,2.2-0.3,4.2-1,5.9c-0.7,1.7-1.7,3-3,4.1c-1.3,1.1-2.8,1.9-4.7,2.5c-1.8,0.5-3.9,0.8-6.2,0.8
				c-1,0-2.3,0-3.7-0.1c-1.4-0.1-2.8-0.3-4.1-0.5v-25.2c1.3-0.2,2.7-0.4,4.2-0.5c1.5-0.1,2.7-0.1,3.7-0.1c2.2,0,4.2,0.2,6,0.7
				c1.8,0.5,3.4,1.3,4.6,2.3c1.3,1.1,2.3,2.4,3,4.1C896.1,1364.1,896.5,1366.1,896.5,1368.4z M879.7,1376.6c0.3,0,0.6,0,0.9,0.1
				c0.4,0,0.8,0,1.3,0c2.9,0,5.1-0.7,6.5-2.2c1.4-1.5,2.1-3.5,2.1-6.1c0-2.7-0.7-4.8-2-6.1c-1.3-1.4-3.5-2.1-6.4-2.1
				c-0.4,0-0.8,0-1.2,0s-0.8,0-1.2,0.1V1376.6z"/>
			<path class="st1" d="M909.5,1355.6h5.8v25.8h-5.8V1355.6z"/>
			<path class="st1" d="M938.1,1381.7c-1.4,0-2.8,0-4.2-0.1c-1.4-0.1-2.9-0.3-4.4-0.6v-25c1.2-0.2,2.5-0.4,3.9-0.5
				c1.4-0.1,2.7-0.2,3.9-0.2c1.6,0,3.2,0.1,4.5,0.4c1.4,0.2,2.6,0.6,3.6,1.2c1,0.6,1.8,1.3,2.3,2.3c0.6,0.9,0.8,2.1,0.8,3.4
				c0,2.1-1,3.7-3,4.9c1.6,0.6,2.8,1.5,3.4,2.5c0.6,1.1,0.9,2.3,0.9,3.6c0,2.7-1,4.7-3,6.1C945,1381,942,1381.7,938.1,1381.7z
				 M935.2,1365.7h2.8c1.8,0,3.1-0.2,3.8-0.7s1.2-1.2,1.2-2.2c0-1-0.4-1.8-1.2-2.2c-0.8-0.4-2-0.6-3.5-0.6c-0.5,0-1,0-1.6,0
				c-0.6,0-1.1,0-1.5,0.1V1365.7z M935.2,1370.1v6.7c0.4,0,0.9,0.1,1.4,0.1c0.5,0,1,0,1.6,0c1.7,0,3.1-0.2,4.2-0.7
				c1.1-0.5,1.6-1.4,1.6-2.8c0-1.2-0.4-2-1.3-2.6c-0.9-0.5-2.2-0.8-3.8-0.8H935.2z"/>
			<path class="st1" d="M980,1376.4v5h-17.3v-25.8h5.8v20.8H980z"/>
			<path class="st1" d="M991.9,1381.4v-25.8h17.4v4.9h-11.6v5.1h10.3v4.8h-10.3v6.2h12.5v4.9H991.9z"/>
			<path class="st1" d="M1051.6,1381.9c-4.2,0-7.4-1.2-9.6-3.5c-2.2-2.3-3.3-5.7-3.3-10c0-2.1,0.3-4,1-5.7c0.7-1.7,1.6-3.1,2.8-4.2
				c1.2-1.2,2.6-2,4.2-2.6c1.6-0.6,3.4-0.9,5.3-0.9c1.1,0,2.1,0.1,3,0.2c0.9,0.2,1.7,0.3,2.4,0.6c0.7,0.2,1.2,0.4,1.7,0.7
				c0.4,0.2,0.8,0.4,1,0.5l-1.7,4.7c-0.8-0.4-1.7-0.8-2.8-1.1c-1.1-0.3-2.3-0.4-3.6-0.4c-0.9,0-1.8,0.1-2.6,0.4
				c-0.9,0.3-1.6,0.8-2.3,1.4c-0.7,0.7-1.2,1.5-1.6,2.6c-0.4,1-0.6,2.3-0.6,3.8c0,1.2,0.1,2.3,0.4,3.3c0.3,1,0.7,1.9,1.3,2.7
				c0.6,0.7,1.3,1.3,2.3,1.8c0.9,0.4,2.1,0.7,3.4,0.7c0.8,0,1.6,0,2.3-0.2c0.7-0.1,1.3-0.2,1.8-0.4c0.5-0.1,1-0.3,1.4-0.5
				c0.4-0.2,0.8-0.3,1.1-0.5l1.6,4.7c-0.8,0.5-2,0.9-3.5,1.3C1055.3,1381.7,1053.6,1381.9,1051.6,1381.9z"/>
			<path class="st1" d="M1095.9,1368.4c0,2.2-0.3,4.2-1,5.8c-0.7,1.7-1.6,3.1-2.7,4.2c-1.1,1.1-2.5,2-4.1,2.6
				c-1.6,0.6-3.3,0.9-5.1,0.9c-1.8,0-3.4-0.3-5-0.9c-1.6-0.6-2.9-1.4-4.1-2.6c-1.2-1.1-2.1-2.5-2.8-4.2c-0.7-1.7-1-3.6-1-5.8
				c0-2.2,0.3-4.2,1-5.8c0.7-1.7,1.6-3.1,2.8-4.2s2.5-2,4.1-2.6c1.6-0.6,3.2-0.9,4.9-0.9c1.8,0,3.4,0.3,5,0.9
				c1.6,0.6,2.9,1.4,4.1,2.6c1.2,1.1,2.1,2.6,2.8,4.2C1095.5,1364.3,1095.9,1366.2,1095.9,1368.4z M1076.2,1368.4
				c0,1.3,0.2,2.4,0.5,3.4s0.8,1.9,1.3,2.6c0.6,0.7,1.3,1.3,2.1,1.7c0.8,0.4,1.8,0.6,2.9,0.6c1.1,0,2-0.2,2.9-0.6
				c0.9-0.4,1.6-1,2.2-1.7c0.6-0.7,1-1.6,1.3-2.6s0.5-2.2,0.5-3.4s-0.2-2.4-0.5-3.4c-0.3-1-0.8-1.9-1.3-2.6
				c-0.6-0.7-1.3-1.3-2.2-1.7c-0.9-0.4-1.8-0.6-2.9-0.6c-1.1,0-2.1,0.2-2.9,0.6c-0.8,0.4-1.6,1-2.1,1.7c-0.6,0.7-1,1.6-1.3,2.6
				C1076.3,1366.1,1076.2,1367.2,1076.2,1368.4z"/>
			<path class="st1" d="M1126.2,1381.4c-1.7-3-3.5-5.9-5.4-8.8c-1.9-2.9-4-5.6-6.2-8.2v16.9h-5.7v-25.8h4.7c0.8,0.8,1.7,1.8,2.7,3
				c1,1.2,2,2.5,3,3.8c1,1.4,2.1,2.8,3.1,4.2c1,1.5,2,2.8,2.9,4.2v-15.2h5.8v25.8H1126.2z"/>
			<path class="st1" d="M1153,1381.4c-1-2.2-2-4.4-3-6.8c-1-2.3-1.9-4.6-2.8-6.9c-0.9-2.3-1.7-4.5-2.5-6.6c-0.8-2.1-1.4-4-2-5.6h6.4
				c0.5,1.5,1,3.1,1.6,4.8c0.6,1.7,1.2,3.4,1.8,5.2c0.6,1.7,1.2,3.4,1.8,4.9c0.6,1.6,1.1,2.9,1.6,4.1c0.5-1.1,1-2.5,1.6-4.1
				c0.6-1.6,1.2-3.2,1.8-4.9c0.6-1.7,1.2-3.4,1.8-5.2c0.6-1.7,1.1-3.3,1.6-4.8h6.2c-0.6,1.7-1.2,3.5-2,5.6s-1.6,4.3-2.5,6.6
				c-0.9,2.3-1.8,4.6-2.8,6.9c-1,2.3-2,4.6-3,6.7H1153z"/>
			<path class="st1" d="M1180.4,1381.4v-25.8h17.4v4.9h-11.6v5.1h10.3v4.8h-10.3v6.2h12.5v4.9H1180.4z"/>
			<path class="st1" d="M1218.7,1355.3c3.9,0,6.8,0.7,8.9,2.1c2.1,1.4,3.1,3.5,3.1,6.4c0,1.8-0.4,3.3-1.2,4.4c-0.8,1.1-2,2-3.6,2.7
				c0.5,0.6,1.1,1.4,1.6,2.2c0.6,0.8,1.1,1.7,1.7,2.6c0.6,0.9,1.1,1.9,1.6,2.8c0.5,1,1,1.9,1.5,2.9h-6.5c-0.5-0.8-1-1.7-1.4-2.6
				c-0.5-0.9-1-1.7-1.5-2.5c-0.5-0.8-1-1.6-1.5-2.3c-0.5-0.7-1-1.4-1.5-2h-2.9v9.4h-5.8v-25.5c1.3-0.2,2.6-0.4,3.9-0.5
				C1216.5,1355.3,1217.7,1355.3,1218.7,1355.3z M1219.1,1360.2c-0.4,0-0.8,0-1.1,0c-0.3,0-0.6,0.1-0.9,0.1v7h1.6
				c2.2,0,3.7-0.3,4.7-0.8c0.9-0.5,1.4-1.5,1.4-2.8c0-1.3-0.5-2.2-1.4-2.7C1222.3,1360.5,1220.9,1360.2,1219.1,1360.2z"/>
			<path class="st1" d="M1251.3,1376.9c0.8,0,1.5-0.1,2-0.2c0.5-0.1,1-0.3,1.3-0.6c0.3-0.2,0.5-0.5,0.7-0.8c0.1-0.3,0.2-0.7,0.2-1.1
				c0-0.8-0.4-1.5-1.2-2.1c-0.8-0.6-2.2-1.2-4.1-1.8c-0.8-0.3-1.7-0.6-2.5-1c-0.8-0.4-1.6-0.9-2.3-1.5c-0.7-0.6-1.2-1.3-1.6-2.1
				c-0.4-0.8-0.6-1.8-0.6-3c0-1.2,0.2-2.3,0.7-3.2c0.4-1,1.1-1.8,1.9-2.4c0.8-0.7,1.8-1.2,3-1.5c1.2-0.4,2.5-0.5,4-0.5
				c1.7,0,3.2,0.2,4.5,0.6c1.3,0.4,2.3,0.8,3.1,1.2l-1.7,4.6c-0.7-0.4-1.5-0.7-2.4-1c-0.9-0.3-1.9-0.4-3.2-0.4c-1.4,0-2.4,0.2-3,0.6
				c-0.6,0.4-0.9,1-0.9,1.8c0,0.5,0.1,0.9,0.3,1.2c0.2,0.3,0.5,0.6,1,0.9c0.4,0.3,0.9,0.5,1.4,0.7c0.5,0.2,1.1,0.4,1.8,0.6
				c1.3,0.5,2.5,1,3.5,1.5c1,0.5,1.8,1.1,2.5,1.7c0.7,0.6,1.1,1.4,1.5,2.3c0.3,0.9,0.5,1.9,0.5,3.2c0,2.4-0.8,4.3-2.5,5.6
				c-1.7,1.3-4.2,2-7.6,2c-1.1,0-2.2-0.1-3.1-0.2c-0.9-0.1-1.7-0.3-2.4-0.5c-0.7-0.2-1.3-0.4-1.8-0.6c-0.5-0.2-0.9-0.4-1.3-0.6
				l1.6-4.6c0.8,0.4,1.7,0.8,2.9,1.1C1248.2,1376.8,1249.6,1376.9,1251.3,1376.9z"/>
			<path class="st1" d="M1291.4,1381.4c-0.3-0.9-0.6-1.8-0.9-2.8c-0.3-0.9-0.7-1.9-1-2.8h-10.1c-0.3,0.9-0.7,1.9-1,2.8
				c-0.3,0.9-0.6,1.9-0.9,2.8h-6c1-2.8,1.9-5.4,2.8-7.7c0.9-2.4,1.7-4.6,2.6-6.7c0.8-2.1,1.7-4.1,2.5-5.9c0.8-1.9,1.7-3.7,2.5-5.5
				h5.5c0.9,1.8,1.7,3.6,2.5,5.5c0.8,1.9,1.7,3.9,2.5,5.9c0.8,2.1,1.7,4.3,2.6,6.7c0.9,2.4,1.8,4.9,2.8,7.7H1291.4z M1284.5,1361.4
				c-0.1,0.4-0.3,0.9-0.6,1.5c-0.2,0.6-0.5,1.4-0.9,2.2c-0.3,0.8-0.7,1.8-1.1,2.8c-0.4,1-0.8,2.1-1.2,3.2h7.4
				c-0.4-1.1-0.8-2.2-1.1-3.2c-0.4-1-0.7-2-1.1-2.8c-0.3-0.8-0.6-1.6-0.9-2.2C1284.8,1362.3,1284.6,1361.8,1284.5,1361.4z"/>
			<path class="st1" d="M1325.3,1355.6v5h-7.8v20.9h-5.8v-20.9h-7.8v-5H1325.3z"/>
			<path class="st1" d="M1337.2,1355.6h5.8v25.8h-5.8V1355.6z"/>
			<path class="st1" d="M1381.8,1368.4c0,2.2-0.3,4.2-1,5.8c-0.7,1.7-1.6,3.1-2.7,4.2c-1.1,1.1-2.5,2-4.1,2.6
				c-1.6,0.6-3.3,0.9-5.1,0.9c-1.8,0-3.4-0.3-5-0.9c-1.6-0.6-2.9-1.4-4.1-2.6c-1.2-1.1-2.1-2.5-2.8-4.2c-0.7-1.7-1-3.6-1-5.8
				c0-2.2,0.3-4.2,1-5.8c0.7-1.7,1.6-3.1,2.8-4.2s2.5-2,4.1-2.6c1.6-0.6,3.2-0.9,4.9-0.9c1.8,0,3.4,0.3,5,0.9
				c1.6,0.6,2.9,1.4,4.1,2.6s2.1,2.6,2.8,4.2C1381.4,1364.3,1381.8,1366.2,1381.8,1368.4z M1362.1,1368.4c0,1.3,0.2,2.4,0.5,3.4
				c0.3,1,0.8,1.9,1.3,2.6c0.6,0.7,1.3,1.3,2.1,1.7c0.8,0.4,1.8,0.6,2.9,0.6c1.1,0,2-0.2,2.9-0.6c0.9-0.4,1.6-1,2.2-1.7
				c0.6-0.7,1-1.6,1.3-2.6c0.3-1,0.5-2.2,0.5-3.4s-0.2-2.4-0.5-3.4c-0.3-1-0.8-1.9-1.3-2.6c-0.6-0.7-1.3-1.3-2.2-1.7
				c-0.9-0.4-1.8-0.6-2.9-0.6c-1.1,0-2.1,0.2-2.9,0.6c-0.8,0.4-1.6,1-2.1,1.7c-0.6,0.7-1,1.6-1.3,2.6
				C1362.2,1366.1,1362.1,1367.2,1362.1,1368.4z"/>
			<path class="st1" d="M1412.1,1381.4c-1.7-3-3.5-5.9-5.4-8.8c-1.9-2.9-4-5.6-6.2-8.2v16.9h-5.7v-25.8h4.7c0.8,0.8,1.7,1.8,2.7,3
				c1,1.2,2,2.5,3,3.8c1,1.4,2.1,2.8,3.1,4.2c1,1.5,2,2.8,2.9,4.2v-15.2h5.8v25.8H1412.1z"/>
			<path class="st1" d="M1438.2,1376.9c0.8,0,1.5-0.1,2-0.2c0.5-0.1,1-0.3,1.3-0.6c0.3-0.2,0.5-0.5,0.7-0.8c0.1-0.3,0.2-0.7,0.2-1.1
				c0-0.8-0.4-1.5-1.2-2.1c-0.8-0.6-2.2-1.2-4.1-1.8c-0.8-0.3-1.7-0.6-2.5-1c-0.8-0.4-1.6-0.9-2.3-1.5c-0.7-0.6-1.2-1.3-1.6-2.1
				c-0.4-0.8-0.6-1.8-0.6-3c0-1.2,0.2-2.3,0.7-3.2c0.4-1,1.1-1.8,1.9-2.4c0.8-0.7,1.8-1.2,3-1.5c1.2-0.4,2.5-0.5,4-0.5
				c1.7,0,3.2,0.2,4.5,0.6c1.3,0.4,2.3,0.8,3.1,1.2l-1.7,4.6c-0.7-0.4-1.5-0.7-2.4-1c-0.9-0.3-1.9-0.4-3.2-0.4c-1.4,0-2.4,0.2-3,0.6
				c-0.6,0.4-0.9,1-0.9,1.8c0,0.5,0.1,0.9,0.3,1.2c0.2,0.3,0.5,0.6,1,0.9c0.4,0.3,0.9,0.5,1.4,0.7c0.5,0.2,1.1,0.4,1.8,0.6
				c1.3,0.5,2.5,1,3.5,1.5c1,0.5,1.8,1.1,2.5,1.7c0.7,0.6,1.1,1.4,1.5,2.3c0.3,0.9,0.5,1.9,0.5,3.2c0,2.4-0.8,4.3-2.5,5.6
				c-1.7,1.3-4.2,2-7.6,2c-1.1,0-2.2-0.1-3.1-0.2c-0.9-0.1-1.7-0.3-2.4-0.5c-0.7-0.2-1.3-0.4-1.8-0.6c-0.5-0.2-0.9-0.4-1.3-0.6
				l1.6-4.6c0.8,0.4,1.7,0.8,2.9,1.1C1435.2,1376.8,1436.6,1376.9,1438.2,1376.9z"/>
		</g>
	</g>
</g>
</svg>
